# File produced by Open Asset Import Library (http://www.assimp.sf.net)
# (assimp v3.2.202087883)

mtllib model_normalized.mtl

# 82 vertex positions
v 0.170061 -0.504766 -0.274939
v 0.201697 -0.504766 -0.311223
v 0.201697 -0.504766 -0.274939
v 0.170061 -0.504766 -0.311223
v 0.201697 -0.177721 -0.274939
v 0.170061 -0.177721 -0.311223
v 0.201697 -0.141129 -0.311223
v 0.170061 -0.177721 -0.274939
v 0.201697 -0.141129 0.052106
v 0.175240 -0.177721 0.052106
v -0.174677 -0.177721 0.092438
v -0.201964 -0.141129 -0.311223
v 0.201697 -0.177721 0.052106
v -0.168420 -0.177721 -0.274939
v -0.168420 -0.177721 -0.311223
v 0.140009 -0.141129 0.052106
v 0.201697 0.262617 0.092438
v 0.201697 -0.504766 0.052106
v 0.175240 -0.177721 0.092438
v -0.174677 -0.177721 0.052106
v -0.168420 -0.504766 -0.311223
v 0.140009 -0.141129 0.092438
v 0.140009 0.247614 0.052106
v 0.201697 0.262617 0.052106
v 0.175240 -0.504766 0.052106
v 0.175240 -0.504766 0.092438
v -0.174677 -0.504766 0.052106
v -0.201964 -0.177721 -0.274939
v -0.201964 -0.504766 -0.311223
v 0.035972 -0.141129 0.052106
v 0.170425 0.278756 0.052106
v 0.201697 -0.504766 0.092438
v -0.140275 -0.141129 0.092438
v -0.174677 -0.504766 0.092438
v -0.201964 -0.177721 0.052106
v -0.201964 -0.504766 -0.274939
v -0.168420 -0.504766 -0.274939
v -0.036240 -0.141129 0.052106
v 0.035972 -0.141129 0.092438
v 0.140009 0.247614 0.092438
v 0.106464 0.261115 0.052106
v 0.170425 0.278756 0.092438
v 0.071647 0.270877 0.052106
v -0.201964 0.262617 0.092438
v -0.201964 -0.504766 0.092438
v -0.201964 -0.504766 0.052106
v -0.201964 -0.141129 0.052106
v -0.036240 -0.141129 0.092438
v -0.036240 0.276780 0.052106
v 0.035972 0.276780 0.092438
v 0.106464 0.261115 0.092438
v 0.137874 0.292128 0.052106
v 0.071647 0.270877 0.092438
v 0.035972 0.276780 0.052106
v -0.140275 0.247614 0.092438
v -0.140275 -0.141129 0.052106
v 0.137874 0.292128 0.092438
v -0.138141 0.292128 0.052106
v -0.170693 0.278756 0.052106
v -0.201964 0.262617 0.052106
v -0.106732 0.261115 0.092438
v -0.036240 0.276780 0.092438
v 0.104288 0.302634 0.052106
v -0.170693 0.278756 0.092438
v -0.104554 0.302634 0.052106
v -0.140275 0.247614 0.052106
v -0.106732 0.261115 0.052106
v -0.071914 0.270877 0.092438
v -0.071914 0.270877 0.052106
v 0.104288 0.302634 0.092438
v -0.138141 0.292128 0.092438
v -0.104554 0.302634 0.092438
v 0.069919 0.310196 0.052106
v -0.070186 0.310196 0.052106
v -0.070186 0.310196 0.092438
v 0.069919 0.310196 0.092438
v 0.035024 0.314755 0.052106
v -0.035291 0.314755 0.052106
v -0.035291 0.314755 0.092438
v 0.035024 0.314755 0.092438
v -0.000134 0.316280 0.052106
v -0.000134 0.316280 0.092438

# 152 UV coordinates
vt -0.009501 0.035509 0
vt 0 0.024612 0
vt 0 0.035509 0
vt -0.009501 0.024612 0
vt -0.035509 0 0
vt -0.024612 0 0
vt -0.035509 0.098213 0
vt 0 0.098213 0
vt -0.009501 0 0
vt 0 0 0
vt 0.035509 0 0
vt 0.024612 0.098213 0
vt 0.024612 0 0
vt 0.009501 0.098213 0
vt 0.009501 0 0
vt -0.024612 0.109202 0
vt -0.009501 0.098213 0
vt 0.035509 0.098213 0
vt 0 0.109202 0
vt -0.133722 0.109202 0
vt -0.007945 0.133722 0
vt -0.113026 0.145833 0
vt 0.121221 0.109202 0
vt 0.121221 0.024612 0
vt -0 0.133722 0
vt -0.133722 0.098213 0
vt -0.111148 0.035509 0
vt 0.111148 0.098213 0
vt 0.018525 0.133722 0
vt -0.145833 0.230448 0
vt 0.007945 0.098213 0
vt -0.007945 0.145833 0
vt -0.113026 0.133722 0
vt -0.111148 0.024612 0
vt 0.111148 0 0
vt 0.018525 0.145833 0
vt 0.018525 0.225943 0
vt 0.018525 0.109202 0
vt -0.133722 0.230448 0
vt -0.133722 0 0
vt 0.007945 0 0
vt 0.133722 0.098213 0
vt 0.145833 0 0
vt 0.145833 0.098213 0
vt -0.007945 0.098213 0
vt -0.018525 0.109202 0
vt -0.113026 0.098213 0
vt -0.145833 0.098213 0
vt -0.121221 0.035509 0
vt -0.024612 0.098213 0
vt 0.121221 0 0
vt 0.049768 0.133722 0
vt 0.145833 0.109202 0
vt 0.133722 0.225943 0
vt 0.133722 0.109202 0
vt 0 0.230448 0
vt 0.106889 -0.122463 0
vt -0 -0.122463 0
vt -0.145833 0 0
vt 0.133722 0 0
vt -0.007945 0 0
vt -0.102696 0.109202 0
vt 0.113026 0 0
vt 0.121221 0.098213 0
vt 0.113026 0.098213 0
vt -0.121221 0.133722 0
vt -0.121221 0 0
vt -0.111148 0.098213 0
vt -0.121221 0.098213 0
vt -0.121221 0.024612 0
vt 0.024612 0.109202 0
vt 0.071453 0.133722 0
vt 0.049768 0.145833 0
vt 0.145833 0.225943 0
vt 0.028599 0.229997 0
vt 0.106889 0 0
vt 0.039055 0.232929 0
vt 0.009391 0.235295 0
vt 0 0.145833 0
vt -0.018525 0.225943 0
vt -0.121221 0.230448 0
vt -0.049768 0.109202 0
vt -0.113026 0 0
vt -0.121221 0.145833 0
vt -0.111148 0 0
vt 0.071453 0.145833 0
vt 0.071453 0.234702 0
vt 0.049768 0.109202 0
vt 0.071453 0.109202 0
vt -0.145833 0.234702 0
vt -0.145833 0.109202 0
vt 0.219704 0 0
vt 0.329556 -0.122463 0
vt 0.329556 0 0
vt 0.219704 -0.122463 0
vt 0.213777 -0.122463 0
vt -0.039055 0.232929 0
vt -0.009391 0.235295 0
vt 0.049768 0.234702 0
vt -0.028599 0.229997 0
vt -0.102696 0.225943 0
vt -0.071453 0.109202 0
vt 0.102696 0.133722 0
vt 0.133722 0.234702 0
vt -0.133722 0.234702 0
vt -0.049768 0.234702 0
vt 0.109852 -0 0
vt 0.109852 -0.122463 0
vt 0.213777 0 0
vt 0.102055 0.239311 0
vt 0.019166 0.239311 0
vt 0.11183 0.235295 0
vt 0.133722 0.230448 0
vt 0.145833 0.230448 0
vt -0.145833 0.225943 0
vt -0.092622 0.229997 0
vt 0.102696 0.145833 0
vt 0.121221 0.133722 0
vt 0.145833 0.234702 0
vt -0.071453 0.234702 0
vt 0.320666 -0.122463 0
vt -0.11183 0.235295 0
vt -0.019166 0.239311 0
vt 0.091969 0.242466 0
vt 0.534443 0 0
vt 0.641332 -0.122463 0
vt 0.641332 0 0
vt -0.133722 0.225943 0
vt -0.082167 0.232929 0
vt 0.121221 0.230448 0
vt 0.102696 0.109202 0
vt 0.082167 0.232929 0
vt 0.320666 0 0
vt 0.029252 0.242466 0
vt -0.102055 0.239311 0
vt 0.534443 -0.122463 0
vt 0.427555 0 0
vt 0.427555 -0.122463 0
vt 0.102696 0.225943 0
vt -0.029252 0.242466 0
vt 0.081648 0.244736 0
vt 0.092622 0.229997 0
vt 0.039574 0.244736 0
vt -0.091969 0.242466 0
vt -0.039574 0.244736 0
vt -0.081648 0.244736 0
vt 0.071169 0.246106 0
vt -0.050053 0.246106 0
vt 0.050053 0.246106 0
vt -0.071169 0.246106 0
vt 0.060611 0.246563 0
vt -0.060611 0.246563 0

# 50 vertex normals
vn 0 -0.0254 0
vn 0.0254 0 0
vn 0 0 0.0254
vn -0.0254 0 0
vn 0 0 -0.0254
vn 0 0.0254 0
vn 0.0106601 0.0230548 0
vn 0.0116483 0.0225716 0
vn -0.00818248 -0.0240459 0
vn -0.00948411 -0.0235629 0
vn 0.00862564 0.0238906 0
vn -0.0055099 -0.0247952 0
vn -0.00414688 -0.0250592 0
vn 0.00652646 0.0245472 0
vn -0.0106601 0.0230548 0
vn -0.0116483 0.0225716 0
vn 0.00948411 -0.0235629 0
vn 0.00818248 -0.0240459 0
vn 0.0055099 -0.0247952 0
vn 0.00414688 -0.0250592 0
vn -0.00862564 0.0238906 0
vn -0.00652646 0.0245472 0
vn 0.00437835 0.0250198 0
vn -0.00437835 0.0250198 0
vn 0.00219741 0.0253048 0
vn -0.00219741 0.0253048 0
vn 0.00109974 0.0253762 0
vn -0.00109974 0.0253762 0
vn -0.0116483 -0.0225716 0
vn -0.0106601 -0.0230548 0
vn 0.00948411 0.0235629 0
vn 0.00818248 0.0240459 0
vn -0.00862564 -0.0238906 0
vn 0.0055099 0.0247952 0
vn 0.00414688 0.0250592 0
vn -0.00652646 -0.0245472 0
vn 0.0116483 -0.0225716 -0
vn 0.0106601 -0.0230548 -0
vn -0.00818248 0.0240459 0
vn -0.00948411 0.0235629 0
vn -0.00414688 0.0250592 0
vn -0.0055099 0.0247952 0
vn 0.00862564 -0.0238906 -0
vn 0.00652646 -0.0245472 -0
vn -0.00437835 -0.0250198 0
vn 0.00437835 -0.0250198 -0
vn -0.00219741 -0.0253048 0
vn 0.00219741 -0.0253048 -0
vn -0.00109974 -0.0253762 0
vn 0.00109974 -0.0253762 -0

# Mesh 'mesh1_mesh1-geometry' with 168 faces
g mesh1_mesh1-geometry
usemtl material_0_1_8
f  1/1/1 2/2/1 3/3/1
f  2/2/1 1/1/1 4/4/1
f  3/5/2 2/6/2 5/7/2
f  5/8/3 1/9/3 3/10/3
f  1/11/4 6/12/4 4/13/4
f  6/14/5 2/10/5 4/15/5
f  7/16/2 5/7/2 2/6/2
f  1/9/3 5/8/3 8/17/3
f  6/12/4 1/11/4 8/18/4
f  2/10/5 6/14/5 7/19/5
f  5/7/2 7/16/2 9/20/2
f  5/3/1 10/21/1 8/1/1
f  8/1/1 11/22/1 6/4/1
f  7/19/5 6/14/5 12/23/5
f  12/24/6 9/25/6 7/2/6
f  5/7/2 9/20/2 13/26/2
f  10/21/1 5/3/1 13/25/1
f  10/21/1 11/22/1 8/1/1
f  6/4/1 11/22/1 14/27/1
f  15/28/5 12/23/5 6/14/5
f  9/25/6 12/24/6 16/29/6
f  9/20/2 17/30/2 13/26/2
f  18/10/5 10/31/5 13/8/5
f  11/22/1 10/21/1 19/32/1
f  14/27/1 11/22/1 20/33/1
f  15/34/1 6/4/1 14/27/1
f  21/35/5 12/23/5 15/28/5
f  16/29/6 12/24/6 22/36/6
f  23/37/5 9/19/5 16/38/5
f  17/30/2 9/20/2 24/39/2
f  13/26/2 17/30/2 18/40/2
f  10/31/5 18/10/5 25/41/5
f  10/42/4 26/43/4 19/44/4
f  19/45/3 22/46/3 11/47/3
f  11/48/2 27/40/2 20/26/2
f  14/27/1 20/33/1 28/49/1
f  14/7/2 21/6/2 15/50/2
f  12/23/5 21/35/5 29/51/5
f  22/36/6 12/24/6 30/52/6
f  22/53/4 23/54/4 16/55/4
f  9/19/5 23/37/5 24/56/5
f  31/57/7 17/10/8 24/58/8
f  18/40/2 17/30/2 32/59/2
f  18/25/1 26/32/1 25/21/1
f  26/43/4 10/42/4 25/60/4
f  26/61/3 17/56/3 19/45/3
f  19/45/3 17/56/3 22/46/3
f  33/62/3 11/47/3 22/46/3
f  27/40/2 11/48/2 34/59/2
f  27/63/5 35/64/5 20/65/5
f  28/49/1 20/33/1 35/66/1
f  36/67/3 14/68/3 28/69/3
f  21/6/2 14/7/2 37/5/2
f  21/34/1 36/49/1 29/70/1
f  36/11/4 12/71/4 29/13/4
f  30/52/6 12/24/6 38/72/6
f  39/73/6 22/36/6 30/52/6
f  23/54/4 22/53/4 40/74/4
f  24/56/5 23/37/5 41/75/5
f  17/10/8 31/57/7 42/76/7
f  24/56/5 43/77/5 31/78/5
f  17/56/3 26/61/3 32/10/3
f  26/32/1 18/25/1 32/79/1
f  22/46/3 17/56/3 40/80/3
f  44/81/3 11/47/3 33/62/3
f  33/62/3 22/46/3 39/82/3
f  11/47/3 45/67/3 34/83/3
f  45/84/1 27/33/1 34/22/1
f  35/64/5 27/63/5 46/51/5
f  47/55/4 28/18/4 35/42/4
f  14/68/3 36/67/3 37/85/3
f  12/71/4 36/11/4 28/18/4
f  36/49/1 21/34/1 37/27/1
f  38/72/6 12/24/6 48/86/6
f  49/87/5 30/88/5 38/89/5
f  30/20/2 50/90/2 39/91/2
f  51/92/9 23/93/10 40/94/10
f  23/93/10 51/92/9 41/95/9
f  24/56/5 41/75/5 43/77/5
f  52/96/11 42/76/7 31/57/7
f  53/97/3 17/56/3 42/98/3
f  31/78/5 43/77/5 54/99/5
f  40/80/3 17/56/3 51/100/3
f  45/67/3 11/47/3 44/81/3
f  44/81/3 33/62/3 55/101/3
f  33/62/3 39/82/3 48/102/3
f  27/33/1 45/84/1 46/66/1
f  45/43/4 35/42/4 46/60/4
f  12/71/4 28/18/4 47/55/4
f  35/42/4 45/43/4 47/55/4
f  48/86/6 12/24/6 56/103/6
f  48/53/4 49/104/4 38/55/4
f  30/88/5 49/87/5 54/99/5
f  50/90/2 30/20/2 54/105/2
f  50/106/3 48/102/3 39/82/3
f  53/107/12 41/95/9 51/92/9
f  41/95/9 53/107/12 43/108/12
f  42/76/7 52/96/11 57/109/11
f  31/78/5 58/110/5 52/111/5
f  51/100/3 17/56/3 53/97/3
f  53/97/3 42/98/3 50/106/3
f  43/108/12 50/10/13 54/58/13
f  31/78/5 54/99/5 59/112/5
f  60/113/4 45/43/4 44/114/4
f  56/20/2 55/115/2 33/91/2
f  44/81/3 55/101/3 61/116/3
f  33/117/6 48/86/6 56/103/6
f  56/103/6 12/24/6 47/118/6
f  47/55/4 45/43/4 60/113/4
f  49/104/4 48/53/4 62/119/4
f  49/87/5 59/112/5 54/99/5
f  48/102/3 50/106/3 62/120/3
f  50/10/13 43/108/12 53/107/12
f  63/121/14 57/109/11 52/96/11
f  64/122/3 42/98/3 57/123/3
f  31/78/5 59/112/5 58/110/5
f  52/111/5 58/110/5 65/124/5
f  50/106/3 42/98/3 62/120/3
f  64/125/15 60/126/16 44/127/16
f  55/115/2 56/20/2 66/128/2
f  55/10/17 67/108/18 61/107/18
f  44/81/3 61/116/3 68/129/3
f  60/130/5 56/131/5 47/23/5
f  68/92/19 49/93/20 62/94/20
f  69/132/5 59/112/5 49/87/5
f  57/109/11 63/121/14 70/133/14
f  52/111/5 65/124/5 63/134/5
f  64/122/3 62/120/3 42/98/3
f  64/122/3 57/123/3 71/135/3
f  59/136/15 71/137/21 58/138/21
f  58/138/21 72/133/22 65/121/22
f  60/126/16 64/125/15 59/136/15
f  44/81/3 68/129/3 64/122/3
f  56/131/5 60/130/5 66/139/5
f  67/108/18 55/10/17 66/58/17
f  69/95/19 61/107/18 67/108/18
f  61/107/18 69/95/19 68/92/19
f  49/93/20 68/92/19 69/95/19
f  64/122/3 68/129/3 62/120/3
f  69/132/5 60/130/5 59/112/5
f  73/138/23 70/133/14 63/121/14
f  71/135/3 57/123/3 70/140/3
f  63/134/5 65/124/5 74/141/5
f  71/137/21 59/136/15 64/125/15
f  72/133/22 58/138/21 71/137/21
f  75/109/24 65/121/22 72/133/22
f  66/139/5 60/130/5 67/142/5
f  67/142/5 60/130/5 69/132/5
f  70/133/14 73/138/23 76/137/23
f  63/134/5 74/141/5 73/143/5
f  71/135/3 70/140/3 72/144/3
f  65/121/22 75/109/24 74/96/24
f  72/144/3 76/145/3 75/146/3
f  77/136/25 76/137/23 73/138/23
f  72/144/3 70/140/3 76/145/3
f  73/143/5 74/141/5 78/147/5
f  79/76/26 74/96/24 75/109/24
f  75/146/3 76/145/3 80/148/3
f  76/137/23 77/136/25 80/125/25
f  73/143/5 78/147/5 77/149/5
f  74/96/24 79/76/26 78/57/26
f  75/146/3 80/148/3 79/150/3
f  81/126/27 80/125/25 77/136/25
f  77/149/5 78/147/5 81/151/5
f  82/10/28 78/57/26 79/76/26
f  79/150/3 80/148/3 82/152/3
f  80/125/25 81/126/27 82/127/27
f  78/57/26 82/10/28 81/58/28

# Mesh 'mesh1_mesh1-geometry' with 168 faces
g mesh1_mesh1-geometry
usemtl material_1_24
f  3//6 2//6 1//6
f  4//6 1//6 2//6
f  5//4 2//4 3//4
f  3//5 1//5 5//5
f  4//2 6//2 1//2
f  4//3 2//3 6//3
f  2//4 5//4 7//4
f  8//5 5//5 1//5
f  8//2 1//2 6//2
f  7//3 6//3 2//3
f  9//4 7//4 5//4
f  8//6 10//6 5//6
f  6//6 11//6 8//6
f  12//3 6//3 7//3
f  7//1 9//1 12//1
f  13//4 9//4 5//4
f  13//6 5//6 10//6
f  8//6 11//6 10//6
f  14//6 11//6 6//6
f  6//3 12//3 15//3
f  16//1 12//1 9//1
f  13//4 17//4 9//4
f  13//3 10//3 18//3
f  19//6 10//6 11//6
f  20//6 11//6 14//6
f  14//6 6//6 15//6
f  15//3 12//3 21//3
f  22//1 12//1 16//1
f  16//3 9//3 23//3
f  24//4 9//4 17//4
f  18//4 17//4 13//4
f  25//3 18//3 10//3
f  19//2 26//2 10//2
f  11//5 22//5 19//5
f  20//4 27//4 11//4
f  28//6 20//6 14//6
f  15//4 21//4 14//4
f  29//3 21//3 12//3
f  30//1 12//1 22//1
f  16//2 23//2 22//2
f  24//3 23//3 9//3
f  24//29 17//29 31//30
f  32//4 17//4 18//4
f  25//6 26//6 18//6
f  25//2 10//2 26//2
f  19//5 17//5 26//5
f  22//5 17//5 19//5
f  22//5 11//5 33//5
f  34//4 11//4 27//4
f  20//3 35//3 27//3
f  35//6 20//6 28//6
f  28//5 14//5 36//5
f  37//4 14//4 21//4
f  29//6 36//6 21//6
f  29//2 12//2 36//2
f  38//1 12//1 30//1
f  30//1 22//1 39//1
f  40//2 22//2 23//2
f  41//3 23//3 24//3
f  42//30 31//30 17//29
f  31//3 43//3 24//3
f  32//5 26//5 17//5
f  32//6 18//6 26//6
f  40//5 17//5 22//5
f  33//5 11//5 44//5
f  39//5 22//5 33//5
f  34//5 45//5 11//5
f  34//6 27//6 45//6
f  46//3 27//3 35//3
f  35//2 28//2 47//2
f  37//5 36//5 14//5
f  28//2 36//2 12//2
f  37//6 21//6 36//6
f  48//1 12//1 38//1
f  38//3 30//3 49//3
f  39//4 50//4 30//4
f  40//31 23//31 51//32
f  41//32 51//32 23//31
f  43//3 41//3 24//3
f  31//30 42//30 52//33
f  42//5 17//5 53//5
f  54//3 43//3 31//3
f  51//5 17//5 40//5
f  44//5 11//5 45//5
f  55//5 33//5 44//5
f  48//5 39//5 33//5
f  46//6 45//6 27//6
f  46//2 35//2 45//2
f  47//2 28//2 12//2
f  47//2 45//2 35//2
f  56//1 12//1 48//1
f  38//2 49//2 48//2
f  54//3 49//3 30//3
f  54//4 30//4 50//4
f  39//5 48//5 50//5
f  51//32 41//32 53//34
f  43//34 53//34 41//32
f  57//33 52//33 42//30
f  52//3 58//3 31//3
f  53//5 17//5 51//5
f  50//5 42//5 53//5
f  54//35 50//35 43//34
f  59//3 54//3 31//3
f  44//2 45//2 60//2
f  33//4 55//4 56//4
f  61//5 55//5 44//5
f  56//1 48//1 33//1
f  47//1 12//1 56//1
f  60//2 45//2 47//2
f  62//2 48//2 49//2
f  54//3 59//3 49//3
f  62//5 50//5 48//5
f  53//34 43//34 50//35
f  52//33 57//33 63//36
f  57//5 42//5 64//5
f  58//3 59//3 31//3
f  65//3 58//3 52//3
f  62//5 42//5 50//5
f  44//37 60//37 64//38
f  66//4 56//4 55//4
f  61//39 67//39 55//40
f  68//5 61//5 44//5
f  47//3 56//3 60//3
f  62//41 49//41 68//42
f  49//3 59//3 69//3
f  70//36 63//36 57//33
f  63//3 65//3 52//3
f  42//5 62//5 64//5
f  71//5 57//5 64//5
f  58//43 71//43 59//38
f  65//44 72//44 58//43
f  59//38 64//38 60//37
f  64//5 68//5 44//5
f  66//3 60//3 56//3
f  66//40 55//40 67//39
f  67//39 61//39 69//42
f  68//42 69//42 61//39
f  69//42 68//42 49//41
f  62//5 68//5 64//5
f  59//3 60//3 69//3
f  63//36 70//36 73//45
f  70//5 57//5 71//5
f  74//3 65//3 63//3
f  64//38 59//38 71//43
f  71//43 58//43 72//44
f  72//44 65//44 75//46
f  67//3 60//3 66//3
f  69//3 60//3 67//3
f  76//45 73//45 70//36
f  73//3 74//3 63//3
f  72//5 70//5 71//5
f  74//46 75//46 65//44
f  75//5 76//5 72//5
f  73//45 76//45 77//47
f  76//5 70//5 72//5
f  78//3 74//3 73//3
f  75//46 74//46 79//48
f  80//5 76//5 75//5
f  80//47 77//47 76//45
f  77//3 78//3 73//3
f  78//48 79//48 74//46
f  79//5 80//5 75//5
f  77//47 80//47 81//49
f  81//3 78//3 77//3
f  79//48 78//48 82//50
f  82//5 80//5 79//5
f  82//49 81//49 80//47
f  81//50 82//50 78//48

