# File produced by Open Asset Import Library (http://www.assimp.sf.net)
# (assimp v3.2.202087883)

mtllib model_normalized.mtl

# 97 vertex positions
v 0.165566 -0.103848 -0.307624
v 0.165566 -0.103848 -0.287942
v 0.185247 -0.103848 -0.307624
v 0.165566 -0.384306 -0.307624
v 0.185247 -0.384306 -0.307624
v 0.165566 -0.403987 -0.327305
v 0.165566 -0.403987 0.086002
v 0.165566 -0.084167 -0.327305
v 0.165566 -0.103848 0.086002
v 0.165566 -0.084167 0.086002
v 0.165566 -0.384306 0.086002
v -0.169015 -0.084167 0.086002
v -0.169015 -0.103848 0.086002
v 0.165566 -0.103848 0.105683
v 0.185247 -0.103848 0.105683
v -0.188697 -0.384306 0.105683
v -0.169015 -0.384306 0.086002
v 0.185247 -0.384306 0.105683
v -0.188697 -0.384306 -0.307624
v -0.169015 -0.384306 -0.307624
v -0.169015 -0.403987 0.086002
v 0.185247 -0.403987 0.105683
v -0.188697 -0.403987 0.105683
v 0.185247 -0.403987 -0.327305
v -0.188697 -0.403987 -0.327305
v -0.169015 -0.403987 -0.327305
v 0.185247 -0.084167 -0.327305
v -0.188697 -0.084167 0.105683
v 0.185247 -0.084167 0.105683
v -0.188697 -0.084167 -0.327305
v -0.169015 -0.084167 -0.327305
v -0.169015 -0.103848 -0.307624
v -0.169015 -0.103848 0.105683
v -0.188697 -0.103848 0.105683
v -0.188697 -0.103848 -0.307624
v 0.198336 -0.084167 -0.335916
v -0.201785 -0.084167 0.105683
v 0.198336 -0.084167 0.105683
v -0.201785 -0.084167 -0.335916
v -0.201785 -0.070289 -0.335916
v 0.198336 -0.070289 -0.335916
v -0.201785 -0.049724 0.105683
v -0.201785 -0.049724 -0.315351
v -0.201785 -0.049724 0.066048
v 0.198336 -0.049724 0.105683
v 0.198336 -0.049724 -0.315351
v 0.198336 -0.049724 0.066048
v -0.201785 -0.020532 0.102945
v -0.201785 -0.014742 0.062767
v -0.201785 0.014560 0.101172
v -0.201785 0.020350 0.060994
v -0.201785 0.049695 0.100909
v -0.201785 0.055484 0.060731
v -0.201785 0.084809 0.102158
v -0.201785 0.090599 0.061981
v -0.201785 0.119836 0.104917
v -0.201785 0.125626 0.064739
v -0.201785 0.154712 0.109178
v -0.201785 0.160503 0.069001
v -0.201785 0.189374 0.114937
v -0.201785 0.195163 0.074759
v -0.201785 0.223755 0.122180
v -0.201785 0.229544 0.082003
v -0.201785 0.257792 0.130897
v -0.201785 0.263582 0.090719
v -0.201785 0.291424 0.141068
v -0.201785 0.297214 0.100891
v -0.201785 0.324587 0.152677
v -0.201785 0.330377 0.112499
v -0.201785 0.357219 0.165702
v -0.201785 0.363009 0.125524
v 0.198336 -0.020532 0.102945
v 0.198336 -0.014742 0.062767
v 0.198336 0.014560 0.101172
v 0.198336 0.020350 0.060994
v 0.198336 0.049695 0.100909
v 0.198336 0.055484 0.060731
v 0.198336 0.084809 0.102158
v 0.198336 0.090599 0.061981
v 0.198336 0.119836 0.104917
v 0.198336 0.125626 0.064739
v 0.198336 0.154712 0.109178
v 0.198336 0.160503 0.069001
v 0.198336 0.189374 0.114937
v 0.198336 0.195163 0.074759
v 0.198336 0.223755 0.122180
v 0.198336 0.229544 0.082003
v 0.198336 0.257792 0.130897
v 0.198336 0.263582 0.090719
v 0.198336 0.291424 0.141068
v 0.198336 0.297214 0.100891
v 0.198336 0.324587 0.152677
v 0.198336 0.330377 0.112499
v 0.198336 0.357219 0.165702
v 0.198336 0.363009 0.125524
v 0.198336 0.284857 0.105683
v -0.201785 0.284857 0.105683

# 0 UV coordinates

# 134 vertex normals
vn 0.0254 0 0
vn 0 0 0.0254
vn 0 0.0254 0
vn 0 0 -0.0254
vn 0 -0.0254 0
vn -0.0254 0 0
vn -0.0146647 0.0146647 0.0146647
vn 0.0146647 0.0146647 -0.0146647
vn -0.0146647 0.0146647 -0.0146647
vn 0.0146647 0.0146647 0.0146647
vn -0.0146647 -0.0146647 -0.0146647
vn 0.0146647 -0.0146647 -0.0146647
vn -0.0146647 -0.0146647 0.0146647
vn 0.0146647 -0.0146647 0.0146647
vn 0.0160087 -0.00754656 0.018219
vn -0.0160087 -0.00754656 0.018219
vn -0.0160087 0.00754656 -0.018219
vn 0.0160087 0.00754656 -0.018219
vn 0.0179605 0 -0.0179605
vn 0.0160087 -0.018219 0.00754656
vn 0.0227185 -0.0113592 -0
vn -0.0227185 0.0113592 0
vn -0.0160087 0.018219 -0.00754656
vn -0.0179605 0 0.0179605
vn -0.0179605 0 -0.0179605
vn 0.0179605 -0 0.0179605
vn -0.0160087 -0.018219 0.00754656
vn -0.0227185 -0.0113592 0
vn 0.0227185 0.0113592 0
vn 0.0160087 0.018219 -0.00754656
vn -0.0180843 0.00128312 0.0177896
vn -0.018472 -0.00162797 -0.0173579
vn -0.0174013 0.00172777 0.018422
vn -0.0178383 -0.00130082 -0.018035
vn -0.0180843 0.000516792 0.0178284
vn -0.0178383 -0.000523919 -0.0180743
vn -0.0180843 -0.000250497 0.0178341
vn -0.0178383 0.000253952 -0.0180801
vn -0.0180843 -0.00101732 0.0178068
vn -0.0178383 0.00103135 -0.0180524
vn -0.0180843 -0.00178227 0.0177466
vn -0.0178383 0.00180685 -0.0179913
vn -0.0180843 -0.00254391 0.0176535
vn -0.0178383 0.00257899 -0.017897
vn -0.0180843 -0.00330084 0.0175278
vn -0.0178383 0.00334637 -0.0177695
vn -0.0180843 -0.00405167 0.0173696
vn -0.0178383 0.00410755 -0.0176091
vn -0.0180843 -0.004795 0.0171792
vn -0.0178383 0.00486113 -0.0174162
vn -0.0180843 -0.00552945 0.0169571
vn -0.0178383 0.00560572 -0.017191
vn -0.0180843 -0.00625367 0.0167036
vn -0.0178383 0.00633992 -0.016934
vn -0.0143743 0.0104773 0.0181319
vn -0.015007 0.0177435 -0.0102529
vn 0.015007 -0.0177435 0.0102529
vn 0.0143743 -0.0104773 -0.0181319
vn 0.0178383 -0.00633992 0.016934
vn 0.0180843 0.00625367 -0.0167036
vn 0.0178383 -0.00560572 0.017191
vn 0.0180843 0.00552945 -0.0169571
vn 0.0178383 -0.00486113 0.0174162
vn 0.0180843 0.004795 -0.0171792
vn 0.0178383 -0.00410755 0.0176091
vn 0.0180843 0.00405167 -0.0173696
vn 0.0178383 -0.00334637 0.0177695
vn 0.0180843 0.00330084 -0.0175278
vn 0.0178383 -0.00257899 0.017897
vn 0.0180843 0.00254391 -0.0176535
vn 0.0178383 -0.00180685 0.0179913
vn 0.0180843 0.00178227 -0.0177466
vn 0.0178383 -0.00103135 0.0180524
vn 0.0180843 0.00101732 -0.0178068
vn 0.0178383 -0.000253952 0.0180801
vn 0.0180843 0.000250497 -0.0178341
vn 0.0178383 0.000523919 0.0180743
vn 0.0180843 -0.000516792 -0.0178284
vn 0.0178383 0.00130082 0.018035
vn 0.0180843 -0.00128312 -0.0177896
vn 0.018472 0.00162797 0.0173579
vn 0.0174013 -0.00172777 -0.018422
vn 0.0174013 0.00172777 0.018422
vn 0.0180843 0.00128312 0.0177896
vn -0.0174013 -0.00172777 -0.018422
vn -0.0180843 -0.00128312 -0.0177896
vn 0.0178383 -0.00130082 -0.018035
vn 0.018472 -0.00162797 -0.0173579
vn 0.0180843 0.000516792 0.0178284
vn 0.0178383 -0.000523919 -0.0180743
vn 0.0180843 -0.000250497 0.0178341
vn 0.0178383 0.000253952 -0.0180801
vn 0.0180843 -0.00101732 0.0178068
vn 0.0178383 0.00103135 -0.0180524
vn 0.0180843 -0.00178227 0.0177466
vn 0.0178383 0.00180685 -0.0179913
vn 0.0180843 -0.00254391 0.0176535
vn 0.0178383 0.00257899 -0.017897
vn 0.0180843 -0.00330084 0.0175278
vn 0.0178383 0.00334637 -0.0177695
vn 0.0180843 -0.00405167 0.0173696
vn 0.0178383 0.00410755 -0.0176091
vn 0.0180843 -0.004795 0.0171792
vn 0.0178383 0.00486113 -0.0174162
vn 0.0180843 -0.00552945 0.0169571
vn 0.0178383 0.00560572 -0.017191
vn 0.0180843 -0.00625367 0.0167036
vn 0.0178383 0.00633992 -0.016934
vn 0.0143743 0.0104773 0.0181319
vn 0.015007 0.0177435 -0.0102529
vn -0.015007 -0.0177435 0.0102529
vn -0.0178383 -0.00633992 0.016934
vn -0.0143743 -0.0104773 -0.0181319
vn -0.0180843 0.00625367 -0.0167036
vn -0.0178383 -0.00560572 0.017191
vn -0.0180843 0.00552945 -0.0169571
vn -0.0178383 -0.00486113 0.0174162
vn -0.0180843 0.004795 -0.0171792
vn -0.0178383 -0.00410755 0.0176091
vn -0.0180843 0.00405167 -0.0173696
vn -0.0178383 -0.00334637 0.0177695
vn -0.0180843 0.00330084 -0.0175278
vn -0.0178383 -0.00257899 0.017897
vn -0.0180843 0.00254391 -0.0176535
vn -0.0178383 -0.00180685 0.0179913
vn -0.0180843 0.00178227 -0.0177466
vn -0.0178383 -0.00103135 0.0180524
vn -0.0180843 0.00101732 -0.0178068
vn -0.0178383 -0.000253952 0.0180801
vn -0.0180843 0.000250497 -0.0178341
vn -0.0178383 0.000523919 0.0180743
vn -0.0180843 -0.000516792 -0.0178284
vn -0.0178383 0.00130082 0.018035
vn -0.018472 0.00162797 0.0173579

# Mesh 'lowPolyChair_ID30' with 4 faces
g lowPolyChair_ID30
usemtl edge_color000255
l  1 2
l  1 3
l  4 1
l  5 4

# Mesh 'group_0_ID5' with 68 faces
g group_0_ID5
usemtl material
f  6//1 4//1 7//1
f  4//1 6//1 8//1
f  4//1 8//1 1//1
f  1//1 8//1 9//1
f  9//1 8//1 10//1
f  11//1 7//1 4//1
f  12//2 9//2 10//2
f  9//2 12//2 13//2
f  3//3 14//3 15//3
f  14//3 3//3 9//3
f  9//3 3//3 1//3
f  4//4 3//4 5//4
f  3//4 4//4 1//4
f  16//5 17//5 18//5
f  17//5 16//5 19//5
f  17//5 19//5 20//5
f  18//5 11//5 5//5
f  11//5 18//5 17//5
f  5//5 11//5 4//5
f  17//2 7//2 11//2
f  7//2 17//2 21//2
f  22//3 7//3 23//3
f  7//3 22//3 24//3
f  7//3 24//3 6//3
f  23//3 21//3 25//3
f  21//3 23//3 7//3
f  25//3 21//3 26//3
f  8//2 24//2 27//2
f  24//2 8//2 6//2
f  28//5 12//5 29//5
f  12//5 28//5 30//5
f  12//5 30//5 31//5
f  29//5 10//5 27//5
f  10//5 29//5 12//5
f  27//5 10//5 8//5
f  12//6 32//6 13//6
f  17//6 26//6 21//6
f  26//6 17//6 20//6
f  26//6 20//6 31//6
f  31//6 20//6 32//6
f  31//6 32//6 12//6
f  9//3 33//3 14//3
f  33//3 9//3 13//3
f  14//4 29//4 15//4
f  29//4 14//4 28//4
f  28//4 14//4 33//4
f  28//4 33//4 34//4
f  29//6 3//6 15//6
f  18//6 24//6 22//6
f  24//6 18//6 5//6
f  24//6 5//6 27//6
f  27//6 5//6 3//6
f  27//6 3//6 29//6
f  25//1 19//1 23//1
f  19//1 25//1 30//1
f  19//1 30//1 35//1
f  35//1 30//1 34//1
f  34//1 30//1 28//1
f  16//1 23//1 19//1
f  19//4 32//4 20//4
f  32//4 19//4 35//4
f  23//4 18//4 22//4
f  18//4 23//4 16//4
f  30//2 26//2 31//2
f  26//2 30//2 25//2
f  13//3 34//3 33//3
f  34//3 13//3 35//3
f  35//3 13//3 32//3

# Mesh 'group_0_ID5' with 68 faces
g group_0_ID5
usemtl material_0
f  4//6 7//6 11//6
f  10//6 8//6 9//6
f  9//6 8//6 1//6
f  1//6 8//6 4//6
f  8//6 6//6 4//6
f  7//6 4//6 6//6
f  13//4 12//4 9//4
f  10//4 9//4 12//4
f  1//5 3//5 9//5
f  9//5 3//5 14//5
f  15//5 14//5 3//5
f  1//2 4//2 3//2
f  5//2 3//2 4//2
f  4//3 11//3 5//3
f  17//3 18//3 11//3
f  5//3 11//3 18//3
f  20//3 19//3 17//3
f  19//3 16//3 17//3
f  18//3 17//3 16//3
f  21//4 17//4 7//4
f  11//4 7//4 17//4
f  26//5 21//5 25//5
f  7//5 23//5 21//5
f  25//5 21//5 23//5
f  6//5 24//5 7//5
f  24//5 22//5 7//5
f  23//5 7//5 22//5
f  6//4 8//4 24//4
f  27//4 24//4 8//4
f  8//3 10//3 27//3
f  12//3 29//3 10//3
f  27//3 10//3 29//3
f  31//3 30//3 12//3
f  30//3 28//3 12//3
f  29//3 12//3 28//3
f  12//1 32//1 31//1
f  32//1 20//1 31//1
f  31//1 20//1 26//1
f  20//1 17//1 26//1
f  21//1 26//1 17//1
f  13//1 32//1 12//1
f  13//5 9//5 33//5
f  14//5 33//5 9//5
f  34//2 33//2 28//2
f  33//2 14//2 28//2
f  28//2 14//2 29//2
f  15//2 29//2 14//2
f  29//1 3//1 27//1
f  3//1 5//1 27//1
f  27//1 5//1 24//1
f  5//1 18//1 24//1
f  22//1 24//1 18//1
f  15//1 3//1 29//1
f  19//6 23//6 16//6
f  28//6 30//6 34//6
f  34//6 30//6 35//6
f  35//6 30//6 19//6
f  30//6 25//6 19//6
f  23//6 19//6 25//6
f  35//2 19//2 32//2
f  20//2 32//2 19//2
f  16//2 23//2 18//2
f  22//2 18//2 23//2
f  25//4 30//4 26//4
f  31//4 26//4 30//4
f  32//5 13//5 35//5
f  35//5 13//5 34//5
f  33//5 34//5 13//5

# Mesh 'group_1_ID16' with 236 faces
g group_1_ID16
usemtl material_1
f  36//7 37//8 38//9
f  37//8 36//7 39//10
f  39//11 36//12 37//13
f  38//14 37//13 36//12
f  40//15 36//7 41//16
f  36//7 40//15 39//10
f  39//11 40//17 36//12
f  41//18 36//12 40//17
f  40//15 37//8 39//10
f  37//8 40//15 42//19
f  42//19 40//15 43//20
f  42//19 43//20 44//21
f  44//22 43//23 42//24
f  43//23 40//17 42//24
f  42//24 40//17 37//13
f  39//11 37//13 40//17
f  37//8 45//25 38//9
f  45//25 37//8 42//19
f  42//24 37//13 45//26
f  38//14 45//26 37//13
f  45//25 36//7 38//9
f  36//7 45//25 41//16
f  41//16 45//25 46//27
f  46//27 45//25 47//28
f  47//29 45//26 46//30
f  46//30 45//26 41//18
f  41//18 45//26 36//12
f  38//14 36//12 45//26
f  43//20 41//16 46//27
f  41//16 43//20 40//15
f  40//17 43//23 41//18
f  46//30 41//18 43//23
f  43//20 47//28 44//21
f  47//28 43//20 46//27
f  46//30 43//23 47//29
f  44//22 47//29 43//23
f  44//5 45//5 42//5
f  45//5 44//5 47//5
f  47//3 44//3 45//3
f  42//3 45//3 44//3
f  48//31 44//32 42//33
f  44//32 48//31 49//34
f  49//34 48//31 50//35
f  49//34 50//35 51//36
f  51//36 50//35 52//37
f  51//36 52//37 53//38
f  53//38 52//37 54//39
f  53//38 54//39 55//40
f  55//40 54//39 56//41
f  55//40 56//41 57//42
f  57//42 56//41 58//43
f  57//42 58//43 59//44
f  59//44 58//43 60//45
f  59//44 60//45 61//46
f  61//46 60//45 62//47
f  61//46 62//47 63//48
f  63//48 62//47 64//49
f  63//48 64//49 65//50
f  65//50 64//49 66//51
f  65//50 66//51 67//52
f  67//52 66//51 68//53
f  67//52 68//53 69//54
f  69//54 68//53 70//55
f  69//54 70//55 71//56
f  71//57 70//58 69//59
f  70//58 68//60 69//59
f  69//59 68//60 67//61
f  68//60 66//62 67//61
f  67//61 66//62 65//63
f  66//62 64//64 65//63
f  65//63 64//64 63//65
f  64//64 62//66 63//65
f  63//65 62//66 61//67
f  62//66 60//68 61//67
f  61//67 60//68 59//69
f  60//68 58//70 59//69
f  59//69 58//70 57//71
f  58//70 56//72 57//71
f  57//71 56//72 55//73
f  56//72 54//74 55//73
f  55//73 54//74 53//75
f  54//74 52//76 53//75
f  53//75 52//76 51//77
f  52//76 50//78 51//77
f  51//77 50//78 49//79
f  50//78 48//80 49//79
f  49//79 48//80 44//81
f  42//82 44//81 48//80
f  48//31 45//83 72//84
f  45//83 48//31 42//33
f  42//82 48//80 45//85
f  72//86 45//85 48//80
f  73//87 45//83 47//88
f  45//83 73//87 72//84
f  72//84 73//87 74//89
f  74//89 73//87 75//90
f  74//89 75//90 76//91
f  76//91 75//90 77//92
f  76//91 77//92 78//93
f  78//93 77//92 79//94
f  78//93 79//94 80//95
f  80//95 79//94 81//96
f  80//95 81//96 82//97
f  82//97 81//96 83//98
f  82//97 83//98 84//99
f  84//99 83//98 85//100
f  84//99 85//100 86//101
f  86//101 85//100 87//102
f  86//101 87//102 88//103
f  88//103 87//102 89//104
f  88//103 89//104 90//105
f  90//105 89//104 91//106
f  90//105 91//106 92//107
f  92//107 91//106 93//108
f  92//107 93//108 94//109
f  94//109 93//108 95//110
f  95//111 93//112 94//113
f  94//113 93//112 92//114
f  93//112 91//115 92//114
f  92//114 91//115 90//116
f  91//115 89//117 90//116
f  90//116 89//117 88//118
f  89//117 87//119 88//118
f  88//118 87//119 86//120
f  87//119 85//121 86//120
f  86//120 85//121 84//122
f  85//121 83//123 84//122
f  84//122 83//123 82//124
f  83//123 81//125 82//124
f  82//124 81//125 80//126
f  81//125 79//127 80//126
f  80//126 79//127 78//128
f  79//127 77//129 78//128
f  78//128 77//129 76//130
f  77//129 75//131 76//130
f  76//130 75//131 74//132
f  75//131 73//133 74//132
f  74//132 73//133 72//86
f  72//86 73//133 45//85
f  47//134 45//85 73//133
f  44//32 73//87 47//88
f  73//87 44//32 49//34
f  49//79 44//81 73//133
f  47//134 73//133 44//81
f  50//35 72//84 74//89
f  72//84 50//35 48//31
f  48//80 50//78 72//86
f  74//132 72//86 50//78
f  52//37 74//89 76//91
f  74//89 52//37 50//35
f  50//78 52//76 74//132
f  76//130 74//132 52//76
f  54//39 76//91 78//93
f  76//91 54//39 52//37
f  52//76 54//74 76//130
f  78//128 76//130 54//74
f  56//41 78//93 80//95
f  78//93 56//41 54//39
f  54//74 56//72 78//128
f  80//126 78//128 56//72
f  58//43 80//95 82//97
f  80//95 58//43 56//41
f  56//72 58//70 80//126
f  82//124 80//126 58//70
f  60//45 82//97 84//99
f  82//97 60//45 58//43
f  58//70 60//68 82//124
f  84//122 82//124 60//68
f  62//47 84//99 86//101
f  84//99 62//47 60//45
f  60//68 62//66 84//122
f  86//120 84//122 62//66
f  64//49 86//101 88//103
f  86//101 64//49 62//47
f  62//66 64//64 86//120
f  88//118 86//120 64//64
f  66//51 88//103 90//105
f  88//103 66//51 64//49
f  64//64 66//62 88//118
f  90//116 88//118 66//62
f  68//53 90//105 92//107
f  90//105 68//53 66//51
f  66//62 68//60 90//116
f  92//114 90//116 68//60
f  70//55 92//107 94//109
f  92//107 70//55 68//53
f  68//60 70//58 92//114
f  94//113 92//114 70//58
f  95//110 70//55 94//109
f  70//55 95//110 71//56
f  71//57 95//111 70//58
f  94//113 70//58 95//111
f  69//54 95//110 93//108
f  95//110 69//54 71//56
f  71//57 69//59 95//111
f  93//112 95//111 69//59
f  67//52 93//108 91//106
f  93//108 67//52 69//54
f  69//59 67//61 93//112
f  91//115 93//112 67//61
f  65//50 91//106 89//104
f  91//106 65//50 67//52
f  67//61 65//63 91//115
f  89//117 91//115 65//63
f  63//48 89//104 87//102
f  89//104 63//48 65//50
f  65//63 63//65 89//117
f  87//119 89//117 63//65
f  61//46 87//102 85//100
f  87//102 61//46 63//48
f  63//65 61//67 87//119
f  85//121 87//119 61//67
f  59//44 85//100 83//98
f  85//100 59//44 61//46
f  61//67 59//69 85//121
f  83//123 85//121 59//69
f  57//42 83//98 81//96
f  83//98 57//42 59//44
f  59//69 57//71 83//123
f  81//125 83//123 57//71
f  55//40 81//96 79//94
f  81//96 55//40 57//42
f  57//71 55//73 81//125
f  79//127 81//125 55//73
f  53//38 79//94 77//92
f  79//94 53//38 55//40
f  55//73 53//75 79//127
f  77//129 79//127 53//75
f  51//36 77//92 75//90
f  77//92 51//36 53//38
f  53//75 51//77 77//129
f  75//131 77//129 51//77
f  49//34 75//90 73//87
f  75//90 49//34 51//36
f  51//77 49//79 75//131
f  73//133 75//131 49//79

# Mesh 'group_1_ID24' with 1 faces
g group_1_ID24
usemtl edge_color000255
l  96 97

