# Blender v2.75 (sub 0) OBJ File: 'multisense_hokuyo.blend'
# www.blender.org
o Cylinder
v 0.061920 0.009525 0.000000
v 0.110180 0.009525 0.000000
v 0.061920 0.006735 -0.006735
v 0.110180 0.006735 -0.006735
v 0.061920 -0.000000 -0.009525
v 0.110180 -0.000000 -0.009525
v 0.061920 -0.006735 -0.006735
v 0.110180 -0.006735 -0.006735
v 0.061920 -0.009525 0.000000
v 0.110180 -0.009525 0.000000
v 0.061920 -0.006735 0.006735
v 0.110180 -0.006735 0.006735
v 0.061920 -0.000000 0.009525
v 0.110180 -0.000000 0.009525
v 0.061920 0.006735 0.006735
v 0.110180 0.006735 0.006735
v 0.110180 0.026859 0.001000
v 0.110180 -0.023750 0.001000
v 0.110180 -0.016794 0.016794
v 0.110180 -0.000000 0.023750
v 0.110180 0.016794 0.016794
v 0.128930 0.026859 0.001000
v 0.128930 -0.027351 0.002000
v 0.128930 -0.016794 0.016794
v 0.128930 -0.000000 0.023750
v 0.128930 0.016794 0.016794
v 0.110180 -0.033881 -0.042381
v 0.110180 -0.033881 0.001000
v 0.110180 0.033881 -0.042381
v 0.110180 0.033881 0.001000
v 0.191180 -0.033881 -0.042381
v 0.191180 -0.033881 0.001000
v 0.191180 0.033881 -0.042381
v 0.191180 0.033881 0.001000
v 0.128930 0.033881 0.001000
v 0.128930 -0.033881 0.001000
v 0.160218 0.026963 0.001000
v 0.160218 0.024592 0.028087
v 0.179284 0.019065 0.001000
v 0.177607 0.017389 0.028087
v 0.187181 -0.000000 0.001000
v 0.184810 -0.000000 0.028087
v 0.179284 -0.019066 0.001000
v 0.177607 -0.017389 0.028087
v 0.160218 -0.026963 0.001000
v 0.160218 -0.024592 0.028087
v 0.141153 -0.019066 0.001000
v 0.142829 -0.017389 0.028087
v 0.133255 -0.000000 0.001000
v 0.135626 -0.000000 0.028087
v 0.141153 0.019065 0.001000
v 0.142829 0.017389 0.028087
v 0.183033 0.022814 0.028087
v 0.160218 0.027962 0.028087
v 0.188180 -0.000000 0.028087
v 0.183033 -0.022815 0.028087
v 0.160218 -0.027962 0.028087
v 0.137404 -0.022815 0.028087
v 0.132257 -0.000000 0.028087
v 0.137404 0.022814 0.028087
v 0.183033 0.022814 0.047000
v 0.160218 0.027962 0.047000
v 0.188180 -0.000000 0.047000
v 0.183033 -0.022815 0.047000
v 0.160218 -0.027962 0.047000
v 0.137404 -0.022815 0.047000
v 0.132257 -0.000000 0.047000
v 0.137404 0.022814 0.047000
vt 1.000000 0.000000
vt 1.000000 1.000000
vt 0.000000 1.000000
vt 0.000000 0.000000
vt 0.500000 1.000000
vt 1.000000 0.500000
vt 0.500000 0.000000
vt 0.975528 0.654508
vt 0.206107 0.095492
vt 0.024472 0.654509
vt 0.146447 0.853553
vt 0.853553 0.853553
vt 0.853553 0.146447
vt 0.000000 0.500000
vt 0.146447 0.146447
vt 0.793893 0.095491
vn -0.000000 1.000000 0.000000
vn 0.000000 0.707100 -0.707100
vn 0.000000 0.000000 -1.000000
vn 0.000000 -0.707100 -0.707100
vn 0.000000 -1.000000 0.000000
vn -0.000000 -0.707100 0.707100
vn -0.000000 0.000000 1.000000
vn -0.000000 0.707100 0.707100
vn -1.000000 -0.000000 -0.000000
vn -0.000000 0.642700 0.766100
vn -0.090900 -0.867100 0.489800
vn -0.184100 -0.800100 0.570900
vn -0.052300 -0.658400 0.750900
vn -0.000000 0.843300 0.537400
vn -0.000000 -0.699200 0.714900
vn 1.000000 0.000000 0.000000
vn -0.041900 -0.032600 0.998600
vn 0.014400 -0.141000 0.989900
vn 0.023200 -0.073400 0.997000
vn 0.000000 0.627200 -0.778800
vn 0.443500 0.443500 -0.778800
vn 0.704400 0.704400 0.087200
vn 0.627200 0.000000 -0.778800
vn 0.996200 -0.000000 0.087200
vn 0.443500 -0.443500 -0.778800
vn 0.000000 -0.627200 -0.778800
vn -0.000000 -0.996200 0.087200
vn -0.443500 -0.443500 -0.778800
vn -0.704400 -0.704400 0.087200
vn -0.627200 0.000000 -0.778800
vn -0.443500 0.443500 -0.778800
vn -0.000000 0.996200 0.087200
vn -0.704400 0.704400 0.087200
vn -0.707100 0.707100 0.000000
vn -0.707100 -0.707100 0.000000
vn 0.707100 -0.707100 0.000000
vn 0.707100 0.707100 0.000000
vn 0.003900 0.000600 1.000000
vn 0.090800 0.016900 0.995700
vn 0.045800 0.052900 0.997600
vn 0.005000 -0.000300 1.000000
vn -0.053300 0.000000 0.998600
vn 0.704400 -0.704400 0.087200
vn -0.996200 0.000000 0.087200
s 1
f 2/1/1 4/2/2 3/3/2
f 4/1/2 6/2/3 5/3/3
f 5/4/3 6/1/3 8/2/4
f 8/1/4 10/2/5 9/3/5
f 10/1/5 12/2/6 11/3/6
f 12/1/6 14/2/7 13/3/7
f 16/1/8 2/2/1 1/3/1
f 14/1/7 16/2/8 15/3/8
f 1/5/9 5/6/9 9/7/9
f 20/1/7 25/2/7 26/3/10
f 12/1/9 19/2/9 20/3/9
f 16/4/9 14/1/9 20/2/9
f 12/4/9 10/1/9 18/2/9
f 2/4/9 16/1/9 21/2/9
f 18/1/11 23/2/12 24/3/13
f 21/1/10 26/2/10 22/3/14
f 19/1/15 24/2/13 25/3/7
f 22/5/16 26/8/16 24/9/16
f 29/10/1 35/8/1 33/9/1
f 32/1/16 31/2/16 33/3/16
f 31/10/5 36/8/5 27/9/5
f 29/1/3 33/2/3 31/3/3
f 35/1/7 30/2/7 17/3/7
f 28/1/17 36/2/18 23/3/19
f 8/4/9 18/1/9 10/2/9
f 27/4/9 28/1/9 18/2/9
f 6/4/9 29/1/9 27/2/9
f 4/4/9 29/1/9 6/2/9
f 2/4/9 17/1/9 4/2/9
f 17/4/9 30/1/9 29/2/9
f 6/4/9 27/1/9 8/2/9
f 38/1/20 40/2/21 39/3/22
f 40/1/21 42/2/23 41/3/24
f 41/4/24 42/1/23 44/2/25
f 44/1/25 46/2/26 45/3/27
f 46/1/26 48/2/28 47/3/29
f 47/4/29 48/1/28 50/2/30
f 52/4/31 50/1/30 59/2/3
f 52/1/31 38/2/20 37/3/32
f 50/1/30 52/2/31 51/3/33
f 60/1/34 68/2/34 62/3/1
f 40/1/21 53/2/3 55/3/3
f 48/4/28 46/1/26 57/2/3
f 52/1/31 60/2/3 54/3/3
f 40/4/21 38/1/20 54/2/3
f 44/4/25 42/1/23 55/2/3
f 48/1/28 58/2/3 59/3/3
f 44/1/25 56/2/3 57/3/3
f 63/11/7 62/12/7 67/13/7
f 58/1/35 66/2/35 67/3/9
f 56/1/36 64/2/36 65/3/5
f 53/1/37 61/2/37 63/3/16
f 59/1/9 67/2/9 68/3/34
f 57/1/5 65/2/5 66/3/35
f 55/1/16 63/2/16 64/3/36
f 54/1/1 62/2/1 61/3/37
f 51/4/7 37/1/7 22/2/38
f 22/4/38 23/1/19 49/2/39
f 49/4/39 23/1/19 47/2/40
f 36/4/18 45/1/41 23/2/19
f 36/4/18 32/1/7 45/2/41
f 45/4/41 47/1/40 23/2/19
f 41/4/7 32/1/7 34/2/7
f 34/4/7 35/1/7 37/2/7
f 51/4/7 22/1/38 49/2/39
f 37/4/7 35/1/7 22/2/38
f 41/4/7 43/1/7 32/2/7
f 39/4/7 41/1/7 34/2/7
f 39/4/7 34/1/7 37/2/7
f 32/4/7 43/1/7 45/2/41
f 1/4/1 2/1/1 3/3/2
f 3/4/2 4/1/2 5/3/3
f 7/3/4 5/4/3 8/2/4
f 7/4/4 8/1/4 9/3/5
f 9/4/5 10/1/5 11/3/6
f 11/4/6 12/1/6 13/3/7
f 15/4/8 16/1/8 1/3/1
f 13/4/7 14/1/7 15/3/8
f 13/14/9 15/11/9 1/5/9
f 9/7/9 11/15/9 13/14/9
f 5/6/9 7/13/9 9/7/9
f 1/5/9 3/12/9 5/6/9
f 9/7/9 13/14/9 1/5/9
f 21/4/10 20/1/7 26/3/10
f 14/4/9 12/1/9 20/3/9
f 21/3/9 16/4/9 20/2/9
f 19/3/9 12/4/9 18/2/9
f 17/3/9 2/4/9 21/2/9
f 19/4/15 18/1/11 24/3/13
f 17/4/14 21/1/10 22/3/14
f 20/4/7 19/1/15 25/3/7
f 24/9/16 23/10/16 22/5/16
f 26/8/16 25/16/16 24/9/16
f 35/8/1 29/10/1 30/5/1
f 35/8/1 34/16/1 33/9/1
f 34/4/16 32/1/16 33/3/16
f 36/8/5 31/10/5 32/5/5
f 36/8/5 28/16/5 27/9/5
f 27/4/3 29/1/3 31/3/3
f 22/4/38 35/1/7 17/3/7
f 18/4/42 28/1/17 23/3/19
f 8/3/9 27/4/9 18/2/9
f 4/3/9 17/4/9 29/2/9
f 37/4/32 38/1/20 39/3/22
f 39/4/22 40/1/21 41/3/24
f 43/3/43 41/4/24 44/2/25
f 43/4/43 44/1/25 45/3/27
f 45/4/27 46/1/26 47/3/29
f 49/3/44 47/4/29 50/2/30
f 60/3/3 52/4/31 59/2/3
f 51/4/33 52/1/31 37/3/32
f 49/4/44 50/1/30 51/3/33
f 54/4/1 60/1/34 62/3/1
f 42/4/23 40/1/21 55/3/3
f 58/3/3 48/4/28 57/2/3
f 38/4/20 52/1/31 54/3/3
f 53/3/3 40/4/21 54/2/3
f 56/3/3 44/4/25 55/2/3
f 50/4/30 48/1/28 59/3/3
f 46/4/26 44/1/25 57/3/3
f 62/12/7 63/11/7 61/5/7
f 63/11/7 65/15/7 64/14/7
f 65/15/7 67/13/7 66/7/7
f 67/13/7 62/12/7 68/6/7
f 67/13/7 65/15/7 63/11/7
f 59/4/9 58/1/35 67/3/9
f 57/4/5 56/1/36 65/3/5
f 55/4/16 53/1/37 63/3/16
f 60/4/34 59/1/9 68/3/34
f 58/4/35 57/1/5 66/3/35
f 56/4/36 55/1/16 64/3/36
f 53/4/37 54/1/1 61/3/37
