# Blender v2.75 (sub 0) OBJ File: 'neckj1.blend'
# www.blender.org
o Cylinder
v -0.026750 0.026000 -0.000002
v -0.026750 0.015307 -0.000002
v 0.001075 0.013807 0.043984
v -0.033783 -0.015939 0.026649
v -0.034413 0.013807 0.028027
v 0.001705 -0.015939 0.042606
v 0.018914 0.026000 0.018916
v 0.018914 0.015307 0.018916
v 0.026750 0.026000 0.000002
v 0.026750 0.015307 0.000002
v 0.018916 0.026000 -0.018914
v 0.018916 0.015307 -0.018914
v 0.000002 0.026000 -0.026750
v 0.000002 0.015307 -0.026750
v -0.018914 0.026000 -0.018916
v -0.018914 0.015307 -0.018916
v -0.036968 0.024000 0.037370
v -0.036968 0.013307 0.037370
v -0.004872 0.024000 0.052340
v -0.004872 0.013307 0.052340
v -0.036337 -0.016439 0.035992
v -0.004241 -0.016439 0.050962
v -0.009960 0.010501 0.049644
v -0.009572 -0.011754 0.048798
v -0.031249 -0.011754 0.038688
v -0.031637 0.010501 0.039534
v -0.036968 0.013307 0.037370
v -0.004872 0.013307 0.052340
v -0.036337 -0.016439 0.035992
v -0.004241 -0.016439 0.050962
v -0.047840 0.006861 0.102366
v -0.061239 0.006861 0.102524
v -0.061240 -0.008992 0.101594
v -0.047840 -0.008992 0.101436
v -0.043686 0.007573 0.097068
v -0.043299 -0.008280 0.096222
v -0.055546 -0.008280 0.090782
v -0.055933 0.007573 0.091628
v -0.027761 0.007831 0.106990
v -0.076013 0.007808 0.106990
v -0.076014 -0.008045 0.106990
v -0.027761 -0.008022 0.106990
v -0.027822 -0.007721 0.104010
v -0.027821 0.008132 0.104010
v -0.058660 -0.025130 0.104010
v -0.045260 -0.025130 0.104010
v -0.045200 -0.025431 0.106990
v -0.058599 -0.025431 0.106990
v -0.076074 0.008110 0.104010
v -0.076074 -0.007743 0.104010
v -0.045236 0.025519 0.104010
v -0.058635 0.025519 0.104010
v -0.058575 0.025217 0.106990
v -0.045175 0.025217 0.106990
v -0.001728 0.015307 0.025359
v -0.020493 0.015307 0.017202
v -0.041936 0.011790 0.000221
v 0.030057 0.011790 0.030047
v 0.042412 0.011790 0.000227
v 0.030062 0.011790 -0.029596
v 0.000241 0.011790 -0.041950
v -0.029581 0.011790 -0.029600
v -0.002487 0.011790 0.040204
v -0.032072 0.011790 0.027345
v -0.041936 -0.009658 0.000221
v 0.030057 -0.009658 0.030047
v 0.042412 -0.009658 0.000227
v 0.030062 -0.009658 -0.029596
v 0.000241 -0.009658 -0.041950
v -0.029581 -0.009658 -0.029600
v -0.002487 -0.009658 0.040204
v -0.032072 -0.009658 0.027345
v -0.026750 -0.020611 -0.000002
v 0.018914 -0.020611 0.018916
v 0.026750 -0.020611 0.000002
v 0.018916 -0.020611 -0.018914
v 0.000002 -0.020611 -0.026750
v -0.018914 -0.020611 -0.018916
v -0.001728 -0.020611 0.025359
v -0.020493 -0.020611 0.017202
v -0.026750 -0.050658 -0.000002
v 0.018914 -0.050658 0.018916
v 0.026750 -0.050658 0.000002
v 0.018916 -0.050658 -0.018914
v 0.000002 -0.050658 -0.026750
v -0.018914 -0.050658 -0.018916
v -0.001728 -0.050658 0.025359
v -0.020493 -0.050658 0.017202
v -0.011567 -0.065158 -0.000224
v 0.007772 -0.065158 0.007788
v 0.011091 -0.065158 -0.000223
v 0.007773 -0.065158 -0.008234
v -0.000237 -0.065158 -0.011552
v -0.008248 -0.065158 -0.008235
v -0.000970 -0.065158 0.010516
v -0.008917 -0.065158 0.007062
vt 0.000000 0.000000
vt 1.000000 0.000000
vt 1.000000 1.000000
vn -0.143900 0.000000 0.989600
vn -0.290000 0.725600 0.624000
vn -0.292100 0.722700 0.626400
vn -0.654100 0.708400 -0.265100
vn -0.651200 0.712700 -0.260600
vn 0.543200 0.696000 0.469600
vn 0.814800 -0.003200 0.579700
vn 0.875700 -0.000000 0.482800
vn 0.814800 -0.000000 0.579800
vn 0.874000 0.000000 0.485900
vn 1.000000 -0.000000 0.000100
vn 0.707200 -0.000000 -0.707100
vn 0.000100 -0.000000 -1.000000
vn -0.009800 0.999700 0.022400
vn -0.008800 0.999700 0.021300
vn -0.707100 0.000000 -0.707200
vn -0.946400 0.000000 -0.322900
vn -0.945800 0.000000 -0.324900
vn 0.559500 -0.749900 0.353000
vn -0.629700 -0.747300 -0.212200
vn -0.702300 -0.674400 -0.227800
vn 0.276800 -0.701000 -0.657200
vn 0.409600 0.050900 -0.910900
vn 0.311600 -0.691700 -0.651500
vn -0.012300 -0.207100 0.978200
vn -0.964600 -0.000000 -0.263700
vn -0.964600 -0.002700 -0.263900
vn -0.964500 -0.004200 -0.263900
vn 0.814900 -0.004900 0.579600
vn -0.424300 -0.056400 0.903700
vn -0.145400 -0.019000 0.989200
vn -0.142100 -0.019000 0.989700
vn -0.419700 -0.056400 0.905900
vn -0.148800 -0.020800 0.988600
vn 0.579700 -0.685700 0.440200
vn 0.435100 0.789000 0.433800
vn -0.433300 -0.077100 0.898000
vn -0.138600 -0.020800 0.990100
vn 0.000000 0.000000 1.000000
vn -0.737100 0.588200 -0.332700
vn -0.637700 -0.729100 -0.248600
vn -0.646300 -0.692100 -0.321500
vn 0.569200 -0.684900 0.454900
vn 0.594100 0.657300 0.463700
vn 0.436500 -0.852200 0.288600
vn -0.409500 -0.077100 0.909000
vn -0.728600 -0.541600 -0.419400
vn 0.056600 0.064400 -0.996300
vn 0.080100 0.027800 -0.996400
vn 0.110800 -0.024800 -0.993500
vn 0.930200 -0.362900 -0.055600
vn 0.913900 0.405400 0.022400
vn 0.932800 0.360000 0.017400
vn 0.384900 -0.917500 -0.100600
vn 0.376100 -0.921100 -0.100700
vn -0.368400 -0.925700 -0.086100
vn 0.079700 -0.080400 -0.993600
vn 0.054400 -0.148800 -0.987400
vn -0.050600 -0.159700 -0.985900
vn -0.096800 0.034000 -0.994700
vn -0.028600 0.087100 -0.995800
vn -0.079900 0.066100 -0.994600
vn 0.914100 -0.401100 -0.059100
vn -0.142700 -0.031300 -0.989300
vn 0.368400 0.925700 0.086100
vn -0.376100 0.921100 0.100700
vn -0.384900 0.917500 0.100600
vn 0.030200 0.083600 -0.996000
vn -0.119500 -0.093700 -0.988400
vn -0.932800 -0.360000 -0.017400
vn -0.913900 -0.405400 -0.022400
vn -0.930200 0.362900 0.055600
vn 0.394100 0.915200 0.084500
vn -0.914100 0.401100 0.059100
vn -0.394100 -0.915200 -0.084500
vn -0.712300 -0.214900 0.668100
vn -0.163300 0.974900 0.151600
vn -0.012300 0.973100 0.229900
vn -0.728400 0.000000 0.685100
vn -0.053700 0.000000 0.998600
vn 0.167200 0.969200 0.180800
vn -0.252200 0.967500 -0.015000
vn -0.225700 0.974200 -0.003600
vn -0.160500 0.973900 -0.160400
vn -0.160400 0.973900 -0.160500
vn -0.001300 0.974300 -0.225400
vn 0.000600 0.974300 -0.225400
vn 0.155900 0.975000 -0.158300
vn 0.157700 0.975000 -0.156500
vn 0.219100 0.975700 -0.001100
vn 0.219100 0.975700 0.000600
vn 0.148500 0.975900 0.159700
vn -0.031600 -0.805000 0.592400
vn -0.424700 -0.814600 0.395000
vn -0.418500 -0.814500 0.401900
vn 0.674500 0.000000 0.738300
vn -0.999800 0.000000 -0.022000
vn -0.032300 -0.805000 0.592300
vn 0.379200 -0.820500 0.427800
vn -0.585100 -0.810900 -0.009700
vn -0.585100 -0.810800 -0.018400
vn -0.415200 -0.809400 -0.415300
vn -0.415300 -0.809400 -0.415200
vn 0.001400 -0.811300 -0.584600
vn -0.002500 -0.811300 -0.584700
vn 0.410600 -0.815500 -0.407900
vn 0.406900 -0.815500 -0.411700
vn 0.573100 -0.819500 0.001300
vn 0.573100 -0.819500 -0.002300
vn 0.388500 -0.820800 0.418800
vn -0.037300 -0.715800 0.697300
vn -0.502000 -0.727700 0.467400
vn -0.495600 -0.727500 0.474500
vn 0.000000 -1.000000 0.000000
vn -0.037900 -0.715800 0.697300
vn 0.450800 -0.735100 0.506400
vn -0.690700 -0.723100 -0.011800
vn -0.690700 -0.722900 -0.020800
vn -0.489800 -0.721200 -0.489900
vn -0.489900 -0.721200 -0.489800
vn 0.001600 -0.723500 -0.690300
vn -0.002500 -0.723500 -0.690300
vn 0.485700 -0.728800 -0.482700
vn 0.481800 -0.728700 -0.486700
vn 0.679400 -0.733800 0.001400
vn 0.679400 -0.733700 -0.002300
vn 0.460600 -0.735400 0.497100
vn 0.000000 1.000000 0.000000
vn 0.626400 -0.665400 0.406000
s 1
f 20/1/1 19/2/2 17/3/3
f 26/1/4 38/2/5 35/3/6
f 3/1/7 7/2/8 19/3/9
f 7/1/8 8/2/10 10/3/11
f 10/1/11 12/2/12 11/3/12
f 12/1/12 14/2/13 13/3/13
f 1/1/14 19/2/2 7/3/15
f 16/1/16 2/2/17 1/3/18
f 14/1/13 16/2/16 15/3/16
f 22/1/19 21/2/20 4/3/21
f 3/1/22 6/2/23 4/3/23
f 3/1/22 5/2/24 55/3/25
f 17/1/26 5/2/27 18/3/28
f 3/1/7 20/2/29 22/3/19
f 18/1/28 5/2/27 4/3/21
f 25/1/30 29/2/31 30/3/32
f 24/1/33 30/2/32 28/3/34
f 36/1/35 35/2/6 31/3/36
f 23/1/37 28/2/34 27/3/38
f 20/1/1 18/2/1 27/3/38
f 18/1/1 21/2/39 29/3/31
f 21/1/39 22/2/39 30/3/32
f 22/1/39 20/2/1 28/3/34
f 38/1/5 32/2/40 31/3/36
f 26/1/4 25/2/41 37/3/42
f 25/1/41 24/2/43 36/3/35
f 23/1/44 35/2/6 36/3/35
f 37/1/42 36/2/35 34/3/45
f 25/1/30 26/2/46 27/3/38
f 37/1/42 33/2/47 32/3/40
f 39/1/39 53/2/39 40/3/39
f 31/1/48 44/2/49 43/3/50
f 43/1/51 44/2/52 39/3/53
f 46/1/54 47/2/55 48/3/56
f 34/1/57 46/2/58 45/3/59
f 49/1/60 52/2/61 32/3/62
f 42/1/63 47/2/55 46/3/54
f 50/1/64 49/2/60 32/3/62
f 51/1/65 52/2/66 53/3/67
f 52/1/61 51/2/68 31/3/48
f 45/1/59 50/2/64 33/3/69
f 50/1/70 41/2/71 40/3/72
f 44/1/52 51/2/65 54/3/73
f 53/1/67 52/2/66 49/3/74
f 43/1/50 46/2/58 34/3/57
f 44/1/49 31/2/48 51/3/68
f 41/1/71 50/2/70 45/3/75
f 56/1/76 64/2/77 63/3/78
f 64/1/79 72/2/79 71/3/80
f 8/1/81 55/2/25 63/3/78
f 56/1/76 2/2/82 57/3/83
f 2/1/82 16/2/84 62/3/85
f 14/1/86 61/2/87 62/3/85
f 12/1/88 60/2/89 61/3/87
f 10/1/90 59/2/91 60/3/89
f 8/1/81 58/2/92 59/3/91
f 71/1/93 72/2/94 80/3/95
f 63/1/80 71/2/80 66/3/96
f 57/1/97 65/2/97 72/3/79
f 57/1/97 62/2/16 70/3/16
f 61/1/13 69/2/13 70/3/16
f 60/1/12 68/2/12 69/3/13
f 59/1/11 67/2/11 68/3/12
f 58/1/96 66/2/96 67/3/11
f 80/1/79 88/2/79 87/3/80
f 71/1/93 79/2/98 74/3/99
f 65/1/100 73/2/101 80/3/95
f 70/1/102 78/2/103 73/3/101
f 70/1/102 69/2/104 77/3/105
f 69/1/104 68/2/106 76/3/107
f 68/1/106 67/2/108 75/3/109
f 67/1/108 66/2/110 74/3/99
f 87/1/111 88/2/112 96/3/113
f 79/1/80 87/2/80 82/3/96
f 73/1/97 81/2/97 88/3/79
f 73/1/97 78/2/16 86/3/16
f 77/1/13 85/2/13 86/3/16
f 76/1/12 84/2/12 85/3/13
f 75/1/11 83/2/11 84/3/12
f 74/1/96 82/2/96 83/3/11
f 94/1/114 95/2/114 89/3/114
f 87/1/111 95/2/115 90/3/116
f 81/1/117 89/2/118 96/3/113
f 86/1/119 94/2/120 89/3/118
f 86/1/119 85/2/121 93/3/122
f 85/1/121 84/2/123 92/3/124
f 84/1/123 83/2/125 91/3/126
f 83/1/125 82/2/127 90/3/116
f 18/1/1 20/2/1 17/3/3
f 23/1/44 26/2/4 35/3/6
f 7/1/8 3/2/7 8/3/10
f 3/1/7 19/2/9 20/3/29
f 9/1/11 7/2/8 10/3/11
f 9/1/11 10/2/11 11/3/12
f 11/1/12 12/2/12 13/3/13
f 13/1/128 15/2/128 1/3/14
f 1/1/14 11/2/128 13/3/128
f 11/1/128 7/2/15 9/3/128
f 1/1/14 17/2/3 19/3/2
f 7/1/15 11/2/128 1/3/14
f 15/1/16 16/2/16 1/3/18
f 13/1/13 14/2/13 15/3/16
f 6/1/129 22/2/19 4/3/21
f 5/1/24 3/2/22 4/3/23
f 5/1/24 2/2/82 56/3/76
f 55/1/25 8/2/81 3/3/22
f 5/1/24 56/2/76 55/3/25
f 5/1/27 17/2/26 1/3/18
f 1/1/18 2/2/17 5/3/27
f 6/1/129 3/2/7 22/3/19
f 21/1/20 18/2/28 4/3/21
f 24/1/33 25/2/30 30/3/32
f 23/1/37 24/2/33 28/3/34
f 34/1/45 36/2/35 31/3/36
f 26/1/46 23/2/37 27/3/38
f 28/1/34 20/2/1 27/3/38
f 27/1/38 18/2/1 29/3/31
f 29/1/31 21/2/39 30/3/32
f 30/1/32 22/2/39 28/3/34
f 35/1/6 38/2/5 31/3/36
f 38/1/5 26/2/4 37/3/42
f 37/1/42 25/2/41 36/3/35
f 24/1/43 23/2/44 36/3/35
f 33/1/47 37/2/42 34/3/45
f 29/1/31 25/2/30 27/3/38
f 38/1/5 37/2/42 32/3/40
f 40/1/39 42/2/39 39/3/39
f 41/1/39 48/2/39 47/3/39
f 42/1/39 40/2/39 41/3/39
f 39/1/39 54/2/39 53/3/39
f 41/1/39 47/2/39 42/3/39
f 34/1/57 31/2/48 43/3/50
f 42/1/63 43/2/51 39/3/53
f 45/1/75 46/2/54 48/3/56
f 33/1/69 34/2/57 45/3/59
f 43/1/51 42/2/63 46/3/54
f 33/1/69 50/2/64 32/3/62
f 54/1/73 51/2/65 53/3/67
f 32/1/62 52/2/61 31/3/48
f 49/1/74 50/2/70 40/3/72
f 39/1/53 44/2/52 54/3/73
f 40/1/72 53/2/67 49/3/74
f 48/1/56 41/2/71 45/3/75
f 55/1/25 56/2/76 63/3/78
f 63/1/80 64/2/79 71/3/80
f 58/1/92 8/2/81 63/3/78
f 64/1/77 56/2/76 57/3/83
f 57/1/83 2/2/82 62/3/85
f 16/1/84 14/2/86 62/3/85
f 14/1/86 12/2/88 61/3/87
f 12/1/88 10/2/90 60/3/89
f 10/1/90 8/2/81 59/3/91
f 79/1/98 71/2/93 80/3/95
f 58/1/96 63/2/80 66/3/96
f 64/1/79 57/2/97 72/3/79
f 65/1/97 57/2/97 70/3/16
f 62/1/16 61/2/13 70/3/16
f 61/1/13 60/2/12 69/3/13
f 60/1/12 59/2/11 68/3/12
f 59/1/11 58/2/96 67/3/11
f 79/1/80 80/2/79 87/3/80
f 66/1/110 71/2/93 74/3/99
f 72/1/94 65/2/100 80/3/95
f 65/1/100 70/2/102 73/3/101
f 78/1/103 70/2/102 77/3/105
f 77/1/105 69/2/104 76/3/107
f 76/1/107 68/2/106 75/3/109
f 75/1/109 67/2/108 74/3/99
f 95/1/115 87/2/111 96/3/113
f 74/1/96 79/2/80 82/3/96
f 80/1/79 73/2/97 88/3/79
f 81/1/97 73/2/97 86/3/16
f 78/1/16 77/2/13 86/3/16
f 77/1/13 76/2/12 85/3/13
f 76/1/12 75/2/11 84/3/12
f 75/1/11 74/2/96 83/3/11
f 95/1/114 92/2/114 91/3/114
f 95/1/114 94/2/114 93/3/114
f 95/1/114 96/2/114 89/3/114
f 91/1/114 90/2/114 95/3/114
f 95/1/114 93/2/114 92/3/114
f 82/1/127 87/2/111 90/3/116
f 88/1/112 81/2/117 96/3/113
f 81/1/117 86/2/119 89/3/118
f 94/1/120 86/2/119 93/3/122
f 93/1/122 85/2/121 92/3/124
f 92/1/124 84/2/123 91/3/126
f 91/1/126 83/2/125 90/3/116
