# Blender v2.75 (sub 0) OBJ File: 'neckj2.blend'
# www.blender.org
o Cylinder_Cylinder.049
v 0.000613 0.041960 0.090019
v 0.000613 0.041960 0.132808
v 0.030328 0.029651 0.090019
v 0.030328 0.029651 0.132808
v 0.042636 -0.000064 0.090019
v 0.042636 -0.000064 0.132808
v 0.030328 -0.029779 0.090019
v 0.030328 -0.029779 0.132808
v 0.000613 -0.042087 0.090019
v 0.000613 -0.042087 0.132808
v -0.029102 -0.029779 0.090019
v -0.041411 -0.000064 0.090019
v -0.029102 0.029651 0.090019
v 0.017435 0.016759 0.132808
v 0.000613 0.023727 0.132808
v 0.024404 -0.000064 0.132808
v 0.017435 -0.016886 0.132808
v 0.000613 -0.023854 0.132808
v -0.016210 -0.016886 0.132808
v -0.023178 -0.000064 0.132808
v -0.016210 0.016759 0.132808
v 0.017435 0.016759 0.167458
v 0.000613 0.023727 0.167458
v 0.024404 -0.000064 0.167458
v 0.017435 -0.016886 0.167458
v 0.000613 -0.023854 0.167458
v -0.016210 -0.016886 0.167458
v -0.023178 -0.000064 0.167458
v -0.016210 0.016759 0.167458
v 0.010645 0.009969 0.167458
v 0.000613 0.014124 0.167458
v 0.014801 -0.000064 0.167458
v 0.010645 -0.010096 0.167458
v 0.000613 -0.014252 0.167458
v -0.009420 -0.010096 0.167458
v -0.013575 -0.000064 0.167458
v -0.009420 0.009969 0.167458
v 0.008164 0.007487 0.181458
v 0.000613 0.010615 0.181458
v 0.011291 -0.000064 0.181458
v 0.008164 -0.007614 0.181458
v 0.000613 -0.010742 0.181458
v -0.006938 -0.007614 0.181458
v -0.010066 -0.000064 0.181458
v -0.006938 0.007487 0.181458
v -0.014245 -0.035933 0.132808
v -0.014245 0.035806 0.132808
v -0.007798 -0.020370 0.132808
v -0.007798 0.020243 0.132808
v -0.029102 -0.029779 0.126458
v -0.041411 -0.000064 0.126458
v -0.029102 0.029651 0.126458
v -0.014625 0.035648 0.126458
v -0.014447 -0.035849 0.126458
v -0.047442 -0.029170 0.126458
v -0.068247 0.026241 0.146289
v -0.047442 0.029170 0.126458
v -0.028241 0.033117 0.146458
v -0.068247 -0.026241 0.146289
v -0.027647 -0.032370 0.146458
v -0.027944 -0.012500 0.146458
v -0.068247 -0.012500 0.146289
v -0.059982 -0.012500 0.238382
v -0.059982 -0.019000 0.238382
v -0.030848 -0.012500 0.226314
v -0.030848 -0.019000 0.226314
v -0.018780 -0.012500 0.197180
v -0.018780 -0.019000 0.197180
v -0.030848 -0.012500 0.168045
v -0.030848 -0.019000 0.168045
v -0.089116 -0.012500 0.168045
v -0.089116 -0.019000 0.168045
v -0.101184 -0.012500 0.197180
v -0.101184 -0.019000 0.197180
v -0.089116 -0.012500 0.226314
v -0.089116 -0.019000 0.226314
vt 0.000000 0.000000
vt 1.000000 0.000000
vt 1.000000 1.000000
vn 0.707100 0.707100 -0.000000
vn 1.000000 -0.000000 0.000000
vn 0.707100 -0.707100 0.000000
vn -0.707100 0.707100 -0.000000
vn -0.335400 0.942100 -0.002500
vn 0.600200 0.114800 0.791600
vn 0.867800 0.034500 0.495700
vn 0.303900 0.031400 0.952200
vn 0.000000 -1.000000 0.000000
vn -0.382700 -0.923900 0.000000
vn 0.000000 1.000000 -0.000000
vn -0.382700 0.923900 -0.000000
vn 0.000000 -0.000000 -1.000000
vn -0.000000 0.000000 1.000000
vn -0.690000 -0.000000 -0.723800
vn -0.700700 -0.000000 -0.713500
vn -0.165400 -0.986200 0.006000
vn -0.223200 -0.974500 0.022200
vn -0.171700 -0.963500 0.205400
vn 0.301300 -0.031100 0.953000
vn -0.685900 0.685900 0.243200
vn -0.000000 0.970000 0.243200
vn -1.000000 0.000000 0.000000
vn -0.707100 -0.707100 0.000000
vn -0.970000 -0.000000 0.243200
vn -0.685900 -0.685900 0.243200
vn 0.000000 -0.970000 0.243200
vn 0.685900 -0.685900 0.243200
vn 0.970000 -0.000000 0.243200
vn 0.685900 0.685900 0.243200
vn -0.277900 0.960600 -0.007200
vn 0.471500 -0.142900 0.870200
vn -0.004200 -0.000000 1.000000
vn -0.186100 0.982400 -0.016200
vn -0.177400 0.983900 -0.023900
vn 0.861200 0.054800 0.505300
vn 0.744800 -0.101000 0.659600
vn 0.904300 0.078500 0.419600
vn 0.707100 0.000000 0.707100
vn 0.996100 0.003500 -0.088300
vn 0.991600 0.000000 -0.129100
vn -0.830000 0.000000 -0.557800
vn -0.837200 0.000000 -0.546900
vn -0.042600 -0.975800 0.214500
vn 0.000000 -0.995500 0.095000
vn -0.062900 -0.958200 0.279300
vn -0.707100 0.000000 0.707100
vn -0.704200 0.000000 -0.710000
vn -0.261100 -0.965300 -0.004400
vn -0.169200 0.985100 -0.032000
s 1
f 4/1/1 6/2/2 5/3/2
f 6/1/2 8/2/3 7/3/3
f 13/1/4 52/2/4 53/3/5
f 19/1/6 60/2/7 46/3/8
f 10/1/9 46/2/10 54/3/10
f 23/1/11 49/2/12 29/3/4
f 1/1/13 5/2/13 9/3/13
f 15/1/14 14/2/14 4/3/14
f 14/1/14 16/2/14 6/3/14
f 17/1/14 8/2/14 6/3/14
f 18/1/14 10/2/14 8/3/14
f 57/1/15 55/2/15 62/3/16
f 55/1/17 54/2/18 60/3/19
f 15/1/14 2/2/14 47/3/20
f 37/1/21 45/2/21 39/3/22
f 20/1/23 28/2/23 29/3/4
f 19/1/24 27/2/24 28/3/23
f 27/1/24 48/2/10 26/3/9
f 17/1/3 25/2/3 26/3/9
f 16/1/2 24/2/2 25/3/3
f 14/1/1 22/2/1 24/3/2
f 15/1/11 23/2/11 22/3/1
f 31/1/14 30/2/14 22/3/14
f 32/1/14 24/2/14 22/3/14
f 33/1/14 25/2/14 24/3/14
f 34/1/14 26/2/14 25/3/14
f 34/1/14 35/2/14 27/3/14
f 36/1/14 28/2/14 27/3/14
f 37/1/14 29/2/14 28/3/14
f 31/1/14 23/2/14 29/3/14
f 38/1/14 45/2/14 43/3/14
f 37/1/21 36/2/25 44/3/25
f 35/1/26 43/2/26 44/3/25
f 34/1/27 42/2/27 43/3/26
f 33/1/28 41/2/28 42/3/27
f 32/1/29 40/2/29 41/3/28
f 30/1/30 38/2/30 40/3/29
f 31/1/22 39/2/22 38/3/30
f 18/1/14 48/2/14 46/3/8
f 8/1/3 10/2/9 9/3/9
f 53/1/5 47/2/31 2/3/11
f 11/1/24 50/2/24 51/3/23
f 12/1/23 51/2/23 52/3/4
f 21/1/32 49/2/14 47/3/20
f 2/1/11 4/2/1 3/3/1
f 51/1/13 55/2/13 57/3/13
f 61/1/33 58/2/33 56/3/33
f 58/1/34 53/2/5 57/3/35
f 54/1/10 50/2/24 11/3/24
f 20/1/36 21/2/32 58/3/37
f 19/1/6 20/2/36 61/3/38
f 62/1/11 71/2/11 69/3/11
f 64/1/14 66/2/39 65/3/39
f 66/1/39 68/2/2 67/3/2
f 68/1/2 70/2/40 69/3/41
f 72/1/42 71/2/43 62/3/16
f 72/1/42 74/2/23 73/3/23
f 70/1/44 72/2/45 59/3/46
f 76/1/47 64/2/14 63/3/14
f 74/1/23 76/2/47 75/3/47
f 61/1/38 69/2/41 70/3/40
f 65/1/11 69/2/11 73/3/11
f 64/1/9 74/2/9 70/3/44
f 3/1/1 4/2/1 5/3/2
f 5/1/2 6/2/2 7/3/3
f 1/1/11 13/2/4 53/3/5
f 48/1/14 19/2/6 46/3/8
f 9/1/9 10/2/9 54/3/10
f 49/1/12 23/2/11 15/3/11
f 49/1/12 21/2/4 29/3/4
f 12/1/13 13/2/13 1/3/13
f 1/1/13 11/2/13 12/3/13
f 5/1/13 7/2/13 9/3/13
f 1/1/13 3/2/13 5/3/13
f 9/1/13 11/2/13 1/3/13
f 2/1/14 15/2/14 4/3/14
f 4/1/14 14/2/14 6/3/14
f 16/1/14 17/2/14 6/3/14
f 17/1/14 18/2/14 8/3/14
f 62/1/16 56/2/15 57/3/15
f 55/1/15 59/2/48 62/3/16
f 46/1/49 60/2/19 54/3/18
f 55/1/17 60/2/19 59/3/46
f 49/1/14 15/2/14 47/3/20
f 31/1/22 37/2/21 39/3/22
f 21/1/4 20/2/23 29/3/4
f 20/1/23 19/2/24 28/3/23
f 48/1/10 27/2/24 19/3/24
f 48/1/10 18/2/9 26/3/9
f 18/1/9 17/2/3 26/3/9
f 17/1/3 16/2/2 25/3/3
f 16/1/2 14/2/1 24/3/2
f 14/1/1 15/2/11 22/3/1
f 23/1/14 31/2/14 22/3/14
f 30/1/14 32/2/14 22/3/14
f 32/1/14 33/2/14 24/3/14
f 33/1/14 34/2/14 25/3/14
f 26/1/14 34/2/14 27/3/14
f 35/1/14 36/2/14 27/3/14
f 36/1/14 37/2/14 28/3/14
f 37/1/14 31/2/14 29/3/14
f 43/1/14 40/2/14 38/3/14
f 43/1/14 42/2/14 41/3/14
f 45/1/14 44/2/14 43/3/14
f 38/1/14 39/2/14 45/3/14
f 43/1/14 41/2/14 40/3/14
f 45/1/21 37/2/21 44/3/25
f 36/1/25 35/2/26 44/3/25
f 35/1/26 34/2/27 43/3/26
f 34/1/27 33/2/28 42/3/27
f 33/1/28 32/2/29 41/3/28
f 32/1/29 30/2/30 40/3/29
f 30/1/30 31/2/22 38/3/30
f 10/1/14 18/2/14 46/3/8
f 7/1/3 8/2/3 9/3/9
f 1/1/11 53/2/5 2/3/11
f 12/1/23 11/2/24 51/3/23
f 13/1/4 12/2/23 52/3/4
f 58/1/37 21/2/32 47/3/20
f 1/1/11 2/2/11 3/3/1
f 50/1/13 54/2/13 55/3/13
f 57/1/13 53/2/13 52/3/13
f 51/1/13 50/2/13 55/3/13
f 57/1/13 52/2/13 51/3/13
f 62/1/33 61/2/33 56/3/33
f 53/1/5 58/2/34 47/3/31
f 58/1/34 57/2/35 56/3/50
f 9/1/9 54/2/10 11/3/24
f 61/1/38 20/2/36 58/3/37
f 60/1/7 19/2/6 61/3/38
f 61/1/11 62/2/11 69/3/11
f 63/1/14 64/2/14 65/3/39
f 65/1/39 66/2/39 67/3/2
f 67/1/2 68/2/2 69/3/41
f 59/1/48 72/2/42 62/3/16
f 71/1/43 72/2/42 73/3/23
f 60/1/19 70/2/44 59/3/46
f 75/1/47 76/2/47 63/3/14
f 73/1/23 74/2/23 75/3/47
f 60/1/7 61/2/38 70/3/40
f 65/1/11 75/2/11 63/3/11
f 69/1/11 71/2/11 73/3/11
f 65/1/11 67/2/11 69/3/11
f 73/1/11 75/2/11 65/3/11
f 70/1/44 68/2/9 66/3/9
f 74/1/9 72/2/45 70/3/44
f 64/1/9 76/2/9 74/3/9
f 70/1/44 66/2/9 64/3/9
