# Blender v2.75 (sub 0) OBJ File: 'indexj3_Left.blend'
# www.blender.org
o Cube_Cube.001
v 0.006481 0.006497 0.002837
v 0.004219 0.017908 0.001668
v 0.004155 0.017919 -0.002067
v 0.006445 0.006650 -0.003268
v 0.002459 0.021062 -0.001422
v -0.000751 0.022065 -0.005246
v 0.001301 0.017468 -0.006245
v -0.002799 0.020246 -0.004936
v -0.004648 0.005242 -0.006831
v -0.003293 0.005242 -0.008083
v -0.001824 0.021100 -0.005640
v 0.003014 0.005823 -0.008097
v -0.000753 0.022065 0.005210
v -0.001865 0.021223 0.005449
v 0.004391 0.004522 -0.006024
v 0.003014 0.005823 0.008097
v 0.004576 0.004517 0.005692
v -0.004648 0.005242 0.006831
v -0.003293 0.005242 0.008083
v 0.002459 0.021062 0.001386
v -0.002799 0.020247 0.004899
v 0.001226 0.017625 0.006190
vn -0.922300 -0.188500 -0.337400
vn -0.899800 -0.345200 -0.266700
vn -0.890200 -0.350500 0.291000
vn -0.915300 -0.185800 0.357400
vn -0.658700 -0.730200 0.180900
vn -0.621800 -0.695400 0.360300
vn -0.762600 -0.334400 0.553700
vn 0.867900 -0.393600 0.302800
vn 0.898200 -0.162200 0.408700
vn 0.669900 -0.173500 0.721900
vn 0.763600 -0.515800 0.388400
vn -0.802200 -0.134700 0.581700
vn 0.504600 -0.689200 0.520000
vn 0.491400 -0.671300 -0.554900
vn 0.331500 -0.510000 -0.793700
vn 0.293800 -0.480900 0.826100
vn 0.394800 0.918800 0.000700
vn 0.161900 0.986800 -0.001500
vn 0.152400 0.988300 -0.001400
vn 0.407300 0.913300 0.000500
vn -0.000000 1.000000 0.000000
vn -0.060200 0.998200 0.000000
vn -0.661900 -0.726900 -0.182900
vn -0.632700 -0.687600 -0.356200
vn 0.864700 -0.385100 -0.322400
vn 0.893100 -0.165200 -0.418500
vn 0.759200 -0.552500 -0.344000
vn -0.818100 0.047500 0.573100
vn -0.719700 0.694100 0.015100
vn -0.777700 -0.329500 -0.535400
vn 0.654400 -0.177500 -0.735000
vn -0.817900 -0.152700 -0.554700
vn -0.835600 0.012300 -0.549200
vn 0.024500 -0.164300 -0.986100
vn 0.008000 -0.159900 0.987100
s 1
f 1//1 2//2 3//3 4//4
f 5//5 6//6 7//7 3//3
f 8//8 9//9 10//10 11//11
f 12//12 4//4 3//3 7//7
f 6//13 13//14 14//15 11//16
f 15//17 12//18 16//19 17//20
f 18//21 19//22 10//22 9//21
f 5//5 20//23 13//24 6//6
f 21//25 18//26 9//9 8//8
f 11//11 14//27 21//25 8//8
f 3//3 2//2 20//23 5//5
f 12//18 10//22 19//22 16//19
f 4//4 12//12 15//28
f 17//20 1//29 4//29 15//17
f 20//23 2//2 22//30 13//24
f 21//25 14//27 19//31 18//26
f 2//2 1//1 16//32 22//30
f 1//1 17//33 16//32
f 13//14 22//34 16//34 19//34 14//15
f 6//13 11//16 10//35 12//35 7//35
