# Blender v2.75 (sub 0) OBJ File: 'middlej2_Right.blend'
# www.blender.org
o Cylinder.001
v 0.001522 -0.019600 0.010260
v 0.003067 -0.022963 0.010053
v 0.005135 -0.022795 0.006728
v 0.001912 -0.025289 0.009910
v 0.003621 -0.026450 0.006728
v 0.000062 -0.025936 0.009870
v -0.000034 -0.027965 0.006728
v -0.002240 -0.024897 0.009934
v -0.003689 -0.026450 0.006728
v -0.002980 -0.023066 0.010047
v -0.005204 -0.022795 0.006728
v -0.005066 -0.005588 0.004665
v 0.003806 -0.017917 0.010364
v 0.003414 -0.005551 0.004673
v 0.006782 -0.009227 0.008365
v 0.006385 -0.016661 0.008175
v 0.007265 -0.012957 0.007563
v -0.000014 0.006556 0.004696
v 0.004454 0.004705 0.004696
v 0.006305 0.000237 0.004696
v 0.004454 -0.004231 0.004696
v -0.006333 0.000237 0.004696
v -0.004482 0.004705 0.004696
v -0.005474 -0.018111 0.006727
v -0.006075 -0.004362 0.004980
v 0.003414 -0.005551 -0.000073
v 0.004454 0.004705 -0.000073
v 0.004454 -0.004231 -0.000073
v -0.004482 0.004705 -0.000073
v -0.000014 0.006556 -0.000073
v -0.005877 -0.005570 -0.000073
v 0.003806 -0.018310 -0.000073
v 0.004016 -0.018620 0.006361
v -0.005474 -0.018111 -0.000073
v 0.003657 -0.006220 0.009938
v 0.007265 -0.012956 -0.000073
v 0.006385 -0.016661 -0.000073
v -0.005110 -0.006301 0.009155
v -0.005796 -0.008267 -0.000073
v -0.005819 -0.007502 0.007200
v 0.003472 -0.007525 0.011004
v -0.003894 -0.007536 0.010999
v 0.006782 -0.009227 -0.000073
v 0.003797 -0.019934 0.008802
v 0.004748 -0.022716 0.008706
v 0.002966 -0.026524 0.008526
v -0.000281 -0.027531 0.008478
v -0.003364 -0.026085 0.008547
v -0.004659 -0.023092 0.008689
v -0.005557 -0.006985 0.009681
v 0.004103 -0.018749 0.008874
v 0.006305 0.000237 -0.000073
v -0.006333 0.000237 -0.000073
v 0.001522 -0.019600 -0.010260
v 0.003067 -0.022963 -0.010053
v 0.005135 -0.022795 -0.006728
v 0.001912 -0.025289 -0.009910
v 0.003621 -0.026450 -0.006728
v 0.000062 -0.025936 -0.009870
v -0.000034 -0.027965 -0.006728
v -0.002240 -0.024897 -0.009934
v -0.003689 -0.026450 -0.006728
v -0.002980 -0.023066 -0.010047
v -0.005204 -0.022795 -0.006728
v -0.005066 -0.005588 -0.004665
v 0.003806 -0.017917 -0.010364
v 0.003414 -0.005551 -0.004673
v 0.006782 -0.009227 -0.008365
v 0.006385 -0.016661 -0.008175
v 0.007265 -0.012957 -0.007563
v -0.000014 0.006556 -0.004696
v 0.004454 0.004705 -0.004696
v 0.006305 0.000237 -0.004696
v 0.004454 -0.004231 -0.004696
v -0.006333 0.000237 -0.004696
v -0.004482 0.004705 -0.004696
v -0.005474 -0.018111 -0.006727
v -0.006075 -0.004362 -0.004980
v 0.003414 -0.005551 0.000073
v 0.004454 0.004705 0.000073
v 0.004454 -0.004231 0.000073
v -0.004482 0.004705 0.000073
v -0.000014 0.006556 0.000073
v -0.005877 -0.005570 0.000073
v 0.003806 -0.018310 0.000073
v 0.004016 -0.018620 -0.006361
v -0.005474 -0.018111 0.000073
v 0.003657 -0.006220 -0.009938
v 0.007265 -0.012956 0.000073
v 0.006385 -0.016661 0.000073
v -0.005110 -0.006301 -0.009155
v -0.005796 -0.008267 0.000073
v -0.005819 -0.007502 -0.007200
v 0.003472 -0.007525 -0.011004
v -0.003894 -0.007536 -0.010999
v 0.006782 -0.009227 0.000073
v 0.003797 -0.019934 -0.008802
v 0.004748 -0.022716 -0.008706
v 0.002966 -0.026524 -0.008526
v -0.000281 -0.027531 -0.008478
v -0.003364 -0.026085 -0.008547
v -0.004659 -0.023092 -0.008689
v -0.005557 -0.006985 -0.009681
v 0.004103 -0.018749 -0.008874
v 0.006305 0.000237 0.000073
v -0.006333 0.000237 0.000073
vn 0.636100 -0.767700 0.078000
vn 0.672300 -0.581300 0.458400
vn 0.666000 -0.705700 0.241900
vn 0.991700 0.128400 0.000000
vn 0.998800 -0.049500 -0.000000
vn 0.998600 -0.052200 -0.000000
vn 0.972900 -0.231100 -0.000000
vn -0.038100 -0.999000 -0.022800
vn -0.023000 0.935400 0.352700
vn -0.036700 0.746700 0.664200
vn -0.026400 0.903800 0.427100
vn -0.784100 0.359400 0.505900
vn -0.604200 0.056100 0.794900
vn -0.631800 0.702300 0.328000
vn 0.969700 -0.044400 0.240300
vn 0.617800 -0.753700 0.224100
vn 0.709200 -0.664700 0.234800
vn 0.969000 -0.054800 0.240900
vn -0.063600 -0.975700 0.209900
vn 0.003800 -0.978300 0.207100
vn -0.699000 -0.678200 0.226700
vn -0.688700 -0.688700 0.226600
vn -0.834000 -0.221900 0.505100
vn -0.948900 -0.201500 0.242800
vn 0.722200 0.691100 0.029300
vn 0.729500 0.683800 0.015300
vn 0.707000 0.704900 0.057000
vn 0.176200 0.328700 0.927800
vn -0.847800 0.418800 0.325400
vn -0.257600 0.696300 0.669900
vn 0.863100 -0.505100 0.000000
vn 0.785400 -0.619000 0.000000
vn 0.862800 -0.505600 0.000000
vn 0.382600 0.078300 0.920600
vn -0.000600 -0.002200 1.000000
vn 0.686100 0.209800 0.696600
vn 0.656700 0.024000 0.753800
vn 0.688400 0.398200 0.606300
vn -0.999500 -0.032500 0.000100
vn -0.999000 -0.044600 -0.003400
vn -0.998900 -0.045700 -0.003700
vn -0.998100 -0.060700 -0.008100
vn 0.952000 -0.256000 0.167900
vn 0.911100 -0.254900 0.324000
vn 0.986700 0.034200 0.158600
vn -0.013200 0.990000 0.140600
vn -0.000000 1.000000 -0.000000
vn 0.707100 0.707100 -0.000000
vn -0.707100 0.707100 -0.000000
vn 0.737300 0.675500 0.000000
vn 0.640700 -0.040100 0.766800
vn 0.524200 -0.181300 0.832100
vn 0.610200 -0.082100 0.788000
vn 0.607500 -0.043700 0.793100
vn 0.542900 -0.090200 0.835000
vn 0.422300 -0.508200 0.750600
vn 0.413600 -0.515400 0.750600
vn -0.015600 -0.654100 0.756200
vn -0.050600 -0.650200 0.758000
vn -0.449900 -0.458100 0.766600
vn -0.436900 -0.470300 0.766800
vn -0.618600 -0.196800 0.760700
vn -0.000100 -0.061400 0.998100
vn 0.000000 -0.061500 0.998100
vn -0.000200 -0.061400 0.998100
vn 0.384300 -0.566300 0.729100
vn -0.979900 -0.055700 0.191700
vn 0.982400 0.128200 0.135600
vn 0.605600 -0.795200 -0.030700
vn -0.000400 -0.061400 0.998100
vn -0.000500 -0.061400 0.998100
vn 0.000000 0.000000 -1.000000
vn 1.000000 0.000000 -0.000000
vn -0.010500 -0.023900 -0.999700
vn -0.997600 -0.068800 -0.011600
vn -0.987600 0.156800 -0.006100
vn -0.986900 0.161200 -0.006000
vn 0.636100 -0.767700 -0.078000
vn 0.666000 -0.705700 -0.241900
vn 0.672300 -0.581300 -0.458400
vn -0.038100 -0.999000 0.022800
vn -0.023000 0.935400 -0.352700
vn -0.026400 0.903800 -0.427100
vn -0.036700 0.746700 -0.664200
vn -0.784100 0.359400 -0.505900
vn -0.631800 0.702300 -0.328000
vn -0.604200 0.056100 -0.794900
vn 0.969700 -0.044400 -0.240300
vn 0.969000 -0.054800 -0.240900
vn 0.709200 -0.664700 -0.234800
vn 0.617800 -0.753700 -0.224100
vn 0.003800 -0.978300 -0.207100
vn -0.063600 -0.975700 -0.209900
vn -0.688700 -0.688700 -0.226600
vn -0.699000 -0.678200 -0.226700
vn -0.948900 -0.201500 -0.242800
vn -0.834000 -0.221900 -0.505100
vn 0.722200 0.691100 -0.029300
vn 0.707000 0.704900 -0.057000
vn 0.729500 0.683800 -0.015300
vn 0.176200 0.328700 -0.927800
vn -0.257600 0.696300 -0.669900
vn -0.847800 0.418800 -0.325400
vn 0.382600 0.078300 -0.920600
vn -0.000600 -0.002200 -1.000000
vn 0.686100 0.209800 -0.696600
vn 0.688400 0.398200 -0.606300
vn 0.656700 0.024000 -0.753800
vn -0.999500 -0.032500 -0.000100
vn -0.998900 -0.045700 0.003700
vn -0.999000 -0.044600 0.003400
vn -0.998100 -0.060700 0.008100
vn 0.952000 -0.256000 -0.167900
vn 0.986700 0.034200 -0.158600
vn 0.911100 -0.254900 -0.324000
vn -0.013200 0.990000 -0.140600
vn 0.640700 -0.040100 -0.766800
vn 0.524200 -0.181300 -0.832100
vn 0.542900 -0.090200 -0.835000
vn 0.607500 -0.043700 -0.793100
vn 0.610200 -0.082100 -0.788000
vn 0.413600 -0.515400 -0.750600
vn 0.422300 -0.508200 -0.750600
vn -0.050600 -0.650200 -0.758000
vn -0.015600 -0.654100 -0.756200
vn -0.436900 -0.470300 -0.766800
vn -0.449900 -0.458100 -0.766600
vn -0.618600 -0.196800 -0.760700
vn -0.000100 -0.061400 -0.998100
vn -0.000200 -0.061400 -0.998100
vn 0.000000 -0.061500 -0.998100
vn 0.384300 -0.566300 -0.729100
vn -0.979900 -0.055700 -0.191700
vn 0.982400 0.128200 -0.135600
vn 0.605600 -0.795200 0.030700
vn -0.000400 -0.061400 -0.998100
vn -0.000500 -0.061400 -0.998100
vn 0.000000 0.000000 1.000000
vn -0.010500 -0.023900 0.999700
vn -0.997600 -0.068800 0.011600
vn -0.986900 0.161200 0.006000
vn -0.987600 0.156800 0.006100
s 1
f 16//1 13//2 51//3
f 43//4 15//4 17//5 36//6
f 36//6 17//5 16//7 37//7
f 32//8 33//8 24//8 34//8
f 38//9 42//10 41//10 35//11
f 50//12 42//13 38//14
f 45//15 46//16 5//17 3//18
f 46//16 47//19 7//20 5//17
f 47//19 48//21 9//22 7//20
f 48//21 49//23 11//24 9//22
f 15//25 14//26 35//27
f 25//28 40//29 38//14 12//30
f 21//31 14//32 26//32 28//33
f 12//30 22//34 25//28
f 18//35 23//35 22//35 12//35 14//35 21//35 20//35 19//35
f 41//36 15//37 35//38
f 34//39 24//39 40//40 39//41
f 39//41 40//40 25//42 31//42
f 51//43 13//44 44//45
f 12//46 38//9 35//11 14//46
f 18//47 19//48 27//48 30//47
f 23//49 18//47 30//47 29//49
f 14//26 15//25 43//50 26//50
f 13//51 16//51 17//51 15//37 41//36
f 1//52 2//53 45//54 44//55
f 2//53 4//56 46//57 45//54
f 4//56 6//58 47//59 46//57
f 6//58 8//60 48//61 47//59
f 8//60 10//62 49//23 48//61
f 10//63 8//64 6//64 4//64 2//64 1//65
f 40//29 50//12 38//14
f 1//52 44//55 13//66
f 49//23 24//67 11//24
f 24//67 49//23 50//12 40//29
f 49//23 10//62 42//13 50//12
f 44//45 45//15 3//18 33//68
f 37//69 16//1 51//3 33//69 32//69
f 10//63 1//65 42//70
f 1//65 13//71 41//71 42//70
f 52//72 53//72 29//72 30//72 27//72
f 19//48 20//73 52//73 27//48
f 20//73 21//31 28//33 52//73
f 33//74 3//74 5//74 7//74 9//74 11//74 24//74
f 51//43 44//45 33//68
f 25//75 22//76 53//77 31//75
f 22//76 23//49 29//49 53//77
f 69//78 104//79 66//80
f 96//4 89//6 70//5 68//4
f 89//6 90//7 69//7 70//5
f 85//81 87//81 77//81 86//81
f 91//82 88//83 94//84 95//84
f 103//85 91//86 95//87
f 98//88 56//89 58//90 99//91
f 99//91 58//90 60//92 100//93
f 100//93 60//92 62//94 101//95
f 101//95 62//94 64//96 102//97
f 68//98 88//99 67//100
f 78//101 65//102 91//86 93//103
f 74//31 81//33 79//32 67//32
f 65//102 78//101 75//104
f 71//105 72//105 73//105 74//105 67//105 65//105 75//105 76//105
f 94//106 88//107 68//108
f 87//109 92//110 93//111 77//109
f 92//110 84//112 78//112 93//111
f 104//113 97//114 66//115
f 65//116 67//116 88//83 91//82
f 71//47 83//47 80//48 72//48
f 76//49 82//49 83//47 71//47
f 67//100 79//50 96//50 68//98
f 66//117 94//106 68//108 70//117 69//117
f 54//118 97//119 98//120 55//121
f 55//121 98//120 99//122 57//123
f 57//123 99//122 100//124 59//125
f 59//125 100//124 101//126 61//127
f 61//127 101//126 102//97 63//128
f 63//129 54//130 55//131 57//131 59//131 61//131
f 93//103 91//86 103//85
f 54//118 66//132 97//119
f 102//97 64//96 77//133
f 77//133 93//103 103//85 102//97
f 102//97 103//85 95//87 63//128
f 97//114 86//134 56//89 98//88
f 90//135 85//135 86//135 104//79 69//78
f 63//129 95//136 54//130
f 54//130 95//136 94//137 66//137
f 105//138 80//138 83//138 82//138 106//138
f 72//48 80//48 105//73 73//73
f 73//73 105//73 81//33 74//31
f 86//139 77//139 64//139 62//139 60//139 58//139 56//139
f 104//113 86//134 97//114
f 78//140 84//140 106//141 75//142
f 75//142 106//141 82//49 76//49
