# Blender v2.75 (sub 0) OBJ File: 'middlej1_Right.blend'
# www.blender.org
o Cylinder.001
v 0.004593 -0.033496 -0.011301
v 0.004593 -0.033496 -0.006987
v 0.006479 -0.038050 -0.011301
v 0.006479 -0.038050 -0.006987
v 0.004593 -0.042604 -0.011301
v 0.004593 -0.042604 -0.006987
v 0.000039 -0.044490 -0.011301
v 0.000039 -0.044490 -0.006987
v -0.004515 -0.042604 -0.011301
v -0.004515 -0.042604 -0.006987
v -0.006401 -0.038050 -0.011301
v -0.006401 -0.038050 -0.006987
v -0.007570 -0.008719 -0.012870
v 0.004449 -0.031130 -0.011238
v 0.005196 -0.008663 -0.012882
v 0.009017 -0.012869 -0.008031
v 0.007840 -0.026880 -0.007518
v 0.009199 -0.019874 -0.007775
v 0.000035 0.009562 -0.011445
v 0.006762 0.006776 -0.011445
v 0.009548 0.000050 -0.011445
v 0.006762 -0.006677 -0.011445
v -0.009478 0.000050 -0.011445
v -0.006691 0.006776 -0.011445
v -0.006739 -0.033248 -0.006987
v -0.008791 -0.008692 -0.009444
v 0.003085 -0.032872 -0.006987
v 0.003085 -0.032872 -0.011173
v -0.005756 -0.034468 -0.011301
v 0.004593 -0.033496 0.011301
v 0.004593 -0.033496 0.006988
v 0.006479 -0.038050 0.011301
v 0.006479 -0.038050 0.006988
v 0.004593 -0.042604 0.011301
v 0.004593 -0.042604 0.006988
v 0.000039 -0.044490 0.011301
v 0.000039 -0.044490 0.006988
v -0.004515 -0.042604 0.011301
v -0.004515 -0.042604 0.006988
v -0.006401 -0.038050 0.011301
v -0.006401 -0.038050 0.006988
v -0.007570 -0.008719 0.012871
v 0.004449 -0.031130 0.011238
v 0.005196 -0.008663 0.012882
v 0.009017 -0.012869 0.008031
v 0.007840 -0.026880 0.007518
v 0.009199 -0.019874 0.007775
v 0.000035 0.009562 0.011446
v 0.006762 0.006776 0.011446
v 0.009548 0.000050 0.011446
v 0.006762 -0.006677 0.011446
v -0.009478 0.000050 0.011446
v -0.006691 0.006776 0.011446
v -0.006739 -0.033248 0.006987
v -0.008791 -0.008692 0.009444
v 0.003085 -0.032872 0.006988
v 0.003085 -0.032872 0.011173
v -0.005756 -0.034468 0.011301
vn 0.714500 0.699600 0.000000
vn 0.707100 0.707100 0.000000
vn 1.000000 0.000000 0.000000
vn 0.707100 -0.707100 0.000000
vn 0.000000 -1.000000 0.000000
vn -0.707100 -0.707100 -0.000000
vn -0.982300 -0.177500 -0.060600
vn 0.737400 -0.077400 -0.671000
vn 0.781700 -0.623600 0.000000
vn 0.999700 0.026000 0.000000
vn 0.996800 -0.080200 0.000000
vn 0.740100 0.672500 0.000000
vn -0.984600 0.174700 0.000000
vn -0.707100 0.707100 0.000000
vn -0.979000 -0.039500 -0.200100
vn -0.948800 -0.119800 -0.292300
vn -0.948700 -0.120000 -0.292600
vn -0.983600 -0.019800 -0.179100
vn 0.000000 1.000000 0.000000
vn -0.996900 -0.078300 0.000000
vn 0.852700 -0.522300 0.000000
vn 0.981700 -0.190400 0.000000
vn 0.038300 -0.999300 0.000000
vn 0.962000 0.273200 0.000000
vn 0.987800 -0.155900 0.000000
vn 0.000000 -0.000000 1.000000
vn -0.931800 -0.148900 -0.331000
vn 0.787400 -0.616500 0.000000
vn 0.017500 0.076800 -0.996900
vn 0.015400 0.017300 -0.999700
vn 0.015200 0.011300 -0.999800
vn 0.012300 -0.066000 -0.997700
vn 0.005700 -0.028900 -0.999600
vn 0.005000 -0.025100 -0.999700
vn 0.785400 -0.619000 0.000000
vn -0.000600 0.006000 -1.000000
vn -0.982300 -0.177500 0.060600
vn 0.737400 -0.077400 0.671000
vn -0.979000 -0.039500 0.200100
vn -0.983600 -0.019800 0.179100
vn -0.948700 -0.120000 0.292600
vn -0.948800 -0.119800 0.292300
vn 0.000000 -0.000000 -1.000000
vn -0.931800 -0.148900 0.331000
vn 0.017500 0.076800 0.996900
vn 0.015200 0.011300 0.999800
vn 0.015400 0.017300 0.999700
vn 0.005000 -0.025100 0.999700
vn 0.005700 -0.028900 0.999600
vn 0.012300 -0.066000 0.997700
vn -0.000600 0.006000 1.000000
vn -0.996500 -0.083300 0.000000
s 1
f 1//1 2//2 4//3 3//3
f 3//3 4//3 6//4 5//4
f 5//4 6//4 8//5 7//5
f 7//5 8//5 10//6 9//6
f 9//6 10//6 12//7 11//7
f 14//8 15//8 16//8 18//8 17//8
f 17//9 46//9 43//9 14//9
f 16//10 45//10 47//11 18//11
f 44//12 45//12 16//12 15//12
f 52//13 53//14 24//14 23//13
f 25//15 26//16 13//17 29//18
f 53//14 48//19 19//19 24//14
f 48//19 49//2 20//2 19//19
f 49//2 50//3 21//3 20//2
f 55//20 52//13 23//13 26//20
f 50//3 51//21 22//21 21//3
f 18//11 47//11 46//22 17//22
f 27//23 56//23 54//23 25//23
f 28//24 27//25 2//2 1//1
f 2//26 27//26 25//26 12//26 10//26 8//26 6//26 4//26
f 13//17 26//16 23//27
f 14//28 43//28 57//24 56//25 27//25 28//24
f 19//29 20//29 21//29 22//29 15//30 13//31 23//29 24//29
f 13//31 15//30 14//32 28//33 29//34
f 11//7 12//7 25//15 29//18
f 51//21 44//35 15//35 22//21
f 29//34 28//33 1//36 3//36 5//36 7//36 9//36 11//36
f 30//1 32//3 33//3 31//2
f 32//3 34//4 35//4 33//3
f 34//4 36//5 37//5 35//4
f 36//5 38//6 39//6 37//5
f 38//6 40//37 41//37 39//6
f 43//38 46//38 47//38 45//38 44//38
f 54//39 58//40 42//41 55//42
f 57//24 30//1 31//2 56//25
f 31//43 33//43 35//43 37//43 39//43 41//43 54//43 56//43
f 42//41 52//44 55//42
f 48//45 53//45 52//45 42//46 44//47 51//45 50//45 49//45
f 42//46 58//48 57//49 43//50 44//47
f 40//37 58//40 54//39 41//37
f 58//48 40//51 38//51 36//51 34//51 32//51 30//51 57//49
f 25//52 54//52 55//52 26//52
