# Blender v2.75 (sub 0) OBJ File: 'middlej3_Right.blend'
# www.blender.org
o Cube_Cube.001
v 0.004928 -0.017919 -0.003766
v 0.007218 -0.006650 -0.004352
v 0.003232 -0.021436 -0.002563
v 0.000383 -0.021203 -0.006683
v 0.002074 -0.017468 -0.007885
v -0.002026 -0.020621 -0.005985
v -0.003875 -0.005242 -0.006831
v -0.002520 -0.005242 -0.008083
v -0.001051 -0.021475 -0.006841
v 0.003787 -0.005823 -0.009351
v 0.005164 -0.004522 -0.006024
v 0.004928 -0.017919 0.003766
v 0.007218 -0.006650 0.004352
v 0.003232 -0.021436 0.002563
v 0.000383 -0.021203 0.006683
v 0.002074 -0.017468 0.007885
v -0.002026 -0.020621 0.005985
v -0.003875 -0.005242 0.006831
v -0.002520 -0.005242 0.008083
v -0.001051 -0.021475 0.006841
v 0.003787 -0.005823 0.009351
v 0.005164 -0.004522 0.006024
v -0.001078 -0.021543 -0.000000
v 0.003787 -0.005823 0.000000
v 0.003232 -0.021436 0.000000
v 0.005256 -0.004520 0.000000
v 0.000491 -0.021297 -0.000000
v 0.007236 -0.006574 0.000000
v -0.002520 -0.005242 -0.000000
v 0.004960 -0.017914 0.000000
v -0.002026 -0.020621 -0.000000
v -0.003875 -0.005242 -0.000000
vn 0.980200 -0.198100 -0.004000
vn 0.693700 -0.496900 -0.521300
vn -0.690000 -0.119600 -0.713900
vn 0.795600 -0.190500 -0.575000
vn 0.000000 1.000000 0.000000
vn -0.992900 -0.119400 -0.000000
vn 0.789000 0.386400 -0.477600
vn 0.722200 0.691500 -0.012900
vn -0.191500 -0.103900 -0.976000
vn 0.091700 0.995800 0.000000
vn 0.899000 -0.438000 -0.004200
vn -0.679600 -0.733600 -0.005300
vn -0.059500 -0.998200 -0.009400
vn -0.677600 0.735500 0.004000
vn 0.170500 -0.985300 -0.012800
vn 0.980200 -0.198100 0.004000
vn 0.693700 -0.496900 0.521300
vn -0.690000 -0.119600 0.713900
vn 0.795600 -0.190500 0.575000
vn 0.789000 0.386400 0.477600
vn 0.722200 0.691500 0.012900
vn -0.191500 -0.103900 0.976000
vn 0.899000 -0.438000 0.004200
vn -0.679600 -0.733600 0.005300
vn -0.059500 -0.998200 0.009400
vn -0.677600 0.735500 -0.004000
vn 0.170500 -0.985300 0.012800
s off
f 28//1 30//1 1//1 2//1
f 3//2 4//2 5//2 1//2
f 6//3 7//3 8//3 9//3
f 10//4 2//4 1//4 5//4
f 32//5 29//5 8//5 7//5
f 31//6 32//6 7//6 6//6
f 2//7 10//7 11//7
f 26//8 28//8 2//8 11//8
f 4//9 9//9 8//9 10//9 5//9
f 10//10 8//10 29//10 24//10
f 1//11 30//11 25//11 3//11
f 9//12 23//12 31//12 6//12
f 3//13 25//13 27//13 4//13
f 11//14 10//14 24//14 26//14
f 4//15 27//15 23//15 9//15
f 28//16 13//16 12//16 30//16
f 14//17 12//17 16//17 15//17
f 17//18 20//18 19//18 18//18
f 21//19 16//19 12//19 13//19
f 32//5 18//5 19//5 29//5
f 31//6 17//6 18//6 32//6
f 13//20 22//20 21//20
f 26//21 22//21 13//21 28//21
f 15//22 16//22 21//22 19//22 20//22
f 21//10 24//10 29//10 19//10
f 12//23 14//23 25//23 30//23
f 20//24 17//24 31//24 23//24
f 14//25 15//25 27//25 25//25
f 22//26 26//26 24//26 21//26
f 15//27 20//27 23//27 27//27
