# Blender v2.75 (sub 0) OBJ File: 'thumbj2_Right.blend'
# www.blender.org
o Cylinder.001
v 0.011586 -0.007907 0.031787
v 0.011423 -0.010019 0.037289
v -0.000104 -0.013036 0.036539
v 0.011218 -0.008971 0.040850
v -0.000104 -0.011177 0.041765
v 0.011161 -0.006527 0.042221
v -0.000104 -0.007827 0.043491
v 0.010967 -0.003464 0.042752
v -0.000104 -0.002339 0.044381
v 0.006670 0.005745 0.009126
v 0.011703 -0.009065 0.029302
v 0.006681 -0.006185 0.006968
v 0.009009 -0.011227 0.011254
v 0.008738 -0.012397 0.025072
v 0.007863 -0.012595 0.017750
v -0.000104 -0.006185 0.006968
v -0.000104 0.007086 0.009791
v -0.000104 -0.009904 0.030432
v -0.000104 0.000961 0.033002
v -0.000104 -0.012595 0.017749
v -0.000104 -0.012397 0.025072
v 0.012399 -0.007861 0.008819
v 0.012824 0.004889 0.010035
v -0.000104 -0.011227 0.011254
v 0.010393 -0.009789 0.030665
v 0.009244 -0.013024 0.036441
v 0.009060 -0.011050 0.041886
v 0.009023 -0.007827 0.043491
v 0.008962 -0.002339 0.044381
v 0.010891 0.006090 0.011214
v 0.006073 0.007086 0.009791
v -0.011586 -0.007907 0.031787
v -0.011423 -0.010019 0.037289
v 0.000104 -0.013036 0.036539
v -0.011218 -0.008971 0.040850
v 0.000104 -0.011177 0.041765
v -0.011161 -0.006527 0.042221
v 0.000104 -0.007827 0.043491
v -0.010967 -0.003464 0.042752
v 0.000104 -0.002339 0.044381
v -0.006670 0.005745 0.009126
v -0.011703 -0.009065 0.029302
v -0.006681 -0.006185 0.006968
v -0.009009 -0.011227 0.011254
v -0.008738 -0.012397 0.025072
v -0.007863 -0.012595 0.017750
v 0.000104 -0.006185 0.006968
v 0.000104 0.007086 0.009791
v 0.000104 -0.009904 0.030432
v 0.000104 0.000961 0.033002
v 0.000104 -0.012595 0.017749
v 0.000104 -0.012397 0.025072
v -0.012399 -0.007861 0.008819
v -0.012824 0.004889 0.010035
v 0.000104 -0.011227 0.011254
v -0.010393 -0.009789 0.030665
v -0.009244 -0.013024 0.036441
v -0.009060 -0.011050 0.041886
v -0.009023 -0.007827 0.043491
v -0.008962 -0.002339 0.044381
v -0.010891 0.006090 0.011214
v -0.000000 0.005745 0.009126
v -0.006073 0.007086 0.009791
vn 0.000000 -0.978500 -0.206100
vn -0.000000 -0.995800 -0.091900
vn -0.000000 -0.995900 -0.090200
vn -0.000000 -0.999600 0.027100
vn 0.066800 -0.628100 -0.775300
vn 0.030300 -0.639200 -0.768500
vn 0.020200 -0.642100 -0.766400
vn 0.008500 -0.994600 -0.103000
vn 0.002100 -0.750200 0.661300
vn 0.002100 -0.752600 0.658500
vn 0.008500 -0.997500 -0.070300
vn -0.001400 -0.310800 0.950500
vn -0.001400 -0.309800 0.950800
vn -0.000000 -0.160100 0.987100
vn 0.534200 0.837000 -0.118900
vn 0.474900 0.836100 -0.274700
vn 0.610600 0.758300 0.228300
vn 0.098900 0.562400 -0.820900
vn 0.166000 0.634600 -0.754800
vn -0.000000 -0.647600 -0.761900
vn 0.672400 -0.719300 0.174400
vn 0.708600 -0.705600 -0.005200
vn 0.718900 -0.694400 -0.029600
vn 0.841000 -0.520100 -0.148900
vn 0.804900 -0.589800 0.065200
vn 0.813400 -0.580800 0.031600
vn 0.714100 -0.495100 0.494900
vn 0.724200 -0.523300 0.449100
vn 0.607100 -0.217400 0.764300
vn 0.619200 -0.258500 0.741500
vn 0.572600 -0.117800 0.811300
vn 0.998800 -0.002200 0.048200
vn 0.999000 -0.023800 0.038700
vn 0.998600 0.007300 0.052400
vn 0.695800 -0.637800 0.330300
vn 0.657500 -0.708600 0.256000
vn 0.121600 0.154700 -0.980500
vn 0.250200 0.127000 -0.959800
vn 0.134200 0.152100 -0.979200
vn 0.998900 -0.031500 0.035300
vn 0.000000 0.444600 -0.895700
vn -0.000000 0.177900 -0.984000
vn 0.045300 0.964200 0.261200
vn 0.049200 0.963900 0.261700
vn 0.026200 0.965600 0.258700
vn 0.000000 0.966900 0.255100
vn 0.008900 -0.881800 -0.471600
vn 0.000300 -0.906600 0.422100
vn -1.000000 0.000000 0.000000
vn -0.066800 -0.628100 -0.775300
vn -0.020200 -0.642100 -0.766400
vn -0.030300 -0.639200 -0.768500
vn -0.008500 -0.994600 -0.103000
vn -0.008500 -0.997500 -0.070300
vn -0.002100 -0.752600 0.658500
vn -0.002100 -0.750200 0.661300
vn 0.001400 -0.309800 0.950800
vn 0.001400 -0.310800 0.950500
vn -0.534200 0.837000 -0.118900
vn -0.610600 0.758300 0.228300
vn -0.474900 0.836100 -0.274700
vn -0.098900 0.562400 -0.820900
vn -0.166000 0.634600 -0.754800
vn -0.672400 -0.719300 0.174400
vn -0.718900 -0.694500 -0.029600
vn -0.708600 -0.705600 -0.005200
vn -0.841000 -0.520100 -0.148900
vn -0.813400 -0.580800 0.031600
vn -0.804900 -0.589800 0.065200
vn -0.724200 -0.523300 0.449100
vn -0.714100 -0.495100 0.494900
vn -0.619200 -0.258500 0.741500
vn -0.607100 -0.217400 0.764300
vn -0.572600 -0.117800 0.811300
vn -0.998800 -0.002200 0.048200
vn -0.998600 0.007300 0.052400
vn -0.999000 -0.023800 0.038700
vn -0.695800 -0.637800 0.330300
vn -0.657500 -0.708600 0.256000
vn -0.121600 0.154700 -0.980500
vn -0.134200 0.152100 -0.979200
vn -0.250200 0.127000 -0.959800
vn -0.998900 -0.031500 0.035300
vn -0.045300 0.964200 0.261200
vn -0.026200 0.965600 0.258700
vn -0.049200 0.963900 0.261700
vn -0.008900 -0.881800 -0.471600
vn -0.000300 -0.906600 0.422100
vn 1.000000 0.000000 0.000000
s 1
f 24//1 13//1 15//2 20//3
f 20//3 15//2 14//4 21//4
f 22//5 13//6 12//7
f 26//8 27//9 5//10 3//11
f 27//9 28//12 7//13 5//10
f 28//12 29//14 9//14 7//13
f 23//15 30//16 29//17 8//17
f 31//18 30//16 23//15 10//19
f 12//7 13//6 24//20 16//20
f 11//21 14//22 15//23 13//23 22//23
f 1//24 2//25 26//26 25//24
f 2//25 4//27 27//28 26//26
f 4//27 6//29 28//30 27//28
f 6//29 8//31 29//31 28//30
f 1//32 23//33 8//34 6//34 4//34 2//34
f 1//35 25//36 11//21
f 10//37 23//38 22//38 12//39
f 1//32 11//40 22//40 23//33
f 31//18 10//19 62//41 17//41
f 10//37 12//39 16//42 62//42
f 14//22 11//21 25//36
f 19//43 9//44 29//44 30//44 31//45
f 19//43 31//45 17//46
f 25//47 26//8 3//11 18//47
f 21//48 14//48 25//48 18//48
f 18//49 3//49 5//49 7//49 9//49 19//49
f 55//1 51//3 46//2 44//1
f 51//3 52//4 45//4 46//2
f 53//50 43//51 44//52
f 57//53 34//54 36//55 58//56
f 58//56 36//55 38//57 59//58
f 59//58 38//57 40//14 60//14
f 54//59 39//60 60//60 61//61
f 63//62 41//63 54//59 61//61
f 43//51 47//20 55//20 44//52
f 42//64 53//65 44//65 46//65 45//66
f 32//67 56//67 57//68 33//69
f 33//69 57//68 58//70 35//71
f 35//71 58//70 59//72 37//73
f 37//73 59//72 60//74 39//74
f 32//75 33//76 35//76 37//76 39//76 54//77
f 32//78 42//64 56//79
f 41//80 43//81 53//82 54//82
f 32//75 54//77 53//83 42//83
f 63//62 48//41 62//41 41//63
f 41//80 62//42 47//42 43//81
f 45//66 56//79 42//64
f 50//84 63//85 61//86 60//86 40//86
f 50//84 48//46 63//85
f 56//87 49//87 34//54 57//53
f 52//88 49//88 56//88 45//88
f 49//89 50//89 40//89 38//89 36//89 34//89
