# File produced by Open Asset Import Library (http://www.assimp.sf.net)
# (assimp v3.2.202087883)

mtllib model_normalized.mtl

# 102 vertex positions
v -0.154383 -0.020363 -0.197310
v -0.154383 -0.373738 -0.158790
v -0.154383 -0.373738 -0.197310
v -0.154383 -0.325951 -0.158790
v -0.116298 -0.373738 -0.197310
v -0.154383 -0.291169 -0.158790
v -0.116298 -0.325951 -0.158790
v -0.116298 -0.373738 -0.158790
v -0.116298 -0.064535 -0.197310
v -0.154383 -0.064535 -0.158790
v -0.154383 -0.291169 0.074410
v -0.154383 -0.325951 0.074410
v 0.154216 -0.020363 -0.197310
v -0.154383 -0.064535 0.074410
v -0.116298 -0.064535 -0.158790
v -0.116298 -0.291169 -0.059244
v -0.116298 -0.325951 -0.059244
v 0.116664 -0.064535 -0.197310
v 0.143064 -0.020363 -0.186158
v -0.154383 -0.020363 0.075360
v -0.116298 -0.291169 -0.158790
v -0.154383 0.402562 0.111290
v -0.116298 -0.291169 -0.024463
v -0.116298 -0.325951 -0.024463
v 0.154216 -0.373738 -0.197310
v 0.154216 -0.020363 0.075360
v -0.143231 -0.020363 -0.186158
v -0.116298 -0.064535 0.074410
v -0.154383 -0.373738 0.111290
v 0.116664 -0.291169 -0.024463
v -0.116298 -0.291169 0.074410
v -0.116298 -0.325951 0.074410
v 0.116664 -0.325951 -0.059244
v 0.116664 -0.064535 -0.162853
v 0.116664 -0.373738 -0.197310
v 0.154216 -0.325951 -0.162853
v 0.154216 -0.064535 -0.162853
v 0.143064 -0.020363 0.064208
v 0.134411 -0.020363 -0.177507
v 0.134411 -0.013707 -0.177507
v -0.154383 0.402562 0.075360
v -0.143231 -0.020363 0.064208
v 0.154216 -0.064535 0.078924
v -0.154383 -0.373738 0.074410
v -0.142753 0.436097 0.111290
v 0.116664 -0.291169 -0.059244
v -0.116298 -0.373738 0.074410
v 0.116664 -0.325951 -0.024463
v 0.116664 -0.291169 -0.162853
v 0.116664 -0.373738 -0.162853
v 0.154216 -0.373738 -0.162853
v 0.154216 -0.291169 -0.162853
v -0.134578 -0.020363 -0.177507
v -0.134578 -0.013707 -0.177507
v -0.023579 0.110438 0.075360
v -0.142753 0.436097 0.075360
v 0.116664 -0.064535 0.078924
v -0.116298 -0.064535 0.111290
v -0.116298 -0.373738 0.111290
v 0.154216 -0.291169 0.078924
v 0.154216 -0.325951 0.078924
v 0.116664 -0.325951 -0.162853
v 0.154216 0.402562 0.111290
v -0.134578 -0.020363 0.055555
v -0.134578 -0.013707 0.055555
v 0.134411 -0.020363 0.055555
v 0.134411 -0.013707 0.055555
v -0.123940 0.466200 0.111290
v -0.123940 0.466200 0.075360
v 0.116664 -0.291169 0.078924
v 0.116664 -0.325951 0.078924
v 0.154216 0.402562 0.075360
v 0.023412 0.110438 0.075360
v 0.116664 -0.064535 0.111290
v 0.154216 -0.373738 0.078924
v 0.142586 0.436097 0.111290
v 0.142586 0.436097 0.075360
v 0.023412 0.412783 0.075360
v 0.023412 0.110438 0.111290
v -0.098883 0.491342 0.075360
v -0.023579 0.110438 0.111290
v -0.098883 0.491342 0.111290
v 0.116664 -0.373738 0.078924
v 0.154216 -0.373738 0.111290
v 0.123767 0.466200 0.075360
v 0.035188 0.522020 0.075360
v -0.068852 0.510269 0.075360
v 0.116664 -0.373738 0.111290
v 0.123767 0.466200 0.111290
v 0.098717 0.491342 0.075360
v 0.068686 0.510269 0.075360
v -0.000083 0.526002 0.075360
v 0.023412 0.412783 0.111290
v -0.023579 0.412783 0.111290
v -0.035354 0.522020 0.075360
v -0.068852 0.510269 0.111290
v 0.035188 0.522020 0.111290
v 0.098717 0.491342 0.111290
v 0.068686 0.510269 0.111290
v -0.023579 0.412783 0.075360
v -0.035354 0.522020 0.111290
v -0.000083 0.526002 0.111290

# 269 UV coordinates
vt 0 0 0
vt -0.471455 0 0
vt -0.506265 0 0
vt -0.471455 0.319335 0
vt -0.506265 0.043184 0
vt 0.471455 1.35398 0
vt 0.471455 1.38839 0
vt 0.506265 1.35398 0
vt 1.35398 0 0
vt 1.35398 0.319335 0
vt 1.38839 0 0
vt -0.506265 0.074615 0
vt -1.35398 0.043184 0
vt -1.35398 0 0
vt -1.38839 0.043184 0
vt 0.506265 1.38839 0
vt 1.38839 0.279418 0
vt -0.506265 0.279418 0
vt -0.717001 0.074615 0
vt -1.38839 0 0
vt 0.717001 1.35398 0
vt 0.506265 0.043184 0
vt 0.471455 0 0
vt 0.506265 0 0
vt 0.471455 0.279418 0
vt 1.63285 0.319335 0
vt -0.717001 0.279418 0
vt -1.35398 0.279418 0
vt -1.35398 0.074615 0
vt -1.38839 0.279418 0
vt -0.717001 0.043184 0
vt -0.717001 1.35398 0
vt -0.596223 1.38839 0
vt -0.506265 1.35398 0
vt 0.596223 1.38839 0
vt 0.506265 0.074615 0
vt 1.59891 0.279418 0
vt -0.471455 1.35398 0
vt -0.481533 1.62277 0
vt -0.471455 1.63285 0
vt -0.71786 0.319335 0
vt -1.38839 0.074615 0
vt -0.750326 0.701519 0
vt -0.506265 1.38839 0
vt -0.627654 1.38839 0
vt 0.627654 1.38839 0
vt 0.596223 0.074615 0
vt 0.596223 0.043184 0
vt 0.506265 0.279418 0
vt 0.471455 1.59891 0
vt 1.63285 0 0
vt -0.71786 1.63285 0
vt -0.481533 1.36405 0
vt -0.71786 1.35398 0
vt 0.717001 1.38839 0
vt -0.750326 0 0
vt -0.627654 1.59891 0
vt -0.717001 1.38839 0
vt 0.596223 1.59891 0
vt 1.38839 0.043184 0
vt 1.38839 0.074615 0
vt 1.59891 0.043184 0
vt 0.502593 1.59891 0
vt 1.59891 0 0
vt 0.471455 0.319335 0
vt 0.502593 0.043184 0
vt 0.71786 0.319335 0
vt 0.502593 0.279418 0
vt -0.707782 1.62277 0
vt -0.71786 0.701519 0
vt -0.707782 1.36405 0
vt 0.721079 1.63285 0
vt 1.35398 0.279418 0
vt -0.717001 0 0
vt -1.35398 0.701519 0
vt -1.36448 0.731827 0
vt 1.35398 0.074615 0
vt -0.596223 1.59891 0
vt -1.59891 0.074615 0
vt 0.717001 0.074615 0
vt 0.627654 0.043184 0
vt 0.627654 0.074615 0
vt 1.35398 0.043184 0
vt 0.717001 0.043184 0
vt 0.627654 1.59891 0
vt 1.59891 0.074615 0
vt 0.502593 1.63285 0
vt -0.502593 0.279418 0
vt -0.471455 0.279418 0
vt -0.502593 0.074615 0
vt -0.502593 0 0
vt 0.471455 1.63285 0
vt 0.502593 -0 0
vt 0.502593 0.074615 0
vt 0.721079 0.279418 0
vt 1.35398 0.701519 0
vt 1.47218 0.437536 0
vt -0.71786 1.10638 0
vt -0.750326 1.10638 0
vt -0.71786 1.13846 0
vt 0.721079 1.59891 0
vt 0.717001 0.279418 0
vt 0.750326 0.279418 0
vt 0.750326 1.35398 0
vt -0.750326 1.13846 0
vt -0.721079 1.63285 0
vt -1.59891 0.043184 0
vt 0.717001 -0 0
vt -0.596223 0.043184 0
vt -0.596223 0.074615 0
vt -1.59891 0.279418 0
vt -1.63285 0.279418 0
vt -0.502593 0.043184 0
vt -1.63285 0 0
vt -1.63285 0.043184 0
vt -1.59891 0 0
vt 0.721079 0.043184 0
vt -1.63285 0.074615 0
vt 0.750326 0.701519 0
vt 1.37187 0.319335 0
vt 1.37187 0.32535 0
vt 1.61495 0.319335 0
vt 1.61495 0.32535 0
vt 1.36448 0.731827 0
vt 0.750326 1.38839 0
vt 1.63285 0.279418 0
vt 1.63285 0.074615 0
vt -1.38149 0.759027 0
vt -0.71786 1.34383 0
vt -0.750326 1.34383 0
vt -0.71786 1.37591 0
vt -0.502593 1.59891 0
vt -0.721079 1.59891 0
vt -0.627654 0.043184 0
vt -0.721079 0.043184 0
vt -0.627654 0.074615 0
vt 0.750326 -0 0
vt 0.721079 0.074615 0
vt -0.502593 1.63285 0
vt 0.71786 0.701519 0
vt 0.699965 0.319335 0
vt 0.48935 0.319335 0
vt 0.699965 0.32535 0
vt 0.48935 0.32535 0
vt -0.48935 0.319335 0
vt -0.699965 0.319335 0
vt -0.48935 0.32535 0
vt 1.51464 0.437536 0
vt 1.38149 0.759027 0
vt -0.699965 0.32535 0
vt 0.750326 1.59891 0
vt -0.750326 1.37591 0
vt -0.721079 0.074615 0
vt 1.63285 0.043184 0
vt 0.750326 0.127871 0
vt 0.71786 0.127871 0
vt 0.750326 0.159948 0
vt 1.63285 0.701519 0
vt 1.62234 0.731827 0
vt -1.61495 0.319335 0
vt -1.61495 0.32535 0
vt -1.37187 0.319335 0
vt -1.37187 0.32535 0
vt 1.51464 0.710758 0
vt -0.71786 1.51464 0
vt -0.71786 1.47218 0
vt -0.750326 1.51464 0
vt 1.40413 0.781749 0
vt -1.47218 0.437536 0
vt -0.721079 0.279418 0
vt -0.750326 0.279418 0
vt -0.71786 1.51278 0
vt -0.750326 1.51278 0
vt -0.71786 1.54485 0
vt -1.40413 0.781749 0
vt 0.721079 -0 0
vt 0.71786 0.159948 0
vt -1.63285 0.701519 0
vt -1.62234 0.731827 0
vt 1.60533 0.759027 0
vt 1.52529 0.809468 0
vt -0.71786 0.437536 0
vt -0.750326 0.437536 0
vt -0.71786 0.710758 0
vt -0.750326 1.47218 0
vt 1.43127 0.79885 0
vt -1.51464 0.437536 0
vt -0.750326 1.54485 0
vt -0.721079 0 0
vt 0.750326 -0.239401 0
vt 0.71786 -0.239401 0
vt 0.750326 -0.207323 0
vt -1.60533 0.759027 0
vt 1.58269 0.781749 0
vt 0.71786 -0.207323 0
vt 1.55555 0.79885 0
vt 1.49341 0.813068 0
vt -0.750326 0.710758 0
vt 0.750326 0.437536 0
vt 0.71786 0.437536 0
vt 0.750326 0.710758 0
vt 1.46154 0.809468 0
vt -0.71786 1.63679 0
vt -0.71786 1.60471 0
vt -0.750326 1.63679 0
vt -1.43127 0.79885 0
vt -1.52529 0.809468 0
vt -0.750326 1.60471 0
vt 0.750326 1.63285 0
vt 0.71786 -0.563343 0
vt 0.750326 -0.563343 0
vt 0.71786 -0.59542 0
vt 0.750326 -0.59542 0
vt 0.71786 -1.20344 0
vt 0.71786 -1.17136 0
vt 0.750326 -1.20344 0
vt 1.47218 0.710758 0
vt 0.71786 -1.42481 0
vt 0.71786 -1.39274 0
vt 0.750326 -1.42481 0
vt 0.750326 1.51464 0
vt 0.750326 1.47218 0
vt 0.71786 1.51464 0
vt -1.51464 0.710758 0
vt 0.71786 0.710758 0
vt -1.47218 0.710758 0
vt -1.46154 0.809468 0
vt -0.71786 1.64709 0
vt -0.71786 1.61501 0
vt -0.750326 1.64709 0
vt -0.750326 1.61501 0
vt -1.55555 0.79885 0
vt -1.58269 0.781749 0
vt 0.71786 -0.922255 0
vt 0.71786 -0.890177 0
vt 0.750326 -0.922255 0
vt 0.750326 -1.17136 0
vt 0.750326 -0.890177 0
vt 0.71786 1.47218 0
vt 0.750326 -1.39274 0
vt -1.49341 0.813068 0
vt -0.750326 1.54314 0
vt -0.750326 1.57522 0
vt -0.71786 1.54314 0
vt -0.71786 1.57522 0
vt -0.57784 3.27373 0
vt -0.587221 3.87588 0
vt -0.57784 3.89464 0
vt 1.94732 1.38329 0
vt 1.63686 1.38329 0
vt 1.93794 1.40696 0
vt -0.849338 3.89464 0
vt 0.57784 -2.61931 0
vt 0.587221 -2.59564 0
vt 0.849338 -2.61931 0
vt -0.587221 3.29249 0
vt 1.64624 1.40696 0
vt -0.849338 3.27373 0
vt -0.57784 3.06194 0
vt -0.849338 3.06194 0
vt -0.587221 3.08561 0
vt -0.839957 3.29249 0
vt -1.63686 -0.878909 0
vt -1.94732 -0.878909 0
vt -1.64624 -0.855237 0
vt -0.839957 3.87588 0
vt 0.839957 -2.59564 0
vt -0.839957 3.08561 0
vt -1.93794 -0.855237 0

# 38 vertex normals
vn 1 0 0
vn 0 1 0
vn 0 0 1
vn 0 0 -1
vn 0 -1 0
vn -1 -0 -0
vn 0 -0.792543 0.609816
vn -0.609816 -0.792543 0
vn 0.902081 -0.431566 0
vn 0.944814 -0.327608 0
vn 0.609816 -0.792543 0
vn 0 -0.792543 -0.609816
vn 0.783112 -0.621881 0
vn -0.902081 -0.431566 -0
vn -0.944814 -0.327608 -0
vn 0.624695 -0.780869 0
vn -0.783112 -0.621881 0
vn 0.43481 -0.900522 0
vn -0.624695 -0.780869 0
vn -0.43481 -0.900522 0
vn -0.223022 -0.974813 0
vn 0.223022 -0.974813 0
vn -0.944814 0.327608 0
vn -0.902081 0.431566 0
vn -0.783112 0.621881 0
vn 0.944814 0.327608 0
vn 0.902081 0.431566 0
vn -0.624695 0.780869 0
vn 0.783112 0.621881 0
vn -0.43481 0.900522 0
vn 0.624695 0.780869 0
vn 0.43481 0.900522 0
vn 0.223022 0.974813 0
vn -0.223022 0.974813 0
vn 0 0.792543 -0.609816
vn 0.609816 0.792543 0
vn -0.609816 0.792543 0
vn 0 0.792543 0.609816

# Mesh 'mesh1_mesh1-geometry' with 218 faces
g mesh1_mesh1-geometry
usemtl material_0_24
f  1/1/1 2/1/1 3/1/1
f  2/1/1 1/1/1 4/1/1
f  2/1/2 5/1/2 3/1/2
f  5/1/3 1/1/3 3/1/3
f  4/1/1 1/1/1 6/1/1
f  7/1/4 2/1/4 4/1/4
f  5/1/2 2/1/2 8/1/2
f  1/1/3 5/1/3 9/1/3
f  6/1/1 1/1/1 10/1/1
f  11/1/1 4/1/1 6/1/1
f  2/1/4 7/1/4 8/1/4
f  12/1/2 7/1/2 4/1/2
f  1/1/3 9/1/3 13/1/3
f  10/1/1 1/1/1 14/1/1
f  15/1/4 6/1/4 10/1/4
f  11/1/1 12/1/1 4/1/1
f  6/1/5 16/1/5 11/1/5
f  7/1/2 12/1/2 17/1/2
f  13/1/3 9/1/3 18/1/3
f  13/1/5 19/1/5 1/1/5
f  20/1/1 14/1/1 1/1/1
f  14/1/2 15/1/2 10/1/2
f  6/1/4 15/1/4 21/1/4
f  22/1/1 12/1/1 11/1/1
f  16/1/5 6/1/5 21/1/5
f  11/1/5 16/1/5 23/1/5
f  17/1/2 12/1/2 24/1/2
f  15/1/2 18/1/2 9/1/2
f  13/1/3 18/1/3 25/1/3
f  19/1/5 13/1/5 26/1/5
f  27/1/5 1/1/5 19/1/5
f  22/1/1 14/1/1 20/1/1
f  1/1/5 27/1/5 20/1/5
f  28/1/2 15/1/2 14/1/2
f  29/1/1 12/1/1 22/1/1
f  22/1/1 11/1/1 14/1/1
f  23/1/5 16/1/5 30/1/5
f  11/1/5 23/1/5 31/1/5
f  24/1/2 12/1/2 32/1/2
f  17/1/2 24/1/2 33/1/2
f  33/1/3 16/1/3 17/1/3
f  18/1/2 15/1/2 34/1/2
f  25/1/3 18/1/3 35/1/3
f  25/1/6 36/1/6 13/1/6
f  13/1/6 37/1/6 26/1/6
f  19/1/5 26/1/5 38/1/5
f  19/1/5 39/1/5 27/1/5
f  40/1/7 27/1/7 19/1/7
f  22/1/1 20/1/1 41/1/1
f  20/1/5 27/1/5 42/1/5
f  43/1/2 15/1/2 28/1/2
f  14/1/3 31/1/3 28/1/3
f  12/1/1 29/1/1 44/1/1
f  45/1/4 29/1/4 22/1/4
f  31/1/3 14/1/3 11/1/3
f  46/1/5 30/1/5 16/1/5
f  30/1/4 24/1/4 23/1/4
f  23/1/6 24/1/6 31/1/6
f  12/1/3 47/1/3 32/1/3
f  32/1/6 31/1/6 24/1/6
f  48/1/2 33/1/2 24/1/2
f  16/1/3 33/1/3 46/1/3
f  34/1/2 15/1/2 37/1/2
f  49/1/1 18/1/1 34/1/1
f  18/1/1 50/1/1 35/1/1
f  50/1/2 25/1/2 35/1/2
f  36/1/6 25/1/6 51/1/6
f  13/1/6 36/1/6 52/1/6
f  13/1/6 52/1/6 37/1/6
f  43/1/6 26/1/6 37/1/6
f  38/1/5 26/1/5 42/1/5
f  39/1/5 19/1/5 38/1/5
f  38/1/8 40/1/8 19/1/8
f  53/1/5 27/1/5 39/1/5
f  27/1/7 40/1/7 54/1/7
f  20/1/3 55/1/3 41/1/3
f  56/1/9 22/1/10 41/1/10
f  27/1/5 53/1/5 42/1/5
f  54/1/11 42/1/11 27/1/11
f  20/1/5 42/1/5 26/1/5
f  37/1/2 15/1/2 43/1/2
f  43/1/2 28/1/2 57/1/2
f  31/1/6 58/1/6 28/1/6
f  29/1/2 47/1/2 44/1/2
f  47/1/3 12/1/3 44/1/3
f  29/1/4 45/1/4 59/1/4
f  22/1/10 56/1/9 45/1/9
f  46/1/5 60/1/5 30/1/5
f  24/1/4 30/1/4 48/1/4
f  47/1/6 58/1/6 32/1/6
f  32/1/6 58/1/6 31/1/6
f  61/1/2 33/1/2 48/1/2
f  46/1/1 33/1/1 49/1/1
f  37/1/4 49/1/4 34/1/4
f  62/1/1 18/1/1 49/1/1
f  50/1/1 18/1/1 62/1/1
f  25/1/2 50/1/2 51/1/2
f  50/1/4 36/1/4 51/1/4
f  52/1/6 36/1/6 61/1/6
f  49/1/4 37/1/4 52/1/4
f  43/1/6 63/1/6 26/1/6
f  42/1/5 64/1/5 38/1/5
f  65/1/12 38/1/12 42/1/12
f  39/1/5 38/1/5 66/1/5
f  40/1/8 38/1/8 67/1/8
f  39/1/3 54/1/3 53/1/3
f  67/1/5 54/1/5 40/1/5
f  54/1/3 39/1/3 40/1/3
f  55/1/3 20/1/3 26/1/3
f  41/1/3 55/1/3 56/1/3
f  42/1/5 53/1/5 64/1/5
f  42/1/11 54/1/11 65/1/11
f  58/1/2 57/1/2 28/1/2
f  57/1/3 60/1/3 43/1/3
f  47/1/2 29/1/2 59/1/2
f  59/1/4 45/1/4 68/1/4
f  69/1/13 45/1/9 56/1/9
f  49/1/5 60/1/5 46/1/5
f  30/1/5 60/1/5 70/1/5
f  30/1/1 71/1/1 48/1/1
f  58/1/6 47/1/6 59/1/6
f  36/1/2 33/1/2 61/1/2
f  61/1/2 48/1/2 71/1/2
f  62/1/1 49/1/1 33/1/1
f  36/1/4 50/1/4 62/1/4
f  52/1/6 61/1/6 60/1/6
f  60/1/5 49/1/5 52/1/5
f  60/1/6 63/1/6 43/1/6
f  26/1/6 63/1/6 72/1/6
f  66/1/5 38/1/5 64/1/5
f  38/1/12 65/1/12 67/1/12
f  67/1/6 39/1/6 66/1/6
f  39/1/6 67/1/6 40/1/6
f  54/1/1 64/1/1 53/1/1
f  54/1/5 67/1/5 65/1/5
f  55/1/3 26/1/3 73/1/3
f  56/1/3 55/1/3 69/1/3
f  64/1/1 54/1/1 65/1/1
f  57/1/2 58/1/2 74/1/2
f  60/1/3 57/1/3 70/1/3
f  45/1/9 69/1/13 68/1/13
f  59/1/4 68/1/4 58/1/4
f  70/1/1 71/1/1 30/1/1
f  33/1/2 36/1/2 62/1/2
f  71/1/3 75/1/3 61/1/3
f  61/1/6 63/1/6 60/1/6
f  76/1/14 72/1/15 63/1/15
f  77/1/3 26/1/3 72/1/3
f  64/1/4 67/1/4 66/1/4
f  67/1/4 64/1/4 65/1/4
f  73/1/3 26/1/3 78/1/3
f  79/1/5 55/1/5 73/1/5
f  69/1/3 55/1/3 80/1/3
f  58/1/4 81/1/4 74/1/4
f  74/1/1 70/1/1 57/1/1
f  80/1/16 68/1/13 69/1/13
f  82/1/4 58/1/4 68/1/4
f  74/1/1 71/1/1 70/1/1
f  75/1/3 71/1/3 83/1/3
f  75/1/6 63/1/6 61/1/6
f  72/1/15 76/1/14 77/1/14
f  84/1/4 76/1/4 63/1/4
f  85/1/3 26/1/3 77/1/3
f  78/1/3 26/1/3 86/1/3
f  78/1/1 79/1/1 73/1/1
f  55/1/5 79/1/5 81/1/5
f  80/1/3 55/1/3 87/1/3
f  58/1/4 82/1/4 81/1/4
f  74/1/4 81/1/4 79/1/4
f  68/1/13 80/1/16 82/1/16
f  88/1/1 71/1/1 74/1/1
f  71/1/1 88/1/1 83/1/1
f  88/1/2 75/1/2 83/1/2
f  63/1/6 75/1/6 84/1/6
f  89/1/17 77/1/14 76/1/14
f  84/1/4 89/1/4 76/1/4
f  90/1/3 26/1/3 85/1/3
f  77/1/14 89/1/17 85/1/17
f  86/1/3 26/1/3 91/1/3
f  92/1/3 78/1/3 86/1/3
f  79/1/1 78/1/1 93/1/1
f  94/1/6 55/1/6 81/1/6
f  87/1/3 55/1/3 95/1/3
f  96/1/18 80/1/16 87/1/18
f  81/1/4 82/1/4 96/1/4
f  74/1/4 79/1/4 97/1/4
f  80/1/16 96/1/18 82/1/16
f  74/1/4 89/1/4 88/1/4
f  75/1/2 88/1/2 84/1/2
f  88/1/4 89/1/4 84/1/4
f  91/1/3 26/1/3 90/1/3
f  85/1/17 98/1/19 90/1/19
f  98/1/19 85/1/17 89/1/17
f  99/1/20 86/1/21 91/1/20
f  92/1/3 100/1/3 78/1/3
f  97/1/21 92/1/5 86/1/21
f  78/1/2 94/1/2 93/1/2
f  93/1/4 97/1/4 79/1/4
f  55/1/6 94/1/6 100/1/6
f  81/1/4 101/1/4 94/1/4
f  100/1/3 95/1/3 55/1/3
f  101/1/22 87/1/18 95/1/22
f  87/1/18 101/1/22 96/1/18
f  81/1/4 96/1/4 101/1/4
f  74/1/4 97/1/4 99/1/4
f  74/1/4 98/1/4 89/1/4
f  98/1/19 91/1/20 90/1/19
f  86/1/21 99/1/20 97/1/21
f  91/1/20 98/1/19 99/1/20
f  95/1/3 100/1/3 92/1/3
f  94/1/2 78/1/2 100/1/2
f  92/1/5 97/1/21 102/1/5
f  94/1/4 102/1/4 93/1/4
f  93/1/4 102/1/4 97/1/4
f  102/1/4 94/1/4 101/1/4
f  95/1/22 102/1/5 101/1/22
f  74/1/4 99/1/4 98/1/4
f  102/1/5 95/1/22 92/1/5

# Mesh 'mesh1_mesh1-geometry' with 212 faces
g mesh1_mesh1-geometry
usemtl material_1_1_8
f  3/2/6 2/3/6 1/4/6
f  4/5/6 1/4/6 2/3/6
f  3/6/5 5/7/5 2/8/5
f  3/9/4 1/10/4 5/11/4
f  6/12/6 1/4/6 4/5/6
f  4/13/3 2/14/3 7/15/3
f  8/16/5 2/8/5 5/7/5
f  9/17/4 5/11/4 1/10/4
f  10/18/6 1/4/6 6/12/6
f  6/12/6 4/5/6 11/19/6
f  8/20/3 7/15/3 2/14/3
f  4/8/5 7/16/5 12/21/5
f  7/22/6 5/23/6 8/24/6
f  8/24/1 5/23/1 7/22/1
f  5/23/6 7/22/6 9/25/6
f  9/25/1 7/22/1 5/23/1
f  13/26/4 9/17/4 1/10/4
f  14/27/6 1/4/6 10/18/6
f  10/28/3 6/29/3 15/30/3
f  4/5/6 12/31/6 11/19/6
f  11/32/2 16/33/2 6/34/2
f  17/35/5 12/21/5 7/16/5
f  9/25/6 7/22/6 21/36/6
f  21/36/1 7/22/1 9/25/1
f  18/37/4 9/17/4 13/26/4
f  1/38/2 19/39/2 13/40/2
f  1/4/6 14/27/6 20/41/6
f  10/8/5 15/16/5 14/21/5
f  21/42/3 15/30/3 6/29/3
f  11/19/6 12/31/6 22/43/6
f  21/44/2 6/34/2 16/33/2
f  23/45/2 16/33/2 11/32/2
f  24/46/5 12/21/5 17/35/5
f  16/47/6 7/22/6 17/48/6
f  17/48/1 7/22/1 16/47/1
f  21/36/6 7/22/6 16/47/6
f  16/47/1 7/22/1 21/36/1
f  9/25/6 21/36/6 15/49/6
f  15/49/1 21/36/1 9/25/1
f  9/7/5 18/50/5 15/16/5
f  25/51/4 18/37/4 13/26/4
f  26/52/2 13/40/2 19/39/2
f  19/39/2 1/38/2 27/53/2
f  20/41/6 14/27/6 22/43/6
f  20/54/2 27/53/2 1/38/2
f  14/21/5 15/16/5 28/55/5
f  22/43/6 12/31/6 29/56/6
f  14/27/6 11/19/6 22/43/6
f  30/57/2 16/33/2 23/45/2
f  31/58/2 23/45/2 11/32/2
f  32/55/5 12/21/5 24/46/5
f  33/59/5 24/46/5 17/35/5
f  17/60/4 16/61/4 33/62/4
f  34/63/5 15/16/5 18/50/5
f  35/64/4 18/37/4 25/51/4
f  13/65/1 36/66/1 25/23/1
f  26/67/1 37/68/1 13/65/1
f  38/69/2 26/52/2 19/39/2
f  41/70/6 20/41/6 22/43/6
f  42/71/2 27/53/2 20/54/2
f  28/55/5 15/16/5 43/72/5
f  28/17/4 31/61/4 14/73/4
f  44/74/6 29/56/6 12/31/6
f  22/75/3 29/14/3 45/76/3
f  11/77/4 14/73/4 31/61/4
f  16/33/2 30/57/2 46/78/2
f  23/42/3 24/15/3 30/79/3
f  31/80/1 24/81/1 23/82/1
f  32/60/4 47/11/4 12/83/4
f  24/81/1 31/80/1 32/84/1
f  24/46/5 33/59/5 48/85/5
f  46/86/4 33/62/4 16/61/4
f  37/87/5 15/16/5 34/63/5
f  34/88/6 18/89/6 49/90/6
f  35/2/6 50/91/6 18/89/6
f  35/50/5 25/92/5 50/63/5
f  51/93/1 25/23/1 36/66/1
f  52/94/1 36/66/1 13/65/1
f  37/68/1 52/94/1 13/65/1
f  37/68/1 26/67/1 43/95/1
f  42/71/2 26/52/2 38/69/2
f  41/96/4 55/97/4 20/10/4
f  41/98/23 22/99/23 56/100/24
f  26/52/2 42/71/2 20/54/2
f  43/72/5 15/16/5 37/87/5
f  57/101/5 28/55/5 43/72/5
f  28/102/1 58/103/1 31/80/1
f  44/21/5 47/55/5 29/104/5
f  44/9/4 12/83/4 47/11/4
f  59/20/3 45/76/3 29/14/3
f  45/105/24 56/100/24 22/99/23
f  30/57/2 60/106/2 46/78/2
f  48/107/3 30/79/3 24/15/3
f  32/84/1 58/103/1 47/108/1
f  31/80/1 58/103/1 32/84/1
f  48/85/5 33/59/5 61/72/5
f  49/90/6 33/109/6 46/110/6
f  34/111/3 49/79/3 37/112/3
f  49/90/6 18/89/6 62/113/6
f  62/113/6 18/89/6 50/91/6
f  51/87/5 50/63/5 25/92/5
f  51/114/3 36/115/3 50/116/3
f  61/117/1 36/66/1 52/94/1
f  52/118/3 37/112/3 49/79/3
f  26/67/1 63/119/1 43/95/1
f  53/120/4 54/121/4 39/122/4
f  40/123/4 39/122/4 54/121/4
f  26/26/4 20/10/4 55/97/4
f  56/124/4 55/97/4 41/96/4
f  28/55/5 57/101/5 58/125/5
f  43/126/4 60/127/4 57/37/4
f  59/125/5 29/104/5 47/55/5
f  68/128/3 45/76/3 59/20/3
f  56/129/24 45/130/24 69/131/25
f  46/78/2 60/106/2 49/132/2
f  70/133/2 60/106/2 30/57/2
f  48/134/6 71/135/6 30/136/6
f  59/137/1 47/108/1 58/103/1
f  61/72/5 33/59/5 36/87/5
f  71/101/5 48/85/5 61/72/5
f  33/109/6 49/90/6 62/113/6
f  62/107/3 50/116/3 36/115/3
f  60/138/1 61/117/1 52/94/1
f  52/139/2 49/132/2 60/106/2
f  43/95/1 63/119/1 60/138/1
f  72/140/1 63/119/1 26/67/1
f  66/141/1 39/142/1 67/143/1
f  40/144/1 67/143/1 39/142/1
f  53/145/6 64/146/6 54/147/6
f  73/148/4 26/26/4 55/97/4
f  69/149/4 55/97/4 56/124/4
f  65/150/6 54/147/6 64/146/6
f  74/151/5 58/125/5 57/101/5
f  70/86/4 57/37/4 60/127/4
f  68/152/25 69/131/25 45/130/24
f  58/30/3 68/128/3 59/20/3
f  30/136/6 71/135/6 70/153/6
f  62/63/5 36/87/5 33/59/5
f  61/154/4 75/51/4 71/62/4
f  60/138/1 63/119/1 61/117/1
f  63/155/26 72/156/26 76/157/27
f  72/158/4 26/26/4 77/159/4
f  66/160/3 67/161/3 64/162/3
f  65/163/3 64/162/3 67/161/3
f  78/164/4 26/26/4 73/148/4
f  73/165/2 55/166/2 79/167/2
f  80/168/4 55/97/4 69/149/4
f  74/111/3 81/169/3 58/30/3
f  57/170/6 70/153/6 74/171/6
f  69/172/25 68/173/25 80/174/28
f  68/128/3 58/30/3 82/175/3
f  70/153/6 71/135/6 74/171/6
f  83/64/4 71/62/4 75/51/4
f  61/117/1 63/119/1 75/176/1
f  77/177/27 76/157/27 72/156/26
f  63/178/3 76/179/3 84/114/3
f  77/159/4 26/26/4 85/180/4
f  86/181/4 26/26/4 78/164/4
f  73/182/6 79/183/6 78/184/6
f  81/185/2 79/167/2 55/166/2
f  87/186/4 55/97/4 80/168/4
f  81/169/3 82/175/3 58/30/3
f  79/187/3 81/169/3 74/111/3
f  82/188/28 80/174/28 68/173/25
f  74/171/6 71/135/6 88/56/6
f  83/189/6 88/56/6 71/135/6
f  83/101/5 75/72/5 88/151/5
f  84/137/1 75/176/1 63/119/1
f  76/190/27 77/191/27 89/192/29
f  76/179/3 89/193/3 84/114/3
f  85/180/4 26/26/4 90/194/4
f  85/195/29 89/192/29 77/191/27
f  91/196/4 26/26/4 86/181/4
f  86/181/4 78/164/4 92/197/4
f  93/198/6 78/184/6 79/183/6
f  81/199/1 55/200/1 94/201/1
f  95/202/4 55/97/4 87/186/4
f  87/203/30 80/204/28 96/205/30
f  96/206/3 82/175/3 81/169/3
f  97/207/3 79/187/3 74/111/3
f  82/208/28 96/205/30 80/204/28
f  88/116/3 89/193/3 74/111/3
f  84/209/5 88/151/5 75/72/5
f  84/114/3 89/193/3 88/116/3
f  90/194/4 26/26/4 91/196/4
f  90/210/31 98/211/31 85/212/29
f  89/213/29 85/212/29 98/211/31
f  91/214/32 86/215/33 99/216/32
f  78/164/4 100/217/4 92/197/4
f  86/218/33 92/219/2 97/220/33
f  93/221/5 94/222/5 78/223/5
f  79/187/3 97/207/3 93/224/3
f  100/225/1 94/201/1 55/200/1
f  94/226/3 101/227/3 81/169/3
f  55/97/4 95/202/4 100/217/4
f  95/228/34 87/229/30 101/230/34
f  96/231/30 101/230/34 87/229/30
f  101/227/3 96/206/3 81/169/3
f  99/232/3 97/207/3 74/111/3
f  89/193/3 98/233/3 74/111/3
f  90/234/31 91/235/32 98/236/31
f  97/237/33 99/216/32 86/215/33
f  99/238/32 98/236/31 91/235/32
f  92/197/4 100/217/4 95/202/4
f  100/239/5 78/223/5 94/222/5
f  102/240/2 97/220/33 92/219/2
f  93/224/3 102/241/3 94/226/3
f  97/207/3 102/241/3 93/224/3
f  101/227/3 94/226/3 102/241/3
f  101/242/34 102/243/2 95/244/34
f  98/233/3 99/232/3 74/111/3
f  92/245/2 95/244/34 102/243/2

# Mesh 'mesh1_mesh1-geometry' with 18 faces
g mesh1_mesh1-geometry
usemtl material_2_2_8
f  27/246/2 39/247/2 19/248/2
f  19/249/35 27/250/35 40/251/35
f  38/252/2 19/248/2 39/247/2
f  19/253/36 40/254/36 38/255/36
f  39/247/2 27/246/2 53/256/2
f  54/257/35 40/251/35 27/250/35
f  42/258/2 53/256/2 27/246/2
f  27/259/37 42/260/37 54/261/37
f  38/252/2 64/262/2 42/258/2
f  42/263/38 38/264/38 65/265/38
f  66/266/2 38/252/2 39/247/2
f  67/267/36 38/255/36 40/254/36
f  40/247/2 54/256/2 67/266/2
f  64/262/2 53/256/2 42/258/2
f  65/268/37 54/261/37 42/260/37
f  64/262/2 38/252/2 66/266/2
f  67/269/38 65/265/38 38/264/38
f  65/262/2 67/266/2 54/256/2

