# File produced by Open Asset Import Library (http://www.assimp.sf.net)
# (assimp v3.2.202087883)

mtllib model_normalized.mtl

# 88 vertex positions
v 0.139262 -0.338671 0.104447
v 0.104447 -0.338671 0.069631
v 0.139262 -0.338671 0.069631
v 0.104447 -0.338671 0.104447
v 0.139262 -0.164569 0.069631
v 0.104447 -0.164569 0.104447
v 0.104447 -0.164569 0.069631
v 0.139262 0.079115 0.104447
v 0.104447 -0.129754 0.104447
v 0.104447 -0.164569 -0.139262
v 0.139262 -0.129754 0.069631
v 0.104447 0.044324 0.104447
v -0.104447 -0.129754 0.104447
v -0.104447 -0.164569 0.069631
v 0.139262 -0.164569 -0.139262
v 0.104447 -0.129754 0.069631
v 0.139262 -0.129754 -0.139262
v 0.139262 0.044324 0.069631
v -0.104447 0.044324 0.104447
v -0.104447 -0.164569 0.104447
v 0.139262 -0.338646 -0.139262
v 0.104447 -0.129754 -0.139262
v 0.139262 0.079115 -0.174078
v -0.139262 0.079115 0.104447
v -0.104447 0.044324 0.069631
v 0.104447 0.044324 0.069631
v -0.104447 -0.129754 0.069631
v -0.104447 -0.338671 0.069631
v 0.104447 -0.338646 -0.139262
v -0.104447 -0.129754 -0.139262
v 0.104447 0.044324 -0.139262
v 0.139262 0.044324 -0.139262
v -0.104447 -0.338671 0.104447
v -0.139262 -0.338671 0.069631
v -0.104447 -0.164569 -0.139262
v 0.104447 -0.164569 -0.174078
v 0.139262 -0.338646 -0.174078
v 0.104447 -0.129754 -0.174078
v 0.104447 0.044324 -0.174078
v -0.139262 -0.338671 0.104447
v 0.104447 0.079115 0.069631
v -0.139262 -0.129754 0.069631
v -0.139262 -0.164569 0.069631
v -0.139262 -0.164569 -0.139262
v 0.104447 -0.338646 -0.174078
v -0.104447 -0.164569 -0.174078
v -0.104447 -0.129754 -0.174078
v -0.104447 0.044324 -0.174078
v -0.104447 0.079115 -0.139262
v 0.104447 0.079115 -0.139262
v -0.104447 0.079115 0.069631
v -0.139262 0.044324 0.069631
v -0.139262 -0.129754 -0.139262
v -0.104447 -0.338671 -0.139262
v -0.104447 -0.338671 -0.174078
v -0.104447 0.044324 -0.139262
v -0.139262 0.079115 -0.174078
v -0.139262 0.044324 -0.139262
v -0.139262 -0.338671 -0.139262
v -0.139262 -0.338671 -0.174078
v 0.174078 0.079115 0.139262
v 0.174078 0.079115 -0.208893
v -0.174078 0.079115 0.139262
v -0.174078 0.079115 -0.208893
v 0.174078 0.113930 -0.208893
v -0.139262 0.113930 0.139262
v 0.174078 0.113930 0.104447
v -0.174078 0.531717 0.139262
v 0.139262 0.113930 0.139262
v -0.174078 0.113930 -0.208893
v -0.174078 0.113930 0.104447
v 0.174078 0.531717 0.139262
v -0.139262 0.496901 0.139262
v 0.139262 0.288008 0.139262
v 0.139262 0.113930 0.104447
v -0.139262 0.113930 0.104447
v 0.174078 0.531717 0.104447
v 0.139262 0.496901 0.139262
v -0.139262 0.288008 0.139262
v -0.174078 0.531717 0.104447
v 0.139262 0.322824 0.139262
v -0.139262 0.496901 0.104447
v -0.139262 0.288008 0.104447
v -0.139262 0.322824 0.139262
v 0.139262 0.288008 0.104447
v -0.139262 0.322824 0.104447
v 0.139262 0.322824 0.104447
v 0.139262 0.496901 0.104447

# 127 UV coordinates
vt -0.083333 0 0
vt 0 -0.083333 0
vt 0 0 0
vt -0.083333 -0.083333 0
vt 0.083333 0 0
vt 0 0.416727 0
vt -0.083333 0.416727 0
vt 0.083333 0.416727 0
vt -0.083333 1 0
vt -0.083333 0.50006 0
vt 0.5 -0.083333 0
vt 0 0.50006 0
vt 0 1 0
vt -0.083333 0.916727 0
vt -0.583333 0.50006 0
vt 0 -0.583333 0
vt 0.5 0 0
vt -0.5 0.416727 0
vt 0.5 0.50006 0
vt 0 0.916727 0
vt -0.583333 0.916727 0
vt 0.083333 0.916727 0
vt 0.083333 0.50006 0
vt -0.583333 0.416727 0
vt 0.083333 -0.583333 0
vt 0.083333 -0.083333 0
vt -0.083333 -0.583333 0
vt 0.583333 0.416727 0
vt 0 6e-05 0
vt 0.5 0.416727 0
vt -0.5 0.50006 0
vt 0.583333 1 0
vt -0.666667 1 0
vt 0.583333 0.50006 0
vt -0.083333 6e-05 0
vt 0.5 6e-05 0
vt 0.5 0.916727 0
vt -0.583333 0 0
vt 0.666667 0 0
vt 0.583333 0 0
vt -0.5 0 0
vt -0.5 -0.083333 0
vt 0.583333 6e-05 0
vt -0.583333 -0.083333 0
vt -0.5 -0.583333 0
vt 0.583333 0.916727 0
vt -0.666667 0 0
vt 0.083333 1 0
vt 0.666667 0.50006 0
vt 0 -0.666667 0
vt 0.666667 0.416727 0
vt 0.5 -0.666667 0
vt 0.5 -0.583333 0
vt 0.583333 -0.583333 0
vt 0.583333 -0.083333 0
vt -0.583333 -0.583333 0
vt -0.5 0.916727 0
vt -0.583333 1 0
vt -0.5 1 0
vt -0.083333 -0.666667 0
vt 0.666667 0.916727 0
vt -0.666667 0.416727 0
vt -0.666667 0.916727 0
vt -0.666667 0.50006 0
vt -0.5 -0.666667 0
vt -0.583333 -0.666667 0
vt 0.291667 0 0
vt -0.083333 0.041667 0
vt -0.041667 0 0
vt -0.041667 -0.333333 0
vt 0.333333 0.041667 0
vt -0.083333 -0.375 0
vt 0.333333 -0.375 0
vt 0.333333 0.541667 0
vt -0.083333 0.5 0
vt 0.333333 0.5 0
vt -0.25 -0.291667 0
vt -0.25 -0.041667 0
vt 0 -0.291667 0
vt 0 -0.041667 0
vt 0.291667 -0.333333 0
vt -0.333333 0.541667 0
vt -0.375 0.5 0
vt 0.041667 0.5 0
vt 0.375 0.5 0
vt -0.041667 0.541667 0
vt -0.041667 0.5 0
vt -0.375 1.04167 0
vt -0 0.541667 0
vt 0.375 0.541667 0
vt -0.333333 0.041667 0
vt 0.041667 -0.375 0
vt 0.041667 0.041667 0
vt -0.083333 1.04167 0
vt 0.083333 0.5 0
vt 0.041667 0.541667 0
vt -0.333333 0.5 0
vt -0.333333 1 0
vt 0.083333 1.04167 0
vt -0 0.75 0
vt 0.041667 -0 0
vt 0.083333 -0.333333 0
vt -0.333333 -0.375 0
vt 0.041667 -0.333333 0
vt -0.041667 1.04167 0
vt 0.041667 1.04167 0
vt -0.333333 0.75 0
vt -0 0.791667 0
vt 0.083333 0.75 0
vt 0.083333 0.541667 0
vt 0.333333 1 0
vt 0.083333 -0.375 0
vt 0.083333 0.041667 0
vt -0.083333 0.541667 0
vt -0.041667 0.75 0
vt -0.083333 0.75 0
vt -0.333333 0.791667 0
vt 0.375 1.04167 0
vt 0.041667 0.75 0
vt 0.333333 0.791667 0
vt 0.041667 0.791667 0
vt 0.083333 0.791667 0
vt -0.083333 0.791667 0
vt -0.041667 1 0
vt 0.333333 0.75 0
vt -0.041667 0.791667 0
vt 0.041667 1 0

# 6 vertex normals
vn 0 -0.0254 0
vn 0 0 -0.0254
vn 0.0254 0 0
vn 0 0 0.0254
vn -0.0254 0 0
vn 0 0.0254 0

# Mesh 'mesh1_mesh1-geometry' with 128 faces
g mesh1_mesh1-geometry
usemtl material_0_1_8
f  1/1/1 2/2/1 3/3/1
f  2/2/1 1/1/1 4/4/1
f  2/5/2 5/6/2 3/3/2
f  5/6/3 1/1/3 3/3/3
f  1/3/4 6/7/4 4/1/4
f  6/8/5 2/3/5 4/5/5
f  5/6/2 2/5/2 7/8/2
f  1/1/3 5/6/3 8/9/3
f  6/7/4 1/3/4 9/10/4
f  2/3/5 6/8/5 7/6/5
f  10/11/1 5/3/1 7/2/1
f  8/9/3 5/6/3 11/12/3
f  8/13/4 12/14/4 1/3/4
f  9/10/4 1/3/4 12/14/4
f  13/15/4 6/7/4 9/10/4
f  6/4/1 14/16/1 7/2/1
f  5/3/1 10/11/1 15/17/1
f  16/12/5 10/18/5 7/6/5
f  11/12/3 5/6/3 17/19/3
f  8/9/3 11/12/3 18/20/3
f  8/13/4 19/21/4 12/14/4
f  12/22/5 16/12/5 9/23/5
f  6/7/4 13/15/4 20/24/4
f  16/2/6 13/25/6 9/26/6
f  14/16/1 6/4/1 20/27/1
f  14/28/2 16/23/2 7/8/2
f  10/7/4 21/29/4 15/6/4
f  15/30/3 17/19/3 5/6/3
f  10/18/5 16/12/5 22/31/5
f  17/17/6 22/11/6 11/3/6
f  16/23/2 18/20/2 11/12/2
f  8/9/3 18/20/3 23/32/3
f  24/33/4 19/21/4 8/13/4
f  25/16/1 12/4/1 19/27/1
f  16/12/5 12/22/5 26/20/5
f  19/21/4 20/24/4 13/15/4
f  13/25/6 16/2/6 27/16/6
f  14/6/3 20/8/3 28/3/3
f  16/23/2 14/28/2 27/34/2
f  21/29/4 10/7/4 29/35/4
f  21/36/3 23/32/3 15/30/3
f  15/30/3 23/32/3 17/19/3
f  16/2/6 11/3/6 22/11/6
f  30/15/4 10/7/4 22/10/4
f  17/12/4 31/14/4 22/10/4
f  18/20/2 16/23/2 26/22/2
f  32/37/3 23/32/3 18/20/3
f  24/33/4 33/38/4 19/21/4
f  12/4/1 25/16/1 26/2/1
f  25/20/3 19/22/3 27/12/3
f  19/21/4 33/38/4 20/24/4
f  13/23/3 27/12/3 19/22/3
f  33/5/3 28/3/3 20/8/3
f  34/39/2 14/28/2 28/40/2
f  14/6/3 35/18/3 27/12/3
f  10/30/5 36/28/5 29/36/5
f  21/41/1 29/42/1 37/38/1
f  23/32/3 21/36/3 37/43/3
f  17/19/3 23/32/3 32/37/3
f  10/7/4 30/15/4 35/24/4
f  38/44/6 30/45/6 22/42/6
f  31/14/4 17/12/4 32/20/4
f  31/37/5 39/46/5 22/19/5
f  31/11/1 18/3/1 26/2/1
f  18/3/1 31/11/1 32/17/1
f  33/38/4 24/33/4 40/47/4
f  25/46/2 41/48/2 26/22/2
f  42/49/2 25/46/2 27/34/2
f  33/27/1 34/50/1 28/16/1
f  14/28/2 34/39/2 43/51/2
f  30/31/3 27/12/3 35/18/3
f  14/16/1 44/52/1 35/53/1
f  45/43/5 29/36/5 36/28/5
f  10/11/1 46/54/1 36/55/1
f  45/44/1 37/38/1 29/42/1
f  37/29/2 39/14/2 23/13/2
f  46/54/1 10/11/1 35/53/1
f  30/45/6 38/44/6 47/56/6
f  38/34/5 22/19/5 39/46/5
f  31/11/1 48/54/1 39/55/1
f  41/13/5 31/57/5 26/20/5
f  49/58/4 31/14/4 50/9/4
f  31/57/5 41/13/5 50/59/5
f  24/48/5 34/3/5 40/5/5
f  34/50/1 33/27/1 40/60/1
f  41/48/2 25/46/2 51/32/2
f  25/46/2 42/49/2 52/61/2
f  42/50/6 27/16/6 53/52/6
f  34/3/5 24/48/5 43/6/5
f  44/52/1 14/16/1 43/50/1
f  30/53/6 53/52/6 27/16/6
f  44/62/4 54/38/4 35/24/4
f  45/35/2 36/7/2 37/29/2
f  46/24/2 47/15/2 36/7/2
f  39/14/2 48/21/2 23/13/2
f  39/14/2 37/29/2 38/10/2
f  46/24/3 35/18/3 55/38/3
f  38/10/2 36/7/2 47/15/2
f  30/31/3 47/15/3 56/57/3
f  48/54/1 31/11/1 56/53/1
f  23/13/2 48/21/2 57/33/2
f  31/14/4 49/58/4 56/21/4
f  49/59/3 51/13/3 56/57/3
f  57/58/5 58/57/5 24/48/5
f  25/20/3 56/57/3 51/13/3
f  42/12/5 24/48/5 52/20/5
f  25/16/1 52/50/1 56/45/1
f  53/31/5 44/18/5 42/12/5
f  43/6/5 24/48/5 42/12/5
f  43/6/5 42/12/5 44/18/5
f  30/15/4 58/63/4 53/64/4
f  54/38/4 44/62/4 59/47/4
f  54/41/3 55/38/3 35/18/3
f  38/10/2 37/29/2 36/7/2
f  47/15/2 46/24/2 48/21/2
f  46/24/2 55/38/2 48/21/2
f  48/21/3 56/57/3 47/15/3
f  58/63/4 30/15/4 56/21/4
f  48/21/2 55/38/2 57/33/2
f  57/58/5 53/31/5 58/57/5
f  52/20/5 24/48/5 58/57/5
f  58/65/1 56/45/1 52/50/1
f  57/58/5 44/18/5 53/31/5
f  44/18/5 60/38/5 59/41/5
f  54/45/1 59/65/1 55/56/1
f  60/47/2 57/33/2 55/38/2
f  60/38/5 44/18/5 57/58/5
f  60/66/1 55/56/1 59/65/1

# Mesh 'mesh1_mesh1-geometry' with 216 faces
g mesh1_mesh1-geometry
usemtl material_1_24
f  3/3/6 2/3/6 1/3/6
f  4/3/6 1/3/6 2/3/6
f  3/3/4 5/3/4 2/3/4
f  3/3/5 1/3/5 5/3/5
f  4/3/2 6/3/2 1/3/2
f  4/3/3 2/3/3 6/3/3
f  7/3/4 2/3/4 5/3/4
f  8/3/5 5/3/5 1/3/5
f  9/3/2 1/3/2 6/3/2
f  7/3/3 6/3/3 2/3/3
f  7/3/6 5/3/6 10/3/6
f  11/3/5 5/3/5 8/3/5
f  1/3/2 12/3/2 8/3/2
f  12/3/2 1/3/2 9/3/2
f  9/3/2 6/3/2 13/3/2
f  7/3/6 14/3/6 6/3/6
f  15/3/6 10/3/6 5/3/6
f  7/3/3 10/3/3 16/3/3
f  17/3/5 5/3/5 11/3/5
f  18/3/5 11/3/5 8/3/5
f  12/3/2 19/3/2 8/3/2
f  9/3/3 16/3/3 12/3/3
f  20/3/2 13/3/2 6/3/2
f  9/3/1 13/3/1 16/3/1
f  20/3/6 6/3/6 14/3/6
f  7/3/4 16/3/4 14/3/4
f  15/3/2 21/3/2 10/3/2
f  5/3/5 17/3/5 15/3/5
f  22/3/3 16/3/3 10/3/3
f  11/3/1 22/3/1 17/3/1
f  11/3/4 18/3/4 16/3/4
f  23/3/5 18/3/5 8/3/5
f  8/3/2 19/3/2 24/3/2
f  19/3/6 12/3/6 25/3/6
f  26/3/3 12/3/3 16/3/3
f  13/3/2 20/3/2 19/3/2
f  27/3/1 16/3/1 13/3/1
f  28/3/5 20/3/5 14/3/5
f  27/3/4 14/3/4 16/3/4
f  29/3/2 10/3/2 21/3/2
f  15/3/5 23/3/5 21/3/5
f  17/3/5 23/3/5 15/3/5
f  22/3/1 11/3/1 16/3/1
f  22/3/2 10/3/2 30/3/2
f  22/3/2 31/3/2 17/3/2
f  26/3/4 16/3/4 18/3/4
f  18/3/5 23/3/5 32/3/5
f  8/3/6 61/3/6 23/3/6
f  23/3/6 50/3/6 8/3/6
f  8/3/1 50/3/1 23/3/1
f  19/3/2 33/3/2 24/3/2
f  24/3/6 61/3/6 8/3/6
f  8/3/6 41/3/6 24/3/6
f  24/3/1 41/3/1 8/3/1
f  26/3/6 25/3/6 12/3/6
f  27/3/5 19/3/5 25/3/5
f  20/3/2 33/3/2 19/3/2
f  19/3/5 27/3/5 13/3/5
f  20/3/5 28/3/5 33/3/5
f  28/3/4 14/3/4 34/3/4
f  27/3/5 35/3/5 14/3/5
f  29/3/3 36/3/3 10/3/3
f  37/3/6 29/3/6 21/3/6
f  37/3/5 21/3/5 23/3/5
f  32/3/5 23/3/5 17/3/5
f  35/3/2 30/3/2 10/3/2
f  22/3/1 30/3/1 38/3/1
f  32/3/2 17/3/2 31/3/2
f  22/3/3 39/3/3 31/3/3
f  26/3/6 18/3/6 31/3/6
f  32/3/6 31/3/6 18/3/6
f  61/3/6 62/3/6 23/3/6
f  50/3/6 23/3/6 49/3/6
f  49/3/1 23/3/1 50/3/1
f  8/3/6 50/3/6 41/3/6
f  41/3/1 50/3/1 8/3/1
f  40/3/2 24/3/2 33/3/2
f  61/3/6 24/3/6 63/3/6
f  51/3/6 24/3/6 41/3/6
f  41/3/1 24/3/1 51/3/1
f  26/3/4 41/3/4 25/3/4
f  27/3/4 25/3/4 42/3/4
f  28/3/6 34/3/6 33/3/6
f  43/3/4 34/3/4 14/3/4
f  35/3/5 27/3/5 30/3/5
f  35/3/6 44/3/6 14/3/6
f  36/3/3 29/3/3 45/3/3
f  36/3/6 46/3/6 10/3/6
f  29/3/6 37/3/6 45/3/6
f  23/3/4 39/3/4 37/3/4
f  35/3/6 10/3/6 46/3/6
f  47/3/1 38/3/1 30/3/1
f  39/3/3 22/3/3 38/3/3
f  39/3/6 48/3/6 31/3/6
f  26/3/3 31/3/3 41/3/3
f  64/3/6 23/3/6 62/3/6
f  62/3/5 61/3/5 65/3/5
f  57/3/6 49/3/6 23/3/6
f  23/3/1 49/3/1 57/3/1
f  50/3/2 31/3/2 49/3/2
f  51/3/6 50/3/6 49/3/6
f  50/3/3 41/3/3 31/3/3
f  50/3/6 51/3/6 41/3/6
f  40/3/3 34/3/3 24/3/3
f  40/3/6 33/3/6 34/3/6
f  24/3/6 57/3/6 63/3/6
f  61/3/2 63/3/2 66/3/2
f  49/3/6 24/3/6 51/3/6
f  51/3/1 24/3/1 49/3/1
f  51/3/4 25/3/4 41/3/4
f  52/3/4 42/3/4 25/3/4
f  53/3/1 27/3/1 42/3/1
f  43/3/3 24/3/3 34/3/3
f  43/3/6 14/3/6 44/3/6
f  27/3/1 53/3/1 30/3/1
f  35/3/2 54/3/2 44/3/2
f  37/3/4 36/3/4 45/3/4
f  36/3/4 47/3/4 46/3/4
f  23/3/4 48/3/4 39/3/4
f  38/3/4 37/3/4 39/3/4
f  55/3/5 35/3/5 46/3/5
f  47/3/4 36/3/4 38/3/4
f  56/3/5 47/3/5 30/3/5
f  56/3/6 31/3/6 48/3/6
f  23/3/6 64/3/6 57/3/6
f  62/3/4 65/3/4 64/3/4
f  67/3/5 65/3/5 61/3/5
f  49/3/6 57/3/6 24/3/6
f  24/3/1 57/3/1 49/3/1
f  57/3/4 48/3/4 23/3/4
f  56/3/2 49/3/2 31/3/2
f  56/3/5 51/3/5 49/3/5
f  63/3/6 57/3/6 64/3/6
f  24/3/3 58/3/3 57/3/3
f  68/3/2 66/3/2 63/3/2
f  69/3/2 61/3/2 66/3/2
f  51/3/5 56/3/5 25/3/5
f  52/3/3 24/3/3 42/3/3
f  56/3/6 52/3/6 25/3/6
f  42/3/3 44/3/3 53/3/3
f  42/3/3 24/3/3 43/3/3
f  44/3/3 42/3/3 43/3/3
f  53/3/2 58/3/2 30/3/2
f  59/3/2 44/3/2 54/3/2
f  35/3/5 55/3/5 54/3/5
f  36/3/4 37/3/4 38/3/4
f  48/3/4 46/3/4 47/3/4
f  48/3/4 55/3/4 46/3/4
f  47/3/5 56/3/5 48/3/5
f  56/3/2 30/3/2 58/3/2
f  70/3/4 64/3/4 65/3/4
f  67/3/1 71/3/1 65/3/1
f  72/3/5 67/3/5 61/3/5
f  57/3/4 55/3/4 48/3/4
f  64/3/3 71/3/3 63/3/3
f  58/3/3 53/3/3 57/3/3
f  58/3/3 24/3/3 52/3/3
f  66/3/2 68/3/2 73/3/2
f  68/3/3 63/3/3 71/3/3
f  74/3/2 61/3/2 69/3/2
f  69/3/1 66/3/1 75/3/1
f  52/3/6 56/3/6 58/3/6
f  53/3/3 44/3/3 57/3/3
f  59/3/3 60/3/3 44/3/3
f  55/3/6 59/3/6 54/3/6
f  71/3/3 64/3/3 70/3/3
f  70/3/1 65/3/1 71/3/1
f  76/3/1 71/3/1 67/3/1
f  77/3/5 67/3/5 72/3/5
f  61/3/2 78/3/2 72/3/2
f  55/3/4 57/3/4 60/3/4
f  72/3/2 73/3/2 68/3/2
f  79/3/2 66/3/2 73/3/2
f  80/3/3 68/3/3 71/3/3
f  81/3/2 61/3/2 74/3/2
f  69/3/3 75/3/3 74/3/3
f  76/3/1 75/3/1 66/3/1
f  57/3/3 44/3/3 60/3/3
f  59/3/6 55/3/6 60/3/6
f  71/3/4 76/3/4 82/3/4
f  75/3/1 76/3/1 67/3/1
f  67/3/4 77/3/4 75/3/4
f  72/3/1 68/3/1 77/3/1
f  78/3/2 73/3/2 72/3/2
f  78/3/2 61/3/2 81/3/2
f  79/3/5 83/3/5 66/3/5
f  84/3/2 79/3/2 73/3/2
f  80/3/1 77/3/1 68/3/1
f  71/3/4 82/3/4 80/3/4
f  81/3/2 74/3/2 84/3/2
f  85/3/3 74/3/3 75/3/3
f  76/3/5 66/3/5 83/3/5
f  86/3/4 82/3/4 76/3/4
f  75/3/4 77/3/4 85/3/4
f  82/3/1 78/3/1 73/3/1
f  73/3/6 78/3/6 82/3/6
f  81/3/3 87/3/3 78/3/3
f  83/3/1 74/3/1 79/3/1
f  79/3/6 74/3/6 83/3/6
f  79/3/2 84/3/2 74/3/2
f  73/3/5 82/3/5 84/3/5
f  77/3/4 80/3/4 82/3/4
f  81/3/1 84/3/1 87/3/1
f  74/3/1 83/3/1 85/3/1
f  85/3/6 83/3/6 74/3/6
f  83/3/4 86/3/4 76/3/4
f  86/3/5 84/3/5 82/3/5
f  85/3/4 77/3/4 87/3/4
f  78/3/1 82/3/1 88/3/1
f  88/3/6 82/3/6 78/3/6
f  88/3/3 78/3/3 87/3/3
f  88/3/4 77/3/4 82/3/4
f  86/3/1 87/3/1 84/3/1
f  85/3/4 87/3/4 83/3/4
f  86/3/4 83/3/4 87/3/4
f  87/3/4 77/3/4 88/3/4

# Mesh 'mesh1_mesh1-geometry' with 64 faces
g mesh1_mesh1-geometry
usemtl material_2_2_8
f  23/67/1 61/68/1 8/69/1
f  8/69/1 61/68/1 24/70/1
f  23/67/1 62/71/1 61/68/1
f  63/72/1 24/70/1 61/68/1
f  62/71/1 23/67/1 64/73/1
f  65/74/3 61/75/3 62/76/3
f  49/77/1 50/78/1 51/79/1
f  41/80/1 51/79/1 50/78/1
f  63/72/1 57/81/1 24/70/1
f  66/82/4 63/83/4 61/84/4
f  57/81/1 64/73/1 23/67/1
f  64/85/2 65/86/2 62/87/2
f  61/75/3 65/74/3 67/86/3
f  64/73/1 57/81/1 63/72/1
f  63/83/4 66/82/4 68/88/4
f  66/82/4 61/84/4 69/89/4
f  65/86/2 64/85/2 70/90/2
f  65/91/6 71/92/6 67/93/6
f  61/75/3 67/86/3 72/94/3
f  63/95/5 71/96/5 64/97/5
f  73/98/4 68/88/4 66/82/4
f  71/96/5 63/95/5 68/99/5
f  69/89/4 61/84/4 74/100/4
f  75/101/6 66/102/6 69/5/6
f  70/82/5 64/97/5 71/96/5
f  71/92/6 65/91/6 70/103/6
f  67/93/6 71/92/6 76/104/6
f  72/94/3 67/86/3 77/105/3
f  72/106/4 78/13/4 61/84/4
f  68/88/4 73/98/4 72/106/4
f  73/98/4 66/82/4 79/107/4
f  71/96/5 68/99/5 80/106/5
f  74/100/4 61/84/4 81/108/4
f  74/109/5 75/96/5 69/110/5
f  66/102/6 75/101/6 76/104/6
f  82/111/2 76/74/2 71/90/2
f  67/93/6 76/104/6 75/101/6
f  75/89/2 77/105/2 67/86/2
f  77/93/6 68/112/6 72/113/6
f  72/106/4 73/98/4 78/13/4
f  81/108/4 61/84/4 78/13/4
f  66/114/3 83/115/3 79/116/3
f  73/98/4 79/107/4 84/117/4
f  68/112/6 77/93/6 80/92/6
f  80/118/2 82/111/2 71/90/2
f  84/117/4 74/100/4 81/108/4
f  75/96/5 74/109/5 85/119/5
f  83/115/3 66/114/3 76/86/3
f  76/74/2 82/111/2 86/120/2
f  85/100/2 77/105/2 75/89/2
f  78/48/5 87/121/5 81/122/5
f  74/100/4 84/117/4 79/107/4
f  84/123/3 82/124/3 73/9/3
f  82/111/2 80/118/2 77/105/2
f  87/101/6 84/102/6 81/5/6
f  76/74/2 86/120/2 83/125/2
f  82/124/3 84/123/3 86/126/3
f  87/108/2 77/105/2 85/100/2
f  87/121/5 78/48/5 88/127/5
f  82/111/2 77/105/2 88/13/2
f  84/102/6 87/101/6 86/104/6
f  83/125/2 87/108/2 85/100/2
f  87/108/2 83/125/2 86/120/2
f  88/13/2 77/105/2 87/108/2

# Mesh 'mesh2_mesh2-geometry' with 3 faces
g mesh2_mesh2-geometry
usemtl material_1_0
l  88 78
l  88 82
l  82 73

# Mesh 'mesh3_mesh3-geometry' with 2 faces
g mesh3_mesh3-geometry
usemtl material_1_0
l  74 85
l  85 83

