# Blender v2.75 (sub 0) OBJ File: 'torsopitch.blend'
# www.blender.org
o Cylinder.001
v 0.027305 -0.009878 0.010442
v 0.008915 -0.013970 0.020320
v 0.027305 -0.013970 0.020320
v 0.008915 -0.009878 0.030198
v 0.027305 -0.009878 0.030198
v 0.006825 -0.022504 -0.006825
v 0.009652 -0.022504 0.000000
v 0.006825 -0.022504 0.006825
v 0.006825 -0.013503 -0.006825
v 0.009652 -0.013503 0.000000
v 0.006825 -0.013503 0.006825
v 0.008915 -0.011924 0.015381
v 0.027305 -0.011924 0.015381
v -0.025173 -0.009878 0.010442
v -0.003835 -0.013970 0.020320
v -0.025173 -0.013970 0.020320
v -0.003835 -0.009878 0.030198
v -0.025173 -0.009878 0.030198
v 0.000000 -0.022504 -0.009652
v -0.006825 -0.022504 -0.006825
v -0.009652 -0.022504 0.000000
v -0.006825 -0.022504 0.006825
v -0.000000 -0.022504 0.009652
v -0.006825 -0.013503 -0.006825
v -0.009652 -0.013503 0.000000
v -0.006825 -0.013503 0.006825
v -0.000000 -0.013503 0.009652
v 0.000000 -0.013503 -0.009652
v -0.003835 -0.011924 0.015381
v -0.025173 -0.011924 0.015381
v 0.008915 0.000000 0.006350
v 0.027305 0.000000 0.006350
v 0.027305 0.009878 0.010442
v 0.008915 0.013970 0.020320
v 0.027305 0.013970 0.020320
v 0.008915 0.009878 0.030198
v 0.027305 0.009878 0.030198
v 0.006825 0.022504 -0.006825
v 0.009652 0.022504 0.000000
v 0.006825 0.022504 0.006825
v 0.006825 0.000000 -0.006825
v 0.006825 0.013503 -0.006825
v 0.009652 0.000000 0.000000
v 0.009652 0.013503 0.000000
v 0.006825 0.013503 0.006825
v 0.008915 0.011924 0.015381
v 0.027305 0.011924 0.015381
v 0.027305 0.000000 0.034290
v 0.008915 0.000000 0.034290
v -0.003835 0.000000 0.006350
v -0.025173 0.000000 0.006350
v -0.025173 0.009878 0.010442
v -0.003835 0.013970 0.020320
v -0.025173 0.013970 0.020320
v -0.003835 0.009878 0.030198
v -0.025173 0.009878 0.030198
v 0.000000 0.000000 -0.009652
v 0.000000 0.022504 -0.009652
v -0.006825 0.022504 -0.006825
v -0.009652 0.022504 0.000000
v -0.006825 0.022504 0.006825
v -0.000000 0.022504 0.009652
v -0.006825 0.000000 -0.006825
v -0.006825 0.013503 -0.006825
v -0.009652 0.000000 0.000000
v -0.009652 0.013503 0.000000
v -0.006825 0.013503 0.006825
v -0.000000 0.013503 0.009652
v 0.000000 0.013503 -0.009652
v -0.003835 0.011924 0.015381
v -0.025173 0.011924 0.015381
v -0.025173 0.000000 0.034290
v -0.003835 0.000000 0.034290
v -0.000000 0.000000 0.006350
vn 0.027900 -0.997000 -0.072600
vn 0.124700 -0.953000 -0.276100
vn 0.000000 -1.000000 0.000000
vn -0.000000 -0.707100 0.707100
vn -0.000000 0.000000 1.000000
vn 1.000000 -0.000000 0.000000
vn 0.481700 0.000000 -0.876400
vn 0.477400 -0.662600 -0.577100
vn 0.331100 -0.747800 -0.575500
vn 0.000000 0.000000 -1.000000
vn 0.707100 0.000000 -0.707100
vn -1.000000 -0.000000 -0.000000
vn 0.707100 -0.000000 0.707100
vn 0.990600 0.000000 -0.136800
vn 0.923900 0.000000 -0.382700
vn 0.046100 -0.991000 0.125900
vn 0.338500 0.000000 -0.941000
vn -0.526400 0.513300 0.677800
vn -0.244200 0.000000 0.969700
vn 0.223600 0.480500 0.848000
vn 0.068300 -0.984000 0.164800
vn -0.033200 -0.996600 -0.075200
vn -0.131600 -0.955500 -0.263900
vn -0.522600 0.000000 -0.852600
vn -0.374100 -0.737900 -0.561800
vn -0.523900 -0.646800 -0.554200
vn -0.707100 0.000000 -0.707100
vn -0.707100 -0.000000 0.707100
vn -0.990600 0.000000 -0.136800
vn -0.923900 0.000000 -0.382700
vn -0.044600 -0.989700 0.135700
vn -0.378700 0.000000 -0.925500
vn 0.821200 0.344500 0.454900
vn 0.259000 -0.000000 0.965900
vn -0.087000 -0.973800 0.210100
vn 0.027900 0.997000 -0.072600
vn 0.000000 1.000000 0.000000
vn 0.124700 0.953000 -0.276100
vn -0.000000 0.707100 0.707100
vn 0.331100 0.747800 -0.575500
vn 0.477400 0.662600 -0.577100
vn 0.046100 0.991000 0.125900
vn -0.526400 -0.513300 0.677800
vn 0.223600 -0.480500 0.848000
vn 0.068300 0.984000 0.164800
vn -0.033200 0.996600 -0.075200
vn -0.131600 0.955500 -0.263900
vn -0.523900 0.646800 -0.554200
vn -0.374100 0.737900 -0.561800
vn -0.044600 0.989700 0.135700
vn 0.821200 -0.344500 0.454900
vn -0.087000 0.973800 0.210100
s 1
f 12//1 13//2 3//3 2//3
f 2//3 3//3 5//4 4//4
f 4//4 5//4 48//5 49//5
f 32//6 48//6 5//6 3//6 13//6 1//6
f 32//7 1//8 10//9
f 28//10 57//10 41//11 9//11
f 49//12 31//12 12//12 2//12 4//12
f 23//3 19//3 6//3 7//3 8//3
f 8//13 11//13 27//5 23//5
f 7//6 10//14 11//13 8//13
f 6//11 9//11 10//14 7//6
f 9//11 41//11 43//15 10//14
f 19//10 28//10 9//11 6//11
f 11//16 10//9 13//2 12//1
f 43//17 32//7 10//9
f 13//2 10//9 1//8
f 12//18 31//19 27//20
f 11//16 12//1 27//21
f 31//19 74//5 27//20
f 29//22 15//3 16//3 30//23
f 15//3 17//4 18//4 16//3
f 17//4 73//5 72//5 18//4
f 51//12 14//12 30//12 16//12 18//12 72//12
f 51//24 25//25 14//26
f 28//10 24//27 63//27 57//10
f 73//6 17//6 15//6 29//6 50//6
f 23//3 22//3 21//3 20//3 19//3
f 22//28 23//5 27//5 26//28
f 21//12 22//28 26//28 25//29
f 20//27 21//12 25//29 24//27
f 24//27 25//29 65//30 63//27
f 19//10 20//27 24//27 28//10
f 26//31 29//22 30//23 25//25
f 65//32 25//25 51//24
f 30//23 14//26 25//25
f 29//33 27//20 50//34
f 26//31 27//35 29//22
f 50//34 27//20 74//5
f 46//36 34//37 35//37 47//38
f 34//37 36//39 37//39 35//37
f 36//39 49//5 48//5 37//39
f 32//6 33//6 47//6 35//6 37//6 48//6
f 32//7 44//40 33//41
f 69//10 42//11 41//11 57//10
f 49//12 36//12 34//12 46//12 31//12
f 62//37 40//37 39//37 38//37 58//37
f 40//13 62//5 68//5 45//13
f 39//6 40//13 45//13 44//14
f 38//11 39//6 44//14 42//11
f 42//11 44//14 43//15 41//11
f 58//10 38//11 42//11 69//10
f 45//42 46//36 47//38 44//40
f 43//17 44//40 32//7
f 47//38 33//41 44//40
f 46//43 68//44 31//19
f 45//42 68//45 46//36
f 31//19 68//44 74//5
f 70//46 71//47 54//37 53//37
f 53//37 54//37 56//39 55//39
f 55//39 56//39 72//5 73//5
f 51//12 72//12 56//12 54//12 71//12 52//12
f 51//24 52//48 66//49
f 69//10 57//10 63//27 64//27
f 73//6 50//6 70//6 53//6 55//6
f 62//37 58//37 59//37 60//37 61//37
f 61//28 67//28 68//5 62//5
f 60//12 66//29 67//28 61//28
f 59//27 64//27 66//29 60//12
f 64//27 63//27 65//30 66//29
f 58//10 69//10 64//27 59//27
f 67//50 66//49 71//47 70//46
f 65//32 51//24 66//49
f 71//47 66//49 52//48
f 70//51 50//34 68//44
f 67//50 70//46 68//52
f 50//34 74//5 68//44
