# Blender v2.75 (sub 0) OBJ File: 'torsoyaw.blend'
# www.blender.org
o Cylinder
v -0.000000 0.022895 -0.091192
v -0.000000 0.032931 -0.083584
v 0.016189 0.016189 -0.091192
v 0.023286 0.023286 -0.083584
v -0.016189 0.016189 -0.091192
v -0.023286 0.023286 -0.083584
v 0.023286 0.023286 -0.047302
v 0.000000 0.032931 -0.047302
v -0.023286 0.023286 -0.047302
v 0.046735 0.046735 -0.041544
v 0.000000 0.066093 -0.041544
v -0.046735 0.046735 -0.041544
v 0.046735 0.046735 -0.030978
v 0.000000 0.066093 -0.030978
v -0.046735 0.046735 -0.030978
v 0.036469 0.036469 -0.013295
v 0.000000 0.051575 -0.013295
v -0.036469 0.036469 -0.013295
v 0.036469 0.036469 0.007469
v 0.000000 0.051575 0.007469
v -0.036469 0.036469 0.007469
v 0.056908 0.036469 -0.013295
v 0.056908 0.021741 -0.013295
v 0.057124 0.021654 -0.030978
v 0.051252 0.035830 -0.030978
v 0.042570 0.021741 -0.013295
v 0.042659 0.021525 0.007469
v 0.056908 0.021525 0.007469
v 0.056908 0.036469 0.007469
v 0.056908 0.035830 -0.030978
v 0.042659 0.021525 0.014971
v 0.036469 0.036469 0.014971
v 0.056908 0.021525 0.014971
v 0.056908 0.036469 0.014971
v -0.000000 -0.022895 -0.091192
v -0.000000 -0.032931 -0.083584
v 0.016189 -0.016189 -0.091192
v 0.023286 -0.023286 -0.083584
v -0.022895 0.000000 -0.091192
v -0.032931 0.000000 -0.083584
v -0.016189 -0.016189 -0.091192
v -0.023286 -0.023286 -0.083584
v 0.023286 -0.023286 -0.047302
v 0.000000 -0.032931 -0.047302
v -0.032931 0.000000 -0.047302
v -0.023286 -0.023286 -0.047302
v 0.046735 -0.046735 -0.041544
v 0.000000 -0.066093 -0.041544
v -0.066093 0.000000 -0.041544
v -0.046735 -0.046735 -0.041544
v 0.046735 -0.046735 -0.030978
v 0.000000 -0.066093 -0.030978
v -0.066093 0.000000 -0.030978
v -0.046735 -0.046735 -0.030978
v 0.036469 -0.036469 -0.013295
v 0.000000 -0.051575 -0.013295
v -0.051575 0.000000 -0.013295
v -0.036469 -0.036469 -0.013295
v 0.036469 -0.036469 0.007469
v 0.000000 -0.051575 0.007469
v -0.051575 0.000000 0.007469
v -0.036469 -0.036469 0.007469
v 0.032931 0.000000 -0.083584
v 0.022895 0.000000 -0.091192
v 0.032931 0.000000 -0.047302
v 0.066093 0.000000 -0.041544
v 0.066093 0.000000 -0.030978
v 0.051575 0.000000 -0.013295
v 0.051575 0.000000 0.007469
v 0.056908 -0.036469 -0.013295
v 0.056908 -0.021741 -0.013295
v 0.057124 -0.021654 -0.030978
v 0.051252 -0.035830 -0.030978
v 0.042570 -0.021741 -0.013295
v 0.042659 -0.021525 0.007469
v 0.056908 -0.021525 0.007469
v 0.056908 -0.036469 0.007469
v 0.056908 -0.035830 -0.030978
v 0.042659 -0.021525 0.014971
v 0.036469 -0.036469 0.014971
v 0.056908 -0.021525 0.014971
v 0.056908 -0.036469 0.014971
vn -0.000000 0.604100 -0.796900
vn 0.427200 0.427200 -0.796900
vn 0.604100 0.000000 -0.796900
vn -0.427200 0.427200 -0.796900
vn -0.604100 0.000000 -0.796900
vn 0.121000 0.121000 -0.985300
vn -0.000000 0.171100 -0.985300
vn -0.707100 0.707100 0.000000
vn -1.000000 0.000000 0.000000
vn 1.000000 0.000000 -0.000000
vn 0.707100 0.707100 -0.000000
vn -0.000000 1.000000 -0.000000
vn -0.121000 0.121000 -0.985300
vn 0.171100 0.000000 -0.985300
vn -0.171100 0.000000 -0.985300
vn 0.414400 0.661800 0.624800
vn 0.736100 0.304900 0.604400
vn 0.546500 0.546500 0.634600
vn 1.000000 0.003700 0.003000
vn 1.000000 0.003700 0.002900
vn -0.546500 0.546500 0.634600
vn -0.772900 0.000000 0.634600
vn -0.000000 0.772900 0.634600
vn 0.382700 0.923900 0.000000
vn 0.000000 0.000000 1.000000
vn -0.000000 0.000000 -1.000000
vn 0.865100 0.358300 -0.351100
vn 0.917300 0.380000 -0.119300
vn 0.000000 0.999900 -0.012900
vn 0.000000 0.999800 -0.018100
vn 0.000000 -1.000000 -0.005200
vn 0.000000 -1.000000 -0.004900
vn 0.000000 -1.000000 -0.002700
vn 0.923900 0.382700 0.000000
vn 0.772900 0.000000 0.634600
vn 0.000000 0.999300 -0.036100
vn -0.923900 -0.382700 0.000000
vn 0.000000 -1.000000 0.000000
vn 1.000000 0.007500 0.005900
vn 0.000000 -1.000000 0.004900
vn -0.000000 -0.604100 -0.796900
vn 0.427200 -0.427200 -0.796900
vn -0.427200 -0.427200 -0.796900
vn 0.121000 -0.121000 -0.985300
vn -0.000000 -0.171100 -0.985300
vn -0.707100 -0.707100 0.000000
vn 0.707100 -0.707100 -0.000000
vn -0.121000 -0.121000 -0.985300
vn 0.414400 -0.661800 0.624800
vn 0.546500 -0.546500 0.634600
vn 0.736100 -0.304900 0.604400
vn 1.000000 -0.003700 0.003000
vn 1.000000 -0.003700 0.002900
vn -0.546500 -0.546500 0.634600
vn -0.000000 -0.772900 0.634600
vn 0.382700 -0.923900 0.000000
vn 0.917300 -0.380000 -0.119300
vn 0.865100 -0.358300 -0.351100
vn 0.000000 -0.999900 -0.012900
vn 0.000000 -0.999800 -0.018100
vn 0.000000 1.000000 -0.005200
vn 0.000000 1.000000 -0.002700
vn 0.000000 1.000000 -0.004900
vn 0.923900 -0.382700 0.000000
vn 0.000000 -0.999300 -0.036100
vn -0.923900 0.382700 0.000000
vn 1.000000 -0.007500 0.005900
vn 0.000000 1.000000 0.004900
s 1
f 1//1 2//1 4//2 3//2
f 3//2 4//2 63//3 64//3
f 5//4 6//4 2//1 1//1
f 39//5 40//5 6//4 5//4
f 7//6 8//7 11//7 10//6
f 6//8 40//9 45//9 9//8
f 63//10 4//11 7//11 65//10
f 2//12 6//8 9//8 8//12
f 4//11 2//12 8//12 7//11
f 12//8 49//9 53//9 15//8
f 8//7 9//13 12//13 11//7
f 65//14 7//6 10//6 66//14
f 9//13 45//15 49//15 12//13
f 16//16 25//17 13//18
f 10//11 11//12 14//12 13//11
f 11//12 12//8 15//8 14//12
f 23//19 22//20 29//10 28//10
f 17//12 18//8 21//8 20//12
f 15//21 53//22 57//22 18//21
f 13//18 14//23 17//23 16//16
f 14//23 15//21 18//21 17//23
f 29//12 19//12 32//12 34//12
f 18//8 57//9 61//9 21//8
f 16//24 17//12 20//12 19//24
f 19//25 20//25 21//25 61//25 69//25 27//25
f 1//26 3//26 64//26 39//26 5//26
f 66//10 10//11 13//11 25//27 24//28 67//10
f 16//29 19//12 29//12 22//30
f 27//31 26//32 23//33 28//31
f 68//10 26//34 27//34 69//10
f 67//35 24//17 26//17 68//35
f 25//36 16//29 22//30 30//36
f 32//25 31//25 33//25 34//25
f 28//10 29//10 34//10 33//10
f 19//37 27//37 31//37 32//37
f 27//31 28//31 33//38 31//38
f 24//39 30//39 22//20 23//19
f 24//28 25//27 30//26
f 26//32 24//40 23//33
f 35//41 37//42 38//42 36//41
f 37//42 64//3 63//3 38//42
f 41//43 35//41 36//41 42//43
f 39//5 41//43 42//43 40//5
f 43//44 47//44 48//45 44//45
f 42//46 46//46 45//9 40//9
f 63//10 65//10 43//47 38//47
f 36//38 44//38 46//46 42//46
f 38//47 43//47 44//38 36//38
f 50//46 54//46 53//9 49//9
f 44//45 48//45 50//48 46//48
f 65//14 66//14 47//44 43//44
f 46//48 50//48 49//15 45//15
f 55//49 51//50 73//51
f 47//47 51//47 52//38 48//38
f 48//38 52//38 54//46 50//46
f 71//52 76//10 77//10 70//53
f 56//38 60//38 62//46 58//46
f 54//54 58//54 57//22 53//22
f 51//50 55//49 56//55 52//55
f 52//55 56//55 58//54 54//54
f 77//38 82//38 80//38 59//38
f 58//46 62//46 61//9 57//9
f 55//56 59//56 60//38 56//38
f 59//25 75//25 69//25 61//25 62//25 60//25
f 35//26 41//26 39//26 64//26 37//26
f 66//10 67//10 72//57 73//58 51//47 47//47
f 55//59 70//60 77//38 59//38
f 75//61 76//61 71//62 74//63
f 68//10 69//10 75//64 74//64
f 67//35 68//35 74//51 72//51
f 73//65 78//65 70//60 55//59
f 80//25 82//25 81//25 79//25
f 76//10 81//10 82//10 77//10
f 59//66 80//66 79//66 75//66
f 75//61 79//12 81//12 76//61
f 72//67 71//52 70//53 78//67
f 72//57 78//26 73//58
f 74//63 71//62 72//68
