# 3ds Max Wavefront OBJ Exporter v0.97b - (c)2007 guruware
# File Created: 07.12.2013 22:39:33

#
# object Rock_01
#

v  -34.8797 -29.5468 70.8177
v  -53.2847 -25.6440 44.9579
v  -37.8357 -53.3534 48.4091
v  3.6732 -31.9927 74.1514
v  -0.6208 -52.1103 57.0290
v  -44.1892 -6.4521 69.5992
v  -12.0424 -7.7783 71.5025
v  -58.1985 -5.7632 44.5764
v  38.8000 -26.1767 57.7622
v  33.1687 -11.1737 74.5119
v  20.7679 -37.9156 58.6468
v  51.9294 -2.5102 66.3316
v  11.1213 -4.7771 72.3040
v  22.2810 11.0384 72.0116
v  14.8249 28.5095 68.3740
v  55.8399 27.1664 48.2859
v  24.2930 45.1119 50.7261
v  7.5634 42.6501 62.4930
v  -11.1515 25.7498 67.4687
v  63.9477 -5.1930 53.8904
v  -18.7770 35.9732 60.1294
v  -39.6561 36.5329 30.8605
v  -46.2071 24.1627 44.5055
v  -55.1179 9.0731 54.5365
v  -37.9723 15.5253 67.7793
v  -4.3277 48.1693 57.2144
v  -24.5310 49.3726 28.3048
v  -51.1515 38.7374 16.3760
v  7.0264 58.3825 49.3236
v  -11.0890 62.1538 28.6321
v  11.6732 70.0829 17.4753
v  -4.5004 71.9237 -4.4788
v  -19.5972 67.2344 5.3146
v  -35.9747 56.8440 6.6703
v  -35.2789 52.8623 -12.0333
v  57.3456 47.8130 29.7697
v  34.1474 68.2853 26.9681
v  44.2947 57.6217 -4.0280
v  23.2469 74.3503 4.6780
v  17.7164 72.3564 -22.9136
v  38.6719 44.1436 -54.7892
v  10.7968 56.0551 -55.1487
v  28.1572 68.8968 -16.5168
v  49.2747 49.1081 -21.2767
v  -8.2117 64.4981 -27.8694
v  -20.5597 55.2614 -38.4299
v  -13.1983 49.7489 -55.3985
v  -43.1561 20.4660 -40.0447
v  -0.7734 33.6308 -64.9960
v  -16.3382 -8.9410 -63.4447
v  12.0103 -5.3908 -75.0713
v  -29.8044 -2.7972 -52.9083
v  -44.8793 -8.2402 -41.5656
v  58.0354 13.1693 -46.9672
v  49.6973 -14.0687 -59.1637
v  34.1875 9.9471 -65.8949
v  17.4384 26.5546 -64.3950
v  21.9821 -27.5553 -70.9694
v  39.5713 -36.3892 -49.4121
v  1.9980 -62.0937 -53.8330
v  -1.3698 -25.0222 -71.2123
v  24.6833 -56.9570 -43.0768
v  -49.7238 -44.0987 -24.7592
v  -28.5709 -28.4807 -52.1821
v  -23.2443 -52.1650 -50.0417
v  -54.5276 -51.0059 29.3825
v  -43.3031 -62.3095 25.5232
v  -50.0667 -54.1863 -1.1302
v  -39.8829 -63.9516 8.2467
v  -7.5027 -66.5522 6.4185
v  4.7847 -62.8575 26.9625
v  -20.7119 -62.6115 28.3183
v  -36.6459 -63.8201 -12.6747
v  -27.9305 -65.2591 -34.7798
v  -0.8125 -63.3792 -34.9339
v  -13.0827 -64.4351 -24.7057
v  44.2157 -47.9764 -31.4348
v  54.5501 -49.7326 -4.4950
v  17.7874 -66.4072 10.1024
v  29.8886 -60.5347 -16.3411
v  11.6124 -67.3581 -9.0203
v  31.1539 -56.8830 25.0764
v  59.7839 -43.5280 17.9094
v  65.3337 22.1848 34.6916
v  73.2447 -3.2970 19.9527
v  70.2727 15.0936 -2.7971
v  71.4184 29.1039 8.1278
v  65.9089 37.1753 -12.1035
v  73.7303 -21.7679 37.0720
v  65.6855 -30.3723 -15.3606
v  69.9887 -28.1482 16.4137
v  56.2592 -29.5998 -38.2508
v  66.3669 -8.3669 -18.8168
v  63.7868 29.6381 -31.1829
v  -56.5432 -3.6744 -23.2105
v  -61.0154 11.9555 -2.3874
v  -53.7234 27.7649 -1.1497
v  -64.5554 -3.6563 -6.7517
v  -66.8683 -0.3939 18.0538
v  -59.9887 -41.0642 -1.9584
v  -63.7839 -23.2142 22.7487
v  -64.5336 15.0944 27.9992
# 102 vertices

vn -0.3947 -0.3470 0.8508
vn -0.8334 -0.2691 0.4828
vn -0.4000 -0.7135 0.5753
vn 0.0924 -0.3841 0.9186
vn 0.1078 -0.7928 0.5999
vn -0.5356 -0.0319 0.8438
vn -0.0544 0.0848 0.9949
vn -0.9078 -0.1258 0.4001
vn 0.4644 -0.6200 0.6324
vn 0.2975 -0.1934 0.9349
vn 0.4235 -0.6648 0.6153
vn 0.5639 -0.0324 0.8252
vn -0.0682 0.0888 0.9937
vn 0.1116 0.2073 0.9719
vn 0.1709 0.3821 0.9082
vn 0.6149 0.4422 0.6530
vn 0.3881 0.5738 0.7212
vn 0.1252 0.5301 0.8386
vn -0.1126 0.3051 0.9456
vn 0.7824 -0.0649 0.6194
vn -0.3926 0.6371 0.6633
vn -0.4965 0.7358 0.4606
vn -0.5878 0.6848 0.4309
vn -0.8077 0.2849 0.5162
vn -0.3916 0.4144 0.8215
vn -0.3072 0.6618 0.6838
vn -0.5556 0.6802 0.4782
vn -0.7477 0.6459 0.1542
vn 0.0071 0.7970 0.6039
vn -0.3916 0.8279 0.4015
vn -0.1181 0.9553 0.2712
vn -0.2551 0.9653 -0.0550
vn -0.4026 0.9135 0.0590
vn -0.6501 0.7514 0.1130
vn -0.6889 0.6777 -0.2571
vn 0.6919 0.6231 0.3648
vn 0.3799 0.8568 0.3487
vn 0.6367 0.7643 -0.1023
vn 0.2212 0.9742 0.0440
vn 0.1328 0.9433 -0.3041
vn 0.4854 0.5283 -0.6966
vn 0.0547 0.7040 -0.7081
vn 0.5207 0.8270 -0.2122
vn 0.6389 0.7227 -0.2637
vn -0.3253 0.8956 -0.3033
vn -0.5556 0.7359 -0.3871
vn -0.4238 0.5598 -0.7121
vn -0.7548 0.2858 -0.5904
vn -0.1691 0.2688 -0.9482
vn -0.5129 0.0267 -0.8580
vn 0.0027 0.0661 -0.9978
vn -0.5852 0.0520 -0.8092
vn -0.7338 -0.0442 -0.6780
vn 0.8131 0.0914 -0.5749
vn 0.6817 -0.1816 -0.7087
vn 0.3932 0.1722 -0.9032
vn 0.1635 0.2992 -0.9401
vn 0.2907 -0.3433 -0.8931
vn 0.5568 -0.5685 -0.6056
vn 0.0569 -0.8131 -0.5793
vn -0.2780 -0.2067 -0.9381
vn 0.4197 -0.8097 -0.4102
vn -0.7988 -0.3846 -0.4626
vn -0.6221 -0.1652 -0.7653
vn -0.5112 -0.4273 -0.7457
vn -0.8050 -0.5190 0.2873
vn -0.3965 -0.8985 0.1885
vn -0.7199 -0.6775 -0.1511
vn -0.3642 -0.9313 -0.0091
vn -0.0435 -0.9968 0.0665
vn 0.0938 -0.9503 0.2967
vn -0.0364 -0.9651 0.2594
vn -0.4236 -0.8956 -0.1363
vn -0.3842 -0.8616 -0.3319
vn 0.1092 -0.9889 -0.1010
vn -0.0063 -0.9991 -0.0409
vn 0.5999 -0.7085 -0.3716
vn 0.6401 -0.7634 -0.0863
vn 0.2213 -0.9646 0.1436
vn 0.3709 -0.9163 -0.1510
vn 0.1282 -0.9870 -0.0974
vn 0.3983 -0.8401 0.3683
vn 0.6382 -0.7380 0.2194
vn 0.8950 0.2608 0.3620
vn 0.9984 0.0430 0.0364
vn 0.9830 0.0206 -0.1827
vn 0.9541 0.2982 0.0260
vn 0.8467 0.5000 -0.1820
vn 0.8683 -0.3267 0.3733
vn 0.9020 -0.3499 -0.2528
vn 0.9277 -0.3652 -0.0779
vn 0.7952 -0.4029 -0.4531
vn 0.9596 -0.0653 -0.2738
vn 0.8685 0.3292 -0.3706
vn -0.8851 0.0434 -0.4633
vn -0.9083 0.3390 -0.2451
vn -0.8510 0.4711 -0.2321
vn -0.9553 0.0606 -0.2895
vn -0.9985 0.0269 0.0483
vn -0.9109 -0.3704 -0.1821
vn -0.9667 -0.1840 0.1777
vn -0.9185 0.3394 0.2027
# 102 vertex normals

vt 0.6195 0.0857 0.0000
vt 0.5513 0.1162 0.0000
vt 0.5466 0.0354 0.0000
vt 0.7008 0.0209 0.0000
vt 0.0430 0.7169 0.0000
vt 0.1279 0.7852 0.0000
vt 0.1094 0.8581 0.0000
vt 0.6131 0.1497 0.0000
vt 0.6823 0.1189 0.0000
vt 0.5550 0.1849 0.0000
vt 0.2231 0.8795 0.0000
vt 0.1840 0.9351 0.0000
vt 0.1761 0.8383 0.0000
vt 0.2455 0.9595 0.0000
vt 0.7597 0.0804 0.0000
vt 0.8097 0.0326 0.0000
vt 0.8103 0.1082 0.0000
vt 0.1063 0.3760 0.0000
vt 0.1693 0.2623 0.0000
vt 0.1803 0.3616 0.0000
vt 0.8062 0.2209 0.0000
vt 0.7356 0.1875 0.0000
vt 0.8116 0.1675 0.0000
vt 0.1459 0.4109 0.0000
vt 0.0728 0.2378 0.0000
vt 0.1021 0.1916 0.0000
vt 0.0673 0.3351 0.0000
vt 0.0216 0.2785 0.0000
vt 0.7226 0.2289 0.0000
vt 0.6599 0.2836 0.0000
vt 0.6336 0.2464 0.0000
vt 0.6050 0.2035 0.0000
vt 0.6654 0.1891 0.0000
vt 0.7754 0.2553 0.0000
vt 0.6930 0.3332 0.0000
vt 0.5906 0.3260 0.0000
vt 0.1684 0.4504 0.0000
vt 0.2048 0.4169 0.0000
vt 0.2624 0.4695 0.0000
vt 0.2472 0.5223 0.0000
vt 0.2971 0.4036 0.0000
vt 0.3638 0.4455 0.0000
vt 0.3330 0.4937 0.0000
vt 0.6346 0.4001 0.0000
vt 0.3191 0.5512 0.0000
vt 0.7957 0.9453 0.0000
vt 0.8761 0.9432 0.0000
vt 0.8379 0.9840 0.0000
vt 0.2455 0.2672 0.0000
vt 0.2658 0.3510 0.0000
vt 0.3369 0.2890 0.0000
vt 0.3302 0.3679 0.0000
vt 0.7718 0.8085 0.0000
vt 0.8265 0.6916 0.0000
vt 0.8620 0.7614 0.0000
vt 0.7402 0.7844 0.0000
vt 0.7306 0.6985 0.0000
vt 0.8391 0.8528 0.0000
vt 0.4106 0.3725 0.0000
vt 0.3871 0.3380 0.0000
vt 0.3783 0.2464 0.0000
vt 0.8936 0.8558 0.0000
vt 0.7795 0.8930 0.0000
vt 0.9170 0.8034 0.0000
vt 0.5561 0.8050 0.0000
vt 0.5907 0.9285 0.0000
vt 0.4998 0.9127 0.0000
vt 0.4503 0.8801 0.0000
vt 0.9335 0.7374 0.0000
vt 0.4693 0.7101 0.0000
vt 0.4097 0.8261 0.0000
vt 0.3808 0.7047 0.0000
vt 0.5127 0.7606 0.0000
vt 0.5676 0.7246 0.0000
vt 0.8111 0.5949 0.0000
vt 0.8647 0.5363 0.0000
vt 0.8907 0.6222 0.0000
vt 0.9731 0.6150 0.0000
vt 0.9038 0.6875 0.0000
vt 0.9708 0.5401 0.0000
vt 0.9086 0.4787 0.0000
vt 0.4625 0.5584 0.0000
vt 0.4318 0.6601 0.0000
vt 0.3722 0.6323 0.0000
vt 0.9571 0.4153 0.0000
vt 0.4048 0.5220 0.0000
vt 0.6209 0.6278 0.0000
vt 0.5202 0.6833 0.0000
vt 0.5191 0.6168 0.0000
vt 0.4816 0.0769 0.0000
vt 0.4634 0.0290 0.0000
vt 0.3840 0.0871 0.0000
vt 0.4010 0.0289 0.0000
vt 0.1816 0.6472 0.0000
vt 0.1825 0.7121 0.0000
vt 0.1169 0.6833 0.0000
vt 0.0620 0.6450 0.0000
vt 0.0963 0.6047 0.0000
vt 0.1357 0.5560 0.0000
vt 0.5601 0.5545 0.0000
vt 0.6333 0.5501 0.0000
vt 0.4867 0.5141 0.0000
vt 0.2142 0.5616 0.0000
vt 0.1916 0.5131 0.0000
vt 0.2618 0.5552 0.0000
vt 0.6970 0.5354 0.0000
vt 0.6843 0.5864 0.0000
vt 0.8813 0.4196 0.0000
vt 0.3554 0.7261 0.0000
vt 0.2373 0.6922 0.0000
vt 0.3111 0.6513 0.0000
vt 0.9028 0.3467 0.0000
vt 0.8106 0.3648 0.0000
vt 0.2512 0.6387 0.0000
vt 0.4082 0.4407 0.0000
vt 0.2487 0.7526 0.0000
vt 0.3331 0.7927 0.0000
vt 0.1912 0.2100 0.0000
vt 0.1924 0.1355 0.0000
vt 0.2781 0.1528 0.0000
vt 0.2470 0.1936 0.0000
vt 0.3278 0.2025 0.0000
vt 0.3426 0.8863 0.0000
vt 0.1358 0.0087 0.0000
vt 0.2538 0.0087 0.0000
vt 0.1657 0.0616 0.0000
vt 0.1181 0.1132 0.0000
vt 0.2950 0.9441 0.0000
vt 0.8467 0.4779 0.0000
vt 0.7603 0.5039 0.0000
vt 0.7840 0.4386 0.0000
vt 0.2949 0.0671 0.0000
vt 0.7431 0.3319 0.0000
vt 0.7504 0.6233 0.0000
vt 0.3760 0.1633 0.0000
vt 0.6281 0.7463 0.0000
vt 0.6812 0.8061 0.0000
vt 0.6644 0.8587 0.0000
vt 0.4386 0.2600 0.0000
vt 0.5107 0.2285 0.0000
vt 0.4816 0.3003 0.0000
vt 0.6826 0.7525 0.0000
vt 0.6385 0.9644 0.0000
vt 0.6947 0.6370 0.0000
vt 0.3998 0.1421 0.0000
vt 0.4921 0.1642 0.0000
vt 0.5579 0.2475 0.0000
vt 0.5247 0.3437 0.0000
# 148 texture coords

g Rock_01
s 1
f 1/1/1 2/2/2 3/3/3 
f 4/4/4 1/1/1 3/3/3 
f 3/5/3 5/6/5 4/7/4 
f 6/8/6 1/1/1 7/9/7 
f 1/1/1 4/4/4 7/9/7 
f 8/10/8 2/2/2 6/8/6 
f 6/8/6 2/2/2 1/1/1 
f 9/11/9 10/12/10 11/13/11 
f 9/11/9 12/14/12 10/12/10 
f 13/15/13 7/9/7 4/4/4 
f 4/4/4 10/16/10 13/15/13 
f 10/16/10 14/17/14 13/15/13 
f 4/7/4 5/6/5 11/13/11 
f 11/13/11 10/12/10 4/7/4 
f 15/18/15 16/19/16 17/20/17 
f 18/21/18 19/22/19 15/23/15 
f 15/18/15 17/20/17 18/24/18 
f 19/22/19 13/15/13 14/17/14 
f 14/17/14 15/23/15 19/22/19 
f 12/25/12 20/26/20 16/19/16 
f 16/19/16 15/18/15 12/25/12 
f 12/25/12 15/18/15 14/27/14 
f 14/27/14 10/28/10 12/25/12 
f 21/29/21 22/30/22 23/31/23 
f 24/32/24 25/33/25 23/31/23 
f 25/33/25 21/29/21 23/31/23 
f 8/10/8 6/8/6 24/32/24 
f 25/33/25 24/32/24 6/8/6 
f 7/9/7 13/15/13 19/22/19 
f 25/33/25 7/9/7 19/22/19 
f 25/33/25 6/8/6 7/9/7 
f 19/22/19 18/21/18 26/34/26 
f 19/22/19 26/34/26 21/29/21 
f 21/29/21 25/33/25 19/22/19 
f 22/30/22 21/29/21 27/35/27 
f 21/29/21 26/34/26 27/35/27 
f 27/35/27 28/36/28 22/30/22 
f 26/37/26 18/24/18 29/38/29 
f 26/37/26 29/38/29 30/39/30 
f 30/39/30 27/40/27 26/37/26 
f 31/41/31 32/42/32 33/43/33 
f 30/39/30 31/41/31 33/43/33 
f 34/44/34 28/36/28 27/35/27 
f 27/40/27 30/39/30 34/45/34 
f 30/39/30 33/43/33 34/45/34 
f 33/46/33 35/47/35 34/48/34 
f 17/20/17 16/19/16 36/49/36 
f 37/50/37 17/20/17 36/49/36 
f 37/50/37 36/49/36 38/51/38 
f 39/52/39 37/50/37 38/51/38 
f 39/52/39 32/42/32 31/41/31 
f 29/38/29 18/24/18 17/20/17 
f 37/50/37 39/52/39 31/41/31 
f 17/20/17 37/50/37 29/38/29 
f 29/38/29 37/50/37 31/41/31 
f 31/41/31 30/39/30 29/38/29 
f 40/53/40 41/54/41 42/55/42 
f 40/53/40 43/56/43 41/54/41 
f 41/54/41 43/56/43 44/57/44 
f 45/58/45 40/53/40 42/55/42 
f 32/42/32 39/52/39 40/59/40 
f 43/60/43 40/59/40 39/52/39 
f 38/51/38 44/61/44 43/60/43 
f 43/60/43 39/52/39 38/51/38 
f 45/58/45 46/62/46 35/47/35 
f 40/53/40 45/58/45 32/63/32 
f 35/47/35 33/46/33 32/63/32 
f 35/47/35 32/63/32 45/58/45 
f 45/58/45 42/55/42 47/64/47 
f 47/64/47 46/62/46 45/58/45 
f 48/65/48 35/66/35 46/67/46 
f 48/65/48 46/67/46 47/68/47 
f 47/64/47 42/55/42 49/69/49 
f 50/70/50 47/68/47 49/71/49 
f 50/70/50 49/71/49 51/72/51 
f 52/73/52 53/74/53 48/65/48 
f 48/65/48 47/68/47 52/73/52 
f 47/68/47 50/70/50 52/73/52 
f 54/75/54 55/76/55 56/77/56 
f 41/54/41 54/75/54 56/77/56 
f 56/77/56 51/78/51 57/79/57 
f 51/78/51 49/69/49 57/79/57 
f 57/79/57 49/69/49 42/55/42 
f 41/54/41 57/79/57 42/55/42 
f 41/54/41 56/77/56 57/79/57 
f 58/80/58 55/76/55 59/81/59 
f 60/82/60 61/83/61 58/84/58 
f 59/81/59 62/85/62 58/80/58 
f 58/84/58 62/86/62 60/82/60 
f 51/78/51 56/77/56 58/80/58 
f 58/84/58 61/83/61 51/72/51 
f 58/80/58 56/77/56 55/76/55 
f 63/87/63 64/88/64 65/89/65 
f 53/74/53 52/73/52 64/88/64 
f 64/88/64 52/73/52 50/70/50 
f 51/72/51 61/83/61 50/70/50 
f 64/88/64 50/70/50 61/83/61 
f 61/83/61 60/82/60 65/89/65 
f 65/89/65 64/88/64 61/83/61 
f 66/90/66 67/91/67 3/3/3 
f 67/91/67 68/92/68 69/93/69 
f 70/94/70 71/95/71 72/96/72 
f 72/96/72 67/97/67 69/98/69 
f 72/96/72 69/98/69 70/94/70 
f 73/99/73 70/94/70 69/98/69 
f 3/5/3 72/96/72 5/6/5 
f 67/97/67 72/96/72 3/5/3 
f 72/96/72 71/95/71 5/6/5 
f 74/100/74 73/101/73 63/87/63 
f 74/100/74 63/87/63 65/89/65 
f 74/100/74 65/89/65 60/82/60 
f 60/82/60 75/102/75 74/100/74 
f 70/94/70 73/99/73 76/103/76 
f 73/99/73 74/104/74 76/103/76 
f 74/104/74 75/105/75 76/103/76 
f 69/106/69 68/107/68 73/101/73 
f 59/81/59 77/108/77 62/85/62 
f 78/109/78 79/110/79 80/111/80 
f 80/112/80 62/85/62 77/108/77 
f 80/112/80 77/108/77 78/113/78 
f 70/94/70 76/103/76 81/114/81 
f 76/103/76 75/105/75 81/114/81 
f 81/114/81 75/105/75 80/111/80 
f 80/115/80 75/102/75 62/86/62 
f 75/102/75 60/82/60 62/86/62 
f 11/13/11 82/116/82 9/11/9 
f 82/116/82 83/117/83 9/11/9 
f 5/6/5 71/95/71 82/116/82 
f 82/116/82 11/13/11 5/6/5 
f 79/110/79 70/94/70 81/114/81 
f 80/111/80 79/110/79 81/114/81 
f 79/110/79 82/116/82 71/95/71 
f 71/95/71 70/94/70 79/110/79 
f 82/116/82 79/110/79 78/109/78 
f 82/116/82 78/109/78 83/117/83 
f 16/19/16 84/118/84 36/49/36 
f 84/118/84 16/19/16 20/26/20 
f 85/119/85 86/120/86 87/121/87 
f 20/26/20 85/119/85 84/118/84 
f 84/118/84 85/119/85 87/121/87 
f 36/49/36 84/118/84 87/121/87 
f 87/121/87 88/122/88 36/49/36 
f 9/11/9 83/117/83 89/123/89 
f 83/124/83 90/125/90 91/126/91 
f 91/126/91 89/127/89 83/124/83 
f 89/127/89 91/126/91 85/119/85 
f 90/125/90 85/119/85 91/126/91 
f 12/14/12 9/11/9 20/128/20 
f 20/128/20 9/11/9 89/123/89 
f 85/119/85 20/26/20 89/127/89 
f 77/108/77 59/81/59 92/129/92 
f 59/81/59 55/76/55 92/129/92 
f 92/129/92 93/130/93 90/131/90 
f 90/131/90 77/108/77 92/129/92 
f 55/76/55 54/75/54 93/130/93 
f 92/129/92 55/76/55 93/130/93 
f 86/120/86 85/119/85 93/132/93 
f 93/132/93 85/119/85 90/125/90 
f 78/113/78 77/108/77 90/131/90 
f 90/131/90 83/133/83 78/113/78 
f 41/54/41 44/57/44 94/134/94 
f 94/134/94 54/75/54 41/54/41 
f 38/51/38 36/49/36 88/122/88 
f 94/135/94 44/61/44 88/122/88 
f 44/61/44 38/51/38 88/122/88 
f 93/132/93 94/135/94 86/120/86 
f 93/130/93 54/75/54 94/134/94 
f 94/135/94 88/122/88 86/120/86 
f 87/121/87 86/120/86 88/122/88 
f 48/65/48 53/74/53 95/136/95 
f 95/136/95 96/137/96 48/65/48 
f 96/137/96 97/138/97 48/65/48 
f 98/139/98 99/140/99 96/141/96 
f 96/137/96 95/136/95 98/142/98 
f 97/138/97 34/143/34 35/66/35 
f 48/65/48 97/138/97 35/66/35 
f 64/88/64 63/87/63 53/74/53 
f 95/136/95 53/74/53 63/87/63 
f 95/136/95 63/87/63 100/144/100 
f 63/87/63 68/107/68 100/144/100 
f 63/87/63 73/101/73 68/107/68 
f 98/142/98 95/136/95 100/144/100 
f 98/139/98 100/145/100 101/146/101 
f 2/2/2 66/90/66 3/3/3 
f 101/146/101 66/90/66 2/2/2 
f 101/146/101 2/2/2 8/10/8 
f 99/140/99 98/139/98 101/146/101 
f 101/146/101 8/10/8 99/140/99 
f 68/92/68 67/91/67 66/90/66 
f 66/90/66 101/146/101 100/145/100 
f 66/90/66 100/145/100 68/92/68 
f 22/30/22 28/36/28 23/31/23 
f 28/36/28 102/147/102 23/31/23 
f 34/44/34 97/148/97 28/36/28 
f 97/148/97 102/147/102 28/36/28 
f 8/10/8 102/147/102 99/140/99 
f 99/140/99 102/147/102 96/141/96 
f 97/148/97 96/141/96 102/147/102 
f 24/32/24 23/31/23 102/147/102 
f 102/147/102 8/10/8 24/32/24 
# 0 polygons - 200 triangles

#
# object Rock_01_collider
#

v  11.3149 -32.2210 79.5675
v  -36.8203 -31.3469 75.0596
v  -48.9276 -63.9806 39.0011
v  -1.8421 -59.8128 54.5854
v  -52.0323 6.5122 71.7221
v  -0.1244 51.7414 67.1089
v  61.9547 2.7959 65.4825
v  -67.0322 22.6816 28.6795
v  38.2596 73.7300 28.1420
v  -34.7574 67.5164 2.1591
v  21.1396 78.2191 -21.0868
v  40.9111 46.8421 -58.4050
v  -8.9754 57.4064 -62.0521
v  75.9293 37.6160 2.7955
v  -48.9975 13.4880 -46.0432
v  7.7547 -18.0857 -81.3962
v  65.6661 27.2285 -42.4777
v  44.2657 -19.6016 -70.7301
v  0.2592 -66.2119 -56.4376
v  35.9926 -59.4186 -39.0682
v  -28.1940 -66.4027 -46.9382
v  16.6702 -72.8954 3.2636
v  -61.4342 -45.8501 -14.8474
v  58.7579 -53.3975 14.1028
v  77.9590 -25.6143 36.2823
v  70.0401 -31.7779 -19.8123
v  -74.3674 0.7688 5.0463
# 27 vertices

vn 0.1812 -0.3672 0.9123
vn -0.3884 -0.3595 0.8485
vn -0.5707 -0.7467 0.3416
vn 0.0879 -0.8182 0.5681
vn -0.6323 0.1930 0.7503
vn -0.0818 0.6306 0.7718
vn 0.6378 0.0941 0.7644
vn -0.8756 0.4236 0.2320
vn 0.3830 0.8643 0.3261
vn -0.5685 0.8225 0.0162
vn 0.1885 0.9578 -0.2170
vn 0.4670 0.5375 -0.7021
vn -0.2867 0.6191 -0.7311
vn 0.9079 0.4192 0.0006
vn -0.7623 0.1865 -0.6198
vn -0.0946 -0.1173 -0.9886
vn 0.8446 0.2618 -0.4671
vn 0.5665 -0.2124 -0.7962
vn 0.0397 -0.7915 -0.6099
vn 0.5073 -0.7751 -0.3766
vn -0.4597 -0.7211 -0.5183
vn 0.1835 -0.9804 0.0723
vn -0.8592 -0.4301 -0.2770
vn 0.6071 -0.7794 0.1548
vn 0.8716 -0.3514 0.3418
vn 0.8848 -0.3695 -0.2837
vn -0.9939 0.0741 -0.0813
# 27 vertex normals

g Rock_01_collider
s 1
f 103//103 104//104 105//105 
f 105//105 106//106 103//103 
f 107//107 104//104 103//103 
f 107//107 105//105 104//104 
f 108//108 103//103 109//109 
f 107//107 108//108 110//110 
f 107//107 103//103 108//108 
f 108//108 111//111 112//112 
f 112//112 110//110 108//108 
f 108//108 109//109 111//111 
f 113//113 114//114 115//115 
f 114//114 113//113 116//116 
f 112//112 111//111 113//113 
f 113//113 111//111 116//116 
f 113//113 115//115 112//112 
f 117//117 112//112 115//115 
f 117//117 115//115 118//118 
f 114//114 119//119 120//120 
f 120//120 118//118 114//114 
f 118//118 115//115 114//114 
f 121//121 118//118 120//120 
f 120//120 122//122 121//121 
f 123//123 117//117 118//118 
f 118//118 121//121 123//123 
f 106//106 105//105 124//124 
f 123//123 124//124 105//105 
f 124//124 123//123 121//121 
f 105//105 125//125 123//123 
f 126//126 124//124 122//122 
f 124//124 121//121 122//122 
f 126//126 103//103 106//106 
f 124//124 126//126 106//106 
f 109//109 116//116 111//111 
f 127//127 128//128 116//116 
f 109//109 127//127 116//116 
f 103//103 126//126 127//127 
f 126//126 128//128 127//127 
f 109//109 103//103 127//127 
f 122//122 120//120 128//128 
f 120//120 119//119 128//128 
f 126//126 122//122 128//128 
f 114//114 116//116 119//119 
f 119//119 116//116 128//128 
f 117//117 129//129 112//112 
f 123//123 125//125 117//117 
f 129//129 117//117 125//125 
f 129//129 105//105 107//107 
f 105//105 129//129 125//125 
f 112//112 129//129 110//110 
f 107//107 110//110 129//129 
# 0 polygons - 50 triangles

