# File produced by Open Asset Import Library (http://www.assimp.sf.net)
# (assimp v3.2.202087883)

mtllib model_normalized.mtl

# 58 vertex positions
v -0.121766 -0.491644 -0.222622
v -0.172655 -0.491644 -0.165699
v -0.172655 -0.491644 -0.222622
v -0.121766 -0.491644 -0.165699
v -0.172655 -0.032848 -0.222622
v -0.121766 -0.103962 -0.165699
v -0.172655 -0.103962 -0.165699
v -0.121766 -0.103962 -0.222622
v -0.172655 -0.032848 0.038927
v 0.128588 -0.103962 -0.222622
v -0.172655 -0.103962 0.058043
v 0.171441 -0.032848 0.038927
v 0.171441 -0.032848 -0.222622
v 0.128588 -0.103962 -0.165699
v 0.171441 -0.103962 0.058043
v -0.172655 0.320122 0.038927
v 0.171441 -0.491644 -0.222622
v 0.128588 -0.491644 -0.165699
v 0.110293 -0.136794 0.058043
v -0.172655 -0.491644 0.108332
v 0.171441 -0.103962 -0.165699
v 0.171441 0.320122 0.038927
v 0.128588 -0.491644 -0.222622
v 0.171441 -0.491644 0.058043
v -0.110741 -0.136794 0.058043
v -0.172655 0.320122 0.108332
v -0.172655 -0.491644 0.058043
v 0.146975 0.339901 0.038927
v 0.171441 -0.491644 -0.165699
v 0.110293 -0.491644 0.058043
v 0.171441 -0.491644 0.108332
v -0.110741 -0.491644 0.058043
v -0.110741 -0.136794 0.108332
v -0.148190 0.339901 0.038927
v 0.171441 0.320122 0.108332
v 0.110293 -0.491644 0.108332
v 0.110293 -0.136794 0.108332
v -0.110741 -0.491644 0.108332
v -0.148190 0.339901 0.108332
v -0.121471 0.356518 0.038927
v 0.146975 0.339901 0.108332
v -0.121471 0.356518 0.108332
v 0.120257 0.356518 0.038927
v 0.120257 0.356518 0.108332
v -0.092907 0.369712 0.038927
v 0.091693 0.369712 0.108332
v -0.092907 0.369712 0.108332
v 0.091693 0.369712 0.038927
v -0.062934 0.379285 0.108332
v -0.062934 0.379285 0.038927
v 0.061720 0.379285 0.038927
v 0.061720 0.379285 0.108332
v -0.032011 0.385088 0.108332
v 0.030797 0.385088 0.108332
v -0.032011 0.385088 0.038927
v 0.030797 0.385088 0.038927
v -0.000607 0.387029 0.108332
v -0.000607 0.387029 0.038927

# 0 UV coordinates

# 30 vertex normals
vn 0 -0.0254 0
vn 0 0.0254 0
vn -0.0254 0 0
vn 0.0254 0 0
vn 0 0 -0.0254
vn -0 -0 0.0254
vn -0.0159707 0.0197509 0
vn -0.0147201 0.0206998 0
vn 0.0159707 -0.0197509 0
vn 0.0147201 -0.0206998 0
vn 0.0147201 0.0206998 0
vn 0.0159707 0.0197509 0
vn -0.0159707 -0.0197509 -0
vn -0.0147201 -0.0206998 0
vn -0.0120551 0.022357 0
vn 0.0120551 -0.022357 0
vn 0.0120551 0.022357 0
vn -0.0120551 -0.022357 0
vn -0.00920613 0.0236729 0
vn 0.00920613 -0.0236729 0
vn 0.00920613 0.0236729 0
vn -0.00920613 -0.0236729 0
vn -0.00621663 0.0246275 0
vn 0.00621663 -0.0246275 0
vn 0.00621663 0.0246275 0
vn -0.00621663 -0.0246275 0
vn -0.00313223 0.0252061 0
vn 0.00313223 -0.0252061 0
vn 0.00313223 0.0252061 0
vn -0.00313223 -0.0252061 0

# Mesh 'mesh1_mesh1-geometry' with 224 faces
g mesh1_mesh1-geometry
usemtl material_0_24
f  1//1 2//1 3//1
f  2//1 1//1 4//1
f  3//2 2//2 1//2
f  4//2 1//2 2//2
f  2//3 5//3 3//3
f  3//4 5//4 2//4
f  5//5 1//5 3//5
f  3//6 1//6 5//6
f  1//4 6//4 4//4
f  4//3 6//3 1//3
f  6//6 2//6 4//6
f  4//5 2//5 6//5
f  7//3 5//3 2//3
f  2//4 5//4 7//4
f  1//5 5//5 8//5
f  8//6 5//6 1//6
f  6//4 1//4 8//4
f  8//3 1//3 6//3
f  2//6 6//6 7//6
f  7//5 6//5 2//5
f  7//3 9//3 5//3
f  5//4 9//4 7//4
f  8//5 5//5 10//5
f  10//6 5//6 8//6
f  10//1 6//1 8//1
f  8//2 6//2 10//2
f  6//1 11//1 7//1
f  7//2 11//2 6//2
f  11//3 9//3 7//3
f  7//4 9//4 11//4
f  12//2 5//2 9//2
f  9//1 5//1 12//1
f  13//5 10//5 5//5
f  5//6 10//6 13//6
f  14//1 6//1 10//1
f  10//2 6//2 14//2
f  11//1 6//1 15//1
f  15//2 6//2 11//2
f  11//3 16//3 9//3
f  9//4 16//4 11//4
f  5//2 12//2 13//2
f  13//1 12//1 5//1
f  16//5 12//5 9//5
f  9//6 12//6 16//6
f  17//5 10//5 13//5
f  13//6 10//6 17//6
f  15//1 6//1 14//1
f  14//2 6//2 15//2
f  10//3 18//3 14//3
f  14//4 18//4 10//4
f  15//5 19//5 11//5
f  11//6 19//6 15//6
f  20//3 16//3 11//3
f  11//4 16//4 20//4
f  12//4 21//4 13//4
f  13//3 21//3 12//3
f  12//5 16//5 22//5
f  22//6 16//6 12//6
f  10//5 17//5 23//5
f  23//6 17//6 10//6
f  13//4 21//4 17//4
f  17//3 21//3 13//3
f  15//1 14//1 21//1
f  21//2 14//2 15//2
f  18//3 10//3 23//3
f  23//4 10//4 18//4
f  18//6 21//6 14//6
f  14//5 21//5 18//5
f  24//5 19//5 15//5
f  15//6 19//6 24//6
f  25//5 11//5 19//5
f  19//6 11//6 25//6
f  16//3 20//3 26//3
f  26//4 20//4 16//4
f  27//3 20//3 11//3
f  11//4 20//4 27//4
f  21//4 12//4 15//4
f  15//3 12//3 21//3
f  22//5 16//5 28//5
f  28//6 16//6 22//6
f  22//4 15//4 12//4
f  12//3 15//3 22//3
f  17//1 18//1 23//1
f  23//2 18//2 17//2
f  17//4 21//4 29//4
f  29//3 21//3 17//3
f  21//6 18//6 29//6
f  29//5 18//5 21//5
f  19//5 24//5 30//5
f  30//6 24//6 19//6
f  15//4 31//4 24//4
f  24//3 31//3 15//3
f  32//5 11//5 25//5
f  25//6 11//6 32//6
f  19//1 33//1 25//1
f  25//2 33//2 19//2
f  20//6 33//6 26//6
f  26//5 33//5 20//5
f  26//7 34//8 16//7
f  16//9 34//10 26//9
f  32//1 20//1 27//1
f  27//2 20//2 32//2
f  11//5 32//5 27//5
f  27//6 32//6 11//6
f  28//5 16//5 34//5
f  34//6 16//6 28//6
f  28//11 35//12 22//12
f  22//13 35//13 28//14
f  22//4 31//4 15//4
f  15//3 31//3 22//3
f  18//1 17//1 29//1
f  29//2 17//2 18//2
f  24//1 36//1 30//1
f  30//2 36//2 24//2
f  36//3 19//3 30//3
f  30//4 19//4 36//4
f  36//1 24//1 31//1
f  31//2 24//2 36//2
f  33//4 32//4 25//4
f  25//3 32//3 33//3
f  33//1 19//1 37//1
f  37//2 19//2 33//2
f  33//6 20//6 38//6
f  38//5 20//5 33//5
f  26//6 33//6 35//6
f  35//5 33//5 26//5
f  34//8 26//7 39//8
f  39//10 26//9 34//10
f  20//1 32//1 38//1
f  38//2 32//2 20//2
f  28//5 34//5 40//5
f  40//6 34//6 28//6
f  35//12 28//11 41//11
f  41//14 28//14 35//13
f  31//4 22//4 35//4
f  35//3 22//3 31//3
f  19//3 36//3 37//3
f  37//4 36//4 19//4
f  35//6 36//6 31//6
f  31//5 36//5 35//5
f  32//4 33//4 38//4
f  38//3 33//3 32//3
f  37//6 35//6 33//6
f  33//5 35//5 37//5
f  26//6 35//6 41//6
f  41//5 35//5 26//5
f  26//6 41//6 39//6
f  39//5 41//5 26//5
f  42//15 34//8 39//8
f  39//10 34//10 42//16
f  34//8 42//15 40//15
f  40//16 42//16 34//10
f  28//5 40//5 43//5
f  43//6 40//6 28//6
f  43//17 41//11 28//11
f  28//14 41//14 43//18
f  36//6 35//6 37//6
f  37//5 35//5 36//5
f  39//6 41//6 44//6
f  44//5 41//5 39//5
f  39//6 44//6 42//6
f  42//5 44//5 39//5
f  42//15 45//19 40//15
f  40//16 45//20 42//16
f  43//5 40//5 45//5
f  45//6 40//6 43//6
f  41//11 43//17 44//17
f  44//18 43//18 41//14
f  42//6 44//6 46//6
f  46//5 44//5 42//5
f  45//19 42//15 47//19
f  47//20 42//16 45//20
f  43//5 45//5 48//5
f  48//6 45//6 43//6
f  48//21 44//17 43//17
f  43//18 44//18 48//22
f  44//17 48//21 46//21
f  46//22 48//22 44//18
f  42//6 46//6 47//6
f  47//5 46//5 42//5
f  49//23 45//19 47//19
f  47//20 45//20 49//24
f  48//5 45//5 50//5
f  50//6 45//6 48//6
f  51//25 46//21 48//21
f  48//22 46//22 51//26
f  47//6 46//6 52//6
f  52//5 46//5 47//5
f  45//19 49//23 50//23
f  50//24 49//24 45//20
f  47//6 52//6 49//6
f  49//5 52//5 47//5
f  48//5 50//5 51//5
f  51//6 50//6 48//6
f  46//21 51//25 52//25
f  52//26 51//26 46//22
f  53//27 50//23 49//23
f  49//24 50//24 53//28
f  49//6 52//6 54//6
f  54//5 52//5 49//5
f  51//5 50//5 55//5
f  55//6 50//6 51//6
f  56//29 52//25 51//25
f  51//26 52//26 56//30
f  50//23 53//27 55//27
f  55//28 53//28 50//24
f  49//6 54//6 53//6
f  53//5 54//5 49//5
f  52//25 56//29 54//29
f  54//30 56//30 52//26
f  51//5 55//5 56//5
f  56//6 55//6 51//6
f  57//2 55//27 53//27
f  53//28 55//28 57//1
f  53//6 54//6 57//6
f  57//5 54//5 53//5
f  58//2 54//29 56//29
f  56//30 54//30 58//1
f  56//5 55//5 58//5
f  58//6 55//6 56//6
f  55//27 57//2 58//2
f  58//1 57//1 55//28
f  54//29 58//2 57//2
f  57//1 58//1 54//30

# Mesh 'mesh2_mesh2-geometry' with 76 faces
g mesh2_mesh2-geometry
usemtl material_0_0
l  3 2
l  3 5
l  1 3
l  7 2
l  2 4
l  9 5
l  5 13
l  4 1
l  1 8
l  11 7
l  7 6
l  4 6
l  9 12
l  16 9
l  17 13
l  12 13
l  8 10
l  6 8
l  27 11
l  11 15
l  22 12
l  34 16
l  16 26
l  17 23
l  29 17
l  10 23
l  14 10
l  27 20
l  27 32
l  24 15
l  15 21
l  22 28
l  22 35
l  40 34
l  20 26
l  39 26
l  18 23
l  21 29
l  18 29
l  14 18
l  14 21
l  20 38
l  32 25
l  32 38
l  31 24
l  30 24
l  28 43
l  31 35
l  35 41
l  45 40
l  42 39
l  38 33
l  25 19
l  25 33
l  36 31
l  19 30
l  30 36
l  43 48
l  41 44
l  50 45
l  47 42
l  33 37
l  19 37
l  37 36
l  48 51
l  44 46
l  55 50
l  49 47
l  51 56
l  46 52
l  58 55
l  53 49
l  56 58
l  52 54
l  57 53
l  54 57

