# File produced by Open Asset Import Library (http://www.assimp.sf.net)
# (assimp v3.2.202087883)

mtllib model_normalized.mtl

# 70 vertex positions
v -0.230569 -0.367789 0.187046
v -0.230569 -0.103467 0.066066
v -0.230569 -0.367789 0.066066
v -0.230569 -0.019607 0.066066
v -0.123888 -0.367789 0.066066
v -0.230569 0.285300 0.066066
v -0.230569 -0.103467 -0.258813
v -0.123888 -0.223552 0.066066
v -0.123888 -0.367789 0.187046
v -0.230569 0.285300 0.185144
v 0.205738 -0.019607 0.066066
v -0.230569 -0.019607 -0.363401
v -0.123888 -0.103467 -0.258813
v -0.123888 -0.103467 0.066066
v -0.123888 -0.104473 0.187046
v -0.230569 0.285300 0.187046
v -0.196827 0.302948 0.185144
v 0.205738 0.285300 0.066066
v -0.230569 -0.367789 -0.258813
v -0.230569 -0.104473 0.187046
v -0.196827 0.302948 0.066066
v 0.171997 0.302948 0.185144
v 0.205738 0.285300 0.185144
v 0.205738 -0.019607 -0.363401
v -0.230569 -0.367789 -0.363401
v 0.108478 -0.103467 -0.258813
v -0.123888 -0.367789 -0.258813
v 0.123649 -0.103467 0.066066
v -0.161672 0.317576 0.185144
v 0.136842 0.317576 0.185144
v 0.171997 0.302948 0.066066
v 0.205738 -0.104473 0.066066
v 0.205738 -0.107828 -0.258813
v 0.108478 -0.107828 -0.363401
v -0.123888 -0.367789 -0.363401
v 0.123649 -0.103467 -0.258813
v 0.123649 -0.104473 0.187046
v -0.161672 0.317576 0.066066
v 0.136842 0.317576 0.066066
v 0.205738 -0.367789 0.066066
v 0.205738 -0.107828 -0.250940
v 0.205738 -0.367789 -0.363401
v -0.123888 -0.107828 -0.363401
v 0.108478 -0.367789 -0.258813
v 0.123649 -0.104473 0.186687
v -0.125371 0.329070 0.185144
v 0.100541 0.329070 0.185144
v 0.205738 0.285300 0.187046
v 0.205738 -0.367789 0.187046
v 0.100541 0.329070 0.066066
v 0.205738 -0.367789 -0.258813
v 0.108478 -0.367789 -0.363401
v 0.123649 -0.367789 -0.258813
v 0.123649 -0.367789 0.187046
v -0.125371 0.329070 0.066066
v -0.230569 -0.104473 0.185144
v 0.205738 -0.104473 0.187046
v 0.123649 -0.367789 0.066066
v -0.088204 0.337345 0.185144
v 0.063374 0.337345 0.185144
v 0.063374 0.337345 0.066066
v -0.088204 0.337345 0.066066
v -0.050456 0.342334 0.185144
v 0.025626 0.342334 0.185144
v 0.025626 0.342334 0.066066
v -0.050456 0.342334 0.066066
v -0.012416 0.344001 0.185144
v -0.012416 0.344001 0.066066
v 0.205738 -0.107828 -0.237523
v 0.205738 -0.367789 -0.250940

# 0 UV coordinates

# 38 vertex normals
vn -0.0254 0 0
vn 0 0 -0.0254
vn 0 -0.0254 0
vn 0.0254 0 0
vn 0 0 0.0254
vn -0.010775 0.0230013 0
vn -0.011772 0.0225073 0
vn 0 0.0254 0
vn -5.08e-08 -0.0253991 -0.000211353
vn -0.00872089 0.0238559 0
vn 0.010775 0.0230013 0
vn 0.011772 0.0225073 0
vn 0 -0.025378 0.00105809
vn 0.00872089 0.0238559 0
vn -0.00659989 0.0245276 0
vn -0.000110693 0 0.0253998
vn 0.00659989 0.0245276 0
vn -0.00442826 0.025011 0
vn 0.00442826 0.025011 0
vn -0.00222265 0.0253026 0
vn 0.00222265 0.0253026 0
vn 0.011772 -0.0225073 -0
vn 0.010775 -0.0230013 -0
vn 5.08e-08 0.0253991 0.000211353
vn 0.00872089 -0.0238559 -0
vn -0.011772 -0.0225073 0
vn -0.010775 -0.0230013 0
vn 0 0.025378 -0.00105809
vn -0.00872089 -0.0238559 0
vn 0.00659989 -0.0245276 -0
vn 0.000110693 -0 -0.0253998
vn -0.00659989 -0.0245276 0
vn 0 0.0253998 0.000105639
vn -0 -0.0253998 -0.000105639
vn 0.00442826 -0.025011 -0
vn -0.00442826 -0.025011 0
vn 0.00222265 -0.0253026 -0
vn -0.00222265 -0.0253026 0

# Mesh 'mesh1_mesh1-geometry' with 124 faces
g mesh1_mesh1-geometry
usemtl material_0_24
f  1//1 2//1 3//1
f  2//1 1//1 4//1
f  2//2 5//2 3//2
f  5//3 1//3 3//3
f  4//1 1//1 6//1
f  4//1 7//1 2//1
f  5//2 2//2 8//2
f  1//3 5//3 9//3
f  6//1 1//1 10//1
f  6//2 11//2 4//2
f  12//1 7//1 4//1
f  13//3 2//3 7//3
f  8//2 2//2 14//2
f  8//4 15//4 5//4
f  5//4 15//4 9//4
f  15//5 1//5 9//5
f  10//1 1//1 16//1
f  17//6 6//7 10//7
f  11//2 6//2 18//2
f  11//8 12//8 4//8
f  12//1 19//1 7//1
f  13//3 14//3 2//3
f  19//5 13//5 7//5
f  15//4 8//4 14//4
f  1//5 15//5 20//5
f  16//1 1//1 20//1
f  6//7 17//6 21//6
f  10//5 22//5 17//5
f  18//2 6//2 21//2
f  23//4 11//4 18//4
f  12//8 11//8 24//8
f  19//1 12//1 25//1
f  26//3 14//3 13//3
f  13//5 19//5 27//5
f  28//9 15//9 14//9
f  29//10 21//6 17//6
f  22//5 10//5 23//5
f  17//5 22//5 30//5
f  18//2 21//2 31//2
f  11//4 23//4 32//4
f  31//11 23//12 18//12
f  33//4 24//4 11//4
f  24//2 34//2 12//2
f  12//2 35//2 25//2
f  35//3 19//3 25//3
f  36//3 14//3 26//3
f  13//13 34//13 26//13
f  19//3 35//3 27//3
f  35//4 13//4 27//4
f  28//9 37//9 15//9
f  14//3 36//3 28//3
f  21//6 29//10 38//10
f  17//5 30//5 29//5
f  23//12 31//11 22//11
f  22//11 39//14 30//14
f  31//2 21//2 38//2
f  32//4 23//4 40//4
f  41//4 11//4 32//4
f  24//4 33//4 42//4
f  33//4 11//4 41//4
f  42//2 34//2 24//2
f  43//2 12//2 34//2
f  35//2 12//2 43//2
f  44//5 36//5 26//5
f  34//13 13//13 43//13
f  34//1 44//1 26//1
f  13//4 35//4 43//4
f  37//9 28//9 45//9
f  46//15 38//10 29//10
f  29//5 30//5 47//5
f  10//16 45//16 48//16
f  49//4 23//4 48//4
f  39//14 22//11 31//11
f  50//17 30//14 39//14
f  31//2 38//2 39//2
f  40//4 23//4 49//4
f  40//2 28//2 32//2
f  51//4 42//4 33//4
f  34//2 42//2 52//2
f  36//5 44//5 53//5
f  44//1 34//1 52//1
f  28//1 54//1 45//1
f  45//1 54//1 37//1
f  38//10 46//15 55//15
f  29//5 47//5 46//5
f  30//14 50//17 47//17
f  45//16 10//16 56//16
f  48//16 45//16 57//16
f  49//4 48//4 57//4
f  39//2 55//2 50//2
f  39//2 38//2 55//2
f  54//3 40//3 49//3
f  28//2 40//2 58//2
f  53//3 42//3 51//3
f  33//5 53//5 51//5
f  42//3 53//3 52//3
f  52//3 53//3 44//3
f  53//5 33//5 36//5
f  54//1 28//1 58//1
f  54//5 57//5 37//5
f  59//18 55//15 46//15
f  46//5 47//5 60//5
f  61//19 47//17 50//17
f  57//5 54//5 49//5
f  50//2 55//2 62//2
f  40//3 54//3 58//3
f  55//15 59//18 62//18
f  46//5 60//5 59//5
f  47//17 61//19 60//19
f  50//2 62//2 61//2
f  63//20 62//18 59//18
f  59//5 60//5 64//5
f  65//21 60//19 61//19
f  61//2 62//2 66//2
f  62//18 63//20 66//20
f  59//5 64//5 63//5
f  60//19 65//21 64//21
f  61//2 66//2 65//2
f  67//8 66//20 63//20
f  63//5 64//5 67//5
f  68//8 64//21 65//21
f  65//2 66//2 68//2
f  66//20 67//8 68//8
f  64//21 68//8 67//8

# Mesh 'mesh1_mesh1-geometry' with 128 faces
g mesh1_mesh1-geometry
usemtl material_1_24
f  3//4 2//4 1//4
f  4//4 1//4 2//4
f  3//5 5//5 2//5
f  3//8 1//8 5//8
f  6//4 1//4 4//4
f  2//4 7//4 4//4
f  8//5 2//5 5//5
f  9//8 5//8 1//8
f  10//4 1//4 6//4
f  4//5 11//5 6//5
f  4//4 7//4 12//4
f  7//8 2//8 13//8
f  14//5 2//5 8//5
f  5//1 15//1 8//1
f  9//1 15//1 5//1
f  9//2 1//2 15//2
f  16//4 1//4 10//4
f  10//22 6//22 17//23
f  18//5 6//5 11//5
f  4//3 12//3 11//3
f  7//4 19//4 12//4
f  2//8 14//8 13//8
f  7//2 13//2 19//2
f  14//1 8//1 15//1
f  20//2 15//2 1//2
f  20//4 1//4 16//4
f  21//23 17//23 6//22
f  17//2 22//2 10//2
f  21//5 6//5 18//5
f  18//1 11//1 23//1
f  24//3 11//3 12//3
f  25//4 12//4 19//4
f  13//8 14//8 26//8
f  27//2 19//2 13//2
f  14//24 15//24 28//24
f  17//23 21//23 29//25
f  23//2 10//2 22//2
f  30//2 22//2 17//2
f  31//5 21//5 18//5
f  32//1 23//1 11//1
f  18//26 23//26 31//27
f  11//1 24//1 33//1
f  12//5 34//5 24//5
f  25//5 35//5 12//5
f  25//8 19//8 35//8
f  26//8 14//8 36//8
f  26//28 34//28 13//28
f  27//8 35//8 19//8
f  27//1 13//1 35//1
f  15//24 37//24 28//24
f  28//8 36//8 14//8
f  38//25 29//25 21//23
f  29//2 30//2 17//2
f  10//8 48//8 23//8
f  23//3 48//3 10//3
f  22//27 31//27 23//26
f  30//29 39//29 22//27
f  38//5 21//5 31//5
f  40//1 23//1 32//1
f  32//1 11//1 41//1
f  42//1 33//1 24//1
f  41//1 11//1 33//1
f  24//5 34//5 42//5
f  34//5 12//5 43//5
f  43//5 12//5 35//5
f  26//2 36//2 44//2
f  43//28 13//28 34//28
f  26//4 44//4 34//4
f  43//1 35//1 13//1
f  45//24 28//24 37//24
f  29//25 38//25 46//30
f  47//2 30//2 29//2
f  48//31 45//31 10//31
f  48//1 23//1 49//1
f  31//27 22//27 39//29
f  39//29 30//29 50//32
f  39//5 38//5 31//5
f  49//1 23//1 40//1
f  32//5 28//5 40//5
f  33//1 42//1 51//1
f  52//5 42//5 34//5
f  53//2 44//2 36//2
f  52//4 34//4 44//4
f  45//4 54//4 28//4
f  37//4 54//4 45//4
f  37//33 57//33 45//33
f  45//34 57//34 37//34
f  55//30 46//30 38//25
f  46//2 47//2 29//2
f  47//32 50//32 30//29
f  56//31 10//31 45//31
f  57//31 45//31 48//31
f  57//1 48//1 49//1
f  50//5 55//5 39//5
f  55//5 38//5 39//5
f  49//8 40//8 54//8
f  58//5 40//5 28//5
f  51//8 42//8 53//8
f  51//2 53//2 33//2
f  52//8 53//8 42//8
f  44//8 53//8 52//8
f  36//2 33//2 53//2
f  58//4 28//4 54//4
f  37//2 57//2 54//2
f  46//30 55//30 59//35
f  60//2 47//2 46//2
f  50//32 47//32 61//36
f  49//2 54//2 57//2
f  62//5 55//5 50//5
f  58//8 54//8 40//8
f  62//35 59//35 55//30
f  59//2 60//2 46//2
f  60//36 61//36 47//32
f  61//5 62//5 50//5
f  59//35 62//35 63//37
f  64//2 60//2 59//2
f  61//36 60//36 65//38
f  66//5 62//5 61//5
f  66//37 63//37 62//35
f  63//2 64//2 59//2
f  64//38 65//38 60//36
f  65//5 66//5 61//5
f  63//37 66//37 67//3
f  67//2 64//2 63//2
f  65//38 64//38 68//3
f  68//5 66//5 65//5
f  68//3 67//3 66//37
f  67//3 68//3 64//38

# Mesh 'mesh2_mesh2-geometry' with 1 faces
g mesh2_mesh2-geometry
usemtl material_1_0
l  41 69

# Mesh 'mesh3_mesh3-geometry' with 1 faces
g mesh3_mesh3-geometry
usemtl material_1_0
l  51 70

