# File produced by Open Asset Import Library (http://www.assimp.sf.net)
# (assimp v3.2.202087883)

mtllib model_normalized.mtl

# 55 vertex positions
v -0.202685 0.534298 0.182964
v 0.209581 -0.290236 0.182964
v 0.209581 0.534298 0.182964
v -0.202685 -0.290236 0.182964
v 0.209581 0.105540 0.166474
v 0.209581 0.534298 0.166474
v -0.202685 -0.290236 0.166474
v 0.209581 -0.290236 0.166474
v 0.209581 0.122031 0.166474
v -0.202685 0.534298 0.166474
v -0.202685 0.105540 0.166474
v 0.209581 -0.191292 0.063407
v 0.193091 0.105540 0.166474
v -0.202685 0.122031 0.166474
v 0.209581 0.122031 -0.204566
v -0.202685 -0.191292 0.063407
v -0.186195 -0.290236 0.166474
v 0.209581 -0.191292 -0.101500
v 0.209581 0.006596 0.063407
v 0.193091 -0.290236 0.166474
v 0.193091 0.105540 0.108756
v 0.209581 0.105540 -0.204566
v -0.186195 0.105540 0.166474
v -0.202685 0.105540 -0.204566
v -0.202685 -0.290236 -0.204566
v -0.202685 0.006596 0.063407
v -0.186195 0.047823 0.166474
v 0.209581 -0.290236 -0.204566
v 0.193091 -0.191292 0.063407
v 0.193091 0.047823 0.166474
v 0.193091 -0.290236 -0.204566
v 0.193091 0.047823 0.108756
v -0.186195 0.105540 0.108756
v -0.202685 0.122031 -0.204566
v 0.193091 0.105540 -0.204566
v -0.202685 0.006596 -0.101500
v -0.202685 -0.191292 -0.101500
v -0.186195 0.006596 0.063407
v -0.186195 -0.191292 0.063407
v -0.186195 -0.290236 -0.204566
v 0.193091 -0.191292 -0.101500
v 0.193091 0.006596 0.063407
v 0.209581 0.006596 -0.101500
v 0.193091 0.105540 -0.148714
v 0.193091 0.047823 -0.146849
v -0.186195 0.105540 -0.146849
v 0.193091 0.047823 -0.204566
v -0.186195 0.105540 -0.204566
v -0.186195 -0.191292 -0.101500
v -0.186195 0.047823 -0.204566
v 0.193091 0.006596 -0.101500
v -0.186195 0.047823 0.108756
v -0.186195 0.105540 -0.148714
v -0.186195 0.006596 -0.101500
v -0.186195 0.047823 -0.146849

# 113 UV coordinates
vt -3 7.27962 0
vt 0 0 0
vt 0 7.27962 0
vt -3 0 0
vt 0.12 3.49422 0
vt 0.12 0 0
vt 0 3.63981 0
vt -0.12 0 0
vt -0.12 3.63981 0
vt 0.12 3.63981 0
vt 0.12 7.27962 0
vt -0.12 3.49422 0
vt 0.87 0.873555 0
vt 0 3.49422 0
vt -3 3.63981 0
vt 2.82 3.63981 0
vt -0.12 7.27962 0
vt -0.87 0.873555 0
vt -2.88 0 0
vt -3 3.49422 0
vt 2.07 0.873555 0
vt 0.87 2.62066 0
vt -0.54 0.145592 0
vt -0.12 0.145592 0
vt 2.82 0 0
vt 2.82 3.49422 0
vt -2.88 3.49422 0
vt -2.82 3.49422 0
vt -2.82 0 0
vt -0.87 2.62066 0
vt -2.88 2.98464 0
vt -2.82 3.63981 0
vt 2.07 0 0
vt 0.87 0.145592 0
vt 0.87 0 0
vt 0.12 0.873555 0
vt 0 2.62066 0
vt 0 0.873555 0
vt -0.12 2.98464 0
vt -2.82 0.145592 0
vt -0.54 2.98464 0
vt -0.54 3.49422 0
vt -2.07 2.62066 0
vt -2.07 0.873555 0
vt 2.88 2.62066 0
vt 3 0.873555 0
vt 3 2.62066 0
vt 0.12 2.98464 0
vt 2.07 0.145592 0
vt 0.12 2.62066 0
vt 2.07 2.62066 0
vt -2.41357 0.145592 0
vt -2.4 2.98464 0
vt -2.4 3.49422 0
vt 3 3.63981 0
vt 0.54 3.49422 0
vt 2.88 3.49422 0
vt 3 3.49422 0
vt 0.87 3.63981 0
vt 2.07 3.49422 0
vt 2.07 3.63981 0
vt -2.07 3.63981 0
vt -0.87 3.49422 0
vt -0.87 3.63981 0
vt 2.88 0.873555 0
vt 3 0 0
vt 2.88 2.98464 0
vt 2.88 0 0
vt -0.12 2.62066 0
vt -0.12 0.873555 0
vt -2.07 0.145592 0
vt -0.87 0 0
vt -0.87 0.145592 0
vt -2.07 0 0
vt 0.54 0.145592 0
vt 0.12 0.145592 0
vt -2.82 2.98464 0
vt -2.41357 3.49422 0
vt 2.41357 3.49422 0
vt 2.4 3.49422 0
vt 0.54 2.98464 0
vt -2.88 0.873555 0
vt -3 2.62066 0
vt -3 0.873555 0
vt 0.87 3.49422 0
vt -2.07 3.49422 0
vt 2.82 2.98464 0
vt -0.12 3.07711 0
vt -2.88 3.07711 0
vt -0.12 3.58695 0
vt -2.4 0.145592 0
vt 2.4 2.98464 0
vt -2.88 2.62066 0
vt -2.88 3.58695 0
vt -0.337079 8.08989 0
vt -0.337079 6.91011 0
vt -8.08989 8.08989 0
vt 0.337079 0.337079 0
vt 0.337079 8.08989 0
vt 1.51685 0.337079 0
vt -8.08989 6.91011 0
vt 8.08989 6.91011 0
vt 0.337079 6.91011 0
vt 1.51685 8.08989 0
vt -0.337079 8.30457 0
vt -8.08989 7.12418 0
vt -0.337079 7.12418 0
vt -6.74157 0.337079 0
vt -7.92135 8.08989 0
vt -7.92135 0.337079 0
vt 8.08989 8.08989 0
vt -8.08989 8.30457 0
vt -6.74157 8.08989 0

# 8 vertex normals
vn 0 0 0.001
vn 0 0 -0.001
vn 0.001 0 0
vn -0.001 0 0
vn 0 0.001 0
vn 0 -0.001 0
vn 0 -3.2288e-05 -0.000999479
vn 0 3.2288e-05 0.000999479

# Mesh 'mesh1_mesh1-geometry' with 276 faces
g mesh1_mesh1-geometry
usemtl material_0_1_8
f  1/1/1 2/2/1 3/3/1
f  2/2/1 1/1/1 4/4/1
f  3/3/2 2/2/2 1/1/2
f  4/4/2 1/1/2 2/2/2
f  2/2/3 5/5/3 3/3/3
f  3/3/4 5/5/4 2/2/4
f  6/6/5 1/7/5 3/2/5
f  3/2/6 1/7/6 6/6/6
f  1/3/4 7/8/4 4/2/4
f  4/2/3 7/8/3 1/3/3
f  7/9/6 2/2/6 4/7/6
f  4/7/5 2/2/5 7/9/5
f  5/5/3 2/2/3 8/6/3
f  8/6/4 2/2/4 5/5/4
f  3/3/3 5/5/3 9/10/3
f  9/10/4 5/5/4 3/3/4
f  1/7/5 6/6/5 10/10/5
f  10/10/6 6/6/6 1/7/6
f  3/3/3 9/10/3 6/11/3
f  6/11/4 9/10/4 3/3/4
f  7/8/4 1/3/4 11/12/4
f  11/12/3 1/3/3 7/8/3
f  2/2/6 7/9/6 8/8/6
f  8/8/5 7/9/5 2/2/5
f  8/6/3 12/13/3 5/5/3
f  5/5/4 12/13/4 8/6/4
f  13/12/1 8/2/1 5/14/1
f  5/14/2 8/2/2 13/12/2
f  14/15/1 5/14/1 9/7/1
f  9/7/2 5/14/2 14/15/2
f  5/5/3 15/16/3 9/10/3
f  9/10/4 15/16/4 5/5/4
f  10/1/1 9/7/1 6/3/1
f  6/3/2 9/7/2 10/1/2
f  14/9/4 1/3/4 10/17/4
f  10/17/3 1/3/3 14/9/3
f  11/12/4 1/3/4 14/9/4
f  14/9/3 1/3/3 11/12/3
f  16/18/4 7/8/4 11/12/4
f  11/12/3 7/8/3 16/18/3
f  17/19/1 11/20/1 7/4/1
f  7/4/2 11/20/2 17/19/2
f  8/8/6 7/9/6 17/12/6
f  17/12/5 7/9/5 8/8/5
f  12/13/3 8/6/3 18/21/3
f  18/21/4 8/6/4 12/13/4
f  5/5/3 12/13/3 19/22/3
f  19/22/4 12/13/4 5/5/4
f  8/2/1 13/12/1 20/8/1
f  20/8/2 13/12/2 8/2/2
f  5/14/1 14/15/1 13/12/1
f  13/12/2 14/15/2 5/14/2
f  21/23/6 5/8/6 13/24/6
f  13/24/5 5/8/5 21/23/5
f  15/25/5 14/10/5 9/6/5
f  9/6/6 14/10/6 15/25/6
f  9/7/1 10/1/1 14/15/1
f  14/15/2 10/1/2 9/7/2
f  15/16/3 5/5/3 22/26/3
f  22/26/4 5/5/4 15/16/4
f  23/27/1 14/15/1 11/20/1
f  11/20/2 14/15/2 23/27/2
f  14/9/4 24/28/4 11/12/4
f  11/12/3 24/28/3 14/9/3
f  7/8/4 16/18/4 25/29/4
f  25/29/3 16/18/3 7/8/3
f  16/18/4 11/12/4 26/30/4
f  26/30/3 11/12/3 16/18/3
f  27/31/1 11/20/1 17/19/1
f  17/19/2 11/20/2 27/31/2
f  25/32/6 17/12/6 7/9/6
f  7/9/5 17/12/5 25/32/5
f  8/8/6 17/12/6 20/24/6
f  20/24/5 17/12/5 8/8/5
f  28/25/3 18/21/3 8/6/3
f  8/6/4 18/21/4 28/25/4
f  18/33/5 29/34/5 12/35/5
f  12/35/6 29/34/6 18/33/6
f  29/36/2 19/37/2 12/38/2
f  12/38/1 19/37/1 29/36/1
f  5/5/3 19/22/3 22/26/3
f  22/26/4 19/22/4 5/5/4
f  20/8/1 13/12/1 30/39/1
f  30/39/2 13/12/2 20/8/2
f  31/40/6 8/8/6 20/24/6
f  20/24/5 8/8/5 31/40/5
f  13/12/1 14/15/1 23/27/1
f  23/27/2 14/15/2 13/12/2
f  5/8/6 21/23/6 22/29/6
f  22/29/5 21/23/5 5/8/5
f  32/41/4 13/12/4 21/42/4
f  21/42/3 13/12/3 32/41/3
f  13/24/6 33/42/6 21/23/6
f  21/23/5 33/42/5 13/24/5
f  14/10/5 15/25/5 34/16/5
f  34/16/6 15/25/6 14/10/6
f  35/5/2 15/7/2 22/14/2
f  22/14/1 15/7/1 35/5/1
f  24/32/6 23/12/6 11/9/6
f  11/9/5 23/12/5 24/32/5
f  11/20/1 27/31/1 23/27/1
f  23/27/2 27/31/2 11/20/2
f  24/28/4 14/9/4 34/32/4
f  34/32/3 14/9/3 24/28/3
f  24/28/4 36/43/4 11/12/4
f  11/12/3 36/43/3 24/28/3
f  37/44/4 25/29/4 16/18/4
f  16/18/3 25/29/3 37/44/3
f  26/30/4 11/12/4 36/43/4
f  36/43/3 11/12/3 26/30/3
f  38/45/2 16/46/2 26/47/2
f  26/47/1 16/46/1 38/45/1
f  20/8/1 27/31/1 17/19/1
f  17/19/2 27/31/2 20/8/2
f  17/6/3 39/13/3 27/48/3
f  27/48/4 39/13/4 17/6/4
f  17/12/6 25/32/6 40/28/6
f  40/28/5 25/32/5 17/12/5
f  18/21/3 28/25/3 22/26/3
f  22/26/4 28/25/4 18/21/4
f  8/8/6 31/40/6 28/29/6
f  28/29/5 31/40/5 8/8/5
f  29/34/5 18/33/5 41/49/5
f  41/49/6 18/33/6 29/34/6
f  19/37/2 29/36/2 42/50/2
f  42/50/1 29/36/1 19/37/1
f  43/51/3 22/26/3 19/22/3
f  19/22/4 22/26/4 43/51/4
f  13/12/4 32/41/4 30/39/4
f  30/39/3 32/41/3 13/12/3
f  23/27/1 30/39/1 13/12/1
f  13/12/2 30/39/2 23/27/2
f  27/31/1 20/8/1 30/39/1
f  30/39/2 20/8/2 27/31/2
f  29/18/4 20/8/4 30/39/4
f  30/39/3 20/8/3 29/18/3
f  20/8/4 29/18/4 31/29/4
f  31/29/3 29/18/3 20/8/3
f  33/42/6 13/24/6 23/12/6
f  23/12/5 13/24/5 33/42/5
f  22/29/6 21/23/6 44/52/6
f  44/52/5 21/23/5 22/29/5
f  33/27/1 32/39/1 21/12/1
f  21/42/4 45/53/4 32/41/4
f  32/41/3 45/53/3 21/42/3
f  46/54/6 21/23/6 33/42/6
f  33/42/5 21/23/5 46/54/5
f  15/7/2 35/5/2 34/55/2
f  34/55/1 35/5/1 15/7/1
f  35/5/2 22/14/2 47/48/2
f  47/48/1 22/14/1 35/5/1
f  22/29/6 44/52/6 35/40/6
f  35/40/5 44/52/5 22/29/5
f  23/12/6 24/32/6 33/42/6
f  33/42/5 24/32/5 23/12/5
f  27/48/3 33/56/3 23/5/3
f  23/5/4 33/56/4 27/48/4
f  30/39/1 23/27/1 27/31/1
f  27/31/2 23/27/2 30/39/2
f  34/55/2 48/57/2 24/58/2
f  24/58/1 48/57/1 34/55/1
f  24/28/4 37/44/4 36/43/4
f  36/43/3 37/44/3 24/28/3
f  25/29/4 37/44/4 24/28/4
f  24/28/3 37/44/3 25/29/3
f  16/59/5 49/60/5 37/61/5
f  37/61/6 49/60/6 16/59/6
f  36/62/6 38/63/6 26/64/6
f  26/64/5 38/63/5 36/62/5
f  16/46/2 38/45/2 39/65/2
f  39/65/1 38/45/1 16/46/1
f  39/13/3 17/6/3 49/21/3
f  49/21/4 17/6/4 39/13/4
f  27/48/3 39/13/3 38/22/3
f  38/22/4 39/13/4 27/48/4
f  25/66/2 50/67/2 40/68/2
f  40/68/1 50/67/1 25/66/1
f  40/25/3 49/21/3 17/6/3
f  17/6/4 49/21/4 40/25/4
f  31/6/2 22/14/2 28/2/2
f  28/2/1 22/14/1 31/6/1
f  18/21/3 22/26/3 43/51/3
f  43/51/4 22/26/4 18/21/4
f  18/38/1 51/69/1 41/70/1
f  41/70/2 51/69/2 18/38/2
f  41/44/4 31/29/4 29/18/4
f  29/18/3 31/29/3 41/44/3
f  29/18/4 30/39/4 42/30/4
f  42/30/3 30/39/3 29/18/3
f  51/71/6 19/72/6 42/73/6
f  42/73/5 19/72/5 51/71/5
f  19/72/6 51/71/6 43/74/6
f  43/74/5 51/71/5 19/72/5
f  32/75/5 27/5/5 30/76/5
f  47/77/4 30/39/4 32/41/4
f  32/41/3 30/39/3 47/77/3
f  21/23/6 46/54/6 44/52/6
f  44/52/5 46/54/5 21/23/5
f  45/53/4 21/42/4 44/78/4
f  44/78/3 21/42/3 45/53/3
f  32/39/1 33/27/1 52/31/1
f  47/77/4 32/41/4 45/53/4
f  45/53/3 32/41/3 47/77/3
f  33/42/6 24/32/6 46/54/6
f  46/54/5 24/32/5 33/42/5
f  33/56/3 53/79/3 46/80/3
f  46/80/4 53/79/4 33/56/4
f  34/55/2 35/5/2 48/57/2
f  48/57/1 35/5/1 34/55/1
f  22/14/2 31/6/2 47/48/2
f  47/48/1 31/6/1 22/14/1
f  47/77/4 44/78/4 35/28/4
f  35/28/3 44/78/3 47/77/3
f  47/48/1 35/5/1 50/67/1
f  44/52/6 48/28/6 35/40/6
f  35/40/5 48/28/5 44/52/5
f  33/56/3 27/48/3 52/81/3
f  52/81/4 27/48/4 33/56/4
f  48/57/2 25/66/2 24/58/2
f  24/58/1 25/66/1 48/57/1
f  53/78/6 24/32/6 48/28/6
f  48/28/5 24/32/5 53/78/5
f  49/82/1 36/83/1 37/84/1
f  37/84/2 36/83/2 49/82/2
f  49/60/5 16/59/5 39/85/5
f  39/85/6 16/59/6 49/60/6
f  38/63/6 36/62/6 54/86/6
f  54/86/5 36/62/5 38/63/5
f  27/48/3 38/22/3 50/87/3
f  50/87/4 38/22/4 27/48/4
f  50/67/2 25/66/2 48/57/2
f  48/57/1 25/66/1 50/67/1
f  49/21/3 40/25/3 50/87/3
f  50/87/4 40/25/4 49/21/4
f  51/69/1 18/38/1 43/37/1
f  43/37/2 18/38/2 51/69/2
f  47/77/4 41/44/4 51/43/4
f  51/43/3 41/44/3 47/77/3
f  31/29/4 41/44/4 47/77/4
f  47/77/3 41/44/3 31/29/3
f  42/30/4 30/39/4 51/43/4
f  51/43/3 30/39/3 42/30/3
f  27/5/5 32/75/5 52/56/5
f  47/77/4 51/43/4 30/39/4
f  30/39/3 51/43/3 47/77/3
f  44/52/6 46/54/6 53/78/6
f  53/78/5 46/54/5 44/52/5
f  44/78/4 47/77/4 45/53/4
f  45/53/3 47/77/3 44/78/3
f  45/88/7 55/89/7 44/90/7
f  52/81/3 53/79/3 33/56/3
f  33/56/4 53/79/4 52/81/4
f  47/40/5 50/28/5 45/91/5
f  46/54/6 24/32/6 53/78/6
f  53/78/5 24/32/5 46/54/5
f  48/57/1 50/67/1 35/5/1
f  48/28/6 44/52/6 53/78/6
f  53/78/5 44/52/5 48/28/5
f  27/48/3 55/92/3 52/81/3
f  52/81/4 55/92/4 27/48/4
f  55/92/3 48/26/3 53/79/3
f  53/79/4 48/26/4 55/92/4
f  36/83/1 49/82/1 54/93/1
f  54/93/2 49/82/2 36/83/2
f  54/51/3 50/87/3 38/22/3
f  38/22/4 50/87/4 54/51/4
f  27/48/3 50/87/3 55/92/3
f  55/92/4 50/87/4 27/48/4
f  48/26/3 55/92/3 50/87/3
f  50/87/4 55/92/4 48/26/4
f  49/21/3 50/87/3 54/51/3
f  54/51/4 50/87/4 49/21/4
f  53/94/7 44/90/7 55/89/7
f  55/54/5 45/91/5 50/28/5
f  53/79/3 52/81/3 55/92/3
f  55/92/4 52/81/4 53/79/4

# Mesh 'mesh1_mesh1-geometry' with 10 faces
g mesh1_mesh1-geometry
usemtl material_1_2_8
f  21/95/2 32/96/2 33/97/2
f  30/98/6 27/99/6 32/100/6
f  52/101/2 33/97/2 32/96/2
f  50/102/2 35/99/2 47/103/2
f  52/104/6 32/100/6 27/99/6
f  44/105/8 55/106/8 45/107/8
f  45/108/6 50/109/6 47/110/6
f  35/99/2 50/102/2 48/111/2
f  55/106/8 44/105/8 53/112/8
f  50/109/6 45/108/6 55/113/6

