# File produced by Open Asset Import Library (http://www.assimp.sf.net)
# (assimp v3.2.202087883)

mtllib model_normalized.mtl

# 62 vertex positions
v 0.092142 -0.442640 -0.174331
v 0.197264 -0.442640 -0.242819
v 0.197264 -0.442640 -0.174331
v 0.092142 -0.442640 -0.242819
v 0.197264 0.270996 0.118656
v 0.197264 -0.005818 0.033817
v 0.197264 0.270996 0.033817
v 0.197264 -0.113931 0.033817
v 0.197264 -0.442640 0.033817
v 0.197264 -0.442640 0.118656
v 0.197264 -0.005818 -0.242819
v 0.197264 -0.113931 -0.174331
v 0.174985 0.306437 0.118656
v 0.174985 0.306437 0.033817
v 0.146611 0.337214 0.118656
v 0.146611 0.337214 0.033817
v 0.113095 0.362295 0.033817
v 0.113095 0.362295 0.118656
v 0.075566 0.380841 0.033817
v 0.075566 0.380841 0.118656
v 0.035281 0.392219 0.033817
v 0.035281 0.392219 0.118656
v -0.006403 0.396058 0.033817
v -0.006403 0.396058 0.118656
v -0.048088 0.392219 0.033817
v -0.048088 0.392219 0.118656
v -0.088372 0.380841 0.033817
v -0.088372 0.380841 0.118656
v -0.125902 0.362295 0.033817
v -0.125902 0.362295 0.118656
v -0.159418 0.337214 0.033817
v -0.159418 0.337214 0.118656
v -0.187792 0.306437 0.118656
v -0.187792 0.306437 0.033817
v -0.210071 0.270996 0.118656
v -0.210071 0.270996 0.033817
v -0.210071 -0.442640 0.118656
v -0.210071 -0.113931 0.033817
v -0.210071 -0.442640 0.033817
v -0.210071 -0.005818 0.033817
v -0.210071 -0.442640 -0.174331
v -0.210071 -0.005818 -0.242819
v -0.210071 -0.442640 -0.242819
v -0.210071 -0.113931 -0.174331
v 0.129110 -0.442640 0.033817
v 0.129110 -0.113931 0.033817
v -0.086727 -0.113931 0.033817
v 0.092142 -0.150387 -0.174331
v -0.088480 -0.150387 -0.174331
v -0.088480 -0.442640 -0.174331
v -0.088480 -0.442640 -0.242819
v -0.088480 -0.150387 -0.242819
v 0.092142 -0.150387 -0.242819
v -0.086727 -0.442640 0.033817
v -0.086727 -0.442640 0.118656
v 0.129110 -0.442640 0.118656
v 0.129110 -0.113931 0.118656
v 0.129110 -0.093408 0.118656
v -0.086727 -0.093408 0.118656
v -0.086727 -0.113931 0.118656
v 0.129110 -0.093408 0.033817
v -0.086727 -0.093408 0.033817

# 0 UV coordinates

# 34 vertex normals
vn 0 -0.0254 0
vn 0.0254 -8.07239e-19 -3.02849e-19
vn 0.0201742 0.0154325 0
vn 0.0215036 0.0135186 0
vn 0.0170184 0.0188556 0
vn 0.0132908 0.0216452 0
vn 0.00911666 0.0237075 0
vn 0.00463622 0.0249733 -3.09341e-32
vn 0.00232791 0.0252931 -6.16078e-32
vn -0.00463622 0.0249733 1.25216e-20
vn -0.00232791 0.0252931 2.49379e-20
vn -0.00911666 0.0237075 0
vn -0.0132908 0.0216452 0
vn -0.0170184 0.0188556 0
vn -0.0201742 0.0154325 0
vn -0.0215036 0.0135186 0
vn -0.0254 0 0
vn 0 0.0254 0
vn 0 0 -0.0254
vn 4.62694e-17 9.59351e-18 -0.0254
vn 0 0 0.0254
vn 0.0254 0 0
vn 1.16472e-17 -0.0254 -2.22598e-17
vn 4.56713e-18 -8.2465e-19 0.0254
vn 0 -3.07306e-16 0.0254
vn 0.0254 -7.68265e-17 -3.71699e-17
vn -0.0254 1.92066e-17 5.11086e-17
vn -0 -0.0254 -1.80595e-17
vn -2.10789e-17 -0.0254 -2.22598e-17
vn 2.55663e-17 -9.59351e-18 -0.0254
vn 0.0254 4.79675e-18 -3.71699e-17
vn -0.0254 -4.79675e-18 3.71699e-17
vn -0.0254 -1.19919e-18 5.11086e-17
vn 0.0254 1.19919e-18 -5.11086e-17

# Mesh 'SketchUp_ID2' with 2 faces
g SketchUp_ID2
usemtl material
f  1//1 2//1 3//1
f  2//1 1//1 4//1

# Mesh 'SketchUp_ID10' with 40 faces
g SketchUp_ID10
usemtl material_0
f  5//2 6//2 7//2
f  6//2 5//2 8//2
f  8//2 5//2 9//2
f  9//2 5//2 10//2
f  11//2 12//2 2//2
f  12//2 11//2 6//2
f  12//2 6//2 8//2
f  3//2 2//2 12//2
f  13//3 7//4 14//3
f  7//4 13//3 5//4
f  15//5 14//3 16//5
f  14//3 15//5 13//3
f  17//6 15//5 16//5
f  15//5 17//6 18//6
f  19//7 18//6 17//6
f  18//6 19//7 20//7
f  21//8 20//7 19//7
f  20//7 21//8 22//8
f  23//9 22//8 21//8
f  22//8 23//9 24//9
f  25//10 24//11 23//11
f  24//11 25//10 26//10
f  27//12 26//10 25//10
f  26//10 27//12 28//12
f  29//13 28//12 27//12
f  28//12 29//13 30//13
f  31//14 30//13 29//13
f  30//13 31//14 32//14
f  33//15 31//14 34//15
f  31//14 33//15 32//14
f  35//16 34//15 36//16
f  34//15 35//16 33//15
f  37//17 38//17 39//17
f  38//17 37//17 40//17
f  40//17 37//17 36//17
f  36//17 37//17 35//17
f  41//17 42//17 43//17
f  42//17 41//17 44//17
f  42//17 44//17 40//17
f  40//17 44//17 38//17

# Mesh 'SketchUp_ID18' with 15 faces
g SketchUp_ID18
usemtl material_1
f  42//18 6//18 11//18
f  6//18 42//18 40//18
f  36//19 6//19 40//19
f  6//19 36//19 7//19
f  7//19 36//19 14//19
f  14//19 36//19 34//19
f  14//19 34//19 16//19
f  16//19 34//19 31//19
f  16//19 31//19 29//19
f  16//19 29//19 17//19
f  17//19 29//19 27//19
f  17//19 27//19 19//19
f  19//19 27//19 25//19
f  19//19 25//19 21//19
f  21//19 25//19 23//19

# Mesh 'SketchUp_ID26' with 2 faces
g SketchUp_ID26
usemtl material_2
f  45//20 8//20 9//20
f  8//20 45//20 46//20

# Mesh 'SketchUp_ID34' with 4 faces
g SketchUp_ID34
usemtl material
f  46//1 12//1 8//1
f  12//1 46//1 44//1
f  44//1 46//1 47//1
f  44//1 47//1 38//1

# Mesh 'SketchUp_ID40' with 10 faces
g SketchUp_ID40
usemtl material_2
f  12//21 1//21 3//21
f  1//21 12//21 48//21
f  48//21 12//21 49//21
f  49//21 41//21 50//21
f  41//21 49//21 44//21
f  44//21 49//21 12//21
f  49//22 51//22 52//22
f  51//22 49//22 50//22
f  1//17 53//17 4//17
f  53//17 1//17 48//17

# Mesh 'SketchUp_ID46' with 2 faces
g SketchUp_ID46
usemtl material
f  37//23 54//23 55//23
f  54//23 37//23 39//23

# Mesh 'SketchUp_ID52' with 6 faces
g SketchUp_ID52
usemtl material_3
f  42//19 51//19 43//19
f  51//19 42//19 52//19
f  52//19 42//19 53//19
f  53//19 2//19 4//19
f  2//19 53//19 11//19
f  11//19 53//19 42//19

# Mesh 'SketchUp_ID60' with 2 faces
g SketchUp_ID60
usemtl material
f  49//1 53//1 48//1
f  53//1 49//1 52//1

# Mesh 'SketchUp_ID66' with 2 faces
g SketchUp_ID66
usemtl material
f  41//1 51//1 50//1
f  51//1 41//1 43//1

# Mesh 'SketchUp_ID72' with 19 faces
g SketchUp_ID72
usemtl material_4
f  5//24 56//24 10//24
f  56//24 5//24 57//24
f  57//24 5//24 58//24
f  58//24 5//24 59//24
f  60//24 37//24 55//24
f  37//24 60//24 35//24
f  35//24 60//24 59//24
f  35//24 59//24 5//24
f  35//24 5//24 13//24
f  35//24 13//24 33//24
f  33//24 13//24 15//24
f  33//24 15//24 32//24
f  32//24 15//24 18//24
f  32//24 18//24 30//24
f  30//24 18//24 20//24
f  30//24 20//24 28//24
f  28//24 20//24 22//24
f  28//24 22//24 26//24
f  26//24 22//24 24//24

# Mesh 'SketchUp_ID80' with 6 faces
g SketchUp_ID80
usemtl material_2
f  61//25 47//25 46//25
f  47//25 61//25 62//25
f  62//26 60//26 47//26
f  60//26 62//26 59//26
f  57//27 61//27 46//27
f  61//27 57//27 58//27

# Mesh 'SketchUp_ID86' with 2 faces
g SketchUp_ID86
usemtl material
f  59//28 61//28 58//28
f  61//28 59//28 62//28

# Mesh 'SketchUp_ID92' with 2 faces
g SketchUp_ID92
usemtl material
f  56//29 9//29 10//29
f  9//29 56//29 45//29

# Mesh 'SketchUp_ID98' with 2 faces
g SketchUp_ID98
usemtl material_2
f  38//30 54//30 39//30
f  54//30 38//30 47//30

# Mesh 'SketchUp_ID104' with 2 faces
g SketchUp_ID104
usemtl material_5
f  60//31 54//31 47//31
f  54//31 60//31 55//31

# Mesh 'SketchUp_ID104' with 2 faces
g SketchUp_ID104
usemtl material_6
f  55//32 60//32 54//32
f  47//32 54//32 60//32

# Mesh 'SketchUp_ID114' with 2 faces
g SketchUp_ID114
usemtl material_5
f  56//33 46//33 45//33
f  46//33 56//33 57//33

# Mesh 'SketchUp_ID114' with 2 faces
g SketchUp_ID114
usemtl material_6
f  57//34 56//34 46//34
f  45//34 46//34 56//34

