# File produced by Open Asset Import Library (http://www.assimp.sf.net)
# (assimp v3.2.202087883)

mtllib model_normalized.mtl

# 103 vertex positions
v -0.221053 -0.397776 0.185471
v -0.221053 -0.160604 0.136820
v -0.221053 -0.397776 0.136820
v -0.221053 0.346393 0.185471
v -0.172402 -0.397776 0.136820
v -0.221053 0.346393 0.120163
v -0.172402 -0.160604 0.185471
v -0.172402 -0.160604 0.136820
v -0.172402 -0.397776 0.185471
v -0.221053 0.070486 0.120163
v -0.185856 0.358836 0.185471
v 0.216802 0.346393 0.185471
v -0.172402 -0.160604 -0.203733
v -0.221053 0.021835 0.120163
v -0.172402 0.070486 0.120163
v -0.185856 0.358836 0.120163
v 0.181605 0.358836 0.185471
v 0.168151 -0.160604 0.185471
v -0.221053 -0.160604 -0.203733
v -0.172402 -0.160604 -0.252384
v -0.221053 -0.075466 0.120163
v -0.221053 0.021835 -0.203733
v 0.168151 0.070486 0.120163
v -0.221053 0.070486 -0.252384
v -0.149959 0.369081 0.185471
v 0.216802 0.346393 0.120163
v 0.145708 0.369081 0.185471
v 0.168151 -0.397776 0.185471
v 0.168151 -0.160604 0.136820
v -0.221053 -0.075466 -0.203733
v -0.221053 -0.397776 -0.203733
v -0.172402 -0.397776 -0.252384
v 0.168151 -0.160604 -0.252384
v 0.216802 -0.075466 0.120163
v -0.172402 0.021835 0.120163
v 0.216802 0.070486 0.120163
v 0.168151 0.021835 0.120163
v -0.172402 0.070486 -0.252384
v -0.149959 0.369081 0.120163
v 0.181605 0.358836 0.120163
v 0.145708 0.369081 0.120163
v 0.216802 -0.397776 0.185471
v 0.168151 -0.160604 -0.203733
v -0.172402 -0.397776 -0.203733
v -0.172402 -0.075466 -0.252384
v -0.172402 -0.075466 -0.203733
v 0.216802 -0.026816 0.120163
v 0.168151 -0.075466 -0.203733
v -0.172402 0.021835 -0.203733
v 0.216802 0.021835 0.120163
v 0.168151 0.070486 -0.252384
v 0.168151 0.021835 -0.203733
v -0.113497 0.377091 0.185471
v 0.109246 0.377091 0.185471
v 0.109246 0.377091 0.120163
v 0.216802 -0.397776 0.136820
v 0.168151 -0.397776 0.136820
v 0.216802 -0.160604 -0.203733
v -0.221053 -0.397776 -0.252384
v 0.168151 -0.397776 -0.203733
v 0.168151 -0.075466 -0.252384
v 0.216802 -0.075466 -0.203733
v 0.216802 0.070486 -0.252384
v 0.216802 0.021835 -0.203733
v -0.113497 0.377091 0.120163
v 0.216802 -0.160604 0.136820
v 0.168151 -0.397776 -0.252384
v -0.076610 0.382834 0.185471
v 0.072359 0.382834 0.185471
v 0.072359 0.382834 0.120163
v 0.216802 -0.397776 -0.203733
v 0.216802 -0.397776 -0.252384
v -0.076610 0.382834 0.120163
v -0.039439 0.386289 0.185471
v 0.035188 0.386289 0.120163
v -0.039439 0.386289 0.120163
v 0.035188 0.386289 0.185471
v -0.002126 0.387442 0.185471
v -0.002126 0.387442 0.120163
v 0.140221 -0.068986 0.120163
v -0.172402 -0.075466 0.120163
v 0.168151 -0.075466 0.120163
v -0.144472 -0.068986 0.120163
v 0.140221 -0.068986 -0.252384
v 0.112046 -0.063668 0.120163
v 0.112046 -0.063668 -0.252384
v -0.116297 -0.063668 0.120163
v -0.144472 -0.068986 -0.252384
v 0.083676 -0.059523 -0.252384
v 0.083676 -0.059523 0.120163
v -0.116297 -0.063668 -0.252384
v -0.087927 -0.059523 -0.252384
v -0.087927 -0.059523 0.120163
v 0.055158 -0.056557 -0.252384
v -0.059409 -0.056557 -0.252384
v 0.055158 -0.056557 0.120163
v -0.059409 -0.056557 0.120163
v 0.026540 -0.054775 -0.252384
v -0.030791 -0.054775 -0.252384
v -0.030791 -0.054775 0.120163
v 0.026540 -0.054775 0.120163
v -0.002126 -0.054181 -0.252384
v -0.002126 -0.054181 0.120163

# 175 UV coordinates
vt 0.75 -0.40625 0
vt 0.666667 0 0
vt 0.666667 -0.40625 0
vt 0.75 0.868434 0
vt 0.75 0 0
vt -0.666667 0.666667 0
vt -0.75 0.75 0
vt -0.75 0.666667 0
vt 0.638134 0.868434 0
vt -0.75 -0.40625 0
vt -0.666667 0 0
vt -0.75 0.868434 0
vt -0.666667 0.75 0
vt 0.638134 0.395833 0
vt 0.703502 -0 0
vt 0.767456 -0.111866 0
vt 0.767456 -0 0
vt -0.666667 -0.40625 0
vt 0 0.868434 0
vt -0.666667 0.083333 0
vt -0.75 0 0
vt 0.638134 0.3125 0
vt 0.666667 0.395833 0
vt 0.75 0.395833 0
vt 0.703502 -0.111866 0
vt -0.060288 0.889747 0
vt -0.689712 0.889747 0
vt -0.083333 0 0
vt -0.75 0.083333 0
vt 0.638134 0.145833 0
vt 0.083333 0.3125 0
vt 0.083333 0.395833 0
vt 0.666667 0.638134 0
vt 0.75 0.638134 0
vt 0.639547 0 0
vt 0.689712 0.889747 0
vt -0.121777 0.907297 0
vt -0.083333 -0.40625 0
vt -0.083333 0.666667 0
vt -0.083333 0.75 0
vt 0 -0.111866 0
vt 0.063955 0 0
vt 0 0 0
vt 0.083333 0.145833 0
vt 0.083333 0 0
vt 0 -0.40625 0
vt 0.75 0.3125 0
vt 0 0.145833 0
vt 0.75 0.145833 0
vt 0 0.395833 0
vt -0.666667 0.638134 0
vt -0.75 0.638134 0
vt 0.639547 -0.111866 0
vt -0.628223 0.907297 0
vt 0.060288 0.889747 0
vt 0.127909 -0.111866 0
vt 0.127909 -0 0
vt -0.083333 0.083333 0
vt 0.063955 -0.111866 0
vt -0.638134 0.395833 0
vt -0.638134 0.868434 0
vt 0.083333 -0.40625 0
vt 0.666667 0.145833 0
vt 0.666667 0.083333 0
vt 0.75 0.083333 0
vt 0 0.229167 0
vt 0 0.638134 0
vt 0.083333 0.083333 0
vt 0 0.3125 0
vt 0.666667 0.3125 0
vt 0.083333 0.638134 0
vt -0.083333 0.3125 0
vt 0.575592 0 0
vt 0.628223 0.907297 0
vt -0.184233 0.921017 0
vt 0.191864 -0.111866 0
vt 0 0.666667 0
vt 0 0.75 0
vt 0 0.083333 0
vt -0.638134 0.3125 0
vt -0.75 0.145833 0
vt -0.666667 0.3125 0
vt -0.75 0.3125 0
vt -0.666667 0.145833 0
vt -0.638134 0.229167 0
vt -0.638134 0.145833 0
vt -0.083333 0.638134 0
vt -0.083333 0.145833 0
vt 0.575592 -0.111866 0
vt -0.565767 0.921017 0
vt 0.121777 0.907297 0
vt 0.191864 0 0
vt 0.184233 0.921017 0
vt 0.511638 0 0
vt 0.565767 0.921017 0
vt -0.247416 0.930854 0
vt 0.255819 -0.111866 0
vt 0.511638 -0.111866 0
vt -0.502584 0.930854 0
vt 0.502584 0.930854 0
vt 0.255819 0 0
vt 0.247416 0.930854 0
vt 0.447683 0 0
vt -0.438914 0.936772 0
vt 0.319773 -0.111866 0
vt 0.438914 0.936772 0
vt 0.447683 -0.111866 0
vt -0.311086 0.936772 0
vt 0.319773 0 0
vt 0.311086 0.936772 0
vt 0.383728 0 0
vt -0.375 0.938747 0
vt 0.383728 -0.111866 0
vt 0.375 0.938747 0
vt -0.638134 0.114137 0
vt 0 0.16325 0
vt -0.638134 0.16325 0
vt 0.638134 -0.567343 0
vt -0 -0.616456 0
vt 0.638134 -0.616456 0
vt -0.083333 0.114137 0
vt 0 0.207116 0
vt -0.638134 0.158003 0
vt 0 0.158003 0
vt -0.638134 0.207116 0
vt -0 -0.567343 0
vt 0.083333 -0.616456 0
vt 0 0.114137 0
vt 0.131175 0.156933 0
vt 0.618825 0.156933 0
vt 0.179435 0.166041 0
vt 0 0.250668 0
vt -0.638134 0.201555 0
vt 0 0.201555 0
vt 0.638134 -0.529874 0
vt -0 -0.578987 0
vt 0.638134 -0.578987 0
vt 0.570565 0.166041 0
vt -0.638134 0.250668 0
vt 0.521968 0.173142 0
vt 0.228032 0.173142 0
vt -0 -0.529874 0
vt 0 0.293831 0
vt -0.638134 0.244719 0
vt 0 0.244719 0
vt 0.473119 0.178222 0
vt 0.638134 -0.491453 0
vt -0 -0.540565 0
vt 0.638134 -0.540565 0
vt -0 -0.491453 0
vt -0.638134 0.293831 0
vt 0.276881 0.178222 0
vt -0 -0.501258 0
vt 0.638134 -0.452145 0
vt -0 -0.452145 0
vt 0.638134 -0.501258 0
vt 0 0.336532 0
vt -0.638134 0.28742 0
vt 0 0.28742 0
vt 0.424102 0.181274 0
vt 0.638134 -0.412018 0
vt -0 -0.461131 0
vt 0.638134 -0.461131 0
vt -0.638134 0.336532 0
vt 0.325898 0.181274 0
vt -0 -0.412018 0
vt 0 0.378697 0
vt -0.638134 0.329585 0
vt 0 0.329585 0
vt 0.375 0.182292 0
vt 0.638134 -0.371142 0
vt -0 -0.420254 0
vt 0.638134 -0.420254 0
vt -0.638134 0.378697 0
vt -0 -0.371142 0

# 54 vertex normals
vn -0.0254 0 0
vn 0 0 -0.0254
vn 0 -0.0254 0
vn 0 0 0.0254
vn -0.00772221 0.0241977 0
vn -0.0084659 0.0239476 0
vn 0.0254 0 0
vn 0 0.0254 0
vn -0.00621342 0.0246283 0
vn 0.0084659 0.0239476 0
vn 0.00772221 0.0241977 0
vn 0.00621342 0.0246283 0
vn -0.00468094 0.0249649 0
vn 0.00468094 0.0249649 0
vn -0.00313058 0.0252064 0
vn 0.00313058 0.0252064 0
vn -0.00156827 0.0253515 0
vn 0.00156827 0.0253515 0
vn 0.0084659 -0.0239476 0
vn 0.00772221 -0.0241977 -0
vn 0.00621342 -0.0246283 -0
vn -0.0084659 -0.0239476 0
vn -0.00772221 -0.0241977 0
vn -0.00621342 -0.0246283 0
vn 0.00468094 -0.0249649 -0
vn -0.00468094 -0.0249649 0
vn 0.00313058 -0.0252064 -0
vn -0.00313058 -0.0252064 0
vn 0.00156827 -0.0253515 -0
vn -0.00156827 -0.0253515 0
vn -0.00522676 -0.0248564 0
vn -0.00574076 -0.0247428 0
vn 0.00574076 -0.0247428 -0
vn 0.00522676 -0.0248564 -0
vn -0.00419222 -0.0250517 0
vn -0.00315049 -0.0252039 0
vn 0.00419222 -0.0250517 -0
vn -0.00210332 -0.0253127 0
vn 0.00315049 -0.0252039 -0
vn 0.00210332 -0.0253127 -0
vn -0.00105258 -0.0253782 0
vn 0.00105258 -0.0253782 -0
vn 0.00574076 0.0247428 0
vn 0.00522676 0.0248564 0
vn -0.00522676 0.0248564 0
vn -0.00574076 0.0247428 0
vn 0.00419222 0.0250517 0
vn 0.00315049 0.0252039 0
vn -0.00419222 0.0250517 0
vn 0.00210332 0.0253127 0
vn -0.00315049 0.0252039 0
vn -0.00210332 0.0253127 0
vn 0.00105258 0.0253782 0
vn -0.00105258 0.0253782 0

# Mesh 'mesh1_mesh1-geometry' with 162 faces
g mesh1_mesh1-geometry
usemtl material_0_2_8
f  1/1/1 2/2/1 3/3/1
f  4/4/1 2/2/1 1/1/1
f  2/5/2 5/3/2 3/1/2
f  5/6/3 1/7/3 3/8/3
f  6/9/1 2/2/1 4/4/1
f  1/10/4 7/11/4 4/12/4
f  5/3/2 2/5/2 8/2/2
f  1/7/3 5/6/3 9/13/3
f  10/14/1 2/2/1 6/9/1
f  11/15/5 6/16/6 4/17/6
f  7/11/4 1/10/4 9/18/4
f  4/12/4 7/11/4 12/19/4
f  2/8/3 13/20/3 8/6/3
f  7/21/7 5/18/7 8/11/7
f  5/18/7 7/21/7 9/10/7
f  14/22/1 2/2/1 10/14/1
f  6/4/2 15/23/2 10/24/2
f  6/16/6 11/15/5 16/25/5
f  4/12/4 17/26/4 11/27/4
f  18/28/4 12/19/4 7/11/4
f  4/12/4 12/19/4 17/26/4
f  13/20/3 2/8/3 19/29/3
f  20/11/3 8/6/3 13/20/3
f  20/11/3 7/13/3 8/6/3
f  21/30/1 2/2/1 14/22/1
f  10/14/1 22/31/1 14/22/1
f  15/23/2 6/4/2 23/32/2
f  15/33/8 24/5/8 10/34/8
f  25/35/9 16/25/5 11/15/5
f  26/19/2 6/4/2 16/36/2
f  11/27/4 17/26/4 27/37/4
f  28/38/4 12/19/4 18/28/4
f  7/13/3 29/39/3 18/40/3
f  26/41/10 17/42/11 12/43/10
f  2/2/1 30/44/1 19/45/1
f  31/10/4 13/11/4 19/21/4
f  13/28/7 32/46/7 20/43/7
f  33/28/3 7/13/3 20/11/3
f  30/44/1 2/2/1 21/30/1
f  14/47/2 34/48/2 21/49/2
f  24/50/1 22/31/1 10/14/1
f  22/29/3 35/51/3 14/52/3
f  23/32/2 6/4/2 36/50/2
f  37/31/2 15/23/2 23/32/2
f  24/5/8 15/33/8 38/2/8
f  16/25/5 25/35/9 39/53/9
f  11/27/4 27/37/4 25/54/4
f  36/50/2 6/4/2 26/19/2
f  26/19/2 16/36/2 40/55/2
f  17/42/11 41/56/12 27/57/12
f  12/19/4 28/38/4 42/46/4
f  29/2/1 28/1/1 18/5/1
f  29/39/3 7/13/3 43/58/3
f  17/42/11 26/41/10 40/59/11
f  12/12/7 36/60/7 26/61/7
f  22/31/1 19/45/1 30/44/1
f  13/11/4 31/10/4 44/18/4
f  22/31/1 31/62/1 19/45/1
f  32/46/7 13/28/7 44/38/7
f  32/3/2 24/24/2 20/2/2
f  43/58/3 7/13/3 33/28/3
f  20/2/2 45/63/2 33/45/2
f  21/34/8 46/64/8 30/65/8
f  34/48/2 14/47/2 47/66/2
f  34/67/8 48/68/8 21/34/8
f  24/50/1 31/62/1 22/31/1
f  35/51/3 22/29/3 49/20/3
f  50/69/2 14/47/2 35/70/2
f  36/67/8 51/45/8 23/71/8
f  15/23/2 37/31/2 35/70/2
f  23/14/1 52/31/1 37/22/1
f  15/60/7 49/72/7 38/50/7
f  45/63/2 24/24/2 38/23/2
f  53/73/13 39/53/9 25/35/9
f  40/55/2 16/36/2 39/74/2
f  25/54/4 27/37/4 54/75/4
f  41/56/12 17/42/11 40/59/11
f  55/76/14 27/57/12 41/56/12
f  28/40/3 56/77/3 42/78/3
f  56/18/7 12/12/7 42/10/7
f  28/1/1 29/2/1 57/3/1
f  58/79/3 29/39/3 43/58/3
f  36/60/7 12/12/7 50/80/7
f  30/81/4 49/82/4 22/83/4
f  31/29/3 32/11/3 44/20/3
f  24/24/2 32/3/2 59/1/2
f  20/2/2 24/24/2 45/63/2
f  33/43/1 60/62/1 43/45/1
f  61/44/2 33/45/2 45/63/2
f  21/34/8 48/68/8 46/64/8
f  49/82/4 30/81/4 46/84/4
f  47/66/2 14/47/2 50/69/2
f  47/85/7 12/12/7 34/86/7
f  48/68/8 34/67/8 62/79/8
f  31/62/1 24/50/1 59/46/1
f  49/72/7 15/60/7 35/80/7
f  50/69/2 35/70/2 37/31/2
f  51/45/8 36/67/8 63/43/8
f  51/50/1 52/31/1 23/14/1
f  64/79/3 37/87/3 52/58/3
f  46/88/7 38/50/7 49/72/7
f  38/50/7 46/88/7 45/48/7
f  39/53/9 53/73/13 65/89/13
f  25/54/4 54/75/4 53/90/4
f  40/55/2 39/74/2 41/91/2
f  27/57/12 55/76/14 54/92/14
f  41/91/2 39/74/2 55/93/2
f  56/77/3 28/40/3 57/39/3
f  66/11/7 12/12/7 56/18/7
f  29/45/2 56/46/2 57/62/2
f  29/39/3 58/79/3 66/77/3
f  60/38/4 58/43/4 43/28/4
f  50/80/7 12/12/7 47/85/7
f  64/72/7 36/60/7 50/80/7
f  32/11/3 31/29/3 59/21/3
f  60/62/1 33/43/1 67/46/1
f  63/50/2 33/45/2 61/44/2
f  45/2/8 48/68/8 61/45/8
f  46/64/8 48/68/8 45/2/8
f  34/86/7 12/12/7 66/11/7
f  34/86/7 58/28/7 62/88/7
f  64/69/4 48/88/4 62/48/4
f  37/87/3 64/79/3 50/67/3
f  64/72/7 63/50/7 36/60/7
f  63/50/2 61/44/2 51/32/2
f  52/31/1 51/50/1 61/48/1
f  48/88/4 64/69/4 52/72/4
f  68/94/15 65/89/13 53/73/13
f  55/93/2 39/74/2 65/95/2
f  53/90/4 54/75/4 69/96/4
f  70/97/16 54/92/14 55/76/14
f  56/46/2 29/45/2 66/43/2
f  58/28/7 34/86/7 66/11/7
f  58/43/4 60/38/4 71/46/4
f  33/45/2 72/46/2 67/62/2
f  72/43/3 60/58/3 67/28/3
f  72/46/2 33/45/2 63/50/2
f  52/31/1 61/48/1 48/44/1
f  71/38/7 62/88/7 58/28/7
f  71/38/7 64/72/7 62/88/7
f  63/50/7 64/72/7 72/46/7
f  65/89/13 68/94/15 73/98/15
f  53/90/4 69/96/4 68/99/4
f  55/93/2 65/95/2 73/100/2
f  54/92/14 70/97/16 69/101/16
f  55/93/2 73/100/2 70/102/2
f  60/58/3 72/43/3 71/79/3
f  64/72/7 71/38/7 72/46/7
f  74/103/17 73/98/15 68/94/15
f  68/99/4 69/96/4 74/104/4
f  75/105/18 69/101/16 70/97/16
f  70/102/2 73/100/2 76/106/2
f  73/98/15 74/103/17 76/107/17
f  74/104/4 69/96/4 77/108/4
f  69/101/16 75/105/18 77/109/18
f  70/102/2 76/106/2 75/110/2
f  78/111/8 76/107/17 74/103/17
f  74/104/4 77/108/4 78/112/4
f  79/113/8 77/109/18 75/105/18
f  75/110/2 76/106/2 79/114/2
f  76/107/17 78/111/8 79/113/8
f  77/109/18 79/113/8 78/111/8

# Mesh 'mesh1_mesh1-geometry' with 162 faces
g mesh1_mesh1-geometry
usemtl material_1_24
f  3//7 2//7 1//7
f  1//7 2//7 4//7
f  3//4 5//4 2//4
f  3//8 1//8 5//8
f  4//7 2//7 6//7
f  4//2 7//2 1//2
f  8//4 2//4 5//4
f  9//8 5//8 1//8
f  6//7 2//7 10//7
f  4//19 6//19 11//20
f  9//2 1//2 7//2
f  12//2 7//2 4//2
f  8//8 13//8 2//8
f  8//1 5//1 7//1
f  9//1 7//1 5//1
f  10//7 2//7 14//7
f  10//4 15//4 6//4
f  16//20 11//20 6//19
f  11//2 17//2 4//2
f  7//2 12//2 18//2
f  17//2 12//2 4//2
f  19//8 2//8 13//8
f  13//8 8//8 20//8
f  8//8 7//8 20//8
f  14//7 2//7 21//7
f  14//7 22//7 10//7
f  23//4 6//4 15//4
f  10//3 24//3 15//3
f  11//20 16//20 25//21
f  16//4 6//4 26//4
f  27//2 17//2 11//2
f  18//2 12//2 28//2
f  18//8 29//8 7//8
f  12//22 17//23 26//22
f  19//7 30//7 2//7
f  19//2 13//2 31//2
f  20//1 32//1 13//1
f  20//8 7//8 33//8
f  21//7 2//7 30//7
f  21//4 34//4 14//4
f  10//7 22//7 24//7
f  14//8 35//8 22//8
f  36//4 6//4 23//4
f  23//4 15//4 37//4
f  38//3 15//3 24//3
f  39//21 25//21 16//20
f  25//2 27//2 11//2
f  26//4 6//4 36//4
f  40//4 16//4 26//4
f  27//24 41//24 17//23
f  42//2 28//2 12//2
f  18//7 28//7 29//7
f  43//8 7//8 29//8
f  40//23 26//22 17//23
f  26//1 36//1 12//1
f  30//7 19//7 22//7
f  44//2 31//2 13//2
f  19//7 31//7 22//7
f  44//1 13//1 32//1
f  20//4 24//4 32//4
f  33//8 7//8 43//8
f  33//4 45//4 20//4
f  30//3 46//3 21//3
f  47//4 14//4 34//4
f  21//3 48//3 34//3
f  22//7 31//7 24//7
f  49//8 22//8 35//8
f  35//4 14//4 50//4
f  23//3 51//3 36//3
f  35//4 37//4 15//4
f  37//7 52//7 23//7
f  38//1 49//1 15//1
f  38//4 24//4 45//4
f  25//21 39//21 53//25
f  39//4 16//4 40//4
f  54//2 27//2 25//2
f  40//23 17//23 41//24
f  41//24 27//24 55//26
f  42//8 56//8 28//8
f  42//1 12//1 56//1
f  57//7 29//7 28//7
f  43//8 29//8 58//8
f  50//1 12//1 36//1
f  22//2 49//2 30//2
f  44//8 32//8 31//8
f  59//4 32//4 24//4
f  45//4 24//4 20//4
f  43//7 60//7 33//7
f  45//4 33//4 61//4
f  46//3 48//3 21//3
f  46//2 30//2 49//2
f  50//4 14//4 47//4
f  34//1 12//1 47//1
f  62//3 34//3 48//3
f  59//7 24//7 31//7
f  35//1 15//1 49//1
f  37//4 35//4 50//4
f  63//3 36//3 51//3
f  23//7 52//7 51//7
f  52//8 37//8 64//8
f  49//1 38//1 46//1
f  45//1 46//1 38//1
f  65//25 53//25 39//21
f  53//2 54//2 25//2
f  41//4 39//4 40//4
f  54//26 55//26 27//24
f  55//4 39//4 41//4
f  57//8 28//8 56//8
f  56//1 12//1 66//1
f  57//4 56//4 29//4
f  66//8 58//8 29//8
f  43//2 58//2 60//2
f  47//1 12//1 50//1
f  50//1 36//1 64//1
f  59//8 31//8 32//8
f  67//7 33//7 60//7
f  61//4 33//4 63//4
f  61//3 48//3 45//3
f  45//3 48//3 46//3
f  66//1 12//1 34//1
f  62//1 58//1 34//1
f  62//2 48//2 64//2
f  50//8 64//8 37//8
f  36//1 63//1 64//1
f  51//4 61//4 63//4
f  61//7 51//7 52//7
f  52//2 64//2 48//2
f  53//25 65//25 68//27
f  65//4 39//4 55//4
f  69//2 54//2 53//2
f  55//26 54//26 70//28
f  66//4 29//4 56//4
f  66//1 34//1 58//1
f  71//2 60//2 58//2
f  67//4 72//4 33//4
f  67//8 60//8 72//8
f  63//4 33//4 72//4
f  48//7 61//7 52//7
f  58//1 62//1 71//1
f  62//1 64//1 71//1
f  72//1 64//1 63//1
f  73//27 68//27 65//25
f  68//2 69//2 53//2
f  73//4 65//4 55//4
f  69//28 70//28 54//26
f  70//4 73//4 55//4
f  71//8 72//8 60//8
f  72//1 71//1 64//1
f  68//27 73//27 74//29
f  74//2 69//2 68//2
f  70//28 69//28 75//30
f  76//4 73//4 70//4
f  76//29 74//29 73//27
f  77//2 69//2 74//2
f  77//30 75//30 69//28
f  75//4 76//4 70//4
f  74//29 76//29 78//3
f  78//2 77//2 74//2
f  75//30 77//30 79//3
f  79//4 76//4 75//4
f  79//3 78//3 76//29
f  78//3 79//3 77//30

# Mesh 'mesh2_mesh2-geometry' with 67 faces
g mesh2_mesh2-geometry
usemtl material_1_24
f  80/43/4 81/43/4 82/43/4
f  81/43/4 80/43/4 83/43/4
f  82/43/2 81/43/2 80/43/2
f  83/43/2 80/43/2 81/43/2
f  81/43/3 48/43/3 82/43/3
f  82/43/8 48/43/8 81/43/8
f  80/43/31 84/43/31 82/43/32
f  83/43/4 80/43/4 85/43/4
f  85/43/2 80/43/2 83/43/2
f  81/43/33 45/43/33 83/43/34
f  48/43/3 81/43/3 61/43/3
f  61/43/8 81/43/8 48/43/8
f  82/43/32 84/43/31 48/43/32
f  84/43/31 80/43/31 86/43/35
f  85/43/35 86/43/35 80/43/31
f  83/43/4 85/43/4 87/43/4
f  87/43/2 85/43/2 83/43/2
f  88/43/34 83/43/34 45/43/33
f  46/43/33 45/43/33 81/43/33
f  61/43/3 81/43/3 45/43/3
f  45/43/3 81/43/3 46/43/3
f  45/43/8 81/43/8 61/43/8
f  46/43/8 81/43/8 45/43/8
f  61/43/32 48/43/32 84/43/31
f  86/43/4 88/43/4 84/43/4
f  86/43/35 85/43/35 89/43/36
f  87/43/4 85/43/4 90/43/4
f  90/43/2 85/43/2 87/43/2
f  83/43/34 88/43/34 87/43/37
f  45/43/4 61/43/4 88/43/4
f  84/43/4 88/43/4 61/43/4
f  91/43/4 88/43/4 86/43/4
f  90/43/36 89/43/36 85/43/35
f  89/43/4 92/43/4 86/43/4
f  87/43/4 90/43/4 93/43/4
f  93/43/2 90/43/2 87/43/2
f  91/43/37 87/43/37 88/43/34
f  92/43/4 91/43/4 86/43/4
f  89/43/36 90/43/36 94/43/38
f  95/43/4 92/43/4 89/43/4
f  93/43/4 90/43/4 96/43/4
f  96/43/2 90/43/2 93/43/2
f  87/43/37 91/43/37 93/43/39
f  92/43/39 93/43/39 91/43/37
f  96/43/38 94/43/38 90/43/36
f  94/43/4 95/43/4 89/43/4
f  95/43/40 97/43/40 92/43/39
f  93/43/4 96/43/4 97/43/4
f  97/43/2 96/43/2 93/43/2
f  93/43/39 92/43/39 97/43/40
f  94/43/38 96/43/38 98/43/41
f  99/43/4 95/43/4 94/43/4
f  97/43/40 95/43/40 100/43/42
f  97/43/4 96/43/4 101/43/4
f  101/43/2 96/43/2 97/43/2
f  101/43/41 98/43/41 96/43/38
f  98/43/4 99/43/4 94/43/4
f  99/43/42 100/43/42 95/43/40
f  97/43/4 101/43/4 100/43/4
f  100/43/2 101/43/2 97/43/2
f  98/43/41 101/43/41 102/43/3
f  102/43/4 99/43/4 98/43/4
f  100/43/42 99/43/42 103/43/3
f  100/43/4 101/43/4 103/43/4
f  103/43/2 101/43/2 100/43/2
f  103/43/3 102/43/3 101/43/41
f  102/43/3 103/43/3 99/43/42

# Mesh 'mesh2_mesh2-geometry' with 37 faces
g mesh2_mesh2-geometry
usemtl material_2_1_8
f  82/115/43 84/116/44 80/117/44
f  83/118/45 45/119/46 81/120/46
f  48/121/43 84/116/44 82/115/43
f  86/122/47 80/123/44 84/124/44
f  80/123/44 86/122/47 85/125/47
f  45/119/46 83/118/45 88/126/45
f  81/120/46 45/119/46 46/127/46
f  84/116/44 48/121/43 61/128/43
f  84/129/2 88/130/2 86/131/2
f  89/132/48 85/133/47 86/134/47
f  87/135/49 88/136/45 83/137/45
f  88/130/2 61/44/2 45/63/2
f  61/44/2 88/130/2 84/129/2
f  86/131/2 88/130/2 91/138/2
f  85/133/47 89/132/48 90/139/48
f  86/131/2 92/140/2 89/141/2
f  88/136/45 87/135/49 91/142/49
f  86/131/2 91/138/2 92/140/2
f  94/143/50 90/144/48 89/145/48
f  89/141/2 92/140/2 95/146/2
f  93/147/51 91/148/49 87/149/49
f  91/148/49 93/147/51 92/150/51
f  90/144/48 94/143/50 96/151/50
f  89/141/2 95/146/2 94/152/2
f  92/153/51 97/154/52 95/155/52
f  97/154/52 92/153/51 93/156/51
f  98/157/53 96/158/50 94/159/50
f  94/152/2 95/146/2 99/160/2
f  100/161/54 95/162/52 97/163/52
f  96/158/50 98/157/53 101/164/53
f  94/152/2 99/160/2 98/165/2
f  95/162/52 100/161/54 99/166/54
f  102/167/8 101/168/53 98/169/53
f  98/165/2 99/160/2 102/170/2
f  103/171/8 99/172/54 100/173/54
f  101/168/53 102/167/8 103/174/8
f  99/172/54 103/171/8 102/175/8

# Mesh 'mesh3_mesh3-geometry' with 13 faces
g mesh3_mesh3-geometry
usemtl material_1_0
l  82 81
l  82 80
l  83 81
l  80 85
l  87 83
l  85 90
l  93 87
l  90 96
l  97 93
l  96 101
l  100 97
l  101 103
l  103 100

