# Blender v2.75 (sub 0) OBJ File: 'lj2_Right.blend'
# www.blender.org
o Cube
v -0.098247 -0.056897 -0.030513
v -0.068688 0.071344 -0.098839
v -0.069907 0.043162 0.057819
v -0.115589 -0.003254 -0.044005
v -0.080591 0.057364 -0.098896
v -0.029048 0.082735 -0.109242
v -0.069742 -0.065827 0.047061
v -0.069812 -0.006057 0.057987
v -0.069742 -0.057636 -0.029235
v -0.069742 -0.001831 -0.125890
v -0.091256 -0.065827 0.019047
v -0.093753 -0.065609 -0.000537
v -0.069742 -0.065609 -0.000537
v -0.098152 -0.024012 -0.087472
v -0.102627 -0.041387 -0.057378
v -0.038711 0.008444 -0.143686
v -0.115569 -0.003221 0.008129
v -0.108619 -0.020010 0.030814
v -0.080591 0.057363 0.027138
v -0.079122 0.042018 0.051469
v -0.102700 -0.028887 0.034959
v -0.097601 -0.058141 0.027747
v -0.069812 -0.043388 0.057987
v -0.066381 -0.058877 0.052072
v -0.108859 0.008402 -0.077047
v -0.118815 -0.020073 0.005970
v -0.106139 -0.056943 0.005970
v -0.115321 -0.008292 0.021029
v -0.084138 0.048016 0.040784
v -0.116091 -0.017868 0.020884
v -0.118621 -0.020342 -0.044474
v -0.113491 -0.011446 -0.077396
v -0.113963 -0.038570 -0.044713
v -0.111312 -0.017465 -0.081237
v -0.099265 0.025018 -0.092683
v -0.101004 0.010172 -0.103537
v -0.074249 0.056517 -0.115007
v -0.090148 0.004023 -0.118447
v -0.069108 0.014316 -0.136285
v -0.038699 0.022532 -0.150515
v -0.054071 0.080346 -0.101199
v -0.065863 0.049208 0.058038
v -0.030800 0.071080 -0.127767
v -0.066990 0.065141 -0.114886
v -0.059293 0.049020 -0.131459
v -0.055651 0.071241 -0.118491
v -0.032981 0.052144 -0.142231
v -0.082314 0.025024 -0.123017
v -0.066439 0.073047 0.018734
v -0.072742 0.054546 0.050276
v -0.029048 0.082735 -0.093041
v -0.053488 0.080346 -0.037813
v -0.066866 0.072724 -0.003562
v -0.076264 0.058710 0.043287
v 0.098247 -0.056897 -0.030513
v 0.070105 0.079479 -0.085594
v 0.069907 0.043162 0.057819
v 0.120191 0.001336 -0.044716
v 0.029048 0.082735 -0.109242
v 0.000000 -0.057636 -0.029235
v 0.000000 0.012952 -0.151493
v 0.000000 0.056842 0.057886
v 0.000000 -0.001045 0.057886
v 0.000000 -0.058808 0.051960
v 0.000000 0.082708 -0.114599
v 0.069742 -0.065827 0.047061
v 0.069812 -0.006057 0.057987
v 0.069742 -0.057636 -0.029235
v 0.069742 -0.001831 -0.125890
v 0.091256 -0.065827 0.019047
v 0.000000 -0.065609 -0.000537
v 0.093753 -0.065609 -0.000537
v 0.069742 -0.065609 -0.000537
v 0.098152 -0.024012 -0.087472
v 0.102627 -0.041387 -0.057378
v 0.038711 0.008444 -0.143686
v 0.120356 -0.000335 0.005970
v 0.110943 -0.010998 0.029062
v 0.108003 0.053397 0.005971
v 0.079122 0.042018 0.051469
v 0.102700 -0.028887 0.034959
v 0.097601 -0.058141 0.027747
v 0.069812 -0.043388 0.057987
v 0.066381 -0.058877 0.052072
v 0.112520 0.001403 -0.081238
v 0.106139 -0.056943 0.005970
v 0.116436 0.002977 0.022739
v 0.090345 0.053206 0.037134
v 0.113963 -0.038570 -0.044713
v 0.111312 -0.017465 -0.081237
v 0.071502 0.055048 -0.118450
v 0.090148 0.004023 -0.118447
v 0.069108 0.014316 -0.136285
v 0.038699 0.022532 -0.150515
v 0.000000 0.025726 -0.156051
v 0.053036 0.082730 -0.094725
v 0.065863 0.049208 0.058038
v 0.030800 0.071080 -0.127767
v 0.066117 0.072604 -0.108522
v 0.000000 0.073416 -0.133665
v 0.059293 0.049020 -0.131459
v 0.055651 0.071241 -0.118491
v 0.032981 0.052144 -0.142231
v 0.000000 0.053870 -0.146459
v 0.081806 0.037910 -0.118450
v 0.065621 0.078595 0.015766
v 0.072742 0.054546 0.050276
v 0.029048 0.082735 -0.093041
v 0.053488 0.080346 -0.037813
v 0.000000 0.082708 -0.106885
v 0.065556 0.080958 -0.005051
v 0.086163 0.067056 0.030751
v 0.110696 0.012700 0.029235
v 0.100870 0.030431 0.036115
v 0.107752 0.053541 -0.044719
v 0.070105 0.079479 -0.037813
v 0.095474 0.060633 -0.080130
v 0.097611 0.064367 -0.044459
v 0.097799 0.064258 0.007296
v 0.107538 0.034491 0.028672
v 0.112874 0.042042 0.005971
v 0.113040 0.041119 -0.044715
v 0.105828 0.038509 -0.081238
v 0.114536 -0.036812 0.005970
v 0.111960 -0.031921 0.022739
vn -0.227000 -0.919400 0.321100
vn -0.000700 -0.990200 -0.139200
vn 0.000000 -0.997800 -0.065500
vn -0.321500 -0.164800 0.932400
vn -0.291800 -0.028700 0.956000
vn -0.742200 -0.061600 0.667300
vn -0.682400 -0.174500 0.709800
vn -0.357200 -0.917100 0.176800
vn -0.246000 -0.614900 0.749300
vn -0.701600 -0.522100 0.485000
vn -0.937400 0.342700 0.061600
vn -0.804000 0.588300 0.086200
vn -0.815400 0.548100 -0.186000
vn -0.887000 0.418000 -0.196100
vn -0.927000 0.354300 -0.122800
vn -0.942100 0.333500 -0.034900
vn -0.818100 0.427000 0.385300
vn -0.467800 0.755400 0.458800
vn -0.338400 0.925900 0.167800
vn -0.001800 -0.922300 -0.386300
vn -0.234900 -0.696200 -0.678200
vn -0.129500 -0.661600 -0.738600
vn 0.000000 -0.630000 -0.776600
vn 0.000000 -0.922100 -0.386900
vn -0.213000 0.724800 -0.655100
vn -0.108400 0.960900 -0.254600
vn 0.000000 0.961300 -0.275600
vn 0.000000 0.740100 -0.672400
vn -0.961300 -0.002000 -0.275500
vn -0.995100 -0.056700 -0.081000
vn 0.000000 -0.050100 0.998700
vn -0.013500 0.652400 0.757700
vn -0.148900 0.525700 0.837500
vn -0.354600 0.132000 0.925600
vn -0.832600 -0.524900 -0.176900
vn -0.782300 -0.406100 -0.472300
vn -0.323800 -0.939500 -0.112000
vn -0.332700 -0.886200 -0.322300
vn -0.708200 0.250000 -0.660200
vn -0.707500 0.470600 -0.527100
vn -0.475700 0.395900 -0.785400
vn 0.000000 -0.660800 0.750500
vn -0.907800 0.231300 0.349700
vn -0.917800 -0.087000 0.387400
vn -0.665500 0.201400 0.718700
vn -0.873800 0.143700 -0.464500
vn -0.989900 -0.090600 0.108500
vn -0.807300 -0.585100 0.077100
vn -0.351200 -0.818900 -0.453800
vn -0.311900 -0.760600 -0.569400
vn -0.596600 0.619000 -0.510600
vn -0.390800 0.713500 -0.581600
vn -0.660800 -0.244700 -0.709500
vn -0.489300 -0.112400 -0.864800
vn -0.331600 0.922000 -0.199800
vn -0.276000 -0.049500 -0.959900
vn 0.000000 -0.024900 -0.999700
vn -0.351500 0.674300 0.649400
vn -0.266300 0.435100 -0.860100
vn 0.000000 0.451200 -0.892400
vn -0.640100 0.751100 -0.161500
vn -0.416900 0.903200 0.102000
vn -0.199700 0.973900 0.107800
vn -0.006500 0.996600 0.082300
vn -0.007300 0.997000 0.076900
vn 0.227000 -0.919400 0.321100
vn 0.000700 -0.990200 -0.139200
vn 0.825000 0.531600 0.191700
vn 0.643200 0.749200 0.158100
vn 0.468000 0.753600 0.461600
vn 0.676300 0.417000 0.607200
vn 0.357200 -0.917100 0.176800
vn 0.687800 -0.532400 0.493500
vn 0.246000 -0.614900 0.749300
vn 0.115600 0.965500 0.233100
vn 0.001800 -0.922300 -0.386300
vn 0.129500 -0.661600 -0.738600
vn 0.234900 -0.696200 -0.678200
vn 0.216300 0.728100 -0.650400
vn 0.100800 0.958900 -0.265200
vn 0.933200 0.040900 -0.357000
vn 0.817800 -0.376800 -0.434900
vn 0.690600 -0.195600 -0.696300
vn 0.292700 -0.028400 0.955800
vn 0.355200 0.132100 0.925400
vn 0.148300 0.516200 0.843500
vn 0.323800 -0.939500 -0.112000
vn 0.332700 -0.886200 -0.322300
vn 0.321700 -0.164700 0.932400
vn 0.823900 0.278800 0.493400
vn 0.930100 0.325600 0.169800
vn 0.876900 -0.239000 0.417000
vn 0.950500 -0.282100 0.130100
vn 0.993300 0.006100 0.114900
vn 0.901900 0.030600 0.430700
vn 0.675400 -0.153000 0.721300
vn 0.995200 0.019100 -0.096000
vn 0.857900 -0.480900 -0.180700
vn 0.650600 0.128100 0.748600
vn 0.591900 0.199200 0.781000
vn 0.294700 0.955600 -0.000000
vn 0.168600 0.978300 0.120300
vn 0.605500 0.794900 -0.039400
vn 0.311900 -0.760600 -0.569400
vn 0.351200 -0.818900 -0.453800
vn -0.024000 0.994000 0.106800
vn 0.158000 0.970300 -0.183100
vn -0.050000 0.994500 0.091700
vn 0.785600 -0.614100 0.075300
vn 0.489200 -0.107600 -0.865500
vn 0.481600 0.387200 -0.786100
vn 0.719100 0.296300 -0.628500
vn 0.375000 0.702200 -0.605100
vn 0.276000 -0.049500 -0.959900
vn 0.326900 0.644800 0.690900
vn 0.266300 0.435100 -0.860100
vn 0.513000 0.719000 -0.468800
vn 0.404500 0.900200 -0.161400
vn 0.630500 0.455700 -0.628300
vn 0.751300 0.585600 -0.304300
vn 0.950900 0.291000 -0.105500
vn 0.827300 0.554200 -0.091200
vn 0.882900 0.292800 -0.367100
vn 0.717800 -0.065000 0.693100
vn 0.692700 0.061600 0.718500
s 1
f 7//1 13//2 71//3
f 23//4 8//5 18//6 21//7
f 11//8 7//1 24//9 22//10
f 17//11 19//12 5//13 35//14 25//15 4//16
f 19//12 29//17 54//18 49//19
f 9//20 10//21 16//22 61//23 60//24
f 43//25 6//26 65//27 100//28
f 4//16 25//15 32//29 31//30
f 71//3 13//2 9//20 60//24
f 63//31 62//32 42//33 3//34 8//5
f 33//35 31//30 32//29 34//36
f 7//1 11//8 12//37 13//2
f 13//2 12//37 1//38 9//20
f 48//39 37//40 45//41
f 64//42 63//31 8//5 23//4 24//9
f 28//43 29//17 19//12 17//11
f 28//43 30//44 18//6
f 22//10 24//9 23//4 21//7
f 8//5 3//34 20//45 18//6
f 22//10 21//7 18//6 30//44
f 35//14 5//13 37//40 36//46
f 17//11 26//47 30//44 28//43
f 18//6 20//45 29//17 28//43
f 22//10 30//44 26//47 27//48
f 1//38 15//49 14//50 10//21 9//20
f 33//35 27//48 26//47 31//30
f 31//30 26//47 17//11 4//16
f 12//37 11//8 22//10 27//48
f 15//49 33//35 34//36 14//50
f 1//38 12//37 27//48 33//35 15//49
f 45//41 44//51 46//52
f 32//29 36//46 38//53 34//36
f 25//15 35//14 36//46 32//29
f 34//36 38//53 10//21 14//50
f 38//53 39//54 10//21
f 36//46 37//40 48//39
f 46//52 41//55 6//26 43//25
f 10//21 39//54 40//56 16//22
f 16//22 40//56 95//57 61//23
f 29//17 20//45 50//58 54//18
f 45//41 46//52 43//25 47//59
f 47//59 43//25 100//28 104//60
f 37//40 44//51 45//41
f 2//61 44//51 37//40 5//13
f 44//51 2//61 41//55 46//52
f 39//54 45//41 47//59 40//56
f 40//56 47//59 104//60 95//57
f 39//54 48//39 45//41
f 38//53 36//46 48//39 39//54
f 49//19 54//18 50//58 42//33
f 5//13 19//12 49//19 53//62 2//61
f 64//42 24//9 7//1 71//3
f 52//63 51//64 6//26 41//55
f 51//64 110//65 65//27 6//26
f 50//58 20//45 3//34 42//33
f 42//33 62//32 110//65 51//64 52//63 53//62 49//19
f 2//61 53//62 52//63 41//55
f 66//66 71//3 73//67
f 79//68 119//69 112//70 88//71
f 70//72 82//73 84//74 66//66
f 119//69 106//75 112//70
f 68//76 60//24 61//23 76//77 69//78
f 98//79 100//28 65//27 59//80
f 85//81 90//82 92//83
f 71//3 60//24 68//76 73//67
f 63//31 67//84 57//85 97//86 62//32
f 66//66 73//67 72//87 70//72
f 73//67 68//76 55//88 72//87
f 64//42 84//74 83//89 67//84 63//31
f 120//90 121//91 79//68 88//71
f 125//92 124//93 77//94 87//95
f 82//73 81//96 83//89 84//74
f 58//97 77//94 124//93 89//98
f 114//99 120//90 88//71 80//100
f 116//101 111//102 119//69 118//103
f 55//88 68//76 69//78 74//104 75//105
f 89//98 90//82 85//81 58//97
f 109//106 96//107 108//108
f 72//87 86//109 82//73 70//72
f 75//105 74//104 90//82 89//98
f 55//88 75//105 89//98 86//109 72//87
f 92//83 93//110 101//111 105//112
f 90//82 74//104 69//78 92//83
f 92//83 69//78 93//110
f 102//113 98//79 59//80 96//107
f 69//78 76//77 94//114 93//110
f 76//77 61//23 95//57 94//114
f 88//71 112//70 107//115 80//100
f 101//111 103//116 98//79 102//113
f 103//116 104//60 100//28 98//79
f 99//117 102//113 96//107 56//118
f 93//110 94//114 103//116 101//111
f 94//114 95//57 104//60 103//116
f 91//119 99//117 117//120
f 106//75 97//86 107//115 112//70
f 64//42 71//3 66//66 84//74
f 108//108 59//80 65//27 110//65
f 107//115 97//86 57//85 80//100
f 97//86 106//75 111//102 109//106 108//108 110//65 62//32
f 116//101 109//106 111//102
f 56//118 116//101 118//103
f 121//91 122//121 115//122 79//68
f 117//120 56//118 118//103 115//122
f 122//121 123//123 117//120 115//122
f 115//122 118//103 119//69 79//68
f 56//118 96//107 109//106 116//101
f 111//102 106//75 119//69
f 105//112 123//123 85//81 92//83
f 58//97 122//121 121//91 77//94
f 77//94 121//91 120//90 87//95
f 105//112 101//111 102//113 91//119
f 99//117 91//119 102//113
f 82//73 86//109 124//93 125//92
f 86//109 89//98 124//93
f 82//73 125//92 81//96
f 78//124 87//95 113//125
f 125//92 87//95 78//124 81//96
f 87//95 120//90 114//99 113//125
f 99//117 56//118 117//120
f 78//124 113//125 114//99 80//100 57//85 67//84 83//89 81//96
f 105//112 91//119 117//120 123//123
f 96//107 59//80 108//108
f 85//81 123//123 122//121 58//97
