# File produced by Open Asset Import Library (http://www.assimp.sf.net)
# (assimp v3.2.202087883)

mtllib model_normalized.mtl

# 58 vertex positions
v -0.206089 -0.424176 -0.291075
v -0.129181 -0.192921 -0.291075
v -0.129181 -0.424176 -0.291075
v 0.133259 -0.424176 -0.291075
v 0.204536 -0.109650 -0.291075
v 0.204536 -0.424176 -0.291075
v 0.133259 -0.192921 -0.291075
v -0.206089 -0.109650 -0.291075
v -0.206089 -0.109650 0.054524
v 0.204536 -0.109650 0.054524
v 0.204536 -0.424176 -0.211230
v 0.204536 -0.152155 -0.211230
v 0.204536 -0.152155 0.060791
v 0.204536 -0.424176 0.142856
v 0.204536 -0.424176 0.060791
v 0.204536 0.334020 0.142856
v 0.204536 0.334020 0.054524
v 0.133259 -0.424176 -0.211230
v 0.133259 -0.192921 -0.211230
v -0.129181 -0.192921 -0.211230
v -0.129181 -0.424176 -0.211230
v -0.206089 -0.424176 -0.211230
v -0.206089 0.334020 0.142856
v -0.206089 -0.424176 0.060791
v -0.206089 -0.424176 0.142856
v -0.206089 -0.152155 0.060791
v -0.206089 -0.152155 -0.211230
v -0.206089 0.334020 0.054524
v 0.171874 0.347247 0.054524
v 0.138369 0.358158 0.054524
v 0.104182 0.366698 0.054524
v 0.069483 0.372828 0.054524
v 0.034439 0.376521 0.054524
v -0.000777 0.377754 0.054524
v -0.035993 0.376521 0.054524
v -0.071036 0.372828 0.054524
v -0.105736 0.366698 0.054524
v -0.139922 0.358158 0.054524
v -0.173428 0.347247 0.054524
v 0.171874 0.347247 0.142856
v 0.104182 0.366698 0.142856
v 0.133259 -0.192921 0.142856
v 0.138369 0.358158 0.142856
v -0.129181 -0.192921 0.142856
v 0.069483 0.372828 0.142856
v 0.034439 0.376521 0.142856
v -0.000777 0.377754 0.142856
v -0.035993 0.376521 0.142856
v -0.071036 0.372828 0.142856
v -0.105736 0.366698 0.142856
v -0.139922 0.358158 0.142856
v -0.129181 -0.424176 0.142856
v -0.173428 0.347247 0.142856
v 0.133259 -0.424176 0.142856
v 0.133259 -0.424176 0.060791
v -0.129181 -0.192921 0.060791
v -0.129181 -0.424176 0.060791
v 0.133259 -0.192921 0.060791

# 132 UV coordinates
vt 2.88542 0 0
vt 2.34499 1.97156 0
vt 2.34499 0 0
vt 0.500849 0 0
vt 1.18424e-15 2.68149 0
vt 0 0 0
vt 0.500849 1.97156 0
vt 2.88542 2.68149 0
vt 3.41069 1.4368e-15 0
vt 0.982207 3.50079 0
vt 0.982207 1.4368e-15 0
vt 3.41069 3.50079 0
vt 3.41069 2.68149 0
vt 2.84963 -4.14192e-32 0
vt 3.41069 -4.95741e-32 0
vt 2.84963 2.31911 0
vt 0.938173 2.31911 0
vt 0.361508 -5.25449e-33 0
vt 0.938173 -1.36363e-32 0
vt 0.361508 6.46403 0
vt 0.982207 2.68149 0
vt 0.982207 6.46403 0
vt -3.41069 0.607665 0
vt -2.84963 0 0
vt -2.84963 0.607665 0
vt -3.41069 0 0
vt -2.84963 1.97156 0
vt -3.41069 1.97156 0
vt -3.41069 2.84511 0
vt -2.84963 2.84511 0
vt 3.41069 1.97156 0
vt 2.84963 0 0
vt 3.41069 0 0
vt 2.84963 1.97156 0
vt -3.41069 3.50079 0
vt -2.84963 3.50079 0
vt -0.361508 6.46403 0
vt -0.938173 0 0
vt -0.361508 0 0
vt -0.938173 2.31911 0
vt -0.982207 2.68149 0
vt -2.84963 2.31911 0
vt -0.982207 6.46403 0
vt -3.41069 2.68149 0
vt 1.18424e-15 6.46403 0
vt 0.229507 6.57678 0
vt 0.464949 6.66979 0
vt 0.705173 6.74261 0
vt 0.949004 6.79488 0
vt 1.19525 6.82635 0
vt 1.44271 6.83685 0
vt 1.69017 6.82635 0
vt 1.93641 6.79488 0
vt 2.18024 6.74261 0
vt 2.42047 6.66979 0
vt 2.65591 6.57678 0
vt 2.88542 6.46403 0
vt 3 5.55111e-17 0
vt 2.75 0.753076 0
vt 2.75 5.55111e-17 0
vt 3 0.753076 0
vt -0.705173 6.74261 0
vt -0.500849 1.97156 0
vt -0.464949 6.66979 0
vt -2.34499 1.97156 0
vt -0.949004 6.79488 0
vt -1.19525 6.82635 0
vt -1.44271 6.83685 0
vt -1.69017 6.82635 0
vt -1.93641 6.79488 0
vt -2.18024 6.74261 0
vt -2.42047 6.66979 0
vt -2.34499 2.20156e-17 0
vt -2.88542 2.20156e-17 0
vt -2.65591 6.57678 0
vt -2.88542 6.46403 0
vt -1.18429e-15 6.46403 0
vt -0.500849 2.20156e-17 0
vt -5.48935e-20 2.20156e-17 0
vt -0.229507 6.57678 0
vt -0.938173 0.607665 0
vt -0.361508 0.607665 0
vt 0 2.31911 0
vt 2.88542 2.31911 0
vt -0.938173 1.35512e-18 0
vt -0.938173 3.50079 0
vt -2.84963 1.35512e-18 0
vt -2.88542 2.31911 0
vt -2.34499 0 0
vt -2.88542 0 0
vt -0.500849 0 0
vt 0.25 0.753076 0
vt 9.99201e-16 -5.55111e-17 0
vt 0.25 -5.55111e-17 0
vt 3.33067e-16 0.753076 0
vt -0.361508 2.84511 0
vt -0.361508 3.50079 0
vt -0.938173 2.84511 0
vt 0.5 0.753076 0
vt 0.25 1.11022e-16 0
vt 0.5 5.55111e-17 0
vt 0.75 0.753076 0
vt 0.5 2.22045e-16 0
vt 0.75 1.66533e-16 0
vt 1 0.753076 0
vt 1 1.11022e-16 0
vt 1.25 0.753076 0
vt 1 3.88578e-16 0
vt 1.25 2.22045e-16 0
vt 1.5 0.753076 0
vt 1.25 -5.55111e-17 0
vt 1.5 -1.66533e-16 0
vt 1.75 0.753076 0
vt 1.5 2.22045e-16 0
vt 1.75 0 0
vt 2 0.753076 0
vt 1.75 4.44089e-16 0
vt 2 2.77556e-16 0
vt 2.25 -5.55111e-17 0
vt 2 -5.55111e-17 0
vt 2.25 0.753076 0
vt 2.5 2.77556e-16 0
vt 2.25 1.66533e-16 0
vt 2.5 0.753076 0
vt 2.75 1.66533e-16 0
vt 2.5 1.11022e-16 0
vt 0.938173 1.97156 0
vt 0.361508 0 0
vt 0.938173 0 0
vt 0.361508 1.97156 0
vt -0.361508 1.97156 0
vt -0.938173 1.97156 0

# 23 vertex normals
vn 0 0 -0.0254
vn 0 0.0254 0
vn 0.0254 6.36044e-18 -1.21517e-18
vn 0 -0.0254 0
vn -0.0254 0 0
vn 0.0254 0 0
vn 1.50873e-34 3.50145e-18 -0.0254
vn 0.00953317 0.0235431 -2.6556e-20
vn 0.00870405 0.0238621 2.6202e-18
vn -3.85689e-21 1.27494e-18 0.0254
vn -1.48418e-20 -0.0254 1.96698e-18
vn 0 0 0.0254
vn -0.00870405 0.0238621 2.71448e-18
vn -0.00953317 0.0235431 1.619e-19
vn -0.00701489 0.0244121 5.32046e-18
vn -0.00529141 0.0248427 5.41431e-18
vn -0.00354205 0.0251518 5.48167e-18
vn -0.00177537 0.0253379 5.52222e-18
vn -6.13003e-17 0.0254 5.53576e-18
vn 0.00177537 0.0253379 5.52222e-18
vn 0.00354205 0.0251518 5.48167e-18
vn 0.00529141 0.0248427 5.41431e-18
vn 0.00701489 0.0244121 5.32046e-18

# Mesh 'SketchUp_ID2' with 112 faces
g SketchUp_ID2
usemtl material
f  1/1/1 2/2/1 3/3/1
f  4/4/1 5/5/1 6/6/1
f  5/5/1 4/4/1 7/7/1
f  5/5/1 7/7/1 8/8/1
f  8/8/1 7/7/1 2/2/1
f  8/8/1 2/2/1 1/1/1
f  5/9/2 9/10/2 10/11/2
f  9/10/2 5/9/2 8/12/2
f  5/13/3 11/14/3 6/15/3
f  11/14/3 5/13/3 12/16/3
f  12/16/3 5/13/3 13/17/3
f  13/17/3 14/18/3 15/19/3
f  14/18/3 13/17/3 16/20/3
f  16/20/3 13/17/3 10/21/3
f  10/21/3 13/17/3 5/13/3
f  16/20/3 10/21/3 17/22/3
f  4/23/4 11/24/4 18/25/4
f  11/24/4 4/23/4 6/26/4
f  19/27/5 4/26/5 18/24/5
f  4/26/5 19/27/5 7/28/5
f  2/29/4 19/25/4 20/30/4
f  19/25/4 2/29/4 7/23/4
f  2/31/6 21/32/6 3/33/6
f  21/32/6 2/31/6 20/34/6
f  1/35/4 21/30/4 22/36/4
f  21/30/4 1/35/4 3/29/4
f  23/37/5 24/38/5 25/39/5
f  24/38/5 23/37/5 26/40/5
f  26/40/5 23/37/5 9/41/5
f  26/40/5 9/41/5 27/42/5
f  9/41/5 23/37/5 28/43/5
f  27/42/5 1/26/5 22/24/5
f  1/26/5 27/42/5 8/44/5
f  8/44/5 27/42/5 9/41/5
f  9/8/7 17/45/7 10/5/7
f  17/45/7 9/8/7 29/46/7
f  29/46/7 9/8/7 30/47/7
f  30/47/7 9/8/7 31/48/7
f  31/48/7 9/8/7 32/49/7
f  32/49/7 9/8/7 33/50/7
f  33/50/7 9/8/7 34/51/7
f  34/51/7 9/8/7 35/52/7
f  35/52/7 9/8/7 36/53/7
f  36/53/7 9/8/7 37/54/7
f  37/54/7 9/8/7 38/55/7
f  38/55/7 9/8/7 39/56/7
f  39/56/7 9/8/7 28/57/7
f  16/58/8 29/59/9 40/60/9
f  29/59/9 16/58/8 17/61/8
f  41/62/10 42/63/10 43/64/10
f  42/63/10 41/62/10 44/65/10
f  44/65/10 41/62/10 45/66/10
f  44/65/10 45/66/10 46/67/10
f  44/65/10 46/67/10 47/68/10
f  44/65/10 47/68/10 48/69/10
f  44/65/10 48/69/10 49/70/10
f  44/65/10 49/70/10 50/71/10
f  44/65/10 50/71/10 51/72/10
f  44/65/10 51/72/10 52/73/10
f  52/73/10 51/72/10 25/74/10
f  25/74/10 51/72/10 53/75/10
f  25/74/10 53/75/10 23/76/10
f  16/77/10 54/78/10 14/79/10
f  54/78/10 16/77/10 40/80/10
f  54/78/10 40/80/10 43/64/10
f  54/78/10 43/64/10 42/63/10
f  55/81/4 14/39/4 54/82/4
f  14/39/4 55/81/4 15/38/4
f  24/1/1 56/2/1 57/3/1
f  55/4/1 13/83/1 15/6/1
f  13/83/1 55/4/1 58/7/1
f  13/83/1 58/7/1 26/84/1
f  26/84/1 58/7/1 56/2/1
f  26/84/1 56/2/1 24/1/1
f  27/36/11 13/85/11 26/86/11
f  13/85/11 27/36/11 12/87/11
f  12/83/12 19/63/12 11/6/12
f  19/63/12 12/83/12 27/88/12
f  19/63/12 27/88/12 20/65/12
f  20/65/12 27/88/12 21/89/12
f  21/89/12 27/88/12 22/90/12
f  18/91/12 11/6/12 19/63/12
f  39/92/13 23/93/14 53/94/13
f  23/93/14 39/92/13 28/95/14
f  24/86/4 52/96/4 25/97/4
f  52/96/4 24/86/4 57/98/4
f  38/99/15 53/100/13 51/101/15
f  53/100/13 38/99/15 39/92/13
f  37/102/16 51/103/15 50/104/16
f  51/103/15 37/102/16 38/99/15
f  36/105/17 50/104/16 49/106/17
f  50/104/16 36/105/17 37/102/16
f  35/107/18 49/108/17 48/109/18
f  49/108/17 35/107/18 36/105/17
f  34/110/19 48/111/18 47/112/19
f  48/111/18 34/110/19 35/107/18
f  33/113/20 47/114/19 46/115/20
f  47/114/19 33/113/20 34/110/19
f  32/116/21 46/117/20 45/118/21
f  46/117/20 32/116/21 33/113/20
f  41/119/22 32/116/21 45/120/21
f  32/116/21 41/119/22 31/121/22
f  43/122/23 31/121/22 41/123/22
f  31/121/22 43/122/23 30/124/23
f  40/125/9 30/124/23 43/126/23
f  30/124/23 40/125/9 29/59/9
f  56/127/6 52/128/6 57/129/6
f  52/128/6 56/127/6 44/130/6
f  56/98/4 42/82/4 44/96/4
f  42/82/4 56/98/4 58/81/4
f  42/131/5 55/38/5 54/39/5
f  55/38/5 42/131/5 58/132/5

