####
#
# OBJ File Generated by Meshlab
#
####
# Object aj1_left.obj
#
# Vertices: 91
# Faces: 356
#
####
vn -0.883668 0.255133 -0.392476
v 0.084887 0.253423 -0.062957
vn 0.190544 -0.867426 -0.459637
v 0.038802 0.183571 -0.046211
vn -0.540350 0.707770 -0.455065
v 0.041584 0.217402 -0.058839
vn 0.187383 -0.742191 -0.643460
v 0.064567 0.189712 -0.049033
vn -0.975353 0.139275 -0.171138
v 0.084887 0.291461 -0.047344
vn 0.123850 -0.990984 -0.051100
v 0.058682 0.183571 -0.013985
vn 0.068774 -0.549528 -0.832640
v 0.064567 0.206585 -0.063837
vn 0.962180 0.004138 -0.272384
v 0.094285 0.253742 -0.059000
vn 0.819468 0.464703 -0.335445
v 0.094158 0.289574 -0.044695
vn 0.990749 -0.089355 -0.102139
v 0.094285 0.210818 -0.044330
vn 0.384270 -0.874507 -0.295930
v 0.082100 0.189712 -0.029191
vn 0.994852 -0.090342 -0.045911
v 0.094285 0.192867 -0.015450
vn 0.122012 -0.988988 -0.083758
v 0.052902 0.183571 -0.028991
vn 0.203018 -0.946394 -0.251240
v 0.020659 0.179000 -0.056686
vn -0.355329 0.861445 -0.362841
v 0.020659 0.198475 -0.056686
vn 0.882428 0.362845 -0.299440
v -0.064873 0.225445 -0.069488
vn -0.165951 -0.880289 -0.444468
v -0.038752 0.181191 -0.046211
vn 0.455193 0.719074 -0.525101
v -0.038837 0.214655 -0.058839
vn 0.987199 0.102744 -0.121991
v -0.069581 0.253423 -0.070088
vn 0.991443 0.105395 -0.077027
v -0.069647 0.296406 -0.052120
vn -0.283123 -0.681317 -0.675018
v -0.064567 0.191080 -0.049041
vn 0.551365 -0.400316 -0.731945
v 0.084887 0.208715 -0.049530
vn -0.456963 0.046502 -0.888270
v -0.075028 0.251011 -0.069778
vn -0.929789 0.082038 -0.358836
v -0.109271 0.249911 -0.050930
vn -0.401282 0.560907 -0.724124
v -0.075490 0.294663 -0.053263
vn -0.614637 0.638018 -0.463848
v -0.108592 0.288031 -0.038115
vn -0.469732 -0.417713 -0.777733
v -0.071380 0.220991 -0.066654
vn -0.717287 -0.242586 -0.653185
v -0.109271 0.226100 -0.045024
vn -0.569049 -0.621677 -0.538239
v -0.109271 0.208915 -0.030227
vn -0.154793 -0.947993 -0.278116
v -0.020609 0.179000 -0.056686
vn 0.322239 0.863271 -0.388492
v -0.017396 0.198475 -0.056686
vn -0.000001 -0.848585 -0.529059
v 0.000025 0.179000 -0.060325
vn -0.000001 0.958888 -0.283785
v 0.000025 0.198475 -0.060325
vn -0.485894 0.694701 -0.530375
v 0.064567 0.219983 -0.069010
vn -0.145748 -0.985398 -0.088024
v -0.055733 0.181380 -0.023085
vn -0.396083 -0.889404 -0.228209
v -0.085447 0.190294 -0.024503
vn 0.820688 -0.571376 -0.000001
v 0.094285 0.188291 -0.000000
vn -0.883667 0.255133 0.392479
v 0.084887 0.253423 0.062957
vn -0.953831 0.300344 0.000002
v 0.084887 0.312903 -0.000000
vn 0.190545 -0.867426 0.459636
v 0.038802 0.183571 0.046211
vn -0.867176 0.498001 0.000002
v 0.084597 0.247649 -0.000000
vn -0.540348 0.707770 0.455067
v 0.041584 0.217402 0.058839
vn 0.187385 -0.742191 0.643459
v 0.064567 0.189712 0.049032
vn -0.975353 0.139275 0.171142
v 0.084887 0.291461 0.047344
vn 0.123850 -0.990984 0.051099
v 0.058682 0.183571 0.013985
vn 0.068777 -0.549528 0.832640
v 0.064567 0.206585 0.063837
vn 0.999146 0.041318 -0.000002
v 0.094285 0.309063 -0.000000
vn 0.962181 0.004138 0.272380
v 0.094285 0.253742 0.058999
vn 0.819469 0.464703 0.335442
v 0.094159 0.289574 0.044694
vn 0.098097 -0.995177 -0.000000
v 0.060291 0.183571 -0.000000
vn 0.990749 -0.089355 0.102135
v 0.094285 0.210818 0.044330
vn 0.384271 -0.874507 0.295928
v 0.082100 0.189712 0.029191
vn 0.994852 -0.090342 0.045907
v 0.094285 0.192867 0.015450
vn 0.122013 -0.988988 0.083758
v 0.052902 0.183571 0.028991
vn -0.613296 0.789853 0.000001
v 0.040898 0.219057 -0.000000
vn 0.203019 -0.946394 0.251240
v 0.020659 0.179000 0.056686
vn -0.355328 0.861445 0.362842
v 0.020659 0.198475 0.056686
vn -0.477348 0.878714 0.000001
v 0.019970 0.200130 -0.000000
vn -0.000000 1.000000 -0.000000
v 0.000025 0.196853 -0.000000
vn -0.339626 -0.940561 0.000001
v -0.094246 0.190440 0.000000
vn -0.163270 -0.986581 0.000000
v -0.060291 0.181287 0.000000
vn 0.882429 0.362845 0.299437
v -0.064873 0.225445 0.069488
vn 0.996708 0.081080 -0.000002
v -0.069647 0.319724 0.000000
vn -0.165949 -0.880289 0.444468
v -0.038752 0.181191 0.046211
vn 0.997950 0.063994 -0.000002
v -0.069647 0.247649 0.000000
vn 0.455195 0.719074 0.525100
v -0.038837 0.214655 0.058839
vn 0.987199 0.102744 0.121988
v -0.069581 0.253423 0.070089
vn 0.991443 0.105395 0.077024
v -0.069647 0.296406 0.052121
vn -0.283121 -0.681317 0.675019
v -0.064567 0.191080 0.049041
vn 0.551368 -0.400316 0.731943
v 0.084887 0.208715 0.049529
vn -0.382262 0.924054 0.000001
v -0.075490 0.319481 0.000000
vn -0.983499 0.180913 0.000002
v -0.109271 0.300843 0.000000
vn -0.456959 0.046502 0.888271
v -0.075028 0.251011 0.069778
vn -0.929787 0.082038 0.358839
v -0.109271 0.249911 0.050931
vn -0.401279 0.560907 0.724126
v -0.075490 0.294663 0.053263
vn -0.614635 0.638018 0.463850
v -0.108592 0.288031 0.038115
vn -0.469729 -0.417713 0.777734
v -0.071380 0.220991 0.066654
vn -0.717285 -0.242586 0.653188
v -0.109271 0.226100 0.045024
vn 0.606192 0.795318 -0.000001
v -0.064873 0.225445 0.000000
vn -0.569047 -0.621677 0.538241
v -0.109271 0.208915 0.030228
vn -0.988730 -0.149707 0.000002
v -0.109271 0.198973 0.000000
vn 0.511613 0.859216 -0.000001
v -0.038151 0.216309 0.000000
vn -0.154792 -0.947993 0.278117
v -0.020609 0.179000 0.056686
vn 0.322240 0.863271 0.388490
v -0.017396 0.198475 0.056686
vn 0.454078 0.890962 -0.000001
v -0.016707 0.200130 0.000000
vn 0.000001 -0.848585 0.529059
v 0.000025 0.179000 0.060325
vn 0.000001 0.958888 0.283785
v 0.000025 0.198475 0.060325
vn -0.485893 0.694701 0.530376
v 0.064567 0.219983 0.069010
vn -0.145748 -0.985398 0.088024
v -0.055733 0.181380 0.023086
vn -0.396082 -0.889404 0.228210
v -0.085447 0.190294 0.024503
vn 0.020931 -0.999781 -0.000000
v 0.000025 0.179000 -0.000000
# 91 vertices, 0 vertices normals

f 2//2 4//4 13//13
f 22//22 1//1 8//8
f 3//3 34//34 7//7
f 39//39 47//47 9//9
f 41//41 34//34 3//3
f 47//47 12//12 10//10
f 11//11 12//12 37//37
f 2//2 14//14 15//15
f 15//15 58//58 55//55
f 32//32 33//33 15//15
f 15//15 33//33 59//59
f 20//20 25//25 71//71
f 31//31 85//85 59//59
f 20//20 63//63 65//65
f 36//36 60//60 81//81
f 19//19 23//23 25//25
f 21//21 17//17 35//35
f 25//25 23//23 24//24
f 71//71 25//25 26//26
f 28//28 24//24 23//23
f 65//65 79//79 16//16
f 29//29 28//28 27//27
f 17//17 18//18 31//31
f 82//82 85//85 31//31
f 31//31 33//33 32//32
f 79//79 82//82 18//18
f 81//81 24//24 28//28
f 5//5 9//9 8//8
f 5//5 1//1 41//41
f 11//11 6//6 13//13
f 37//37 50//50 6//6
f 34//34 1//1 22//22
f 3//3 7//7 4//4
f 23//23 19//19 16//16
f 21//21 27//27 16//16
f 18//18 17//17 21//21
f 10//10 12//12 11//11
f 22//22 11//11 4//4
f 36//36 21//21 35//35
f 36//36 35//35 61//61
f 21//21 36//36 29//29
f 40//40 54//54 43//43
f 48//48 38//38 70//70
f 42//42 46//46 88//88
f 39//39 44//44 49//49
f 88//88 41//41 42//42
f 47//47 48//48 51//51
f 52//52 37//37 53//53
f 40//40 42//42 57//57
f 55//55 58//58 57//57
f 57//57 87//87 86//86
f 57//57 58//58 59//59
f 68//68 63//63 71//71
f 84//84 87//87 59//59
f 68//68 67//67 65//65
f 90//90 80//80 81//81
f 67//67 68//68 75//75
f 69//69 89//89 64//64
f 75//75 76//76 74//74
f 71//71 72//72 76//76
f 78//78 77//77 73//73
f 62//62 79//79 65//65
f 80//80 69//69 77//77
f 64//64 83//83 84//84
f 84//84 85//85 82//82
f 86//86 87//87 84//84
f 66//66 82//82 79//79
f 72//72 81//81 74//74
f 44//44 38//38 48//48
f 44//44 39//39 41//41
f 52//52 43//43 54//54
f 45//45 50//50 37//37
f 88//88 46//46 70//70
f 43//43 46//46 42//42
f 62//62 67//67 73//73
f 69//69 62//62 77//77
f 66//66 62//62 69//69
f 51//51 70//70 52//52
f 70//70 46//46 43//43
f 90//90 89//89 69//69
f 61//61 89//89 90//90
f 69//69 80//80 90//90
f 91//91 56//56 86//86
f 89//89 91//91 64//64
f 17//17 91//91 35//35
f 32//32 14//14 91//91
f 91//91 83//83 64//64
f 86//86 83//83 91//91
f 61//61 91//91 89//89
f 17//17 30//30 91//91
f 91//91 30//30 32//32
f 35//35 91//91 61//61
f 5//5 39//39 9//9
f 10//10 22//22 8//8
f 91//91 54//54 40//40
f 91//91 14//14 2//2
f 50//50 45//45 91//91
f 45//45 54//54 91//91
f 40//40 56//56 91//91
f 91//91 6//6 50//50
f 2//2 13//13 91//91
f 13//13 6//6 91//91
f 34//34 41//41 1//1
f 41//41 3//3 55//55
f 8//8 9//9 47//47
f 47//47 10//10 8//8
f 47//47 37//37 12//12
f 3//3 2//2 15//15
f 3//3 15//15 55//55
f 14//14 32//32 15//15
f 58//58 15//15 59//59
f 63//63 20//20 71//71
f 33//33 31//31 59//59
f 19//19 20//20 65//65
f 29//29 36//36 81//81
f 20//20 19//19 25//25
f 26//26 25//25 24//24
f 72//72 71//71 26//26
f 27//27 28//28 23//23
f 19//19 65//65 16//16
f 21//21 29//29 27//27
f 30//30 17//17 31//31
f 18//18 82//82 31//31
f 30//30 31//31 32//32
f 16//16 79//79 18//18
f 24//24 81//81 72//72
f 81//81 28//28 29//29
f 72//72 26//26 24//24
f 1//1 5//5 8//8
f 39//39 5//5 41//41
f 4//4 11//11 13//13
f 11//11 37//37 6//6
f 7//7 34//34 22//22
f 2//2 3//3 4//4
f 27//27 23//23 16//16
f 16//16 18//18 21//21
f 22//22 10//10 11//11
f 7//7 22//22 4//4
f 60//60 36//36 61//61
f 51//51 48//48 70//70
f 47//47 39//39 49//49
f 41//41 88//88 38//38
f 41//41 55//55 42//42
f 53//53 37//37 47//47
f 47//47 51//51 53//53
f 47//47 49//49 48//48
f 56//56 40//40 57//57
f 42//42 55//55 57//57
f 56//56 57//57 86//86
f 87//87 57//57 59//59
f 75//75 68//68 71//71
f 85//85 84//84 59//59
f 63//63 68//68 65//65
f 60//60 90//90 81//81
f 73//73 67//67 75//75
f 73//73 75//75 74//74
f 75//75 71//71 76//76
f 74//74 78//78 73//73
f 67//67 62//62 65//65
f 78//78 80//80 77//77
f 66//66 64//64 84//84
f 66//66 84//84 82//82
f 83//83 86//86 84//84
f 62//62 66//66 79//79
f 74//74 76//76 72//72
f 81//81 78//78 74//74
f 78//78 81//81 80//80
f 49//49 44//44 48//48
f 38//38 44//44 41//41
f 45//45 52//52 54//54
f 52//52 45//45 37//37
f 38//38 88//88 70//70
f 40//40 43//43 42//42
f 77//77 62//62 73//73
f 64//64 66//66 69//69
f 53//53 51//51 52//52
f 52//52 70//70 43//43
f 60//60 61//61 90//90
f 2//2 4//4 13//13
f 22//22 1//1 8//8
f 3//3 34//34 7//7
f 39//39 47//47 9//9
f 41//41 34//34 3//3
f 47//47 12//12 10//10
f 11//11 12//12 37//37
f 2//2 14//14 15//15
f 15//15 58//58 55//55
f 32//32 33//33 15//15
f 15//15 33//33 59//59
f 20//20 25//25 71//71
f 31//31 85//85 59//59
f 20//20 63//63 65//65
f 36//36 60//60 81//81
f 19//19 23//23 25//25
f 21//21 17//17 35//35
f 25//25 23//23 24//24
f 71//71 25//25 26//26
f 28//28 24//24 23//23
f 65//65 79//79 16//16
f 29//29 28//28 27//27
f 17//17 18//18 31//31
f 82//82 85//85 31//31
f 31//31 33//33 32//32
f 79//79 82//82 18//18
f 81//81 24//24 28//28
f 5//5 9//9 8//8
f 5//5 1//1 41//41
f 11//11 6//6 13//13
f 37//37 50//50 6//6
f 34//34 1//1 22//22
f 3//3 7//7 4//4
f 23//23 19//19 16//16
f 21//21 27//27 16//16
f 18//18 17//17 21//21
f 10//10 12//12 11//11
f 22//22 11//11 4//4
f 36//36 21//21 35//35
f 36//36 35//35 61//61
f 21//21 36//36 29//29
f 40//40 54//54 43//43
f 48//48 38//38 70//70
f 42//42 46//46 88//88
f 39//39 44//44 49//49
f 88//88 41//41 42//42
f 47//47 48//48 51//51
f 52//52 37//37 53//53
f 40//40 42//42 57//57
f 55//55 58//58 57//57
f 57//57 87//87 86//86
f 57//57 58//58 59//59
f 68//68 63//63 71//71
f 84//84 87//87 59//59
f 68//68 67//67 65//65
f 90//90 80//80 81//81
f 67//67 68//68 75//75
f 69//69 89//89 64//64
f 75//75 76//76 74//74
f 71//71 72//72 76//76
f 78//78 77//77 73//73
f 62//62 79//79 65//65
f 80//80 69//69 77//77
f 64//64 83//83 84//84
f 84//84 85//85 82//82
f 86//86 87//87 84//84
f 66//66 82//82 79//79
f 72//72 81//81 74//74
f 44//44 38//38 48//48
f 44//44 39//39 41//41
f 52//52 43//43 54//54
f 45//45 50//50 37//37
f 88//88 46//46 70//70
f 43//43 46//46 42//42
f 62//62 67//67 73//73
f 69//69 62//62 77//77
f 66//66 62//62 69//69
f 51//51 70//70 52//52
f 70//70 46//46 43//43
f 90//90 89//89 69//69
f 61//61 89//89 90//90
f 69//69 80//80 90//90
f 91//91 56//56 86//86
f 89//89 91//91 64//64
f 17//17 91//91 35//35
f 32//32 14//14 91//91
f 91//91 83//83 64//64
f 86//86 83//83 91//91
f 61//61 91//91 89//89
f 17//17 30//30 91//91
f 91//91 30//30 32//32
f 35//35 91//91 61//61
f 5//5 39//39 9//9
f 10//10 22//22 8//8
f 91//91 54//54 40//40
f 91//91 14//14 2//2
f 50//50 45//45 91//91
f 45//45 54//54 91//91
f 40//40 56//56 91//91
f 91//91 6//6 50//50
f 2//2 13//13 91//91
f 13//13 6//6 91//91
f 34//34 41//41 1//1
f 41//41 3//3 55//55
f 8//8 9//9 47//47
f 47//47 10//10 8//8
f 47//47 37//37 12//12
f 3//3 2//2 15//15
f 3//3 15//15 55//55
f 14//14 32//32 15//15
f 58//58 15//15 59//59
f 63//63 20//20 71//71
f 33//33 31//31 59//59
f 19//19 20//20 65//65
f 29//29 36//36 81//81
f 20//20 19//19 25//25
f 26//26 25//25 24//24
f 72//72 71//71 26//26
f 27//27 28//28 23//23
f 19//19 65//65 16//16
f 21//21 29//29 27//27
f 30//30 17//17 31//31
f 18//18 82//82 31//31
f 30//30 31//31 32//32
f 16//16 79//79 18//18
f 24//24 81//81 72//72
f 81//81 28//28 29//29
f 72//72 26//26 24//24
f 1//1 5//5 8//8
f 39//39 5//5 41//41
f 4//4 11//11 13//13
f 11//11 37//37 6//6
f 7//7 34//34 22//22
f 2//2 3//3 4//4
f 27//27 23//23 16//16
f 16//16 18//18 21//21
f 22//22 10//10 11//11
f 7//7 22//22 4//4
f 60//60 36//36 61//61
f 51//51 48//48 70//70
f 47//47 39//39 49//49
f 41//41 88//88 38//38
f 41//41 55//55 42//42
f 53//53 37//37 47//47
f 47//47 51//51 53//53
f 47//47 49//49 48//48
f 56//56 40//40 57//57
f 42//42 55//55 57//57
f 56//56 57//57 86//86
f 87//87 57//57 59//59
f 75//75 68//68 71//71
f 85//85 84//84 59//59
f 63//63 68//68 65//65
f 60//60 90//90 81//81
f 73//73 67//67 75//75
f 73//73 75//75 74//74
f 75//75 71//71 76//76
f 74//74 78//78 73//73
f 67//67 62//62 65//65
f 78//78 80//80 77//77
f 66//66 64//64 84//84
f 66//66 84//84 82//82
f 83//83 86//86 84//84
f 62//62 66//66 79//79
f 74//74 76//76 72//72
f 81//81 78//78 74//74
f 78//78 81//81 80//80
f 49//49 44//44 48//48
f 38//38 44//44 41//41
f 45//45 52//52 54//54
f 52//52 45//45 37//37
f 38//38 88//88 70//70
f 40//40 43//43 42//42
f 77//77 62//62 73//73
f 64//64 66//66 69//69
f 53//53 51//51 52//52
f 52//52 70//70 43//43
f 60//60 61//61 90//90
# 356 faces, 0 coords texture

# End of File