# Blender v2.71 (sub 0) OBJ File: 'aj2_Right.blend'
# www.blender.org
o Cylinder_Cylinder.001
v 0.052034 -0.067695 -0.048426
v 0.050577 -0.131811 -0.049945
v -0.000005 -0.070227 -0.071166
v 0.036820 -0.099891 -0.033061
v 0.040889 -0.037226 -0.027868
v 0.063534 -0.036374 -0.036370
v 0.063536 -0.000004 -0.051435
v 0.063539 0.036366 -0.036370
v 0.037907 -0.060352 -0.060122
v 0.052034 -0.067695 0.048426
v 0.050577 -0.131811 0.049945
v 0.070999 -0.078213 -0.000000
v 0.070999 -0.131807 -0.000000
v -0.000138 -0.070227 0.071166
v 0.036820 -0.099891 0.033061
v 0.051277 -0.099891 -0.000000
v 0.047018 -0.051439 -0.000000
v 0.040889 -0.037226 0.027868
v 0.063533 -0.051439 -0.000000
v 0.063534 -0.036374 0.036370
v 0.063536 -0.000004 0.051435
v 0.063539 0.036366 0.036370
v 0.063540 0.051431 -0.000000
v 0.037907 -0.060352 0.060122
v 0.000003 0.036370 -0.036370
v -0.000009 -0.131813 -0.071099
v -0.052044 -0.067688 -0.048426
v -0.050595 -0.131804 -0.049945
v -0.000007 -0.099891 -0.051283
v -0.036834 -0.099885 -0.033061
v -0.040895 -0.037220 -0.027868
v -0.000000 0.000000 -0.051435
v -0.063539 -0.036365 -0.036370
v -0.063536 0.000005 -0.051435
v -0.063534 0.036375 -0.036370
v -0.037916 -0.060347 -0.060122
v 0.000003 0.036370 0.036370
v -0.000009 -0.131813 0.071099
v -0.052044 -0.067688 0.048426
v -0.050595 -0.131804 0.049945
v -0.071011 -0.078203 0.000000
v -0.071018 -0.131797 0.000000
v 0.000128 -0.070227 0.071166
v -0.000007 -0.099891 0.051283
v -0.036834 -0.099885 0.033061
v -0.051292 -0.099883 0.000000
v -0.047026 -0.051432 0.000000
v -0.040895 -0.037220 0.027868
v 0.000000 0.000000 0.051435
v -0.063540 -0.051430 0.000000
v -0.063539 -0.036365 0.036370
v -0.063536 0.000005 0.051435
v -0.063534 0.036375 0.036370
v -0.063533 0.051440 0.000000
v 0.000004 0.051435 0.000000
v -0.037916 -0.060347 0.060122
v -0.063539 -0.030909 -0.030914
v -0.063540 -0.043713 0.000000
v -0.063536 0.000005 -0.043719
v -0.063534 0.030919 -0.030914
v -0.063533 0.043724 0.000000
v -0.063539 -0.030909 0.030914
v -0.063536 0.000005 0.043719
v -0.063534 0.030919 0.030914
v -0.105011 -0.030906 -0.030914
v -0.105012 -0.043710 0.000000
v -0.105009 0.000008 -0.043719
v -0.105006 0.030922 -0.030914
v -0.105005 0.043727 0.000000
v -0.105011 -0.030906 0.030914
v -0.105009 0.000008 0.043719
v -0.105006 0.030922 0.030914
vn 0.000000 0.707100 -0.707100
vn -0.044800 -0.064300 -0.996900
vn 0.000000 0.088300 -0.996100
vn 0.784400 -0.000700 -0.620300
vn 1.000000 -0.007200 -0.000000
vn 0.710300 -0.021600 -0.703600
vn 0.000000 0.017400 -0.999800
vn 0.692100 0.016700 -0.721600
vn 0.750900 0.016900 -0.660200
vn 0.999900 0.017300 -0.000000
vn -0.075400 -0.997200 -0.000000
vn -0.078900 -0.719200 -0.690300
vn -0.079300 -0.701300 -0.708500
vn -0.000000 -0.041900 -0.999100
vn 0.465400 -0.023000 -0.884800
vn -0.569200 0.573400 0.589200
vn -0.525600 0.566400 0.634700
vn -0.367200 0.527200 0.766300
vn 0.000000 0.566800 0.823900
vn 0.000100 1.000000 0.000000
vn -0.782900 0.622200 0.000000
vn 0.000000 0.707100 0.707100
vn 0.000000 0.088300 0.996100
vn -0.044800 -0.064300 0.996900
vn 0.784400 -0.000700 0.620300
vn 0.710200 -0.021500 0.703700
vn 0.000000 0.017400 0.999800
vn 0.750900 0.016900 0.660200
vn 0.692100 0.016700 0.721600
vn -0.079300 -0.701300 0.708500
vn -0.078900 -0.719200 0.690300
vn 0.465100 -0.022800 0.885000
vn 0.345000 -0.039000 0.937800
vn -0.569000 0.573300 -0.589500
vn -0.366800 0.526900 -0.766700
vn -0.525400 0.566300 -0.635000
vn -0.000100 -1.000000 -0.000000
vn 0.044800 -0.064300 -0.996900
vn 0.000100 0.707100 -0.707100
vn -0.784400 -0.000600 -0.620300
vn -0.710300 -0.021500 -0.703600
vn -1.000000 -0.007100 0.000000
vn -0.750900 0.017000 -0.660200
vn -0.692100 0.016800 -0.721600
vn -0.999800 0.017400 0.000000
vn 0.075300 -0.997200 -0.000000
vn 0.079200 -0.701300 -0.708500
vn 0.078800 -0.719300 -0.690300
vn 0.783000 0.622100 0.000000
vn 0.569300 0.573400 0.589200
vn 0.525700 0.566400 0.634700
vn -0.465400 -0.022900 -0.884800
vn 0.000100 0.707100 0.707100
vn 0.044800 -0.064300 0.996900
vn -0.784400 -0.000600 0.620300
vn -0.710200 -0.021400 0.703700
vn -0.692100 0.016800 0.721600
vn -0.750900 0.017000 0.660200
vn 0.078800 -0.719300 0.690300
vn 0.079200 -0.701300 0.708500
vn -0.345000 -0.039000 0.937800
vn -0.465100 -0.022800 0.885000
vn 0.569100 0.573300 -0.589500
vn 0.525500 0.566200 -0.635000
vn 0.366900 0.526800 -0.766700
vn -1.000000 0.000100 -0.000000
vn 0.000000 0.000000 1.000000
vn -0.000100 -0.707100 0.707100
vn -0.000000 0.000000 -1.000000
vn -0.000100 -0.707100 -0.707100
vn 0.367300 0.527200 0.766300
vn 1.000000 -0.000100 -0.000000
s 1
f 25//1 8//1 7//2 32//3
f 1//4 12//5 13//5 2//6
f 29//7 32//7 5//8 4//9
f 4//9 5//8 17//10 16//10
f 17//11 5//12 6//13 19//11
f 5//12 32//3 7//2 6//13
f 2//6 26//14 3//14 9//15
f 4//16 1//17 9//18 3//19 29//19
f 55//20 23//20 8//1 25//1
f 16//21 12//21 1//17 4//16
f 1//4 2//6 9//15
f 37//22 49//23 21//24 22//22
f 10//25 11//26 13//5 12//5
f 44//27 15//28 18//29 49//27
f 15//28 16//10 17//10 18//29
f 17//11 19//11 20//30 18//31
f 18//31 20//30 21//24 49//23
f 11//26 24//32 14//33 38//33
f 15//34 44//35 14//35 24//35 10//36
f 55//20 37//22 22//22 23//20
f 16//21 15//34 10//36 12//21
f 42//37 28//37 26//37 2//37 13//37 11//37 38//37 40//37
f 10//25 24//32 11//26
f 25//1 32//3 34//38 35//39
f 27//40 28//41 42//42 41//42
f 29//7 30//43 31//44 32//7
f 30//43 46//45 47//45 31//44
f 47//46 50//46 33//47 31//48
f 31//48 33//47 34//38 32//3
f 55//20 25//1 35//39 54//20
f 46//49 30//50 27//51 41//49
f 27//40 36//52 28//41
f 37//22 53//53 52//54 49//23
f 39//55 41//42 42//42 40//56
f 44//27 49//27 48//57 45//58
f 45//58 48//57 47//45 46//45
f 47//46 48//59 51//60 50//46
f 48//59 49//23 52//54 51//60
f 40//56 38//61 43//61 56//62
f 45//63 39//64 56//65 43//65 44//65
f 55//20 54//20 53//53 37//22
f 46//49 41//49 39//64 45//63
f 39//55 40//56 56//62
f 64//53 61//20 69//20 72//53
f 58//66 57//66 33//66 50//66
f 57//66 59//66 34//66 33//66
f 59//66 60//66 35//66 34//66
f 60//66 61//66 54//66 35//66
f 62//66 58//66 50//66 51//66
f 63//66 62//66 51//66 52//66
f 64//66 63//66 52//66 53//66
f 61//66 64//66 53//66 54//66
f 66//66 70//66 71//66 72//66 69//66 68//66 67//66 65//66
f 63//67 64//53 72//53 71//67
f 62//68 63//67 71//67 70//68
f 58//37 62//68 70//68 66//37
f 61//20 60//39 68//39 69//20
f 60//39 59//69 67//69 68//39
f 59//69 57//70 65//70 67//69
f 57//70 58//37 66//37 65//70
f 28//41 36//52 3//14 26//14
f 30//50 29//19 3//19 36//71 27//51
f 23//72 22//72 21//72 20//72 19//72 6//72 7//72 8//72
