# Blender v2.75 (sub 0) OBJ File: 'aj2_Left.blend'
# www.blender.org
o Cylinder_Cylinder.001
v 0.052044 0.067688 -0.048426
v 0.050595 0.131804 -0.049945
v 0.000005 0.070227 -0.071166
v 0.036834 0.099885 -0.033061
v 0.040895 0.037220 -0.027868
v 0.063539 0.036365 -0.036370
v 0.063536 -0.000005 -0.051435
v 0.063534 -0.036375 -0.036370
v 0.037916 0.060347 -0.060122
v 0.052044 0.067688 0.048426
v 0.050595 0.131804 0.049945
v 0.071011 0.078203 0.000000
v 0.071018 0.131797 0.000000
v -0.000128 0.070227 0.071166
v 0.036834 0.099885 0.033061
v 0.051292 0.099883 0.000000
v 0.047026 0.051432 0.000000
v 0.040895 0.037220 0.027868
v 0.063540 0.051430 0.000000
v 0.063539 0.036365 0.036370
v 0.063536 -0.000005 0.051435
v 0.063534 -0.036375 0.036370
v 0.063533 -0.051440 0.000000
v 0.037916 0.060347 0.060122
v -0.000003 -0.036370 -0.036370
v 0.000009 0.131813 -0.071099
v -0.052034 0.067695 -0.048426
v -0.050577 0.131811 -0.049945
v 0.000007 0.099891 -0.051283
v -0.036820 0.099891 -0.033061
v -0.040889 0.037226 -0.027868
v 0.000000 -0.000000 -0.051435
v -0.063534 0.036374 -0.036370
v -0.063536 0.000004 -0.051435
v -0.063539 -0.036366 -0.036370
v -0.037907 0.060352 -0.060122
v -0.000003 -0.036370 0.036370
v 0.000009 0.131813 0.071099
v -0.052034 0.067695 0.048426
v -0.050577 0.131811 0.049945
v -0.070999 0.078213 -0.000000
v -0.070999 0.131807 -0.000000
v 0.000138 0.070227 0.071166
v 0.000007 0.099891 0.051283
v -0.036820 0.099891 0.033061
v -0.051277 0.099891 -0.000000
v -0.047018 0.051439 -0.000000
v -0.040889 0.037226 0.027868
v -0.000000 -0.000000 0.051435
v -0.063533 0.051439 -0.000000
v -0.063534 0.036374 0.036370
v -0.063536 0.000004 0.051435
v -0.063539 -0.036366 0.036370
v -0.063540 -0.051431 -0.000000
v -0.000004 -0.051435 0.000000
v -0.037907 0.060352 0.060122
v -0.063534 0.030918 -0.030914
v -0.063533 0.043723 -0.000000
v -0.063536 0.000004 -0.043719
v -0.063539 -0.030910 -0.030914
v -0.063540 -0.043715 -0.000000
v -0.063534 0.030918 0.030914
v -0.063536 0.000004 0.043719
v -0.063539 -0.030910 0.030914
v -0.105006 0.030921 -0.030914
v -0.105005 0.043726 -0.000000
v -0.105009 0.000007 -0.043719
v -0.105011 -0.030907 -0.030914
v -0.105012 -0.043712 -0.000000
v -0.105006 0.030921 0.030914
v -0.105009 0.000007 0.043719
v -0.105011 -0.030907 0.030914
vn 0.000000 0.707100 0.707100
vn 0.000100 0.707100 0.707100
vn 0.044800 -0.064300 0.996900
vn 0.000000 0.088300 0.996100
vn -0.784400 -0.000600 0.620300
vn -1.000000 -0.007100 -0.000000
vn -0.710300 -0.021500 0.703600
vn 0.000000 0.017400 0.999800
vn -0.692100 0.016800 0.721600
vn -0.750900 0.017000 0.660200
vn -0.999800 0.017400 -0.000000
vn 0.075300 -0.997200 0.000000
vn 0.078800 -0.719300 0.690300
vn 0.079200 -0.701300 0.708500
vn -0.000000 -0.041900 0.999100
vn -0.465400 -0.022900 0.884800
vn 0.569300 0.573400 -0.589200
vn 0.525700 0.566400 -0.634700
vn 0.367300 0.527200 -0.766300
vn 0.000000 0.566800 -0.823900
vn 0.000100 1.000000 0.000000
vn 0.783000 0.622100 0.000000
vn 0.000000 0.707100 -0.707100
vn 0.000000 0.088300 -0.996100
vn 0.044800 -0.064300 -0.996900
vn 0.000100 0.707100 -0.707100
vn -0.784400 -0.000600 -0.620300
vn -0.710200 -0.021400 -0.703700
vn 0.000000 0.017400 -0.999800
vn -0.750900 0.017000 -0.660200
vn -0.692100 0.016800 -0.721600
vn 0.079200 -0.701300 -0.708500
vn 0.078800 -0.719300 -0.690300
vn -0.465100 -0.022800 -0.885000
vn -0.345000 -0.039000 -0.937800
vn 0.569100 0.573300 0.589500
vn 0.366900 0.526800 0.766700
vn 0.525500 0.566200 0.635000
vn -0.000100 -1.000000 -0.000000
vn -0.044800 -0.064300 0.996900
vn 0.784400 -0.000700 0.620300
vn 0.710300 -0.021600 0.703600
vn 1.000000 -0.007200 0.000000
vn 0.750900 0.016900 0.660200
vn 0.692100 0.016700 0.721600
vn 0.999900 0.017300 0.000000
vn -0.075400 -0.997200 -0.000000
vn -0.079300 -0.701300 0.708500
vn -0.078900 -0.719200 0.690300
vn -0.782900 0.622200 -0.000000
vn -0.569200 0.573400 -0.589200
vn -0.525600 0.566400 -0.634700
vn 0.465400 -0.023000 0.884800
vn -0.044800 -0.064300 -0.996900
vn 0.784400 -0.000700 -0.620300
vn 0.710200 -0.021500 -0.703700
vn 0.692100 0.016700 -0.721600
vn 0.750900 0.016900 -0.660200
vn -0.078900 -0.719200 -0.690300
vn -0.079300 -0.701300 -0.708500
vn 0.345000 -0.039000 -0.937800
vn 0.465100 -0.022800 -0.885000
vn -0.569000 0.573300 0.589500
vn -0.525400 0.566300 0.635000
vn -0.366800 0.526900 0.766700
vn 1.000000 -0.000100 0.000000
vn 0.000000 0.000000 -1.000000
vn -0.000100 -0.707100 -0.707100
vn -0.000000 0.000000 1.000000
vn -0.000100 -0.707100 0.707100
vn -0.367200 0.527200 -0.766300
vn -1.000000 0.000100 -0.000000
s 1
f 25//1 8//2 7//3 32//4
f 1//5 12//6 13//6 2//7
f 29//8 32//8 5//9 4//10
f 4//10 5//9 17//11 16//11
f 17//12 5//13 6//14 19//12
f 5//13 32//4 7//3 6//14
f 2//7 26//15 3//15 9//16
f 4//17 1//18 9//19 3//20 29//20
f 55//21 23//21 8//2 25//1
f 16//22 12//22 1//18 4//17
f 1//5 2//7 9//16
f 37//23 49//24 21//25 22//26
f 10//27 11//28 13//6 12//6
f 44//29 15//30 18//31 49//29
f 15//30 16//11 17//11 18//31
f 17//12 19//12 20//32 18//33
f 18//33 20//32 21//25 49//24
f 11//28 24//34 14//35 38//35
f 15//36 44//37 14//37 24//37 10//38
f 55//21 37//23 22//26 23//21
f 16//22 15//36 10//38 12//22
f 42//39 28//39 26//39 2//39 13//39 11//39 38//39 40//39
f 10//27 24//34 11//28
f 25//1 32//4 34//40 35//1
f 27//41 28//42 42//43 41//43
f 29//8 30//44 31//45 32//8
f 30//44 46//46 47//46 31//45
f 47//47 50//47 33//48 31//49
f 31//49 33//48 34//40 32//4
f 55//21 25//1 35//1 54//21
f 46//50 30//51 27//52 41//50
f 27//41 36//53 28//42
f 37//23 53//23 52//54 49//24
f 39//55 41//43 42//43 40//56
f 44//29 49//29 48//57 45//58
f 45//58 48//57 47//46 46//46
f 47//47 48//59 51//60 50//47
f 48//59 49//24 52//54 51//60
f 40//56 38//61 43//61 56//62
f 45//63 39//64 56//65 43//65 44//65
f 55//21 54//21 53//23 37//23
f 46//50 41//50 39//64 45//63
f 39//55 40//56 56//62
f 64//26 61//21 69//21 72//26
f 58//66 57//66 33//66 50//66
f 57//66 59//66 34//66 33//66
f 59//66 60//66 35//66 34//66
f 60//66 61//66 54//66 35//66
f 62//66 58//66 50//66 51//66
f 63//66 62//66 51//66 52//66
f 64//66 63//66 52//66 53//66
f 61//66 64//66 53//66 54//66
f 66//66 70//66 71//66 72//66 69//66 68//66 67//66 65//66
f 63//67 64//26 72//26 71//67
f 62//68 63//67 71//67 70//68
f 58//39 62//68 70//68 66//39
f 61//21 60//2 68//2 69//21
f 60//2 59//69 67//69 68//2
f 59//69 57//70 65//70 67//69
f 57//70 58//39 66//39 65//70
f 28//42 36//53 3//15 26//15
f 30//51 29//20 3//20 36//71 27//52
f 23//72 22//72 21//72 20//72 19//72 6//72 7//72 8//72
