# Blender v2.75 (sub 0) OBJ File: 'aj4_Right.blend'
# www.blender.org
o Circle
v -0.024975 -0.062290 0.048013
v -0.065817 -0.058855 0.067163
v -0.091200 -0.062292 0.038725
v -0.101446 -0.062292 0.000489
v -0.091200 -0.062292 -0.037746
v -0.048737 -0.062290 -0.039009
v -0.002960 -0.062290 -0.039009
v 0.016182 -0.062290 -0.023273
v 0.022549 -0.062290 0.000489
v 0.016182 -0.062290 0.024251
v -0.001213 -0.062290 0.041646
v -0.024975 -0.057288 -0.035358
v -0.007051 -0.057288 -0.030556
v 0.006070 -0.057288 -0.017435
v 0.010873 -0.057288 0.000489
v 0.006070 -0.057288 0.018413
v -0.007051 -0.057288 0.031534
v -0.049394 -0.012223 0.027590
v -0.042899 -0.034158 -0.029586
v -0.024975 -0.042368 -0.035358
v -0.007051 -0.049128 -0.030556
v 0.006070 -0.048362 -0.017435
v 0.010873 -0.047473 0.000489
v 0.006070 -0.048362 0.018413
v -0.096472 -0.104566 -0.040790
v -0.066234 -0.085882 -0.065667
v -0.096472 -0.050935 -0.040790
v -0.069545 -0.050935 -0.066106
v -0.029050 -0.041248 -0.066173
v -0.065036 -0.028574 -0.022640
v -0.041708 -0.028332 -0.042478
v -0.065036 -0.012046 -0.022640
v -0.048104 -0.012046 -0.039572
v -0.049394 -0.012222 -0.026611
v -0.091200 -0.101041 -0.037746
v -0.066202 -0.085694 -0.063664
v -0.065817 -0.058855 -0.066185
v -0.056016 -0.012046 -0.017433
v -0.029050 -0.050019 -0.065924
v -0.040154 -0.029726 -0.037103
v -0.029050 -0.041248 -0.052903
v -0.057619 -0.000135 -0.003470
v -0.107533 -0.107639 0.000489
v -0.096472 -0.104566 0.041768
v -0.066234 -0.085882 0.066645
v -0.107533 -0.050935 0.000489
v -0.096472 -0.050936 0.041768
v -0.069545 -0.050936 0.067084
v -0.029050 -0.041248 0.067151
v -0.071234 -0.028574 0.000489
v -0.065036 -0.028574 0.023619
v -0.041708 -0.028332 0.043457
v -0.071234 -0.012046 0.000489
v -0.065036 -0.012046 0.023619
v -0.044714 -0.012046 0.040551
v -0.101446 -0.107639 0.000489
v -0.091200 -0.101041 0.038725
v -0.066202 -0.085694 0.064642
v -0.029150 -0.049913 0.053881
v -0.060819 -0.012046 0.000489
v -0.057550 -0.012046 0.012874
v -0.029050 -0.050019 0.066902
v -0.029050 -0.041248 0.053881
v -0.057716 -0.000209 0.003560
v -0.024975 -0.042368 0.000258
v -0.007051 -0.049128 0.000108
v 0.006070 -0.048362 0.000581
v -0.047350 -0.000123 0.003257
v -0.048433 -0.000249 -0.003063
v -0.043969 -0.018177 -0.017098
v -0.056245 -0.016773 -0.016165
v -0.040106 -0.026542 -0.023182
v -0.049744 -0.028396 -0.024804
v 0.009762 -0.045397 0.003012
v 0.000426 0.035239 0.070792
v -0.017255 0.030501 0.070792
v -0.030198 0.017558 0.070792
v -0.034936 -0.000123 0.070792
v -0.030198 -0.017804 0.070792
v -0.017255 -0.030747 0.070792
v 0.000426 -0.035485 0.070792
v 0.018107 -0.030747 0.070792
v 0.031050 -0.017804 0.070792
v 0.035788 -0.000123 0.070792
v 0.031050 0.017558 0.070792
v 0.018107 0.030501 0.070792
v 0.000426 0.039960 0.061073
v -0.019616 0.034590 0.061073
v -0.034287 0.019919 0.061073
v -0.039657 -0.000123 0.061073
v -0.034287 -0.020164 0.061073
v -0.019616 -0.034836 0.061073
v 0.000426 -0.040206 0.061073
v 0.020467 -0.034836 0.061073
v 0.035139 -0.020164 0.061073
v 0.040509 -0.000123 0.061073
v 0.035139 0.019919 0.061073
v 0.020467 0.034590 0.061073
v 0.000426 0.047653 0.061009
v -0.023462 0.041252 0.061009
v -0.040949 0.023765 0.061009
v -0.047350 -0.000123 0.061009
v -0.040949 -0.024011 0.061009
v -0.023462 -0.041498 0.061009
v 0.000426 -0.047899 0.061009
v 0.024314 -0.041498 0.061009
v 0.041801 -0.024011 0.061009
v 0.048202 -0.000123 0.061009
v 0.041801 0.023765 0.061009
v 0.024314 0.041252 0.061009
v 0.000426 0.047653 0.003012
v -0.023462 0.041252 0.003012
v -0.040949 0.023765 0.003012
v 0.024314 -0.041498 0.003012
v 0.041801 -0.024011 0.003012
v 0.048202 -0.000123 0.003012
v 0.041801 0.023765 0.003012
v 0.024314 0.041252 0.003012
v -0.041708 -0.028332 0.043457
v -0.023462 -0.041498 0.035932
v 0.000426 -0.047899 0.024057
v -0.007051 -0.045895 0.031534
v 0.005566 -0.046521 0.018917
v -0.029480 -0.050192 -0.052642
vn 0.341000 0.919200 0.196900
vn 0.212100 0.919100 0.332100
vn 0.196900 0.919200 0.341000
vn 0.393800 0.919200 0.000000
vn 0.348500 0.912100 -0.216100
vn 0.346800 0.911800 -0.220000
vn 0.188200 0.839900 -0.509000
vn 0.183500 0.836800 -0.515900
vn 1.000000 -0.000000 -0.000000
vn 0.998000 0.036600 0.051400
vn 0.877100 0.057400 0.476800
vn 0.866000 -0.000000 0.500000
vn 0.866000 0.000000 -0.500000
vn 0.869800 0.000000 -0.493400
vn 0.500000 0.000000 -0.866000
vn 0.479600 0.000000 -0.877500
vn 0.105800 0.117600 -0.987400
vn 0.075100 0.197900 -0.977300
vn -0.876500 -0.012000 -0.481300
vn -0.847500 -0.014800 -0.530600
vn -0.654300 -0.028200 -0.755700
vn -1.000000 -0.000000 -0.000000
vn -0.445900 0.853400 -0.269900
vn -0.443500 0.853400 -0.273700
vn -0.288100 0.835600 -0.467800
vn -0.312500 0.839400 -0.444800
vn -0.524500 0.851400 0.000000
vn -0.854500 -0.034200 -0.518400
vn -0.854100 -0.034300 -0.519000
vn -0.672700 -0.065900 -0.737000
vn 0.304800 -0.952400 -0.000000
vn 0.414600 -0.910000 -0.003100
vn 0.439700 -0.898100 0.004300
vn 0.549000 -0.835000 0.037500
vn 0.089200 -0.012300 -0.995900
vn 0.004700 -0.009100 -0.999900
vn 0.257700 -0.018400 -0.966100
vn 0.416200 -0.023800 -0.909000
vn 0.896700 0.009100 0.442500
vn 0.670300 -0.648800 0.360100
vn 0.756700 -0.653700 0.007500
vn 0.005900 1.000000 0.002100
vn 0.006200 1.000000 0.002200
vn 0.000000 1.000000 0.000000
vn 0.012400 0.999900 0.004400
vn -0.195500 0.813400 -0.547800
vn 0.729400 0.022000 -0.683700
vn 0.896700 0.009100 -0.442500
vn 0.668200 -0.645000 -0.370600
vn 0.463500 -0.849300 -0.252700
vn 0.604900 0.153800 0.781300
vn 0.596400 0.164900 0.785600
vn 0.717100 0.216900 0.662400
vn 0.765800 0.196300 0.612400
vn 0.910600 0.412600 0.022200
vn 0.842800 0.538200 0.010600
vn 0.813800 0.581100 0.006400
vn 0.024100 0.614100 -0.788900
vn 0.017100 0.603700 -0.797000
vn 0.020000 0.608000 -0.793600
vn 0.711400 0.702700 -0.006800
vn -0.980700 0.195600 -0.003500
vn -0.950400 0.184000 0.250900
vn -0.980700 0.195600 -0.006500
vn -0.876500 -0.012000 0.481300
vn -0.654300 -0.028200 0.755700
vn -0.847500 -0.014800 0.530600
vn -0.445900 0.853400 0.269900
vn -0.312500 0.839400 0.444800
vn 0.046200 0.849700 0.525200
vn -0.443500 0.853400 0.273700
vn -0.844300 0.004600 0.535800
vn -0.644300 0.008700 0.764800
vn -0.843900 0.004600 0.536500
vn 0.439700 -0.898100 -0.004300
vn 0.414600 -0.910000 0.003100
vn 0.549000 -0.835000 -0.037500
vn 0.766500 -0.210900 0.606700
vn 0.807700 0.037300 0.588400
vn 0.213300 -0.975600 0.052900
vn 0.835200 -0.481500 0.265600
vn 0.089200 -0.012300 0.995900
vn 0.416200 -0.023800 0.909000
vn 0.257700 -0.018400 0.966100
vn 0.004200 1.000000 -0.001900
vn 0.008400 1.000000 -0.003900
vn 0.134600 0.898500 0.417900
vn 0.004700 -0.009100 0.999900
vn 0.984700 0.041300 0.169200
vn 1.000000 -0.005700 -0.003800
vn 0.975800 0.053000 0.212300
vn 0.117300 -0.953200 0.278800
vn 0.390300 -0.682300 0.618100
vn 0.012800 0.999900 -0.005900
vn 0.619700 0.780200 -0.085600
vn 0.148700 0.988900 -0.000000
vn 0.233000 0.972500 -0.000000
vn 0.587300 0.805900 -0.074600
vn 0.815400 0.556500 -0.159400
vn -0.957600 0.213000 -0.194000
vn 0.923500 0.073200 0.376600
vn -0.120800 0.992700 -0.000000
vn -0.070900 0.997500 -0.000000
vn -0.398500 0.757700 0.516800
vn -0.666400 0.674000 0.318700
vn -0.444300 0.750400 0.489400
vn 0.001500 1.000000 -0.004000
vn -0.182100 0.983300 0.000000
vn 0.894900 0.039000 0.444600
vn 0.837400 0.194000 0.511000
vn 0.811400 0.092000 0.577300
vn 0.798400 0.125700 0.588900
vn 0.023200 0.620100 -0.784200
vn 0.019800 0.612600 -0.790200
vn 0.011200 0.518600 -0.854900
vn -0.000000 0.000000 1.000000
vn 0.004200 0.007200 1.000000
vn 0.000000 0.008300 1.000000
vn 0.449700 0.779000 0.437000
vn -0.000000 0.899500 0.437000
vn 0.779000 0.449700 0.437000
vn 0.899500 -0.000000 0.437000
vn 0.779000 -0.449700 0.437000
vn 0.449700 -0.779000 0.437000
vn -0.000000 -0.899500 0.437000
vn -0.449700 -0.779000 0.437000
vn -0.779000 -0.449700 0.437000
vn -0.899500 -0.000000 0.437000
vn -0.779000 0.449700 0.437000
vn -0.449700 0.779000 0.437000
vn 0.500000 0.866000 0.000000
vn 0.007200 0.004200 1.000000
vn 0.008300 -0.000000 1.000000
vn 0.007200 -0.004200 1.000000
vn 0.004200 -0.007200 1.000000
vn 0.000000 -0.008300 1.000000
vn -0.004200 -0.007200 1.000000
vn -0.007200 -0.004200 1.000000
vn -0.008300 -0.000000 1.000000
vn -0.007200 0.004200 1.000000
vn -0.004200 0.007200 1.000000
vn 0.866000 0.500000 0.000000
vn 0.866000 -0.500000 0.000000
vn 0.500000 -0.866000 0.000000
vn -0.729100 0.635300 0.254600
vn -0.500000 0.866000 0.000000
vn -0.865600 0.500700 0.000000
vn -0.866000 0.500000 0.000000
vn 0.840300 0.083400 0.535600
vn 0.707100 -0.000000 0.707100
vn 0.683600 0.726500 0.070000
vn -0.999700 0.019700 0.013200
vn -0.983300 0.181800 0.004300
vn -0.975000 -0.220500 0.025600
vn -0.826600 -0.559100 0.064900
vn -0.871000 -0.488000 0.056700
vn -0.027100 0.186200 -0.982100
vn 0.009300 0.017500 -0.999800
vn -0.041700 0.253200 -0.966500
vn 0.104900 0.914100 0.391600
vn -0.148100 0.730700 -0.666500
vn -0.000000 -1.000000 0.000000
vn 0.129900 -0.991500 0.000000
vn 0.258800 -0.965900 0.000000
vn 0.946500 0.187100 0.262900
vn 0.233600 -0.972300 -0.009800
vn -0.422600 -0.905600 0.037000
vn -0.459400 -0.887100 0.045600
vn -0.258800 -0.965900 0.000000
vn 0.623900 0.759600 0.183600
vn -0.001600 -0.999900 0.011500
vn -0.032900 0.218000 -0.975400
vn 0.051600 0.727000 -0.684700
vn 0.481100 -0.853300 0.201000
vn 0.827700 -0.555500 -0.078800
vn 0.999600 -0.023800 0.016000
vn 0.729400 0.022000 0.683700
s 1
f 10//1 16//1 17//2 11//3
f 9//4 15//4 16//1 10//1
f 8//5 14//6 15//4 9//4
f 7//7 13//8 14//6 8//5
f 15//9 23//10 24//11 16//12
f 14//13 22//14 23//10 15//9
f 13//15 21//16 22//14 14//13
f 12//17 20//18 21//16 13//15
f 25//19 27//20 28//21 26//21
f 43//22 46//22 27//20 25//19
f 27//23 30//24 31//25 28//26
f 46//27 50//27 30//24 27//23
f 30//28 32//29 33//30 31//30
f 50//22 53//22 32//29 30//28
f 56//31 43//31 25//32 35//33
f 35//33 25//32 26//34 36//34
f 28//35 29//36 39//36 37//37
f 28//35 37//37 36//38 26//38
f 35//39 5//40 4//41 56//9
f 38//42 32//43 53//44 60//44
f 34//45 33//45 32//43 38//42
f 28//26 31//25 29//46
f 58//47 57//48 3//49 2//50
f 17//51 122//52 120//53 1//54
f 34//55 40//56 31//57 33//55
f 42//58 69//58 70//59 71//60
f 41//61 29//61 31//57 40//56
f 60//62 61//63 64//64
f 44//65 45//66 48//66 47//67
f 43//22 44//65 47//67 46//22
f 47//68 48//69 52//70 51//71
f 46//27 47//68 51//71 50//27
f 51//72 52//70 55//73 54//74
f 50//22 51//72 54//74 53//22
f 56//31 57//75 44//76 43//31
f 57//75 58//77 45//77 44//76
f 41//78 19//79 6//80 124//81
f 48//82 45//83 58//83 2//84
f 61//85 60//44 53//44 54//86
f 48//69 49//87 52//70
f 57//48 56//9 4//41 3//49
f 48//82 2//84 62//88 49//88
f 63//89 49//90 62//90 59//91
f 120//53 63//89 59//91 1//54
f 1//92 59//93 2//50
f 18//94 61//85 54//86 55//94
f 65//95 66//96 21//97 20//98
f 68//99 65//95 20//98 72//99 70//99 69//99
f 60//62 64//64 42//100 38//101
f 21//97 66//96 67//102 22//103
f 61//104 18//105 68//106 64//104
f 64//107 68//107 69//107 42//107
f 22//103 67//102 23//108
f 38//101 42//100 71//109
f 19//79 41//78 40//110
f 34//111 38//101 71//109 73//112
f 71//60 70//59 72//113 73//114
f 73//114 72//113 20//18 19//115
f 34//111 73//112 19//79 40//110
f 76//116 77//116 78//116 79//116 80//116 81//116 82//116 83//116 84//116 85//116 86//116 75//116
f 98//117 110//117 99//118 87//118
f 86//119 98//119 87//120 75//120
f 85//121 97//121 98//119 86//119
f 84//122 96//122 97//121 85//121
f 83//123 95//123 96//122 84//122
f 82//124 94//124 95//123 83//123
f 81//125 93//125 94//124 82//124
f 80//126 92//126 93//125 81//125
f 79//127 91//127 92//126 80//126
f 78//128 90//128 91//127 79//127
f 77//129 89//129 90//128 78//128
f 76//130 88//130 89//129 77//129
f 75//120 87//120 88//130 76//130
f 110//131 118//131 111//44 99//44
f 97//132 109//132 110//117 98//117
f 96//133 108//133 109//132 97//132
f 95//134 107//134 108//133 96//133
f 94//135 106//135 107//134 95//134
f 93//136 105//136 106//135 94//135
f 92//137 104//137 105//136 93//136
f 91//138 103//138 104//137 92//137
f 90//139 102//139 103//138 91//138
f 89//140 101//140 102//139 90//139
f 88//141 100//141 101//140 89//140
f 87//118 99//118 100//141 88//141
f 109//142 117//142 118//131 110//131
f 108//9 116//9 117//142 109//142
f 107//143 115//143 116//9 108//9
f 106//144 114//144 115//143 107//143
f 18//105 55//145 68//106
f 100//146 112//146 113//147 101//148
f 99//44 111//44 112//146 100//146
f 16//12 24//11 123//149 121//150 122//52 17//51
f 63//151 52//70 49//87
f 102//152 68//153 55//154 119//155 103//156
f 67//157 66//158 65//158 68//158 113//158 112//158 111//158 118//158 117//158 116//158 115//158 114//158 74//159
f 101//148 113//147 68//153 102//152
f 11//3 17//2 1//160
f 67//157 74//159 23//161
f 105//162 121//163 123//164 74//164 114//144 106//144
f 74//165 123//149 24//11 23//10
f 59//93 62//166 2//50
f 103//156 119//155 120//167 104//168
f 104//168 120//167 122//169 121//163 105//162
f 55//73 52//70 63//151 120//170 119//170
f 2//50 3//49 4//41 5//40 6//80 7//171 8//171 9//171 10//171 11//171 1//92
f 6//172 19//115 20//18 12//17
f 6//173 12//173 13//8 7//7
f 6//80 37//174 39//175
f 29//176 41//176 124//81 39//175
f 36//177 37//174 5//40 35//39
f 6//80 5//40 37//174
f 6//80 39//175 124//81
