# Blender v2.75 (sub 0) OBJ File: 'aj5_Left.blend'
# www.blender.org
o Cylinder.001
v 0.002863 0.261595 0.028892
v 0.002863 0.269793 0.028892
v -0.002863 0.261595 0.028892
v -0.002863 0.269793 0.028892
v -0.014481 0.269793 0.005998
v -0.014481 0.218490 0.005998
v -0.005998 0.269793 0.014481
v -0.005998 0.218490 0.014481
v 0.005998 0.269793 0.014481
v 0.005998 0.218490 0.014481
v 0.014481 0.269793 0.005998
v 0.014481 0.218490 0.005998
v -0.006911 0.269793 0.024843
v -0.006911 0.261595 0.024843
v -0.033840 0.237130 0.034202
v -0.047746 0.056665 0.017378
v -0.023302 0.258862 0.039019
v -0.025405 0.056665 0.044003
v 0.021076 0.261430 0.036480
v 0.025405 0.056665 0.044003
v 0.047746 0.056665 0.017378
v -0.064702 0.070470 0.023113
v -0.049142 0.070470 0.046649
v 0.025405 0.076622 0.044003
v 0.047746 0.084057 0.017378
v -0.064528 0.140212 0.023761
v -0.049495 0.144109 0.047738
v -0.043237 0.147299 0.046127
v 0.045181 0.146764 0.044100
v 0.061686 0.142183 0.014499
v 0.049527 0.070472 0.047721
v 0.064779 0.070472 0.022445
v 0.064457 0.137009 0.023540
v 0.025036 0.153637 0.059510
v -0.023752 0.070471 0.064770
v 0.023770 0.070472 0.064770
v -0.024001 0.197774 0.064770
v 0.024001 0.197774 0.064770
v 0.045368 0.204989 0.031281
v 0.032829 0.266937 0.016814
v 0.034737 0.267888 0.008530
v -0.055657 0.191919 0.012194
v 0.053018 0.204988 0.011243
v -0.022737 0.151015 0.064770
v 0.022323 0.145953 0.064958
v -0.047911 0.077896 0.018099
v -0.025405 0.078437 0.044003
v -0.028065 0.202810 0.051149
v -0.061047 0.142353 0.016921
v -0.045736 0.233897 0.009947
v -0.026008 0.152731 0.057893
v -0.046398 0.191919 0.034555
v 0.028078 0.202811 0.051149
v 0.025345 0.263604 0.031535
v 0.049644 0.139573 0.047546
v -0.014874 0.262519 0.035351
v 0.019290 0.262538 0.035295
v -0.018913 0.246563 0.064770
v 0.016973 0.244383 0.064770
v -0.013207 0.260334 0.038377
v -0.016269 0.257031 0.044098
v 0.016280 0.257032 0.044098
v 0.013218 0.260335 0.038377
v -0.013169 0.251366 0.053910
v -0.006934 0.249496 0.057150
v 0.006946 0.249496 0.057150
v 0.014309 0.252762 0.051493
v 0.014481 0.261595 0.005998
v 0.005998 0.261595 0.014481
v -0.005998 0.261595 0.014481
v -0.014481 0.261595 0.005998
v 0.006911 0.269793 0.024843
v 0.006911 0.261595 0.024843
v 0.002863 0.261595 -0.028892
v 0.002863 0.269793 -0.028892
v -0.002863 0.261595 -0.028892
v -0.002863 0.269793 -0.028892
v -0.014481 0.269793 -0.005998
v -0.014481 0.218490 -0.005998
v -0.005998 0.269793 -0.014481
v -0.005998 0.218490 -0.014481
v 0.005998 0.269793 -0.014481
v 0.005998 0.218490 -0.014481
v 0.014481 0.269793 -0.005998
v 0.014481 0.218490 -0.005998
v -0.006911 0.269793 -0.024843
v -0.006911 0.261595 -0.024843
v 0.014481 0.261595 -0.000000
v -0.014481 0.261595 0.000000
v -0.064736 0.070468 0.000000
v 0.047746 0.056665 -0.000000
v -0.033840 0.237130 -0.034202
v -0.047746 0.056665 -0.017378
v -0.023302 0.258862 -0.039019
v -0.064649 0.141676 0.000000
v -0.025405 0.056665 -0.044003
v 0.021076 0.261430 -0.036480
v 0.025405 0.056665 -0.044003
v 0.047746 0.056665 -0.017378
v -0.064702 0.070470 -0.023113
v -0.049142 0.070470 -0.046649
v 0.025405 0.076622 -0.044003
v 0.047746 0.084057 -0.017378
v -0.064528 0.140212 -0.023761
v -0.049495 0.144109 -0.047738
v -0.043237 0.147299 -0.046127
v 0.045181 0.146764 -0.044100
v 0.061686 0.142183 -0.014499
v 0.049527 0.070472 -0.047721
v 0.064779 0.070472 -0.022445
v 0.064457 0.137009 -0.023540
v 0.025036 0.153637 -0.059510
v -0.023752 0.070471 -0.064770
v 0.023770 0.070472 -0.064770
v -0.024001 0.197774 -0.064770
v 0.024001 0.197774 -0.064770
v 0.045368 0.204989 -0.031281
v 0.032829 0.266937 -0.016814
v 0.034737 0.267888 -0.008530
v -0.055657 0.191919 -0.012194
v 0.053018 0.204988 -0.011243
v -0.022737 0.151015 -0.064770
v 0.022323 0.145953 -0.064958
v -0.047911 0.077896 -0.018099
v -0.025405 0.078437 -0.044003
v -0.028065 0.202810 -0.051149
v -0.061047 0.142353 -0.016921
v -0.045736 0.233897 -0.009947
v -0.026008 0.152731 -0.057893
v -0.046398 0.191919 -0.034555
v -0.052502 0.211581 0.000000
v 0.028078 0.202811 -0.051149
v 0.025345 0.263604 -0.031535
v 0.049644 0.139573 -0.047546
v -0.014874 0.262519 -0.035351
v 0.019290 0.262538 -0.035295
v -0.018913 0.246563 -0.064770
v 0.016973 0.244383 -0.064770
v -0.013207 0.260334 -0.038377
v -0.016269 0.257031 -0.044098
v 0.016280 0.257032 -0.044098
v 0.013218 0.260335 -0.038377
v -0.013169 0.251366 -0.053910
v -0.006934 0.249496 -0.057150
v 0.006946 0.249496 -0.057150
v 0.014309 0.252762 -0.051493
v -0.055660 0.191917 0.000000
v -0.061050 0.142351 0.000000
v -0.047911 0.077895 0.000000
v -0.047746 0.056665 0.000000
v 0.064657 0.070469 -0.000000
v 0.047746 0.084057 -0.000000
v 0.034734 0.267884 -0.000000
v 0.053015 0.204985 -0.000000
v 0.064614 0.136405 -0.000000
v 0.061682 0.142179 -0.000000
v 0.014481 0.261595 -0.005998
v -0.014481 0.218490 0.000000
v 0.014481 0.269793 -0.000000
v 0.005998 0.261595 -0.014481
v -0.014481 0.269793 0.000000
v -0.005998 0.261595 -0.014481
v 0.014481 0.218490 -0.000000
v -0.014481 0.261595 -0.005998
v 0.006911 0.269793 -0.024843
v 0.006911 0.261595 -0.024843
vn 0.023900 0.640400 -0.767600
vn 0.050000 0.067100 0.996500
vn -0.839800 0.527200 -0.129200
vn -0.401100 0.506200 -0.763400
vn -1.000000 0.000000 0.000000
vn -0.707100 0.000000 0.707100
vn -0.000000 -0.000000 1.000000
vn 0.707100 -0.000000 0.707100
vn -0.920800 0.381700 -0.080500
vn -0.873300 0.424600 -0.239000
vn -0.853100 0.418300 -0.311800
vn -0.925200 0.379400 0.000000
vn 0.000000 1.000000 0.000000
vn 0.497200 0.847400 0.186100
vn 0.493600 0.848500 0.190800
vn 0.625100 0.780500 -0.000000
vn -0.972200 -0.233900 0.000000
vn -0.905400 -0.321300 -0.277400
vn -0.841500 -0.534000 -0.082100
vn -0.888200 -0.459500 0.000000
vn 1.000000 0.007800 -0.000000
vn 0.935300 0.011600 -0.353800
vn 0.940400 0.011400 -0.340000
vn -0.404100 0.914700 -0.000000
vn -0.358900 0.926400 0.114300
vn -0.357100 0.926500 0.118400
vn -0.948400 -0.277400 -0.153400
vn -0.960300 -0.279100 0.000000
vn -0.978000 -0.208400 0.000000
vn -0.960900 -0.203500 -0.187700
vn 0.809300 -0.587400 0.000000
vn 0.843200 -0.481000 -0.240200
vn 0.959300 0.003000 -0.282400
vn 1.000000 -0.001800 -0.000000
vn 0.340300 -0.940300 -0.000000
vn 0.360700 -0.931100 -0.054500
vn -0.948300 0.000000 -0.317300
vn -0.939700 0.000000 -0.342000
vn -0.295100 0.917700 0.266000
vn -0.083100 0.936700 0.340100
vn -0.168900 0.933300 0.316900
vn 0.678500 -0.485100 -0.551500
vn 0.422500 -0.103800 -0.900400
vn 0.295200 0.002400 -0.955400
vn 0.714800 0.005700 -0.699300
vn 0.081800 0.946500 0.312300
vn 0.169200 0.929700 0.327300
vn -0.716800 -0.001400 -0.697300
vn -0.286500 -0.002000 -0.958100
vn -0.357300 -0.095900 -0.929100
vn -0.715900 -0.296700 -0.632000
vn 0.991100 -0.133400 0.000000
vn 0.961900 -0.161800 -0.220400
vn 0.966800 -0.106900 -0.232200
vn 0.994100 -0.108100 -0.000000
vn -0.021800 -0.868200 -0.495700
vn -0.031400 -0.857500 -0.513400
vn -0.047100 -0.862300 -0.504200
vn -0.834400 -0.195100 -0.515500
vn -0.861200 -0.267500 -0.432100
vn -0.968800 -0.131500 -0.210100
vn -0.808300 -0.121800 -0.576000
vn 0.001000 -0.001000 -1.000000
vn 0.421400 0.007600 -0.906900
vn 0.418700 0.007600 -0.908100
vn 0.000000 0.000000 -1.000000
vn 0.297300 0.889200 0.347900
vn -0.724100 -0.178500 -0.666200
vn -0.688800 -0.120300 -0.714900
vn -0.422600 -0.000000 -0.906300
vn -0.444300 -0.000000 -0.895900
vn -0.845700 -0.196900 -0.496000
vn -0.636500 -0.577600 -0.511200
vn -0.029300 -0.857200 -0.514000
vn -0.003000 -0.839200 -0.543800
vn -0.066100 -0.840600 -0.537600
vn -0.127000 -0.839800 -0.527800
vn 0.784100 -0.217500 -0.581300
vn 0.723000 -0.204300 -0.660000
vn 0.694500 -0.167200 -0.699800
vn 0.812300 -0.162900 -0.560000
vn -0.182500 -0.832300 -0.523400
vn -0.941300 -0.092200 -0.324800
vn -0.944300 -0.047600 -0.325600
vn -0.935400 -0.144000 -0.323100
vn 0.907800 -0.233200 -0.348500
vn 0.436100 -0.864900 -0.248600
vn 0.958500 -0.120000 -0.258600
vn 0.951400 -0.042300 -0.305100
vn 0.955400 -0.075900 -0.285300
vn -0.990600 -0.136700 0.000000
vn 0.761800 -0.527300 -0.376400
vn 0.779300 -0.106700 -0.617500
vn 0.650000 -0.109600 -0.752000
vn 0.975300 -0.220900 -0.000000
vn -0.765300 -0.258900 -0.589300
vn -0.963400 -0.000300 -0.268000
vn -1.000000 -0.002800 0.000000
vn -0.027500 -0.892200 -0.450700
vn -0.024600 -0.879700 -0.474900
vn 0.033000 -0.844600 -0.534300
vn 0.050600 -0.834600 -0.548500
vn 0.056400 -0.868200 -0.493000
vn 0.021000 -0.874000 -0.485500
vn -0.010500 -0.885700 -0.464200
vn -0.001300 0.427800 -0.903900
vn 1.000000 -0.000000 -0.000000
vn 0.234100 0.787300 -0.570400
vn 0.208400 0.766300 -0.607800
vn 0.374000 0.870900 -0.318800
vn 0.405700 -0.341400 0.847800
vn 0.041900 0.999100 0.000000
vn 0.000000 -1.000000 0.000000
vn -0.996100 0.000000 -0.087800
vn 0.996100 0.000000 -0.087800
vn 0.023900 0.640400 0.767600
vn -0.401100 0.506200 0.763400
vn -0.839800 0.527200 0.129200
vn 0.050000 0.067100 -0.996500
vn -0.707100 0.000000 -0.707100
vn 0.707100 -0.000000 -0.707100
vn -0.920800 0.381700 0.080500
vn -0.853100 0.418300 0.311800
vn -0.873300 0.424600 0.239000
vn 0.497200 0.847400 -0.186100
vn 0.493600 0.848500 -0.190800
vn -0.841500 -0.534000 0.082100
vn -0.905400 -0.321300 0.277400
vn 0.940400 0.011400 0.340000
vn 0.935300 0.011600 0.353800
vn -0.357100 0.926500 -0.118400
vn -0.358900 0.926400 -0.114300
vn -0.948400 -0.277400 0.153400
vn -0.960900 -0.203500 0.187700
vn 0.959300 0.003000 0.282400
vn 0.843200 -0.481000 0.240200
vn 0.360700 -0.931100 0.054500
vn -0.948300 0.000000 0.317300
vn -0.939700 0.000000 0.342000
vn -0.295100 0.917700 -0.266000
vn -0.168900 0.933300 -0.316900
vn -0.083100 0.936700 -0.340100
vn 0.678500 -0.485100 0.551500
vn 0.714800 0.005700 0.699300
vn 0.295200 0.002400 0.955400
vn 0.422500 -0.103800 0.900400
vn 0.169200 0.929700 -0.327300
vn 0.081800 0.946500 -0.312300
vn -0.716800 -0.001400 0.697300
vn -0.715900 -0.296700 0.632000
vn -0.357300 -0.095900 0.929100
vn -0.286500 -0.002000 0.958100
vn 0.966800 -0.106900 0.232200
vn 0.961900 -0.161800 0.220400
vn -0.021800 -0.868200 0.495700
vn -0.047100 -0.862300 0.504200
vn -0.031400 -0.857500 0.513400
vn -0.861200 -0.267500 0.432100
vn -0.834400 -0.195100 0.515500
vn -0.808300 -0.121800 0.576000
vn -0.968800 -0.131500 0.210100
vn 0.001000 -0.001000 1.000000
vn 0.418700 0.007600 0.908100
vn 0.421400 0.007600 0.906900
vn 0.297300 0.889200 -0.347900
vn -0.724100 -0.178500 0.666200
vn -0.688800 -0.120300 0.714900
vn -0.422600 -0.000000 0.906300
vn -0.444300 -0.000000 0.895900
vn -0.636500 -0.577600 0.511200
vn -0.845700 -0.196900 0.496000
vn -0.029300 -0.857200 0.514000
vn -0.127000 -0.839800 0.527800
vn -0.066100 -0.840600 0.537600
vn -0.003000 -0.839200 0.543800
vn 0.784100 -0.217500 0.581300
vn 0.694500 -0.167200 0.699800
vn 0.723000 -0.204300 0.660000
vn 0.812300 -0.162900 0.560000
vn -0.182500 -0.832300 0.523400
vn -0.941300 -0.092200 0.324800
vn -0.935400 -0.144000 0.323100
vn -0.944300 -0.047600 0.325600
vn 0.907800 -0.233200 0.348500
vn 0.436100 -0.864900 0.248600
vn 0.958500 -0.120000 0.258600
vn 0.955400 -0.075900 0.285300
vn 0.951400 -0.042300 0.305100
vn 0.761800 -0.527300 0.376400
vn 0.779300 -0.106700 0.617500
vn 0.650000 -0.109600 0.752000
vn -0.765300 -0.258900 0.589300
vn -0.963400 -0.000300 0.268000
vn -0.027500 -0.892200 0.450700
vn -0.024600 -0.879700 0.474900
vn 0.050600 -0.834600 0.548500
vn 0.033000 -0.844600 0.534300
vn 0.056400 -0.868200 0.493000
vn -0.010500 -0.885700 0.464200
vn 0.021000 -0.874000 0.485500
vn -0.001300 0.427800 0.903900
vn 0.234100 0.787300 0.570400
vn 0.374000 0.870900 0.318800
vn 0.208400 0.766300 0.607800
vn 0.405700 -0.341400 -0.847800
vn -0.996100 0.000000 0.087800
vn 0.996100 0.000000 0.087800
s 1
f 57//1 47//2 24//2 54//3 10//4
f 89//5 158//5 6//5 71//5
f 71//6 6//6 8//6 70//6
f 70//7 8//7 10//7 69//7
f 69//8 10//8 12//8 68//8
f 41//9 12//10 40//11
f 163//12 12//10 41//9 153//12
f 10//4 54//3 40//11 12//10
f 159//13 161//13 5//13 7//13 9//13 11//13
f 25//14 32//15 151//16 152//16
f 155//17 33//18 30//19 156//20
f 149//21 46//22 16//23 150//21
f 90//24 22//25 46//26 149//24
f 41//27 153//28 154//29 43//30
f 95//31 26//32 22//33 90//34
f 148//35 49//36 26//32 95//31
f 25//37 152//5 91//5 21//38
f 23//39 35//40 47//41
f 27//42 44//43 35//44 23//45
f 35//40 36//46 24//47 47//41
f 31//48 36//49 45//50 55//51
f 26//32 27//42 23//45 22//33
f 147//52 42//53 49//54 148//55
f 66//56 67//57 59//58
f 43//30 39//59 40//60 41//27
f 43//30 30//61 29//62 39//59
f 37//63 38//63 45//50 44//43
f 46//22 47//64 18//65 16//23
f 58//66 59//66 38//63 37//63
f 24//47 31//67 32//15 25//14
f 53//68 39//59 29//62 34//69
f 20//70 24//71 25//37 21//38
f 44//43 45//50 36//49 35//44
f 55//51 45//50 34//72 29//73
f 62//74 63//75 57//76 19//77
f 15//78 17//79 48//80
f 52//81 15//78 48//80
f 54//82 59//58 19//77
f 53//83 38//84 59//85 54//85
f 42//53 15//78 52//81
f 15//78 42//53 50//86
f 49//36 28//87 27//42 26//32
f 17//88 58//88 37//89 48//90
f 150//13 16//13 18//13 20//13 21//13 91//13
f 47//64 24//71 20//70 18//65
f 29//73 30//19 33//18 55//51
f 43//30 154//29 156//91 30//61
f 57//76 54//82 19//77
f 44//43 51//92 48//90 37//89
f 27//42 28//87 51//92 44//43
f 28//93 52//81 48//80 51//94
f 49//54 42//53 52//81 28//93
f 50//86 42//53 131//95
f 59//58 67//57 62//74 19//77
f 39//59 53//68 54//96 40//60
f 38//84 53//83 34//72 45//50
f 33//18 32//97 31//48 55//51
f 33//18 155//17 151//98 32//97
f 58//99 65//100 66//56 59//58
f 57//76 63//75 60//101 56//102
f 17//103 61//104 64//105 58//99
f 56//102 60//101 61//104 17//103
f 58//99 64//105 65//100
f 60//101 63//75 62//74 67//57 66//56 65//100 64//105 61//104
f 42//53 147//52 131//95
f 36//46 31//67 24//47
f 23//39 47//41 46//26 22//25
f 10//4 8//106 56//106 57//1
f 68//107 12//107 163//107 88//107
f 6//108 50//109 15//110 8//110
f 17//111 15//111 8//111 56//111
f 131//112 50//109 6//108 158//112
f 11//107 68//107 88//107 159//107
f 3//113 14//113 70//113 69//113 73//113 1//113
f 161//5 89//5 71//5 5//5
f 2//8 1//8 73//8 72//8
f 4//7 3//7 1//7 2//7
f 13//6 14//6 3//6 4//6
f 9//13 7//13 13//13 4//13 2//13 72//13
f 7//114 70//114 14//114 13//114
f 5//6 71//6 70//6 7//6
f 69//115 9//115 72//115 73//115
f 68//8 11//8 9//8 69//8
f 136//116 83//117 133//118 102//119 125//119
f 89//5 164//5 79//5 158//5
f 164//120 162//120 81//120 79//120
f 162//66 160//66 83//66 81//66
f 160//121 157//121 85//121 83//121
f 119//122 118//123 85//124
f 163//12 153//12 119//122 85//124
f 83//117 85//124 118//123 133//118
f 159//13 84//13 82//13 80//13 78//13 161//13
f 103//125 152//16 151//16 110//126
f 155//17 156//20 108//127 111//128
f 149//21 150//21 93//129 124//130
f 90//24 149//24 124//131 100//132
f 119//133 121//134 154//29 153//28
f 95//31 90//34 100//135 104//136
f 148//35 95//31 104//136 127//137
f 103//138 99//139 91//5 152//5
f 101//140 125//141 113//142
f 105//143 101//144 113//145 122//146
f 113//142 125//141 102//147 114//148
f 109//149 134//150 123//151 114//152
f 104//136 100//135 101//144 105//143
f 147//52 148//55 127//153 120//154
f 145//155 138//156 146//157
f 121//134 119//133 118//158 117//159
f 121//134 117//159 107//160 108//161
f 115//162 122//146 123//151 116//162
f 124//130 93//129 96//163 125//164
f 137//7 115//162 116//162 138//7
f 102//147 103//125 110//126 109//165
f 132//166 112//167 107//160 117//159
f 98//168 99//139 103//138 102//169
f 122//146 113//145 114//152 123//151
f 134//150 107//170 112//171 123//151
f 141//172 97//173 136//174 142//175
f 92//176 126//177 94//178
f 130//179 126//177 92//176
f 133//180 97//173 138//156
f 132//181 133//182 138//182 116//183
f 120//154 130//179 92//176
f 92//176 128//184 120//154
f 127//137 104//136 105//143 106//185
f 94//186 126//187 115//188 137//186
f 150//13 91//13 99//13 98//13 96//13 93//13
f 125//164 96//163 98//168 102//169
f 107//170 134//150 111//128 108//127
f 121//134 108//161 156//91 154//29
f 136//174 97//173 133//180
f 122//146 115//188 126//187 129//189
f 105//143 122//146 129//189 106//185
f 106//190 129//191 126//177 130//179
f 127//153 106//190 130//179 120//154
f 128//184 131//95 120//154
f 138//156 97//173 141//172 146//157
f 117//159 118//158 133//192 132//166
f 116//183 123//151 112//171 132//181
f 111//128 134//150 109//149 110//193
f 111//128 110//193 151//98 155//17
f 137//194 138//156 145//155 144//195
f 136//174 135//196 139//197 142//175
f 94//198 137//194 143//199 140//200
f 135//196 94//198 140//200 139//197
f 137//194 144//195 143//199
f 139//197 140//200 143//199 144//195 145//155 146//157 141//172 142//175
f 120//154 131//95 147//52
f 114//148 102//147 109//165
f 101//140 100//132 124//131 125//141
f 83//117 136//116 135//201 81//201
f 157//107 88//107 163//107 85//107
f 79//202 81//203 92//203 128//204
f 94//205 135//205 81//205 92//205
f 131//112 158//112 79//202 128//204
f 84//107 159//107 88//107 157//107
f 76//113 74//113 166//113 160//113 162//113 87//113
f 161//5 78//5 164//5 89//5
f 75//121 165//121 166//121 74//121
f 77//66 75//66 74//66 76//66
f 86//120 77//120 76//120 87//120
f 82//13 165//13 75//13 77//13 86//13 80//13
f 80//206 86//206 87//206 162//206
f 78//120 80//120 162//120 164//120
f 160//207 166//207 165//207 82//207
f 157//121 160//121 82//121 84//121
