# Blender v2.75 (sub 0) OBJ File: 'palm_Right.blend'
# www.blender.org
o Cube_Cube.001
v -0.012733 -0.044728 0.011779
v -0.036811 -0.012265 0.018033
v -0.025787 -0.107202 0.025687
v -0.012839 -0.111930 0.032359
v 0.018898 -0.019882 -0.021251
v -0.038352 -0.012640 -0.014632
v -0.026095 -0.096865 -0.054176
v -0.025718 -0.045039 -0.055372
v 0.018676 -0.014946 -0.012361
v -0.025718 -0.047124 -0.049388
v -0.019382 -0.098024 -0.061171
v -0.038418 -0.012346 0.010976
v -0.028219 -0.010721 0.021119
v -0.028565 -0.019472 -0.038748
v 0.017399 -0.014689 0.014830
v -0.031502 -0.083974 -0.053300
v -0.032357 -0.091410 0.027012
v 0.016088 -0.067969 -0.029348
v 0.017097 -0.076912 0.035314
v -0.038352 -0.060418 -0.020500
v 0.017004 -0.072395 -0.009500
v -0.038418 -0.063512 0.004692
v 0.017171 -0.079503 0.010702
v -0.029502 -0.012699 -0.019812
v -0.031193 -0.056517 -0.044634
v -0.022370 -0.107482 0.027857
v -0.029584 -0.014357 -0.012403
v -0.029584 -0.011521 0.012399
v -0.024883 -0.091338 0.028964
v -0.022272 -0.098378 -0.055122
v -0.024994 -0.088179 -0.055800
v -0.016637 -0.029244 0.039460
v 0.017710 -0.020710 -0.040690
v -0.030612 -0.006734 0.032180
v -0.007488 -0.077632 0.035568
v -0.019224 -0.109630 0.031382
v -0.019920 -0.102450 0.033748
v -0.011741 -0.099790 -0.061299
v -0.008264 -0.084020 -0.061806
v -0.022877 -0.086926 -0.059689
v 0.017553 -0.058950 -0.058607
v 0.019312 -0.042626 0.007484
v 0.016129 -0.053812 0.034741
v -0.014605 -0.053633 0.035563
v -0.016035 -0.012482 0.012399
v -0.005344 -0.072462 0.019682
v -0.003577 -0.072395 -0.009500
v -0.003038 -0.071040 -0.020844
v -0.027342 -0.027337 0.039354
v -0.027342 -0.028322 0.033720
v -0.032984 -0.028322 0.033720
v -0.024896 -0.044175 0.035026
v -0.025718 -0.054036 0.028965
v -0.033448 -0.054036 0.028965
v -0.000840 -0.056031 -0.052538
v -0.013812 -0.020763 -0.040783
v -0.020689 -0.100729 -0.055277
v -0.013186 -0.104442 -0.054925
v -0.020303 -0.111023 0.024951
v -0.013186 -0.114245 0.024888
v -0.017565 -0.012701 0.036147
vn 0.040000 0.997600 -0.056100
vn -0.014200 0.998700 -0.049700
vn -0.184000 0.936900 0.297300
vn 0.025200 0.976700 0.212900
vn 0.999600 -0.015100 0.023000
vn 0.999900 -0.014700 -0.002500
vn 0.998100 -0.015700 0.060100
vn -0.246300 -0.103500 0.963600
vn -0.227200 -0.091600 0.969500
vn -0.374300 -0.783400 0.496200
vn -0.389900 -0.659000 0.643100
vn -0.193100 0.927800 -0.319200
vn -0.653100 0.323000 -0.685000
vn -0.610900 0.248200 -0.751800
vn -0.223000 0.945800 -0.236000
vn 0.999200 -0.038000 -0.012400
vn 0.999100 -0.038600 -0.014600
vn 0.999300 -0.025600 -0.025600
vn 0.999400 -0.025000 -0.025700
vn 0.058700 0.989900 -0.128700
vn 0.076200 0.996400 -0.036400
vn 0.105600 0.992300 -0.065200
vn 0.040500 0.997500 -0.058200
vn 0.999500 -0.014200 -0.027100
vn -0.976400 -0.029000 0.213900
vn -0.854300 -0.414900 -0.313000
vn -0.923200 -0.136200 -0.359400
vn -0.933000 -0.119200 -0.339700
vn -0.840300 -0.296000 -0.454100
vn -0.133300 0.254600 0.957800
vn -0.123400 0.220700 0.967500
vn -0.992000 -0.057000 -0.112400
vn -0.991500 -0.054800 -0.117800
vn -0.995300 -0.095000 -0.019500
vn 0.001400 0.930500 0.366400
vn -0.877300 -0.081700 0.472900
vn -0.848700 -0.424700 0.315000
vn -0.821500 -0.376200 0.428500
vn -0.847000 -0.168300 0.504200
vn -0.940800 -0.336500 -0.041400
vn -0.923100 -0.381900 -0.045500
vn -0.942000 -0.333200 -0.041000
vn -0.090600 0.359200 -0.928900
vn -0.155800 0.361400 -0.919300
vn -0.054000 0.331200 -0.942000
vn 0.064100 0.419700 -0.905400
vn -0.959300 0.071500 -0.273000
vn -0.958400 0.095700 -0.268900
vn -0.959600 0.054800 -0.275800
vn -0.983300 -0.155700 -0.094600
vn -0.988100 -0.146700 0.046100
vn -0.988400 -0.147500 0.034800
vn -0.348400 -0.760900 -0.547400
vn -0.379900 -0.596300 -0.707200
vn -0.527700 0.108100 -0.842500
vn -0.436700 -0.037300 -0.898800
vn -0.118400 -0.009200 0.992900
vn 0.059500 0.698600 0.713100
vn 0.149500 0.898600 0.412600
vn -0.106700 0.076000 0.991400
vn 0.019300 0.015600 0.999700
vn -0.065800 -0.045900 0.996800
vn -0.035900 -0.017600 0.999200
vn -0.003600 -0.115800 0.993300
vn -0.210400 -0.593600 0.776700
vn -0.227700 -0.626500 0.745500
vn 0.973800 -0.227400 -0.000500
vn 0.076400 0.976400 -0.202000
vn 0.999400 -0.034300 -0.000100
vn -0.216100 -0.425300 -0.878900
vn -0.367000 -0.874000 -0.318600
vn -0.358100 -0.867700 -0.344900
vn -0.206200 -0.380100 -0.901600
vn 0.992000 0.086100 0.091800
vn 0.993400 0.080200 0.082500
vn 0.993200 0.081000 0.083800
vn -0.833800 -0.507100 -0.218400
vn -0.172500 -0.978000 -0.117200
vn -0.146300 -0.986700 -0.070800
vn -0.162400 -0.981700 -0.099300
vn -0.040200 0.168900 -0.984800
vn -0.022800 0.112500 -0.993400
vn 0.028000 -0.128800 0.991300
vn -0.078600 -0.983000 -0.165700
vn -0.080600 -0.982900 -0.165300
vn 0.365100 -0.929300 -0.056200
vn 0.241900 -0.964400 -0.106600
vn 0.532200 -0.846400 0.019200
vn -0.063600 -0.106300 0.992300
vn -0.065600 -0.104000 0.992400
vn -0.899800 -0.070000 0.430700
vn -0.963200 -0.122500 0.239000
vn -0.129200 -0.166400 0.977600
vn 0.122000 0.359000 -0.925300
vn 0.157500 0.450800 -0.878600
vn 0.077000 0.975000 -0.208400
vn -0.833500 -0.551300 0.036800
vn -0.410200 -0.908500 0.079900
vn -0.410600 -0.908600 0.076500
vn 0.995500 0.068800 0.064800
vn -0.971000 -0.237100 -0.032100
vn -0.959600 0.034300 -0.279100
vn -1.000000 0.000300 -0.002500
s 1
f 28//1 12//2 2//3 13//4
f 23//5 42//6 43//7 19//7
f 29//8 17//9 3//10 26//11
f 24//12 10//13 25//14 6//15
f 18//16 5//17 9//18 21//19
f 9//20 27//21 28//1 45//22 15//23
f 21//19 9//18 15//24 42//6 23//5
f 12//25 22//25 17//25 54//25 51//25 2//25
f 30//26 31//27 40//28 11//29
f 13//4 2//3 51//30 50//31
f 31//27 10//32 8//33 40//28
f 10//32 24//34 14//34 8//33
f 43//35 42//35 1//35 44//35
f 29//36 26//37 36//38 37//39
f 16//40 7//41 3//41 17//42
f 33//43 41//44 55//45 56//46
f 25//47 16//48 20//49
f 13//50 50//51 49//52 34//50
f 30//53 7//54 16//55 31//56
f 31//56 16//55 25//14 10//13
f 30//53 26//11 3//10 7//54
f 32//57 61//58 34//59 49//60
f 19//61 43//61 44//62 35//63
f 35//63 37//64 36//65 4//66
f 35//67 4//67 60//67 58//67 38//67 39//67 48//67 47//67 46//67
f 5//68 24//12 27//21 9//20
f 5//17 18//16 41//69 33//69
f 38//70 58//71 57//72 11//73
f 1//74 45//75 32//76 44//74
f 30//26 11//29 57//77
f 23//78 19//79 35//79 46//80
f 41//44 39//81 55//45
f 38//70 11//73 40//82 39//81
f 13//4 34//59 61//58 45//22 28//1
f 15//83 45//83 1//83 42//83
f 21//84 23//78 46//80 47//85
f 18//86 21//84 47//85 48//87
f 39//88 41//88 18//86 48//87
f 50//31 51//30 54//89 53//90
f 50//51 53//91 52//92 49//52
f 44//62 32//57 49//60 52//93
f 35//63 44//62 52//93 37//64
f 53//90 54//89 17//9 29//8
f 53//91 29//36 37//39 52//92
f 39//81 40//82 8//94 55//45
f 56//46 55//45 8//94 14//95
f 24//12 5//68 33//96 56//96 14//96
f 26//37 30//26 57//77 59//97
f 58//71 60//98 59//99 57//72
f 36//38 26//37 59//97
f 60//98 4//66 36//65 59//99
f 45//75 61//100 32//76
f 20//101 16//40 17//42 22//101
f 24//12 6//15 27//21
f 27//21 6//15 12//2 28//1
f 6//102 25//47 20//49
f 6//103 20//103 22//103 12//103
