# File produced by Open Asset Import Library (http://www.assimp.sf.net)
# (assimp v3.2.202087883)

mtllib model_normalized.mtl

# 58 vertex positions
v 0.124950 -0.401036 -0.318449
v 0.216360 -0.401036 -0.230899
v 0.124950 -0.401036 -0.230899
v 0.216360 -0.401036 -0.318449
v 0.124950 -0.135491 -0.230899
v 0.216360 -0.135491 -0.230899
v 0.124950 -0.135491 -0.318449
v -0.213462 -0.401036 -0.318449
v -0.140595 -0.135491 -0.318449
v -0.140595 -0.401036 -0.318449
v 0.216360 -0.070904 -0.318449
v -0.213462 -0.070904 -0.318449
v 0.216360 -0.135491 0.082654
v 0.216360 -0.401036 0.172984
v 0.216360 -0.401036 0.082654
v 0.216360 0.264909 0.172984
v 0.216360 -0.070904 0.029791
v 0.216360 0.264909 0.029791
v -0.140595 -0.135491 -0.230899
v -0.213462 -0.135491 -0.230899
v -0.149937 -0.135491 0.082654
v -0.213462 -0.135491 0.082654
v 0.150365 -0.135491 0.082654
v 0.150365 -0.135491 0.172984
v -0.149937 -0.135491 0.172984
v -0.140595 -0.401036 -0.230899
v -0.213462 -0.401036 -0.230899
v -0.213462 0.264909 0.172984
v -0.213462 -0.401036 0.082654
v -0.213462 -0.401036 0.172984
v -0.213462 -0.070904 0.029791
v -0.213462 0.264909 0.029791
v 0.186790 0.291804 0.172984
v 0.186790 0.291804 0.029791
v 0.118242 0.332593 0.172984
v 0.153887 0.314502 0.172984
v 0.080497 0.345754 0.172984
v 0.041332 0.353745 0.172984
v 0.001449 0.356425 0.172984
v -0.038434 0.353745 0.172984
v -0.077599 0.345754 0.172984
v -0.115343 0.332593 0.172984
v -0.150987 0.314502 0.172984
v -0.149937 -0.401036 0.172984
v -0.183891 0.291804 0.172984
v 0.150365 -0.401036 0.172984
v 0.150365 -0.401036 0.082654
v 0.153887 0.314502 0.029791
v 0.118242 0.332593 0.029791
v 0.080497 0.345754 0.029791
v 0.041332 0.353745 0.029791
v 0.001449 0.356425 0.029791
v -0.038434 0.353745 0.029791
v -0.077599 0.345754 0.029791
v -0.115343 0.332593 0.029791
v -0.150987 0.314502 0.029791
v -0.183891 0.291804 0.029791
v -0.149937 -0.401036 0.082654

# 0 UV coordinates

# 38 vertex normals
vn 0 -0.0254 0
vn 0 0 0.0254
vn -0.0254 0 0
vn 0 0 -0.0254
vn 0.0254 0 0
vn 0.0254 2.58991e-18 7.85535e-18
vn 0 0.0254 0
vn 0.0170903 0.0187905 1.88217e-19
vn 0.015792 0.019894 -1.97455e-18
vn -1.10367e-20 -2.53889e-18 0.0254
vn -6.115e-19 -8.35614e-18 -0.0254
vn -0.015792 0.019894 -1.71274e-18
vn -0.0170903 0.0187905 1.62189e-20
vn 0.0129885 0.021828 -4.26027e-18
vn 0.00995138 0.0233694 -4.46593e-18
vn 0.00673535 0.0244907 -4.59129e-18
vn 0.00339823 0.0251717 -4.63409e-18
vn 0 0.0254 -4.59358e-18
vn -0.00339823 0.0251717 -4.47047e-18
vn -0.00673535 0.0244907 -4.26698e-18
vn -0.00995138 0.0233694 -3.98677e-18
vn -0.0129885 0.021828 -3.63488e-18
vn -0.0254 -2.58991e-18 -7.85535e-18
vn -0.015792 -0.019894 1.97455e-18
vn -0.0170903 -0.0187905 -1.88217e-19
vn 1.10367e-20 2.53889e-18 -0.0254
vn 6.115e-19 8.35614e-18 0.0254
vn 0.015792 -0.019894 1.71274e-18
vn 0.0170903 -0.0187905 -1.62189e-20
vn -0.0129885 -0.021828 4.26027e-18
vn -0.00995138 -0.0233694 4.46593e-18
vn -0.00673535 -0.0244907 4.59129e-18
vn -0.00339823 -0.0251717 4.63409e-18
vn 0 -0.0254 4.59358e-18
vn 0.00339823 -0.0251717 4.47047e-18
vn 0.00673535 -0.0244907 4.26698e-18
vn 0.00995138 -0.0233694 3.98677e-18
vn 0.0129885 -0.021828 3.63488e-18

# Mesh 'basic___chair_ID4' with 112 faces
g basic___chair_ID4
usemtl material
f  1//1 2//1 3//1
f  2//1 1//1 4//1
f  5//2 2//2 6//2
f  2//2 5//2 3//2
f  5//3 1//3 3//3
f  1//3 5//3 7//3
f  8//4 9//4 10//4
f  1//4 11//4 4//4
f  11//4 1//4 7//4
f  11//4 7//4 12//4
f  12//4 7//4 9//4
f  12//4 9//4 8//4
f  11//5 2//5 4//5
f  2//5 11//5 6//5
f  6//5 11//5 13//5
f  13//5 14//5 15//5
f  14//5 13//5 16//5
f  16//5 13//5 17//5
f  17//5 13//5 11//5
f  16//5 17//5 18//5
f  9//1 5//1 19//1
f  5//1 9//1 7//1
f  20//1 21//1 22//1
f  21//1 20//1 23//1
f  23//1 20//1 13//1
f  13//1 20//1 6//1
f  6//1 20//1 19//1
f  6//1 19//1 5//1
f  21//1 24//1 25//1
f  24//1 21//1 23//1
f  9//6 26//6 10//6
f  26//6 9//6 19//6
f  8//1 26//1 27//1
f  26//1 8//1 10//1
f  28//3 29//3 30//3
f  29//3 28//3 22//3
f  22//3 28//3 31//3
f  22//3 31//3 20//3
f  31//3 28//3 32//3
f  20//3 8//3 27//3
f  8//3 20//3 12//3
f  12//3 20//3 31//3
f  11//7 31//7 17//7
f  31//7 11//7 12//7
f  18//8 33//9 16//8
f  33//9 18//8 34//9
f  35//10 24//10 36//10
f  24//10 35//10 25//10
f  25//10 35//10 37//10
f  25//10 37//10 38//10
f  25//10 38//10 39//10
f  25//10 39//10 40//10
f  25//10 40//10 41//10
f  25//10 41//10 42//10
f  25//10 42//10 43//10
f  25//10 43//10 44//10
f  44//10 43//10 30//10
f  30//10 43//10 45//10
f  30//10 45//10 28//10
f  33//10 14//10 16//10
f  14//10 33//10 46//10
f  46//10 33//10 36//10
f  46//10 36//10 24//10
f  46//1 15//1 14//1
f  15//1 46//1 47//1
f  47//4 13//4 15//4
f  13//4 47//4 23//4
f  31//11 18//11 17//11
f  18//11 31//11 34//11
f  34//11 31//11 48//11
f  48//11 31//11 49//11
f  49//11 31//11 50//11
f  50//11 31//11 51//11
f  51//11 31//11 52//11
f  52//11 31//11 53//11
f  53//11 31//11 54//11
f  54//11 31//11 55//11
f  55//11 31//11 56//11
f  56//11 31//11 57//11
f  57//11 31//11 32//11
f  24//3 47//3 46//3
f  47//3 24//3 23//3
f  21//5 44//5 58//5
f  44//5 21//5 25//5
f  29//4 21//4 58//4
f  21//4 29//4 22//4
f  19//2 27//2 26//2
f  27//2 19//2 20//2
f  45//12 32//13 28//13
f  32//13 45//12 57//12
f  29//1 44//1 30//1
f  44//1 29//1 58//1
f  34//9 36//14 33//9
f  36//14 34//9 48//14
f  48//14 35//15 36//14
f  35//15 48//14 49//15
f  49//15 37//16 35//15
f  37//16 49//15 50//16
f  50//16 38//17 37//16
f  38//17 50//16 51//17
f  51//17 39//18 38//17
f  39//18 51//17 52//18
f  52//18 40//19 39//18
f  40//19 52//18 53//19
f  53//19 41//20 40//19
f  41//20 53//19 54//20
f  41//20 55//21 42//21
f  55//21 41//20 54//20
f  55//21 43//22 42//21
f  43//22 55//21 56//22
f  56//22 45//12 43//22
f  45//12 56//22 57//12

# Mesh 'basic___chair_ID4' with 112 faces
g basic___chair_ID4
usemtl material_0
f  4//7 1//7 2//7
f  3//7 2//7 1//7
f  3//4 5//4 2//4
f  6//4 2//4 5//4
f  7//5 5//5 1//5
f  3//5 1//5 5//5
f  8//2 9//2 12//2
f  9//2 7//2 12//2
f  12//2 7//2 11//2
f  7//2 1//2 11//2
f  4//2 11//2 1//2
f  10//2 9//2 8//2
f  18//3 17//3 16//3
f  11//3 13//3 17//3
f  17//3 13//3 16//3
f  16//3 13//3 14//3
f  15//3 14//3 13//3
f  13//3 11//3 6//3
f  6//3 11//3 2//3
f  4//3 2//3 11//3
f  23//7 21//7 24//7
f  25//7 24//7 21//7
f  5//7 19//7 6//7
f  19//7 20//7 6//7
f  6//7 20//7 13//7
f  13//7 20//7 23//7
f  23//7 20//7 21//7
f  22//7 21//7 20//7
f  7//7 9//7 5//7
f  19//7 5//7 9//7
f  19//23 9//23 26//23
f  10//23 26//23 9//23
f  10//7 8//7 26//7
f  27//7 26//7 8//7
f  31//5 20//5 12//5
f  12//5 20//5 8//5
f  27//5 8//5 20//5
f  32//5 28//5 31//5
f  20//5 31//5 22//5
f  31//5 28//5 22//5
f  22//5 28//5 29//5
f  30//5 29//5 28//5
f  12//1 11//1 31//1
f  17//1 31//1 11//1
f  34//24 18//25 33//24
f  16//25 33//24 18//25
f  24//26 36//26 46//26
f  36//26 33//26 46//26
f  46//26 33//26 14//26
f  16//26 14//26 33//26
f  28//26 45//26 30//26
f  45//26 43//26 30//26
f  30//26 43//26 44//26
f  44//26 43//26 25//26
f  43//26 42//26 25//26
f  42//26 41//26 25//26
f  41//26 40//26 25//26
f  40//26 39//26 25//26
f  39//26 38//26 25//26
f  38//26 37//26 25//26
f  37//26 35//26 25//26
f  25//26 35//26 24//26
f  36//26 24//26 35//26
f  47//7 46//7 15//7
f  14//7 15//7 46//7
f  23//2 47//2 13//2
f  15//2 13//2 47//2
f  32//27 31//27 57//27
f  57//27 31//27 56//27
f  56//27 31//27 55//27
f  55//27 31//27 54//27
f  54//27 31//27 53//27
f  53//27 31//27 52//27
f  52//27 31//27 51//27
f  51//27 31//27 50//27
f  50//27 31//27 49//27
f  49//27 31//27 48//27
f  48//27 31//27 34//27
f  34//27 31//27 18//27
f  17//27 18//27 31//27
f  23//5 24//5 47//5
f  46//5 47//5 24//5
f  25//3 21//3 44//3
f  58//3 44//3 21//3
f  22//2 29//2 21//2
f  58//2 21//2 29//2
f  20//4 19//4 27//4
f  26//4 27//4 19//4
f  57//28 45//28 32//29
f  28//29 32//29 45//28
f  58//7 29//7 44//7
f  30//7 44//7 29//7
f  48//30 34//24 36//30
f  33//24 36//30 34//24
f  49//31 48//30 35//31
f  36//30 35//31 48//30
f  50//32 49//31 37//32
f  35//31 37//32 49//31
f  51//33 50//32 38//33
f  37//32 38//33 50//32
f  52//34 51//33 39//34
f  38//33 39//34 51//33
f  53//35 52//34 40//35
f  39//34 40//35 52//34
f  54//36 53//35 41//36
f  40//35 41//36 53//35
f  54//36 41//36 55//37
f  42//37 55//37 41//36
f  56//38 55//37 43//38
f  42//37 43//38 55//37
f  57//28 56//38 45//28
f  43//38 45//28 56//38

