# File produced by Open Asset Import Library (http://www.assimp.sf.net)
# (assimp v3.2.202087883)

mtllib model_normalized.mtl

# 108 vertex positions
v 0.176988 -0.021641 0.121169
v 0.189139 0.353337 0.124548
v 0.203841 0.353337 0.118113
v 0.174437 0.353337 0.130984
v 0.170950 -0.021641 0.100790
v 0.203841 -0.021641 0.118113
v 0.150136 -0.021641 0.124225
v 0.200445 -0.021641 0.088241
v 0.203841 -0.060068 0.118113
v 0.159416 0.353337 0.136610
v 0.170441 -0.060068 0.121914
v -0.143930 -0.021641 0.136623
v 0.161060 -0.021641 -0.257816
v 0.140827 -0.021641 0.111773
v 0.144387 0.353337 0.142236
v -0.138690 -0.060068 0.157093
v -0.175487 -0.021641 0.131021
v 0.166645 -0.060068 0.088517
v 0.206348 -0.396620 0.140124
v 0.200036 -0.060068 0.084717
v -0.214872 -0.021641 -0.215036
v 0.123283 -0.021641 0.127281
v -0.142495 -0.060068 0.123697
v -0.112119 -0.021641 0.140558
v -0.172090 0.353337 0.160895
v 0.203841 -0.396620 0.118113
v 0.228360 -0.396620 0.137620
v 0.164856 -0.060068 -0.224419
v -0.184831 -0.021641 -0.225623
v 0.129076 0.353337 0.147036
v 0.096430 -0.021641 0.130337
v -0.169584 -0.396620 0.182903
v -0.175886 -0.060068 0.127497
v 0.110179 -0.021641 0.121160
v -0.124641 0.353337 0.168936
v -0.156316 0.353337 0.163860
v -0.172090 -0.021641 0.160895
v -0.211067 -0.060068 -0.181638
v 0.161060 -0.060068 -0.257816
v 0.225854 -0.396620 0.115609
v -0.214872 -0.060068 -0.215036
v 0.129412 -0.021641 -0.261384
v 0.113766 0.353337 0.151835
v 0.069577 -0.021641 0.133392
v -0.172090 -0.396620 0.160895
v -0.172090 -0.060068 0.160895
v -0.080144 -0.021641 0.142819
v -0.140552 0.353337 0.166829
v -0.108731 0.353337 0.171043
v -0.145237 -0.021641 0.157839
v 0.183073 -0.396620 -0.260321
v 0.127660 -0.060068 -0.254016
v 0.129412 -0.060068 -0.261384
v -0.177675 -0.060068 -0.185439
v -0.184831 -0.060068 -0.225623
v -0.154391 -0.021641 -0.234969
v 0.098210 0.353337 0.155796
v 0.082663 0.353337 0.159756
v 0.042724 -0.021641 0.136448
v -0.194103 -0.396620 0.163397
v -0.191597 -0.396620 0.185409
v 0.079085 -0.021641 0.128924
v -0.092739 0.353337 0.172278
v -0.118385 -0.021641 0.154783
v 0.180566 -0.396620 -0.282333
v 0.161060 -0.396620 -0.257816
v 0.131465 -0.060068 -0.220618
v 0.158554 -0.396620 -0.279827
v -0.214872 -0.396620 -0.215036
v -0.181471 -0.060068 -0.218837
v 0.097647 -0.021641 -0.263651
v 0.097647 -0.060068 -0.263651
v 0.066916 0.353337 0.162861
v 0.015880 -0.021641 0.139504
v -0.048097 -0.021641 0.143396
v -0.076738 0.353337 0.173513
v -0.091532 -0.021641 0.151727
v -0.239382 -0.396620 -0.234542
v -0.154391 -0.060068 -0.234969
v -0.236884 -0.396620 -0.212531
v -0.217378 -0.396620 -0.237047
v -0.123588 -0.021641 -0.243061
v 0.051178 0.353337 0.165976
v 0.035286 0.353337 0.168219
v -0.010973 -0.021641 0.142560
v 0.047619 -0.021641 0.135044
v -0.060692 0.353337 0.173876
v 0.065808 -0.021641 -0.264614
v 0.065808 -0.060068 -0.264614
v -0.123588 -0.060068 -0.243061
v 0.003412 0.353337 0.171851
v -0.037826 -0.021641 0.145616
v -0.064679 -0.021641 0.148671
v -0.016058 -0.021641 0.142290
v -0.044655 0.353337 0.174249
v -0.092476 -0.021641 -0.249881
v -0.012571 0.353337 0.173231
v -0.028618 0.353337 0.173740
v 0.033970 -0.021641 -0.264270
v 0.033970 -0.060068 -0.264270
v -0.092476 -0.060068 -0.249881
v -0.061110 -0.021641 -0.255421
v 0.002158 -0.021641 -0.262621
v 0.002158 -0.060068 -0.262621
v -0.061110 -0.060068 -0.255421
v -0.029553 -0.021641 -0.259670
v -0.029553 -0.060068 -0.259670
v 0.019404 0.353337 0.170471

# 65 UV coordinates
vt 0 0 0
vt -2.83183 0.101813 0
vt -2.83183 0.392979 0
vt -2.86085 0.392979 0
vt -1.56922 0.281427 0
vt -1.56922 0.573409 0
vt -1.59824 0.573409 0
vt -2.8127 0.101813 0
vt -1.5501 0.281427 0
vt 1.5501 0.184744 0
vt 1.59824 0.475909 0
vt 1.56922 0.475909 0
vt 1.5501 -0.313887 0
vt 1.59824 -0.021905 0
vt 1.56922 -0.021905 0
vt 2.83183 0.447931 0
vt 2.83183 0.155949 0
vt 2.86085 0.447931 0
vt 1.56922 0.184744 0
vt 1.56922 -0.313887 0
vt -3.15845 0.392979 0
vt -3.15845 0.101813 0
vt -3.12944 0.392979 0
vt 3.15845 0.155949 0
vt 3.15845 0.447931 0
vt 3.12944 0.447931 0
vt 2.8127 0.155949 0
vt 1.89584 0.184744 0
vt 1.89584 0.475909 0
vt 1.86683 0.475909 0
vt -3.17758 0.101813 0
vt -1.56922 -0.208709 0
vt -1.56922 0.082456 0
vt -1.59824 0.082456 0
vt 3.17758 0.155949 0
vt 1.91497 0.184744 0
vt -2.83183 0.103573 0
vt -2.83183 -0.188409 0
vt -2.8127 -0.188409 0
vt 2.83183 0.165387 0
vt 2.83183 -0.125779 0
vt 2.86085 0.165387 0
vt -3.15845 0.103573 0
vt -3.15845 -0.188409 0
vt -3.12944 0.103573 0
vt -1.5501 -0.208709 0
vt -1.91497 -0.208709 0
vt -1.86683 0.082456 0
vt -1.89584 0.082456 0
vt 2.8127 -0.125779 0
vt -2.86085 0.103573 0
vt -1.91497 0.281427 0
vt -1.86683 0.573409 0
vt -1.89584 0.573409 0
vt -3.17758 -0.188409 0
vt 1.89584 -0.313887 0
vt 1.89584 -0.021905 0
vt 1.86683 -0.021905 0
vt 3.15845 -0.125779 0
vt 3.15845 0.165387 0
vt 3.12944 0.165387 0
vt -1.89584 -0.208709 0
vt 3.17758 -0.125779 0
vt -1.89584 0.281427 0
vt 1.91497 -0.313887 0

# 186 vertex normals
vn -0.0078238 0.000579145 -0.0241581
vn -0.0101837 0.000539674 -0.0232629
vn -0.00738026 0.000734797 -0.024293
vn 0.0100354 -0.00195456 0.0232515
vn 0.0101555 -0.00196266 0.0231986
vn 0.00955953 -0.00197465 0.0234494
vn -0.00287198 0 -0.0252371
vn 0.00952016 -0.0019782 0.0234652
vn -0.00592862 0.00096172 -0.0246797
vn 0.00991493 -0.0019464 0.0233038
vn -0.0252371 0 0.00287198
vn 0.00881039 -0.00200279 0.0237387
vn -0.00889824 0.00100515 -0.0237691
vn -0 -0.0254 0
vn 0.00813816 -0.00202433 0.0239757
vn -0.00648705 0.00119461 -0.0245286
vn 0 0.0254 0
vn -0.00286577 -0.00166832 -0.0251826
vn 0.00822851 -0.00202321 0.0239449
vn -0.005251 0.00138821 -0.0248125
vn -0.0044253 -0.0019464 0.0249357
vn -0.00404625 -0.00197465 0.0249978
vn -0.00455441 -0.00195456 0.0249118
vn 0.0251122 0.00252425 -0.00285776
vn -0.0251826 -0.00166832 0.00286577
vn 0.00752035 -0.00204234 0.024175
vn -0.00758669 0.00139207 -0.0242005
vn -0.0251122 0.00252425 0.00285776
vn -0.00254299 -0.00202433 0.0251912
vn -0.00325128 -0.00200279 0.0251113
vn -0.00468338 -0.00196266 0.0248872
vn 0.0252371 -0 -0.00287198
vn 0.00285776 0.00252425 0.0251122
vn 0.0084437 0 0.0239555
vn 0.00795074 0 0.0241236
vn 0.00684417 -0.00205877 0.0243737
vn -0.00558712 0.00156027 -0.0247287
vn -0.00457046 0.00171404 -0.0249266
vn -0.00400436 -0.0019782 0.0250042
vn -0.00263794 -0.00202321 0.0251815
vn 0.00469637 0.000539674 -0.0249562
vn 0.00219568 0.000579145 -0.0252983
vn -0.00284526 0 0.0252401
vn -0.00232713 0 0.0252932
vn 0.00691308 -0.00205834 0.0243543
vn -0.00625447 0.00169715 -0.0245593
vn -0.00354724 0.00191638 -0.025078
vn -0.00468229 0.00183109 -0.0248975
vn 0.0251826 -0.00166832 -0.00286577
vn -0.00119264 -0.00205877 0.0252883
vn -0.00189617 -0.00204234 0.0252466
vn 0.00173316 0.000734797 -0.0253301
vn 0.00333005 0.00100515 -0.0251607
vn 0.000231761 0.00096172 -0.0253807
vn 0.000809859 0.00119461 -0.025359
vn -0.00285776 0.00252425 -0.0251122
vn 0.00286577 -0.00166832 0.0251826
vn 0.00695496 -0 0.0244292
vn -0.00128813 0 0.0253673
vn 0.00620904 -0.00207208 0.0245421
vn -0.00422769 0.00198196 -0.0249672
vn -0.0035459 0.00203899 -0.0250685
vn 0.00553107 -0.00208344 0.0247028
vn -0.00126415 -0.00205834 0.0252849
vn -0.000458372 0.00138821 -0.0253579
vn 0.00195511 0.00139207 -0.0252864
vn 0.00557763 -0.00208351 0.0246923
vn 0.00488018 -0.00209197 0.0248388
vn -0.0042265 0.00206058 -0.024961
vn -0.0028622 0.00209359 -0.0251512
vn -0.00340435 0.00208689 -0.0250842
vn 0.000160813 -0.00208344 0.0253139
vn -0.000535928 -0.00207208 0.0253097
vn -0.000112029 0.00156027 -0.0253518
vn 0.00594752 -0 0.0246939
vn -0.000246984 0 0.0253988
vn 0.0042025 -0.00209824 0.0249619
vn 0.004226 -0.00209865 0.0249579
vn 0.00340435 -0.00208689 0.0250842
vn 0.0028622 -0.00209359 0.0251512
vn -0.00217739 0.00203899 -0.0252242
vn -0.00231885 0.00208689 -0.0252077
vn 0.000113087 -0.00208351 0.0253141
vn -0.00114714 0.00171404 -0.0253161
vn 0.000576312 0.00169715 -0.0253367
vn -0.00149004 0.00206058 -0.0252724
vn 0.00231885 -0.00208689 0.0252077
vn 0.00151363 -0.00209824 0.0252679
vn -0.00217822 0.00191638 -0.0252338
vn -0.00149027 0.00198196 -0.0252787
vn 0.000825633 -0.00209197 0.0253002
vn -0.00103164 0.00183109 -0.0253129
vn 0.00493005 -0 0.024917
vn 0.000794593 0 0.0253876
vn 0.00148984 -0.00209865 0.0252693
vn 0.00390431 -0 0.0250981
vn 0.00183481 0 0.0253336
vn 0.00287198 0 0.0252371
vn 0.0101837 -0.000539674 0.0232629
vn 0.0078238 -0.000579145 0.0241581
vn 0.00738026 -0.000734797 0.024293
vn -0.00955953 0.00197465 -0.0234494
vn -0.0101555 0.00196266 -0.0231986
vn -0.0100354 0.00195456 -0.0232515
vn -0.00952016 0.0019782 -0.0234652
vn 0.00592862 -0.00096172 0.0246797
vn -0.00991493 0.0019464 -0.0233038
vn -0.00881039 0.00200279 -0.0237387
vn 0.00889824 -0.00100515 0.0237691
vn -0.00813816 0.00202433 -0.0239757
vn 0.00648705 -0.00119461 0.0245286
vn -0.00822851 0.00202321 -0.0239449
vn 0.005251 -0.00138821 0.0248125
vn 0.00455441 0.00195456 -0.0249118
vn 0.00404625 0.00197465 -0.0249978
vn 0.0044253 0.0019464 -0.0249357
vn -0.00752035 0.00204234 -0.024175
vn 0.00758669 -0.00139207 0.0242005
vn 0.00325128 0.00200279 -0.0251113
vn 0.00254299 0.00202433 -0.0251912
vn 0.00468338 0.00196266 -0.0248872
vn -0.00795074 0 -0.0241236
vn -0.0084437 0 -0.0239555
vn -0.00684417 0.00205877 -0.0243737
vn 0.00558712 -0.00156027 0.0247287
vn 0.00457046 -0.00171404 0.0249266
vn 0.00400436 0.0019782 -0.0250042
vn 0.00263794 0.00202321 -0.0251815
vn -0.00219568 -0.000579145 0.0252983
vn -0.00469637 -0.000539674 0.0249562
vn 0.00232713 0 -0.0252932
vn 0.00284526 0 -0.0252401
vn -0.00691308 0.00205834 -0.0243543
vn 0.00625447 -0.00169715 0.0245593
vn 0.00468229 -0.00183109 0.0248975
vn 0.00354724 -0.00191638 0.025078
vn 0.00189617 0.00204234 -0.0252466
vn 0.00119264 0.00205877 -0.0252883
vn -0.000231761 -0.00096172 0.0253807
vn -0.00333005 -0.00100515 0.0251607
vn -0.00173316 -0.000734797 0.0253301
vn -0.000809859 -0.00119461 0.025359
vn -0.00695496 0 -0.0244292
vn 0.00128813 0 -0.0253673
vn -0.00620904 0.00207208 -0.0245421
vn 0.00422769 -0.00198196 0.0249672
vn 0.0035459 -0.00203899 0.0250685
vn -0.00553107 0.00208344 -0.0247028
vn 0.00126415 0.00205834 -0.0252849
vn 0.000458372 -0.00138821 0.0253579
vn -0.00195511 -0.00139207 0.0252864
vn -0.00557763 0.00208351 -0.0246923
vn -0.00488018 0.00209197 -0.0248388
vn 0.0042265 -0.00206058 0.024961
vn 0.000535928 0.00207208 -0.0253097
vn -0.000160813 0.00208344 -0.0253139
vn 0.000112029 -0.00156027 0.0253518
vn -0.00594752 0 -0.0246939
vn 0.000246984 0 -0.0253988
vn -0.0042025 0.00209824 -0.0249619
vn -0.004226 0.00209865 -0.0249579
vn -0.00286211 0.0021037 -0.0251504
vn 0.00286211 -0.0021037 0.0251504
vn 0.00217739 -0.00203899 0.0252242
vn -0.000113087 0.00208351 -0.0253141
vn 0.00114714 -0.00171404 0.0253161
vn -0.000576312 -0.00169715 0.0253367
vn 0.00149004 -0.00206058 0.0252724
vn -0.00151363 0.00209824 -0.0252679
vn 0.00149027 -0.00198196 0.0252787
vn 0.00217822 -0.00191638 0.0252338
vn -0.000825633 0.00209197 -0.0253002
vn 0.00103164 -0.00183109 0.0253129
vn -0.00493005 0 -0.024917
vn -0.000794593 0 -0.0253876
vn -0.00148984 0.00209865 -0.0252693
vn -0.00390431 0 -0.0250981
vn -0.00183481 0 -0.0253336
vn 0.00286577 0.00166832 0.0251826
vn -0.0251122 -0.00252425 0.00285776
vn 0.0251826 0.00166832 -0.00286577
vn 0.0251122 -0.00252425 -0.00285776
vn -0.00285776 -0.00252425 -0.0251122
vn -0.0251826 0.00166832 0.00286577
vn 0.00285776 -0.00252425 0.0251122
vn -0.00286577 0.00166832 -0.0251826

# Mesh 'mesh1_mesh1-geometry' with 234 faces
g mesh1_mesh1-geometry
usemtl material_0_24
f  1/1/1 2/1/2 3/1/2
f  4/1/3 2/1/2 1/1/1
f  3/1/4 2/1/5 5/1/6
f  3/1/7 6/1/7 1/1/7
f  2/1/5 4/1/8 5/1/6
f  7/1/9 4/1/3 1/1/1
f  8/1/10 3/1/4 5/1/6
f  6/1/7 9/1/7 1/1/7
f  3/1/11 8/1/11 6/1/11
f  5/1/6 4/1/8 10/1/12
f  7/1/9 10/1/13 4/1/3
f  7/1/7 1/1/7 11/1/7
f  5/1/14 12/1/14 8/1/14
f  11/1/7 1/1/7 9/1/7
f  6/1/11 13/1/11 9/1/11
f  8/1/11 13/1/11 6/1/11
f  5/1/6 10/1/12 14/1/15
f  15/1/16 10/1/13 7/1/9
f  16/1/7 7/1/7 11/1/7
f  14/1/14 12/1/14 5/1/14
f  8/1/14 12/1/14 17/1/14
f  18/1/14 9/1/14 11/1/14
f  11/1/17 9/1/17 18/1/17
f  11/1/18 9/1/18 19/1/18
f  9/1/11 13/1/11 20/1/11
f  8/1/14 21/1/14 13/1/14
f  10/1/12 15/1/19 14/1/15
f  22/1/20 15/1/16 7/1/9
f  22/1/7 7/1/7 16/1/7
f  16/1/17 11/1/17 23/1/17
f  14/1/14 24/1/14 12/1/14
f  17/1/21 12/1/22 25/1/23
f  8/1/14 17/1/14 21/1/14
f  9/1/14 18/1/14 20/1/14
f  20/1/17 18/1/17 9/1/17
f  18/1/24 11/1/24 26/1/24
f  18/1/17 23/1/17 11/1/17
f  27/1/18 19/1/18 9/1/18
f  19/1/24 26/1/24 11/1/24
f  20/1/11 13/1/11 28/1/11
f  9/1/25 20/1/25 27/1/25
f  13/1/14 21/1/14 29/1/14
f  14/1/15 15/1/19 30/1/26
f  22/1/20 30/1/27 15/1/16
f  31/1/7 22/1/7 16/1/7
f  16/1/28 23/1/28 32/1/28
f  16/1/14 33/1/14 23/1/14
f  23/1/17 33/1/17 16/1/17
f  34/1/14 24/1/14 14/1/14
f  24/1/29 35/1/30 12/1/22
f  12/1/22 36/1/31 25/1/23
f  37/1/32 17/1/32 25/1/32
f  17/1/32 37/1/32 21/1/32
f  18/1/33 26/1/33 20/1/33
f  20/1/17 38/1/17 18/1/17
f  18/1/17 38/1/17 23/1/17
f  26/1/14 27/1/14 19/1/14
f  19/1/17 27/1/17 26/1/17
f  39/1/11 28/1/11 13/1/11
f  28/1/17 38/1/17 20/1/17
f  40/1/25 27/1/25 20/1/25
f  21/1/34 41/1/34 29/1/35
f  13/1/14 29/1/14 42/1/14
f  14/1/15 30/1/26 34/1/36
f  43/1/37 30/1/27 22/1/20
f  31/1/38 43/1/37 22/1/20
f  44/1/7 31/1/7 16/1/7
f  45/1/28 32/1/28 23/1/28
f  16/1/18 32/1/18 46/1/18
f  33/1/14 16/1/14 46/1/14
f  46/1/17 16/1/17 33/1/17
f  33/1/17 23/1/17 38/1/17
f  23/1/33 33/1/33 45/1/33
f  34/1/14 47/1/14 24/1/14
f  12/1/22 35/1/30 48/1/39
f  24/1/29 49/1/40 35/1/30
f  25/1/41 36/1/41 50/1/42
f  12/1/22 48/1/39 36/1/31
f  25/1/7 50/1/7 37/1/7
f  21/1/32 37/1/32 41/1/32
f  40/1/33 20/1/33 26/1/33
f  27/1/14 26/1/14 40/1/14
f  40/1/17 26/1/17 27/1/17
f  28/1/25 39/1/25 51/1/25
f  28/1/14 52/1/14 39/1/14
f  39/1/17 52/1/17 28/1/17
f  39/1/43 13/1/43 53/1/44
f  54/1/17 38/1/17 28/1/17
f  55/1/35 29/1/35 41/1/34
f  42/1/14 29/1/14 56/1/14
f  42/1/44 53/1/44 13/1/43
f  30/1/26 43/1/45 34/1/36
f  57/1/46 43/1/37 31/1/38
f  44/1/47 58/1/48 31/1/38
f  59/1/7 44/1/7 16/1/7
f  32/1/14 60/1/14 45/1/14
f  45/1/17 60/1/17 32/1/17
f  61/1/18 46/1/18 32/1/18
f  46/1/7 50/1/7 16/1/7
f  46/1/32 33/1/32 37/1/32
f  33/1/49 46/1/49 60/1/49
f  38/1/32 37/1/32 33/1/32
f  60/1/33 45/1/33 33/1/33
f  62/1/14 47/1/14 34/1/14
f  47/1/50 63/1/51 24/1/29
f  48/1/52 35/1/53 64/1/54
f  35/1/53 49/1/55 64/1/54
f  24/1/29 63/1/51 49/1/40
f  36/1/41 48/1/52 50/1/42
f  37/1/7 50/1/7 46/1/7
f  41/1/32 37/1/32 38/1/32
f  65/1/25 51/1/25 39/1/25
f  51/1/56 66/1/56 28/1/56
f  52/1/14 28/1/14 67/1/14
f  67/1/17 28/1/17 52/1/17
f  52/1/57 68/1/57 39/1/57
f  39/1/17 55/1/17 52/1/17
f  53/1/17 55/1/17 39/1/17
f  54/1/56 69/1/56 38/1/56
f  41/1/14 54/1/14 38/1/14
f  38/1/17 54/1/17 41/1/17
f  67/1/17 54/1/17 28/1/17
f  29/1/35 55/1/35 56/1/58
f  41/1/17 70/1/17 55/1/17
f  42/1/14 56/1/14 71/1/14
f  53/1/44 42/1/44 72/1/59
f  34/1/36 43/1/45 57/1/60
f  58/1/48 57/1/46 31/1/38
f  73/1/61 58/1/48 44/1/47
f  59/1/62 73/1/61 44/1/47
f  74/1/7 59/1/7 16/1/7
f  60/1/14 32/1/14 61/1/14
f  61/1/17 32/1/17 60/1/17
f  61/1/49 60/1/49 46/1/49
f  50/1/7 64/1/7 16/1/7
f  62/1/14 75/1/14 47/1/14
f  34/1/36 57/1/60 62/1/63
f  47/1/50 76/1/64 63/1/51
f  50/1/42 48/1/52 64/1/54
f  64/1/54 49/1/55 77/1/65
f  49/1/55 63/1/66 77/1/65
f  41/1/49 38/1/49 78/1/49
f  51/1/14 68/1/14 65/1/14
f  65/1/17 68/1/17 51/1/17
f  65/1/57 39/1/57 68/1/57
f  67/1/56 28/1/56 66/1/56
f  68/1/14 51/1/14 66/1/14
f  66/1/17 51/1/17 68/1/17
f  52/1/24 67/1/24 68/1/24
f  52/1/17 70/1/17 67/1/17
f  52/1/17 55/1/17 70/1/17
f  79/1/17 55/1/17 53/1/17
f  80/1/56 38/1/56 69/1/56
f  54/1/28 70/1/28 69/1/28
f  54/1/14 41/1/14 70/1/14
f  70/1/17 41/1/17 54/1/17
f  54/1/17 67/1/17 70/1/17
f  79/1/58 56/1/58 55/1/35
f  70/1/57 41/1/57 81/1/57
f  71/1/14 56/1/14 82/1/14
f  71/1/59 72/1/59 42/1/44
f  72/1/17 79/1/17 53/1/17
f  57/1/60 58/1/67 62/1/63
f  62/1/63 58/1/67 73/1/68
f  59/1/62 83/1/69 73/1/61
f  74/1/70 84/1/71 59/1/62
f  85/1/7 74/1/7 16/1/7
f  64/1/7 77/1/7 16/1/7
f  86/1/14 75/1/14 62/1/14
f  75/1/72 87/1/73 47/1/50
f  63/1/66 76/1/74 77/1/65
f  47/1/50 87/1/73 76/1/64
f  80/1/49 78/1/49 38/1/49
f  78/1/57 81/1/57 41/1/57
f  66/1/24 68/1/24 67/1/24
f  78/1/14 69/1/14 80/1/14
f  80/1/17 69/1/17 78/1/17
f  81/1/28 69/1/28 70/1/28
f  56/1/58 79/1/58 82/1/75
f  71/1/14 82/1/14 88/1/14
f  72/1/59 71/1/59 89/1/76
f  90/1/17 79/1/17 72/1/17
f  62/1/63 73/1/68 86/1/77
f  84/1/71 83/1/69 59/1/62
f  73/1/68 83/1/78 86/1/77
f  86/1/77 84/1/79 74/1/80
f  85/1/81 91/1/82 74/1/70
f  92/1/7 85/1/7 16/1/7
f  77/1/7 93/1/7 16/1/7
f  86/1/14 94/1/14 75/1/14
f  75/1/72 95/1/83 87/1/73
f  77/1/65 76/1/74 93/1/84
f  76/1/74 87/1/85 93/1/84
f  69/1/14 78/1/14 81/1/14
f  81/1/17 78/1/17 69/1/17
f  90/1/75 82/1/75 79/1/58
f  88/1/14 82/1/14 96/1/14
f  88/1/76 89/1/76 71/1/59
f  89/1/17 90/1/17 72/1/17
f  86/1/77 83/1/78 84/1/79
f  94/1/14 86/1/14 74/1/14
f  97/1/86 91/1/82 85/1/81
f  74/1/80 91/1/87 94/1/88
f  92/1/89 98/1/90 85/1/81
f  93/1/7 92/1/7 16/1/7
f  94/1/88 98/1/91 75/1/72
f  93/1/84 87/1/85 95/1/92
f  75/1/72 98/1/91 95/1/83
f  82/1/75 90/1/75 96/1/93
f  88/1/14 96/1/14 99/1/14
f  89/1/76 88/1/76 100/1/94
f  101/1/17 90/1/17 89/1/17
f  94/1/88 91/1/87 97/1/95
f  98/1/90 97/1/86 85/1/81
f  95/1/92 98/1/90 92/1/89
f  93/1/84 95/1/92 92/1/89
f  94/1/88 97/1/95 98/1/91
f  101/1/93 96/1/93 90/1/75
f  99/1/14 96/1/14 102/1/14
f  99/1/94 100/1/94 88/1/76
f  100/1/17 101/1/17 89/1/17
f  96/1/93 101/1/93 102/1/96
f  99/1/14 102/1/14 103/1/14
f  100/1/94 99/1/94 104/1/97
f  105/1/17 101/1/17 100/1/17
f  105/1/96 102/1/96 101/1/93
f  103/1/14 102/1/14 106/1/14
f  103/1/97 104/1/97 99/1/94
f  104/1/17 105/1/17 100/1/17
f  102/1/96 105/1/96 106/1/98
f  106/1/98 107/1/98 103/1/97
f  104/1/97 103/1/97 107/1/98
f  107/1/17 105/1/17 104/1/17
f  107/1/98 106/1/98 105/1/96

# Mesh 'mesh1_mesh1-geometry' with 174 faces
g mesh1_mesh1-geometry
usemtl material_1_24
f  3/1/99 2/1/99 1/1/100
f  1/1/100 2/1/99 4/1/101
f  5/1/102 2/1/103 3/1/104
f  1/1/98 6/1/98 3/1/98
f  5/1/102 4/1/105 2/1/103
f  1/1/100 4/1/101 7/1/106
f  5/1/102 3/1/104 8/1/107
f  1/1/98 9/1/98 6/1/98
f  6/1/32 8/1/32 3/1/32
f  10/1/108 4/1/105 5/1/102
f  4/1/101 10/1/109 7/1/106
f  11/1/98 1/1/98 7/1/98
f  8/1/17 12/1/17 5/1/17
f  9/1/98 1/1/98 11/1/98
f  9/1/32 13/1/32 6/1/32
f  6/1/32 13/1/32 8/1/32
f  14/1/110 10/1/108 5/1/102
f  7/1/106 10/1/109 15/1/111
f  11/1/98 7/1/98 16/1/98
f  5/1/17 12/1/17 14/1/17
f  17/1/17 12/1/17 8/1/17
f  20/1/32 13/1/32 9/1/32
f  13/1/17 21/1/17 8/1/17
f  14/1/110 15/1/112 10/1/108
f  7/1/106 15/1/111 22/1/113
f  16/1/98 7/1/98 22/1/98
f  23/1/14 11/1/14 16/1/14
f  12/1/17 24/1/17 14/1/17
f  25/1/114 12/1/115 17/1/116
f  21/1/17 17/1/17 8/1/17
f  11/1/14 23/1/14 18/1/14
f  28/1/32 13/1/32 20/1/32
f  29/1/17 21/1/17 13/1/17
f  30/1/117 15/1/112 14/1/110
f  15/1/111 30/1/118 22/1/113
f  16/1/98 22/1/98 31/1/98
f  14/1/17 24/1/17 34/1/17
f  12/1/115 35/1/119 24/1/120
f  25/1/114 36/1/121 12/1/115
f  25/1/11 17/1/11 37/1/11
f  21/1/11 37/1/11 17/1/11
f  18/1/14 38/1/14 20/1/14
f  23/1/14 38/1/14 18/1/14
f  13/1/32 28/1/32 39/1/32
f  20/1/14 38/1/14 28/1/14
f  29/1/122 41/1/123 21/1/123
f  42/1/17 29/1/17 13/1/17
f  34/1/124 30/1/117 14/1/110
f  22/1/113 30/1/118 43/1/125
f  22/1/113 43/1/125 31/1/126
f  16/1/98 31/1/98 44/1/98
f  38/1/14 23/1/14 33/1/14
f  24/1/17 47/1/17 34/1/17
f  48/1/127 35/1/119 12/1/115
f  35/1/119 49/1/128 24/1/120
f  50/1/129 36/1/130 25/1/130
f  36/1/121 48/1/127 12/1/115
f  37/1/98 50/1/98 25/1/98
f  41/1/11 37/1/11 21/1/11
f  53/1/131 13/1/132 39/1/132
f  28/1/14 38/1/14 54/1/14
f  41/1/123 29/1/122 55/1/122
f  56/1/17 29/1/17 42/1/17
f  13/1/132 53/1/131 42/1/131
f  34/1/124 43/1/133 30/1/117
f  31/1/126 43/1/125 57/1/134
f  31/1/126 58/1/135 44/1/136
f  16/1/98 44/1/98 59/1/98
f  16/1/98 50/1/98 46/1/98
f  37/1/11 33/1/11 46/1/11
f  33/1/11 37/1/11 38/1/11
f  34/1/17 47/1/17 62/1/17
f  24/1/120 63/1/137 47/1/138
f  64/1/139 35/1/140 48/1/141
f  64/1/139 49/1/142 35/1/140
f  49/1/128 63/1/137 24/1/120
f  50/1/129 48/1/141 36/1/130
f  46/1/98 50/1/98 37/1/98
f  38/1/11 37/1/11 41/1/11
f  52/1/14 55/1/14 39/1/14
f  39/1/14 55/1/14 53/1/14
f  28/1/14 54/1/14 67/1/14
f  56/1/143 55/1/122 29/1/122
f  55/1/14 70/1/14 41/1/14
f  71/1/17 56/1/17 42/1/17
f  72/1/144 42/1/131 53/1/131
f  57/1/145 43/1/133 34/1/124
f  31/1/126 57/1/134 58/1/135
f  44/1/136 58/1/135 73/1/146
f  44/1/136 73/1/146 59/1/147
f  16/1/98 59/1/98 74/1/98
f  16/1/98 64/1/98 50/1/98
f  47/1/17 75/1/17 62/1/17
f  62/1/148 57/1/145 34/1/124
f  63/1/137 76/1/149 47/1/138
f  64/1/139 48/1/141 50/1/129
f  77/1/150 49/1/142 64/1/139
f  77/1/150 63/1/151 49/1/142
f  67/1/14 70/1/14 52/1/14
f  70/1/14 55/1/14 52/1/14
f  53/1/14 55/1/14 79/1/14
f  70/1/14 67/1/14 54/1/14
f  55/1/122 56/1/143 79/1/143
f  82/1/17 56/1/17 71/1/17
f  42/1/131 72/1/144 71/1/144
f  53/1/14 79/1/14 72/1/14
f  62/1/148 58/1/152 57/1/145
f  73/1/153 58/1/152 62/1/148
f  73/1/146 83/1/154 59/1/147
f  59/1/147 84/1/79 74/1/80
f  16/1/98 74/1/98 85/1/98
f  16/1/98 77/1/98 64/1/98
f  62/1/17 75/1/17 86/1/17
f  47/1/138 87/1/155 75/1/156
f  77/1/150 76/1/157 63/1/151
f  76/1/149 87/1/155 47/1/138
f  82/1/158 79/1/143 56/1/143
f  88/1/17 82/1/17 71/1/17
f  89/1/159 71/1/144 72/1/144
f  72/1/14 79/1/14 90/1/14
f  86/1/160 73/1/153 62/1/148
f  59/1/147 83/1/154 84/1/79
f  86/1/160 83/1/161 73/1/153
f  74/1/70 84/1/71 86/1/160
f  108/1/162 84/1/71 74/1/70
f  74/1/80 84/1/79 108/1/163
f  74/1/80 91/1/87 85/1/164
f  16/1/98 85/1/98 92/1/98
f  16/1/98 93/1/98 77/1/98
f  75/1/17 94/1/17 86/1/17
f  87/1/155 95/1/165 75/1/156
f  93/1/166 76/1/157 77/1/150
f  93/1/166 87/1/167 76/1/157
f  79/1/143 82/1/158 90/1/158
f  96/1/17 82/1/17 88/1/17
f  71/1/144 89/1/159 88/1/159
f  72/1/14 90/1/14 89/1/14
f  84/1/71 83/1/161 86/1/160
f  74/1/17 86/1/17 94/1/17
f  91/1/82 108/1/162 74/1/70
f  74/1/80 108/1/163 91/1/87
f  85/1/164 91/1/87 97/1/168
f  94/1/169 91/1/82 74/1/70
f  85/1/164 98/1/170 92/1/171
f  16/1/98 92/1/98 93/1/98
f  75/1/156 98/1/172 94/1/169
f  95/1/173 87/1/167 93/1/166
f  95/1/165 98/1/172 75/1/156
f  96/1/174 90/1/158 82/1/158
f  99/1/17 96/1/17 88/1/17
f  100/1/175 88/1/159 89/1/159
f  89/1/14 90/1/14 101/1/14
f  97/1/176 91/1/82 94/1/169
f  85/1/164 97/1/168 98/1/170
f  92/1/171 98/1/170 95/1/173
f  92/1/171 95/1/173 93/1/166
f  98/1/172 97/1/176 94/1/169
f  90/1/158 96/1/174 101/1/174
f  102/1/17 96/1/17 99/1/17
f  88/1/159 100/1/175 99/1/175
f  89/1/14 101/1/14 100/1/14
f  102/1/177 101/1/174 96/1/174
f  103/1/17 102/1/17 99/1/17
f  104/1/178 99/1/175 100/1/175
f  100/1/14 101/1/14 105/1/14
f  101/1/174 102/1/177 105/1/177
f  106/1/17 102/1/17 103/1/17
f  99/1/175 104/1/178 103/1/178
f  100/1/14 105/1/14 104/1/14
f  106/1/7 105/1/177 102/1/177
f  103/1/178 107/1/7 106/1/7
f  107/1/7 103/1/178 104/1/178
f  104/1/14 105/1/14 107/1/14
f  105/1/177 106/1/7 107/1/7

# Mesh 'mesh1_mesh1-geometry' with 32 faces
g mesh1_mesh1-geometry
usemtl material_2_1_8
f  19/2/179 9/3/179 11/4/179
f  26/5/180 11/6/180 18/7/180
f  9/3/179 19/2/179 27/8/179
f  11/6/180 26/5/180 19/9/180
f  27/10/181 20/11/181 9/12/181
f  32/13/182 23/14/182 16/15/182
f  20/16/183 26/17/183 18/18/183
f  20/11/181 27/10/181 40/19/181
f  23/14/182 32/13/182 45/20/182
f  46/21/179 32/22/179 16/23/179
f  45/24/183 33/25/183 23/26/183
f  26/17/183 20/16/183 40/27/183
f  51/28/181 39/29/181 28/30/181
f  32/22/179 46/21/179 61/31/179
f  60/32/184 46/33/184 33/34/184
f  33/25/183 45/24/183 60/35/183
f  39/29/181 51/28/181 65/36/181
f  28/37/185 66/38/185 51/39/185
f  39/40/186 68/41/186 52/42/186
f  38/43/185 69/44/185 54/45/185
f  46/33/184 60/32/184 61/46/184
f  78/47/184 38/48/184 41/49/184
f  68/41/186 39/40/186 65/50/186
f  66/38/185 28/37/185 67/51/185
f  68/52/180 67/53/180 52/54/180
f  69/44/185 38/43/185 80/55/185
f  69/56/182 70/57/182 54/58/182
f  81/59/186 41/60/186 70/61/186
f  38/48/184 78/47/184 80/62/184
f  41/60/186 81/59/186 78/63/186
f  67/53/180 68/52/180 66/64/180
f  70/57/182 69/56/182 81/65/182

# Mesh 'mesh2_mesh2-geometry' with 4 faces
g mesh2_mesh2-geometry
usemtl material_0_0
l  78 81
l  80 78
l  69 81
l  69 80

# Mesh 'mesh3_mesh3-geometry' with 4 faces
g mesh3_mesh3-geometry
usemtl material_0_0
l  26 19
l  26 40
l  27 19
l  40 27

# Mesh 'mesh4_mesh4-geometry' with 2 faces
g mesh4_mesh4-geometry
usemtl material_0_0
l  66 68
l  68 65

# Mesh 'mesh5_mesh5-geometry' with 1 faces
g mesh5_mesh5-geometry
usemtl material_0_0
l  45 60

