# File produced by Open Asset Import Library (http://www.assimp.sf.net)
# (assimp v3.2.202087883)

mtllib model_normalized.mtl

# 70 vertex positions
v -0.164602 -0.004717 0.061925
v -0.126456 -0.208976 0.061925
v -0.126456 -0.004717 0.061925
v -0.164602 -0.208976 0.061925
v -0.126456 0.042109 0.113192
v -0.126456 -0.208976 0.113192
v -0.126456 0.042109 0.061925
v -0.126456 0.042109 0.104109
v -0.143308 0.042109 0.061925
v -0.159557 0.042109 0.061925
v -0.164602 0.042109 0.061925
v 0.100006 -0.208976 0.113192
v 0.096451 -0.205422 0.113192
v 0.100006 0.042109 0.113192
v -0.122901 -0.205422 0.113192
v -0.122901 0.038554 0.113192
v 0.096451 0.038554 0.113192
v -0.164602 -0.208976 0.113192
v -0.143308 0.042109 0.113192
v -0.164602 0.042109 0.113192
v -0.143308 0.042109 0.104109
v 0.138153 0.042109 -0.157672
v 0.102428 0.042109 0.061925
v 0.138153 0.042109 0.061925
v 0.100006 0.042109 0.061925
v -0.122015 0.042109 -0.127308
v 0.096372 0.042109 -0.157672
v -0.122015 0.042109 -0.169896
v 0.096372 0.042109 -0.169896
v -0.143308 0.042109 -0.127308
v -0.126456 0.187936 0.061925
v -0.126456 0.187936 0.104109
v -0.159557 0.042109 0.104109
v 0.138153 0.042109 0.113192
v 0.138153 -0.208976 0.113192
v -0.159557 0.187936 0.104109
v 0.138153 -0.208976 -0.157672
v 0.096372 -0.208976 -0.157672
v 0.138153 0.042109 -0.169896
v 0.096372 -0.208976 -0.208939
v 0.096372 -0.004717 -0.208939
v 0.096372 0.042109 -0.208939
v -0.122015 -0.208976 -0.169896
v -0.122015 -0.208976 -0.127308
v -0.143308 0.042109 -0.169896
v -0.164602 -0.208976 -0.127308
v -0.164602 0.042109 -0.127308
v 0.102428 0.042109 0.090788
v 0.138153 0.042109 0.090788
v 0.138153 -0.004717 0.061925
v 0.100006 -0.004717 0.061925
v -0.159557 0.187936 0.061925
v 0.138153 -0.208976 0.061925
v 0.138153 -0.004717 -0.208939
v 0.138153 -0.208976 -0.208939
v 0.138153 0.042109 -0.208939
v -0.164602 -0.208976 -0.169896
v -0.164602 0.042109 -0.169896
v 0.102428 0.187936 0.090788
v 0.102428 0.187936 0.061925
v 0.138153 0.187936 0.090788
v 0.100006 -0.208976 0.061925
v 0.138153 0.187936 0.061925
v -0.159557 0.344662 0.061925
v 0.138153 0.344662 0.061925
v -0.159557 0.333763 0.061925
v 0.587441 -0.208976 0.113192
v 0.587441 -0.208976 -0.244463
v 0.099199 0.042109 0.061925
v -0.126456 0.333763 0.061925

# 0 UV coordinates

# 14 vertex normals
vn -0 -5.70681e-18 0.0254
vn -0.0254 0 0
vn -4.71176e-18 -5.74248e-18 0.0254
vn 0 0 -0.0254
vn 0 -0.0254 0
vn 0 0.0254 0
vn 0.0254 0 0
vn -4.17352e-18 2.83391e-18 0.0254
vn 0 0 0.0254
vn 0 5.70681e-18 -0.0254
vn -2.79812e-19 -2.89372e-20 0.0254
vn 4.71176e-18 5.74248e-18 -0.0254
vn 4.17352e-18 -2.83391e-18 -0.0254
vn 2.79812e-19 2.89372e-20 -0.0254

# Mesh 'SketchUp_ID2' with 114 faces
g SketchUp_ID2
usemtl material
f  1//1 2//1 3//1
f  2//1 1//1 4//1
f  5//2 2//2 6//2
f  2//2 5//2 3//2
f  3//2 5//2 7//2
f  7//2 5//2 8//2
f  9//3 3//3 7//3
f  3//3 9//3 1//3
f  1//3 9//3 10//3
f  1//3 10//3 11//3
f  12//4 13//4 14//4
f  13//4 12//4 6//4
f  13//4 6//4 15//4
f  15//4 6//4 16//4
f  14//4 17//4 5//4
f  17//4 14//4 13//4
f  5//4 17//4 16//4
f  5//4 16//4 6//4
f  18//4 5//4 6//4
f  5//4 18//4 19//4
f  19//4 18//4 20//4
f  21//5 5//5 19//5
f  5//5 21//5 8//5
f  22//6 23//6 24//6
f  23//6 22//6 25//6
f  25//6 22//6 7//6
f  7//6 22//6 26//6
f  26//6 22//6 27//6
f  26//6 27//6 28//6
f  28//6 27//6 29//6
f  7//6 30//6 9//6
f  30//6 7//6 26//6
f  25//6 5//6 14//6
f  5//6 25//6 8//6
f  8//6 25//6 7//6
f  31//7 8//7 7//7
f  8//7 31//7 32//7
f  9//5 8//5 21//5
f  8//5 9//5 7//5
f  33//5 9//5 21//5
f  9//5 33//5 10//5
f  20//5 33//5 19//5
f  33//5 20//5 11//5
f  19//5 33//5 21//5
f  33//5 11//5 10//5
f  12//4 34//4 35//4
f  34//4 12//4 14//4
f  36//8 8//8 32//8
f  8//8 36//8 21//8
f  21//8 36//8 33//8
f  27//9 37//9 22//9
f  37//9 27//9 38//9
f  39//6 27//6 22//6
f  27//6 39//6 29//6
f  27//2 40//2 38//2
f  40//2 27//2 41//2
f  41//2 27//2 42//2
f  42//2 27//2 29//2
f  26//2 43//2 44//2
f  43//2 26//2 28//2
f  45//5 26//5 30//5
f  26//5 45//5 28//5
f  46//4 26//4 44//4
f  26//4 46//4 30//4
f  30//4 46//4 47//4
f  14//5 48//5 34//5
f  48//5 14//5 25//5
f  48//5 25//5 23//5
f  49//5 34//5 48//5
f  23//9 50//9 24//9
f  50//9 23//9 51//9
f  51//9 23//9 25//9
f  23//5 49//5 48//5
f  49//5 23//5 24//5
f  31//6 36//6 32//6
f  36//6 31//6 52//6
f  36//2 10//2 33//2
f  10//2 36//2 52//2
f  34//2 53//2 35//2
f  53//2 34//2 50//2
f  50//2 34//2 24//2
f  24//2 34//2 49//2
f  54//7 37//7 55//7
f  37//7 54//7 22//7
f  22//7 54//7 56//7
f  22//7 56//7 39//7
f  40//5 37//5 38//5
f  37//5 40//5 55//5
f  56//6 29//6 39//6
f  29//6 56//6 42//6
f  40//10 54//10 55//10
f  54//10 40//10 41//10
f  41//4 56//4 54//4
f  56//4 41//4 42//4
f  45//9 43//9 28//9
f  43//9 45//9 57//9
f  57//9 45//9 58//9
f  58//5 30//5 47//5
f  30//5 58//5 45//5
f  59//2 23//2 48//2
f  23//2 59//2 60//2
f  59//9 49//9 61//9
f  49//9 59//9 48//9
f  51//1 53//1 50//1
f  53//1 51//1 62//1
f  63//7 49//7 24//7
f  49//7 63//7 61//7
f  64//11 63//11 65//11
f  63//11 64//11 60//11
f  60//11 64//11 31//11
f  31//11 64//11 52//11
f  52//11 64//11 66//11
f  63//6 59//6 61//6
f  59//6 63//6 60//6

# Mesh 'SketchUp_ID2' with 114 faces
g SketchUp_ID2
usemtl material_0
f  4//10 1//10 2//10
f  3//10 2//10 1//10
f  8//7 5//7 7//7
f  7//7 5//7 3//7
f  3//7 5//7 2//7
f  6//7 2//7 5//7
f  11//12 10//12 1//12
f  10//12 9//12 1//12
f  1//12 9//12 3//12
f  7//12 3//12 9//12
f  6//9 16//9 5//9
f  16//9 17//9 5//9
f  13//9 14//9 17//9
f  5//9 17//9 14//9
f  16//9 6//9 15//9
f  15//9 6//9 13//9
f  6//9 12//9 13//9
f  14//9 13//9 12//9
f  20//9 18//9 19//9
f  19//9 18//9 5//9
f  6//9 5//9 18//9
f  8//6 21//6 5//6
f  19//6 5//6 21//6
f  7//5 25//5 8//5
f  8//5 25//5 5//5
f  14//5 5//5 25//5
f  26//5 7//5 30//5
f  9//5 30//5 7//5
f  29//5 27//5 28//5
f  28//5 27//5 26//5
f  27//5 22//5 26//5
f  26//5 22//5 7//5
f  7//5 22//5 25//5
f  25//5 22//5 23//5
f  24//5 23//5 22//5
f  32//2 31//2 8//2
f  7//2 8//2 31//2
f  7//6 9//6 8//6
f  21//6 8//6 9//6
f  10//6 33//6 9//6
f  21//6 9//6 33//6
f  10//6 11//6 33//6
f  21//6 33//6 19//6
f  11//6 20//6 33//6
f  19//6 33//6 20//6
f  14//9 12//9 34//9
f  35//9 34//9 12//9
f  33//13 36//13 21//13
f  21//13 36//13 8//13
f  32//13 8//13 36//13
f  38//4 27//4 37//4
f  22//4 37//4 27//4
f  29//5 39//5 27//5
f  22//5 27//5 39//5
f  29//7 27//7 42//7
f  42//7 27//7 41//7
f  41//7 27//7 40//7
f  38//7 40//7 27//7
f  28//7 26//7 43//7
f  44//7 43//7 26//7
f  28//6 45//6 26//6
f  30//6 26//6 45//6
f  47//9 46//9 30//9
f  30//9 46//9 26//9
f  44//9 26//9 46//9
f  48//6 34//6 49//6
f  23//6 25//6 48//6
f  25//6 14//6 48//6
f  34//6 48//6 14//6
f  25//4 23//4 51//4
f  51//4 23//4 50//4
f  24//4 50//4 23//4
f  24//6 23//6 49//6
f  48//6 49//6 23//6
f  52//5 31//5 36//5
f  32//5 36//5 31//5
f  52//7 36//7 10//7
f  33//7 10//7 36//7
f  49//7 34//7 24//7
f  24//7 34//7 50//7
f  50//7 34//7 53//7
f  35//7 53//7 34//7
f  39//2 56//2 22//2
f  56//2 54//2 22//2
f  22//2 54//2 37//2
f  55//2 37//2 54//2
f  55//6 40//6 37//6
f  38//6 37//6 40//6
f  42//5 56//5 29//5
f  39//5 29//5 56//5
f  41//1 40//1 54//1
f  55//1 54//1 40//1
f  42//9 41//9 56//9
f  54//9 56//9 41//9
f  58//4 45//4 57//4
f  57//4 45//4 43//4
f  28//4 43//4 45//4
f  45//6 58//6 30//6
f  47//6 30//6 58//6
f  60//7 59//7 23//7
f  48//7 23//7 59//7
f  48//4 59//4 49//4
f  61//4 49//4 59//4
f  62//10 51//10 53//10
f  50//10 53//10 51//10
f  61//2 63//2 49//2
f  24//2 49//2 63//2
f  66//14 64//14 52//14
f  52//14 64//14 31//14
f  31//14 64//14 60//14
f  60//14 64//14 63//14
f  65//14 63//14 64//14
f  60//5 63//5 59//5
f  61//5 59//5 63//5

# Mesh 'SketchUp_ID12' with 2 faces
g SketchUp_ID12
usemtl edge_color000255
l  67 68
l  35 67

# Mesh 'SketchUp_ID18' with 1 faces
g SketchUp_ID18
usemtl edge_color000255
l  69 25

# Mesh 'SketchUp_ID22' with 1 faces
g SketchUp_ID22
usemtl edge_color000255
l  70 66

