# File produced by Open Asset Import Library (http://www.assimp.sf.net)
# (assimp v3.2.202087883)

mtllib model_normalized.mtl

# 116 vertex positions
v -0.182485 -0.143349 -0.272690
v -0.157610 -0.464424 -0.272690
v -0.182485 -0.464424 -0.272690
v -0.157610 -0.410912 -0.272690
v -0.182485 -0.464424 -0.205379
v -0.157930 -0.376920 -0.272690
v -0.157610 -0.410912 -0.205379
v -0.157610 -0.464424 -0.205379
v -0.182485 -0.185755 -0.205379
v -0.157930 -0.185755 -0.272690
v 0.149666 -0.410912 -0.272690
v -0.182485 -0.143349 0.041086
v 0.151379 -0.185755 -0.272690
v -0.157930 -0.185755 -0.205379
v 0.151379 -0.376920 -0.272690
v 0.149666 -0.410912 -0.205379
v -0.157930 -0.376920 -0.205379
v -0.182485 -0.185755 0.023143
v -0.144709 -0.143349 0.041086
v 0.180660 -0.143349 -0.272690
v 0.151379 -0.376920 -0.205379
v 0.149666 -0.464424 -0.205379
v -0.182485 -0.464424 0.090455
v 0.149441 -0.143349 0.090455
v -0.182485 0.184962 0.041086
v 0.180660 -0.143349 0.041086
v 0.151379 -0.185755 -0.205379
v 0.180660 -0.464424 -0.272690
v 0.149666 -0.464424 -0.272690
v 0.180660 -0.185755 -0.205379
v -0.182485 -0.464424 0.023143
v 0.149441 -0.143349 0.041086
v -0.144709 -0.143349 0.090455
v -0.144709 -0.050127 0.041086
v 0.180660 -0.464424 -0.205379
v -0.138398 -0.423927 0.023143
v -0.138398 -0.464424 0.023143
v -0.182485 0.184962 0.090455
v 0.149441 -0.050127 0.041086
v -0.142974 -0.189036 0.090455
v -0.144709 0.133688 0.041086
v 0.180660 -0.185755 0.023143
v -0.142974 -0.391306 0.023143
v -0.138398 -0.464424 0.090455
v -0.142974 -0.391306 0.090455
v -0.182286 0.237017 0.041086
v 0.149441 -0.050127 0.090455
v 0.147475 -0.189036 0.090455
v -0.144709 0.192534 0.041086
v 0.180660 0.184962 0.041086
v 0.180660 -0.464424 0.023143
v 0.147475 -0.189036 0.023143
v -0.138398 -0.423927 0.090455
v -0.142974 -0.189036 0.023143
v 0.148590 -0.423927 0.023143
v -0.182286 0.237017 0.090455
v 0.180660 0.184962 0.090455
v -0.144709 -0.050127 0.090455
v 0.149441 0.133688 0.041086
v 0.180660 -0.464424 0.090455
v 0.148590 -0.464424 0.023143
v 0.147475 -0.391306 0.023143
v 0.147475 -0.391306 0.090455
v -0.144709 0.192534 0.090455
v -0.167465 0.286918 0.041086
v 0.149441 0.192534 0.041086
v 0.149441 0.133688 0.090455
v -0.144709 0.133688 0.090455
v 0.180461 0.237017 0.090455
v 0.148590 -0.464424 0.090455
v 0.148590 -0.423927 0.090455
v -0.167465 0.286918 0.090455
v -0.143554 0.243435 0.041086
v 0.180461 0.237017 0.041086
v 0.149441 0.192534 0.090455
v 0.143529 0.243435 0.090455
v -0.143554 0.243435 0.090455
v -0.139215 0.330640 0.041086
v -0.133856 0.275866 0.041086
v 0.143529 0.243435 0.041086
v 0.165639 0.286918 0.090455
v -0.133856 0.275866 0.090455
v -0.139215 0.330640 0.090455
v -0.116939 0.305183 0.041086
v 0.165639 0.286918 0.041086
v 0.133831 0.275866 0.090455
v -0.116939 0.305183 0.090455
v -0.099815 0.364663 0.090455
v -0.093716 0.329809 0.041086
v 0.133831 0.275866 0.041086
v 0.137389 0.330640 0.041086
v 0.116915 0.305183 0.090455
v -0.093716 0.329809 0.090455
v -0.099815 0.364663 0.041086
v -0.065438 0.348414 0.090455
v -0.065438 0.348414 0.041086
v 0.116915 0.305183 0.041086
v 0.137389 0.330640 0.090455
v -0.052441 0.386236 0.090455
v -0.033632 0.359992 0.090455
v 0.097989 0.364663 0.041086
v 0.093691 0.329809 0.041086
v 0.093691 0.329809 0.090455
v -0.052441 0.386236 0.041086
v 0.050615 0.386236 0.090455
v -0.033632 0.359992 0.041086
v -0.000012 0.363922 0.090455
v 0.097989 0.364663 0.090455
v 0.065414 0.348414 0.041086
v 0.065414 0.348414 0.090455
v -0.000913 0.393627 0.090455
v 0.050615 0.386236 0.041086
v -0.000012 0.363922 0.041086
v 0.033608 0.359992 0.041086
v -0.000913 0.393627 0.041086
v 0.033608 0.359992 0.090455

# 232 UV coordinates
vt 0.708005 0.165354 0
vt 0.659507 -1.08661 0
vt 0.708005 -1.08661 0
vt 0.659507 -0.877953 0
vt -0.659507 0 0
vt -0.708005 0.262467 0
vt -0.708005 0 0
vt 0.131234 -1.08661 0
vt 0 0.165354 0
vt 0 -1.08661 0
vt 0.660134 -0.745407 0
vt -0.131234 -0.877953 0
vt 0 -0.877953 0
vt -0.659507 0.262467 0
vt 0.131234 0 0
vt 0.660134 0 0
vt 0.060426 -0.877953 0
vt -0.131234 -1.08661 0
vt -0.060426 0 0
vt -0.659507 -0.877953 0
vt -0.708005 -1.08661 0
vt -0.659507 -1.08661 0
vt 0.611754 0.165354 0
vt 0.057087 0 0
vt -0.131234 0 0
vt 0 -0.745407 0
vt 0 0 0
vt 0.057087 -0.745407 0
vt -0.060426 0.262467 0
vt -0.660134 -0.745407 0
vt 0.576772 0 0
vt 0.634355 1.22351 0
vt 0.708005 0 0
vt 0.708005 1.22351 0
vt -0.057087 0 0
vt -0.660134 0.262467 0
vt -0.660134 0 0
vt -0.131234 -0.745407 0
vt 0.057087 0.262467 0
vt 0.131234 -0.877953 0
vt -0.060426 -0.877953 0
vt -0.057087 -0.745407 0
vt -0.708005 1.15354 0
vt 0.060865 1.41601 0
vt 0.708005 1.44554 0
vt 0.634355 0.165354 0
vt 0 1.22351 0
vt -0.057087 0.262467 0
vt 0.660134 0.262467 0
vt 0.131234 -0.745407 0
vt -0.060426 -1.08661 0
vt 0.576772 -1.08661 0
vt 0.611754 1.44554 0
vt 0.060865 1.22351 0
vt 0.634355 1.41601 0
vt 0.634355 0.528857 0
vt -0.611754 0.165354 0
vt 0.060426 -1.08661 0
vt 0 0.262467 0
vt 0.622052 -0.928703 0
vt -0.622052 1.15354 0
vt -0.708005 1.41601 0
vt 0.611754 0.528857 0
vt -0.634355 0.165354 0
vt -0.630972 -0.012791 0
vt -0.060865 0.165354 0
vt 0.634355 1.24561 0
vt 0.060865 0.528857 0
vt 0.060865 0.165354 0
vt -0.576772 -0 0
vt 0 1.15354 0
vt 0.622052 -1.08661 0
vt 0.630972 -0.801505 0
vt -0.622052 1.41601 0
vt -0.630972 -0.801505 0
vt -0.708005 1.44554 0
vt 0.101834 0.192503 0
vt -0 0.192503 0
vt 0.708005 0.528857 0
vt -0.064699 -0.012791 0
vt 0.634355 1.47507 0
vt -0 1.44554 0
vt -0.576772 -1.08661 0
vt 0.064699 -0.012791 0
vt -0.708005 -0.928703 0
vt -0.576772 -0.928703 0
vt 0.630972 -0.012791 0
vt 0.062525 -0.928703 0
vt -0.622052 -0.928703 0
vt -0.622052 -1.08661 0
vt 0.101834 -0 0
vt 0.707617 1.64852 0
vt -0.060865 0.528857 0
vt -0.634355 1.41601 0
vt -0.060865 1.22351 0
vt -0.060865 1.41601 0
vt -0.634355 0.528857 0
vt -0.630972 1.41601 0
vt -0.064699 1.15354 0
vt -0.064699 1.41601 0
vt 0.060865 1.24561 0
vt -0.634355 1.22351 0
vt -0.611754 1.44554 0
vt 0.062525 -1.08661 0
vt 0.064699 -0.801505 0
vt -0.062525 1.15354 0
vt -0.708005 -0.012791 0
vt -0.576772 -0.801505 0
vt -0.576772 -0.012791 0
vt -0.064699 -0.801505 0
vt -0.708005 -0.801505 0
vt -0.634355 1.47507 0
vt -0.707617 1.64852 0
vt 0.203668 0.192503 0
vt 0.060865 1.47507 0
vt -0.060865 1.24561 0
vt -0.634355 1.24561 0
vt -0.630972 1.15354 0
vt 0.576772 -0.012791 0
vt 0.708005 -0.801505 0
vt 0.708005 -0.012791 0
vt 1.22201 0.192503 0
vt 1.12017 0 0
vt 1.22201 0 0
vt -0.062525 1.41601 0
vt 0 1.41601 0
vt 0.576772 -0.801505 0
vt 0.630972 1.15354 0
vt 0.064699 1.41601 0
vt 0.064699 1.15354 0
vt -0.062525 -0.928703 0
vt 0.630972 1.41601 0
vt -0.000388 1.64852 0
vt 0.203668 0 0
vt 0.67872 1.84309 0
vt 0.632103 1.67355 0
vt 0.000388 1.64852 0
vt -0.060865 1.47507 0
vt 0.708005 1.24561 0
vt 0.611754 1.47507 0
vt 0.611754 1.24561 0
vt -0.062525 -1.08661 0
vt 1.12017 0.192503 0
vt 0.708005 -0.928703 0
vt 0.576772 -0.928703 0
vt -0.072391 1.67355 0
vt -0.632103 1.67355 0
vt -0.67872 1.84309 0
vt 0.305502 0.192503 0
vt 0.613195 1.8 0
vt 0.072391 1.67355 0
vt 0.708005 1.47507 0
vt 1.01834 0 0
vt -0.029285 1.84309 0
vt -0.613195 1.8 0
vt 0.305502 -0 0
vt 0.580214 1.91432 0
vt 0.623643 2.01358 0
vt 0.066142 0.192503 0
vt 0.066142 0 0
vt 0.632103 1.22351 0
vt 0.072391 1.41601 0
vt 0.072391 1.22351 0
vt 0.029285 1.84309 0
vt 1.01834 0.192503 0
vt -0.091299 1.8 0
vt 0.632103 1.41601 0
vt -0.580214 1.91432 0
vt -0.623643 2.01358 0
vt 0.407336 0 0
vt 0.534936 2.01034 0
vt 0.132284 0.192503 0
vt 0.132284 -0 0
vt 0.727564 0.192503 0
vt 0.793707 0 0
vt 0.793707 0.192503 0
vt 0.091299 1.8 0
vt 0.916505 0.192503 0
vt -0.12428 1.91432 0
vt -0.534936 2.01034 0
vt 0.407336 0.192503 0
vt -0.479805 2.08288 0
vt -0.546827 2.14624 0
vt 0.479805 2.08288 0
vt 0.198427 0.192503 0
vt 0.198427 -0 0
vt 0.727564 0 0
vt 0.12428 1.91432 0
vt 0.916505 0 0
vt 0.084362 2.01358 0
vt -0.084362 2.01358 0
vt 0.661422 0.192503 0
vt 0.50917 0 0
vt 0.546827 2.14624 0
vt -0.417794 2.12804 0
vt 0.264569 0 0
vt 0.661422 0 0
vt 0.814671 0.192503 0
vt 0.169558 2.01034 0
vt -0.169558 2.01034 0
vt 0.264569 0.192503 0
vt 0.50917 0.192503 0
vt -0.253541 2.23037 0
vt -0.454464 2.23037 0
vt 0.417794 2.12804 0
vt 0.330711 0 0
vt 0.330711 0.192503 0
vt -0.352247 2.14336 0
vt 0.59528 0.192503 0
vt 0.814671 0 0
vt 0.224689 2.08288 0
vt 0.161178 2.14624 0
vt 0.59528 -0 0
vt -0.224689 2.08288 0
vt 0.611003 0 0
vt 0.253541 2.23037 0
vt 0.454464 2.23037 0
vt -0.161178 2.14624 0
vt -0.354003 2.25919 0
vt 0.352247 2.14336 0
vt 0.396853 0 0
vt 0.396853 0.192503 0
vt 0.712837 0.192503 0
vt 0.2867 2.12804 0
vt 0.529138 0.192503 0
vt 0.529138 0 0
vt 0.611003 0.192503 0
vt 0.354003 2.25919 0
vt 0.712837 0 0
vt 0.462995 0 0
vt -0.2867 2.12804 0
vt 0.462995 0.192503 0

# 54 vertex normals
vn 0 0 -0.01
vn 0 -0.01 0
vn -0.01 0 0
vn 0.01 -0 -0
vn 0 0 0.01
vn 0 0.01 0
vn -0.00999993 3.822e-05 0
vn -0.00989321 0.00145753 0
vn -0.00908474 0.00417942 0
vn 0.00999993 3.822e-05 0
vn 0.00989321 0.00145753 0
vn -0.00754383 0.00656435 0
vn 0.00908474 0.00417942 0
vn 0.00918329 -0.00395819 0
vn 0.00958079 -0.00286504 0
vn -0.00539471 0.00842004 0
vn 0.00802259 -0.00596976 0
vn -0.00918329 -0.00395819 0
vn -0.00958079 -0.00286504 0
vn 0.00754383 0.00656435 0
vn 0.00642918 -0.00765935 0
vn -0.00802259 -0.00596976 0
vn -0.00281066 0.00959689 0
vn 0.00448901 -0.00893582 0
vn 0.00539471 0.00842004 0
vn 0.00230671 -0.00973032 0
vn -0.00642918 -0.00765935 0
vn 0.00281066 0.00959689 0
vn -0.00448901 -0.00893582 0
vn -0.00230671 -0.00973032 0
vn 0.00999993 -3.822e-05 0
vn 0.00989321 -0.00145753 -0
vn 0.00908474 -0.00417942 -0
vn -0.00999993 -3.822e-05 0
vn -0.00989321 -0.00145753 0
vn 0.00754383 -0.00656435 -0
vn -0.00908474 -0.00417942 0
vn -0.00918329 0.00395819 0
vn -0.00958079 0.00286504 0
vn 0.00539471 -0.00842004 -0
vn -0.00802259 0.00596976 0
vn 0.00958079 0.00286504 0
vn 0.00918329 0.00395819 0
vn -0.00754383 -0.00656435 0
vn -0.00642918 0.00765935 0
vn 0.00802259 0.00596976 0
vn 0.00281066 -0.00959689 -0
vn -0.00448901 0.00893582 0
vn -0.00539471 -0.00842004 0
vn -0.00230671 0.00973032 0
vn 0.00642918 0.00765935 0
vn -0.00281066 -0.00959689 0
vn 0.00448901 0.00893582 0
vn 0.00230671 0.00973032 0

# Mesh 'mesh1_mesh1-geometry' with 340 faces
g mesh1_mesh1-geometry
usemtl material_0_1_8
f  1/1/1 2/2/1 3/3/1
f  2/2/1 1/1/1 4/4/1
f  2/5/2 5/6/2 3/7/2
f  5/8/3 1/9/3 3/10/3
f  3/10/4 1/9/4 5/8/4
f  4/4/1 1/1/1 6/11/1
f  7/12/4 2/10/4 4/13/4
f  5/6/2 2/5/2 8/14/2
f  1/9/3 5/8/3 9/15/3
f  9/15/4 5/8/4 1/9/4
f  6/11/1 1/1/1 10/16/1
f  4/4/1 6/11/1 11/17/1
f  2/10/4 7/12/4 8/18/4
f  11/19/2 7/14/2 4/5/2
f  7/20/5 5/21/5 8/22/5
f  5/21/5 7/20/5 9/7/5
f  1/9/3 9/15/3 12/23/3
f  12/23/4 9/15/4 1/9/4
f  10/16/1 1/1/1 13/24/1
f  14/25/4 6/26/4 10/27/4
f  15/28/1 11/17/1 6/11/1
f  7/14/2 11/19/2 16/29/2
f  9/7/5 7/20/5 17/30/5
f  12/23/3 9/15/3 18/31/3
f  18/31/4 9/15/4 12/23/4
f  19/32/6 1/33/6 12/34/6
f  20/9/1 13/24/1 1/1/1
f  13/35/2 14/36/2 10/37/2
f  6/26/4 14/25/4 17/38/4
f  20/9/1 11/17/1 15/28/1
f  6/16/6 21/39/6 15/24/6
f  11/13/3 22/8/3 16/40/3
f  16/41/5 21/42/5 7/20/5
f  17/30/5 7/20/5 21/42/5
f  9/7/5 17/30/5 14/37/5
f  14/36/2 18/43/2 9/6/2
f  18/31/3 23/3/3 12/23/3
f  12/23/4 23/3/4 18/31/4
f  24/44/6 1/33/6 19/32/6
f  25/45/1 19/46/1 12/1/1
f  12/1/5 19/46/5 25/45/5
f  20/9/1 15/28/1 13/24/1
f  1/33/6 26/47/6 20/27/6
f  14/36/2 13/35/2 27/48/2
f  21/39/6 6/16/6 17/49/6
f  28/10/1 11/17/1 20/9/1
f  21/50/3 13/27/3 15/26/3
f  22/8/3 11/13/3 29/10/3
f  22/51/5 30/27/5 16/41/5
f  16/41/5 30/27/5 21/42/5
f  27/48/2 18/43/2 14/36/2
f  23/3/3 18/31/3 31/52/3
f  31/52/4 18/31/4 23/3/4
f  12/23/3 23/3/3 25/53/3
f  25/53/4 23/3/4 12/23/4
f  32/54/6 1/33/6 24/44/6
f  33/55/6 24/44/6 19/32/6
f  19/46/1 25/45/1 34/56/1
f  34/56/5 25/45/5 19/46/5
f  26/47/6 1/33/6 32/54/6
f  30/25/4 20/9/4 26/57/4
f  13/27/3 21/50/3 27/15/3
f  11/17/1 28/10/1 29/58/1
f  20/9/4 30/25/4 28/10/4
f  28/27/2 22/29/2 29/19/2
f  30/27/5 22/51/5 35/10/5
f  21/42/5 30/27/5 27/35/5
f  30/59/2 18/43/2 27/48/2
f  36/60/1 31/3/1 18/33/1
f  37/61/2 23/62/2 31/43/2
f  25/53/3 23/3/3 38/45/3
f  38/45/4 23/3/4 25/53/4
f  24/1/3 39/63/3 32/23/3
f  33/64/5 40/65/5 24/66/5
f  24/66/1 40/65/1 33/64/1
f  34/56/1 25/45/1 41/67/1
f  41/67/5 25/45/5 34/56/5
f  39/68/1 26/9/1 32/69/1
f  32/69/5 26/9/5 39/68/5
f  30/25/4 26/57/4 42/70/4
f  35/18/4 28/10/4 30/25/4
f  22/29/2 28/27/2 35/59/2
f  18/43/2 30/59/2 42/71/2
f  31/3/1 36/60/1 37/72/1
f  36/60/1 18/33/1 43/73/1
f  23/62/2 37/61/2 44/74/2
f  23/21/5 45/75/5 38/76/5
f  38/76/1 45/75/1 23/21/1
f  38/27/7 46/77/8 25/78/7
f  39/63/3 24/1/3 47/79/3
f  38/76/5 40/65/5 33/64/5
f  33/64/1 40/65/1 38/76/1
f  48/80/5 24/66/5 40/65/5
f  40/65/1 24/66/1 48/80/1
f  41/67/1 25/45/1 49/81/1
f  49/81/5 25/45/5 41/67/5
f  34/56/1 41/67/1 39/68/1
f  39/68/5 41/67/5 34/56/5
f  26/9/1 39/68/1 50/82/1
f  50/82/5 39/68/5 26/9/5
f  42/70/4 26/57/4 51/83/4
f  42/27/1 52/84/1 18/33/1
f  53/85/4 37/83/4 36/86/4
f  43/73/1 18/33/1 54/87/1
f  36/60/1 43/73/1 55/88/1
f  37/83/4 53/85/4 44/21/4
f  53/89/5 23/21/5 44/90/5
f  44/90/1 23/21/1 53/89/1
f  23/21/5 53/89/5 45/75/5
f  45/75/1 53/89/1 23/21/1
f  38/76/5 45/75/5 40/65/5
f  40/65/1 45/75/1 38/76/1
f  46/77/8 38/27/7 56/91/8
f  49/81/1 25/45/1 46/92/1
f  46/92/5 25/45/5 49/81/5
f  24/66/5 57/82/5 47/93/5
f  47/93/1 57/82/1 24/66/1
f  58/94/2 39/95/2 47/96/2
f  38/76/5 33/64/5 58/97/5
f  58/97/1 33/64/1 38/76/1
f  48/80/5 57/82/5 24/66/5
f  24/66/1 57/82/1 48/80/1
f  40/98/2 52/99/2 48/100/2
f  59/101/1 39/68/1 41/67/1
f  41/67/5 39/68/5 59/101/5
f  39/95/2 58/94/2 34/102/2
f  50/82/1 39/68/1 59/101/1
f  59/101/5 39/68/5 50/82/5
f  57/76/4 26/57/4 50/103/4
f  51/83/4 26/57/4 60/21/4
f  61/104/1 42/27/1 51/10/1
f  42/27/1 62/105/1 52/84/1
f  54/87/1 18/33/1 52/84/1
f  55/106/2 53/74/2 36/61/2
f  40/107/4 43/108/4 54/109/4
f  62/105/1 55/88/1 43/73/1
f  45/75/5 53/89/5 63/110/5
f  63/110/1 53/89/1 45/75/1
f  43/108/4 40/107/4 45/111/4
f  38/76/5 64/112/5 56/113/5
f  56/113/1 64/112/1 38/76/1
f  56/91/8 65/114/9 46/77/8
f  49/81/1 46/92/1 66/115/1
f  66/115/5 46/92/5 49/81/5
f  47/93/5 57/82/5 67/116/5
f  67/116/1 57/82/1 47/93/1
f  47/93/5 67/116/5 58/97/5
f  58/97/1 67/116/1 47/93/1
f  38/76/5 58/97/5 68/117/5
f  68/117/1 58/97/1 38/76/1
f  63/110/5 57/82/5 48/80/5
f  48/80/1 57/82/1 63/110/1
f  52/99/2 40/98/2 54/118/2
f  52/119/3 63/120/3 48/121/3
f  41/32/6 67/44/6 59/54/6
f  50/82/1 59/101/1 66/115/1
f  66/115/5 59/101/5 50/82/5
f  60/21/4 26/57/4 57/76/4
f  50/122/10 69/123/11 57/124/10
f  70/125/2 51/71/2 60/126/2
f  42/27/1 61/104/1 55/88/1
f  51/71/2 70/125/2 61/106/2
f  42/27/1 55/88/1 62/105/1
f  63/120/3 52/119/3 62/127/3
f  53/74/2 55/106/2 71/125/2
f  43/128/6 63/129/6 62/130/6
f  71/131/5 63/110/5 53/89/5
f  53/89/1 63/110/1 71/131/1
f  63/129/6 43/128/6 45/132/6
f  38/76/5 68/117/5 64/112/5
f  64/112/1 68/117/1 38/76/1
f  56/113/5 64/112/5 69/133/5
f  69/133/1 64/112/1 56/113/1
f  65/114/9 56/91/8 72/134/9
f  65/135/1 73/136/1 46/92/1
f  46/92/5 73/136/5 65/135/5
f  66/115/1 46/92/1 74/137/1
f  74/137/5 46/92/5 66/115/5
f  66/95/2 64/94/2 49/102/2
f  67/116/5 57/82/5 75/138/5
f  75/138/1 57/82/1 67/116/1
f  68/117/5 58/97/5 67/116/5
f  67/116/1 58/97/1 68/117/1
f  71/131/5 57/82/5 63/110/5
f  63/110/1 57/82/1 71/131/1
f  67/44/6 41/32/6 68/55/6
f  67/139/3 66/140/3 59/141/3
f  50/82/1 66/115/1 74/137/1
f  74/137/5 66/115/5 50/82/5
f  57/82/5 70/142/5 60/10/5
f  60/10/1 70/142/1 57/82/1
f  69/123/11 50/122/10 74/143/11
f  75/138/5 57/82/5 69/133/5
f  69/133/1 57/82/1 75/138/1
f  61/52/3 71/144/3 55/145/3
f  71/144/3 61/52/3 70/3/3
f  75/138/5 69/133/5 64/112/5
f  64/112/1 69/133/1 75/138/1
f  56/113/5 69/133/5 76/146/5
f  76/146/1 69/133/1 56/113/1
f  56/113/5 77/147/5 72/148/5
f  72/148/1 77/147/1 56/113/1
f  72/134/9 78/149/12 65/114/9
f  73/136/1 65/135/1 79/150/1
f  79/150/5 65/135/5 73/136/5
f  80/151/1 46/92/1 73/136/1
f  73/136/5 46/92/5 80/151/5
f  74/137/1 46/92/1 80/151/1
f  80/151/5 46/92/5 74/137/5
f  64/94/2 66/95/2 75/96/2
f  66/140/3 67/139/3 75/152/3
f  70/142/5 57/82/5 71/131/5
f  71/131/1 57/82/1 70/142/1
f  74/143/11 81/153/13 69/123/11
f  76/146/5 69/133/5 81/154/5
f  81/154/1 69/133/1 76/146/1
f  77/147/5 56/113/5 76/146/5
f  76/146/1 56/113/1 77/147/1
f  72/148/5 77/147/5 82/155/5
f  82/155/1 77/147/1 72/148/1
f  78/149/12 72/134/9 83/156/12
f  84/157/1 65/135/1 78/158/1
f  78/158/5 65/135/5 84/157/5
f  79/150/1 65/135/1 84/157/1
f  84/157/5 65/135/5 79/150/5
f  82/159/14 73/27/15 79/160/14
f  73/161/6 76/162/6 80/163/6
f  74/137/1 80/151/1 85/164/1
f  85/164/5 80/151/5 74/137/5
f  81/153/13 74/143/11 85/165/13
f  76/146/5 81/154/5 86/166/5
f  86/166/1 81/154/1 76/146/1
f  76/162/6 73/161/6 77/167/6
f  73/27/15 82/159/14 77/78/15
f  72/148/5 82/155/5 87/168/5
f  87/168/1 82/155/1 72/148/1
f  72/148/5 87/168/5 83/169/5
f  83/169/1 87/168/1 72/148/1
f  88/170/16 78/149/12 83/156/12
f  84/157/1 78/158/1 89/171/1
f  89/171/5 78/158/5 84/157/5
f  87/172/17 79/160/14 84/173/17
f  79/160/14 87/172/17 82/159/14
f  86/174/18 80/175/19 76/176/19
f  85/164/1 80/151/1 90/177/1
f  90/177/5 80/151/5 85/164/5
f  91/178/20 81/153/13 85/165/13
f  86/166/5 81/154/5 92/179/5
f  92/179/1 81/154/1 86/166/1
f  83/169/5 87/168/5 93/180/5
f  93/180/1 87/168/1 83/169/1
f  78/149/12 88/170/16 94/181/16
f  83/169/5 95/182/5 88/183/5
f  88/183/1 95/182/1 83/169/1
f  89/171/1 78/158/1 96/184/1
f  96/184/5 78/158/5 89/171/5
f  93/185/21 84/173/17 89/186/21
f  84/173/17 93/185/21 87/172/17
f  80/175/19 86/174/18 90/187/18
f  85/164/1 90/177/1 97/188/1
f  97/188/5 90/177/5 85/164/5
f  81/153/13 91/178/20 98/189/20
f  85/164/1 97/188/1 91/190/1
f  91/190/5 97/188/5 85/164/5
f  92/179/5 81/154/5 98/191/5
f  98/191/1 81/154/1 92/179/1
f  92/192/22 90/187/18 86/174/18
f  83/169/5 93/180/5 95/182/5
f  95/182/1 93/180/1 83/169/1
f  99/193/23 94/181/16 88/170/16
f  96/184/1 78/158/1 94/194/1
f  94/194/5 78/158/5 96/184/5
f  88/183/5 95/182/5 100/195/5
f  100/195/1 95/182/1 88/183/1
f  96/196/24 93/185/21 89/186/21
f  90/187/18 92/192/22 97/197/22
f  101/198/25 98/189/20 91/178/20
f  91/190/1 97/188/1 102/199/1
f  102/199/5 97/188/5 91/190/5
f  92/179/5 98/191/5 103/200/5
f  103/200/1 98/191/1 92/179/1
f  93/185/21 96/196/24 95/201/24
f  94/181/16 99/193/23 104/202/23
f  88/183/5 105/203/5 99/204/5
f  99/204/1 105/203/1 88/183/1
f  96/184/1 94/194/1 106/205/1
f  106/205/5 94/194/5 96/184/5
f  95/201/24 106/206/26 100/207/26
f  88/183/5 100/195/5 107/208/5
f  107/208/1 100/195/1 88/183/1
f  103/209/27 97/197/22 92/192/22
f  98/189/20 101/198/25 108/210/25
f  91/190/1 109/211/1 101/212/1
f  101/212/5 109/211/5 91/190/5
f  97/197/22 103/209/27 102/213/27
f  91/190/1 102/199/1 109/211/1
f  109/211/5 102/199/5 91/190/5
f  103/200/5 98/191/5 110/214/5
f  110/214/1 98/191/1 103/200/1
f  106/206/26 95/201/24 96/196/24
f  111/215/6 104/202/23 99/193/23
f  112/216/1 94/194/1 104/217/1
f  104/217/5 94/194/5 112/216/5
f  88/183/5 108/218/5 105/203/5
f  105/203/1 108/218/1 88/183/1
f  99/204/5 105/203/5 111/219/5
f  111/219/1 105/203/1 99/204/1
f  106/205/1 94/194/1 113/220/1
f  113/220/5 94/194/5 106/205/5
f  113/221/2 100/207/26 106/206/26
f  100/207/26 113/221/2 107/222/2
f  88/183/5 107/208/5 108/218/5
f  108/218/1 107/208/1 88/183/1
f  112/223/28 108/210/25 101/198/25
f  110/214/5 98/191/5 108/218/5
f  108/218/1 98/191/1 110/214/1
f  101/212/1 109/211/1 114/224/1
f  114/224/5 109/211/5 101/212/5
f  110/225/29 102/213/27 103/209/27
f  102/213/27 110/225/29 109/226/29
f  104/202/23 111/215/6 115/227/6
f  101/212/1 94/194/1 112/216/1
f  112/216/5 94/194/5 101/212/5
f  112/216/1 104/217/1 115/228/1
f  115/228/5 104/217/5 112/216/5
f  108/210/25 112/223/28 105/229/28
f  105/229/28 115/227/6 111/215/6
f  113/220/1 94/194/1 101/212/1
f  101/212/5 94/194/5 113/220/5
f  114/230/30 107/222/2 113/221/2
f  116/231/5 108/218/5 107/208/5
f  107/208/1 108/218/1 116/231/1
f  110/214/5 108/218/5 116/231/5
f  116/231/1 108/218/1 110/214/1
f  109/226/29 116/232/30 114/230/30
f  101/212/1 114/224/1 113/220/1
f  113/220/5 114/224/5 101/212/5
f  116/232/30 109/226/29 110/225/29
f  115/227/6 105/229/28 112/223/28
f  107/222/2 114/230/30 116/232/30

# Mesh 'mesh1_mesh1-geometry' with 148 faces
g mesh1_mesh1-geometry
usemtl material_1_24
f  3//5 2//5 1//5
f  4//5 1//5 2//5
f  3//6 5//6 2//6
f  6//5 1//5 4//5
f  4//3 2//3 7//3
f  8//6 2//6 5//6
f  10//5 1//5 6//5
f  11//5 6//5 4//5
f  8//3 7//3 2//3
f  4//6 7//6 11//6
f  8//1 5//1 7//1
f  9//1 7//1 5//1
f  13//5 1//5 10//5
f  10//3 6//3 14//3
f  6//5 11//5 15//5
f  16//6 11//6 7//6
f  17//1 7//1 9//1
f  12//2 1//2 19//2
f  1//5 13//5 20//5
f  10//6 14//6 13//6
f  17//3 14//3 6//3
f  15//5 11//5 20//5
f  15//2 21//2 6//2
f  16//4 22//4 11//4
f  7//1 21//1 16//1
f  21//1 7//1 17//1
f  14//1 17//1 9//1
f  9//6 18//6 14//6
f  19//2 1//2 24//2
f  13//5 15//5 20//5
f  20//2 26//2 1//2
f  27//6 13//6 14//6
f  17//2 6//2 21//2
f  20//5 11//5 28//5
f  15//4 13//4 21//4
f  29//4 11//4 22//4
f  16//1 30//1 22//1
f  21//1 30//1 16//1
f  14//6 18//6 27//6
f  24//2 1//2 32//2
f  19//2 24//2 33//2
f  32//2 1//2 26//2
f  26//3 20//3 30//3
f  27//4 21//4 13//4
f  29//5 28//5 11//5
f  28//3 30//3 20//3
f  29//6 22//6 28//6
f  35//1 22//1 30//1
f  27//1 30//1 21//1
f  27//6 18//6 30//6
f  18//5 31//5 36//5
f  31//6 23//6 37//6
f  32//4 39//4 24//4
f  42//3 26//3 30//3
f  30//3 28//3 35//3
f  35//6 28//6 22//6
f  42//6 30//6 18//6
f  37//5 36//5 31//5
f  43//5 18//5 36//5
f  44//6 37//6 23//6
f  25//31 46//32 38//31
f  47//4 24//4 39//4
f  51//3 26//3 42//3
f  18//5 52//5 42//5
f  36//3 37//3 53//3
f  54//5 18//5 43//5
f  55//5 43//5 36//5
f  44//3 53//3 37//3
f  56//32 38//31 46//32
f  47//6 39//6 58//6
f  48//6 52//6 40//6
f  34//6 58//6 39//6
f  50//3 26//3 57//3
f  60//3 26//3 51//3
f  51//5 42//5 61//5
f  52//5 62//5 42//5
f  52//5 18//5 54//5
f  36//6 53//6 55//6
f  54//3 43//3 40//3
f  43//5 55//5 62//5
f  45//3 40//3 43//3
f  46//32 65//33 56//32
f  54//6 40//6 52//6
f  48//4 63//4 52//4
f  59//2 67//2 41//2
f  57//3 26//3 60//3
f  57//34 69//35 50//34
f  60//6 51//6 70//6
f  55//5 61//5 42//5
f  61//6 70//6 51//6
f  62//5 55//5 42//5
f  62//4 52//4 63//4
f  71//6 55//6 53//6
f  62//2 63//2 43//2
f  45//2 43//2 63//2
f  72//33 56//32 65//33
f  49//6 64//6 66//6
f  68//2 41//2 67//2
f  59//4 66//4 67//4
f  74//35 50//34 69//35
f  55//4 71//4 61//4
f  70//4 61//4 71//4
f  65//33 78//36 72//33
f  75//6 66//6 64//6
f  75//4 67//4 66//4
f  69//35 81//37 74//35
f  83//36 72//33 78//36
f  79//38 73//39 82//38
f  80//2 76//2 73//2
f  85//37 74//35 81//37
f  77//2 73//2 76//2
f  77//39 82//38 73//39
f  83//36 78//36 88//40
f  84//41 79//38 87//41
f  82//38 87//41 79//38
f  76//42 80//42 86//43
f  85//37 81//37 91//44
f  94//40 88//40 78//36
f  89//45 84//41 93//45
f  87//41 93//45 84//41
f  90//43 86//43 80//42
f  98//44 91//44 81//37
f  86//43 90//43 92//46
f  88//40 94//40 99//47
f  89//45 93//45 96//48
f  97//46 92//46 90//43
f  91//44 98//44 101//49
f  95//48 96//48 93//45
f  104//47 99//47 94//40
f  100//50 106//50 95//48
f  92//46 97//46 103//51
f  108//49 101//49 98//44
f  102//51 103//51 97//46
f  96//48 95//48 106//50
f  99//47 104//47 111//2
f  106//50 100//50 113//6
f  107//6 113//6 100//50
f  101//49 108//49 112//52
f  103//51 102//51 110//53
f  109//53 110//53 102//51
f  115//2 111//2 104//47
f  105//52 112//52 108//49
f  111//2 115//2 105//52
f  113//6 107//6 114//54
f  114//54 116//54 109//53
f  110//53 109//53 116//54
f  112//52 105//52 115//2
f  116//54 114//54 107//6

